<svg width="94" height="245" viewBox="0 0 94 245" fill="none" xmlns="http://www.w3.org/2000/svg">
<path d="M64.637 51.1676C64.637 51.1676 86.8847 85.9358 80.0295 112.979C71.475 146.726 28.4857 133.331 18.0463 166.681C9.0472 195.429 13.524 209.453 26.2456 230.471" stroke="#010BFF" stroke-width="3"/>
<path d="M59.685 54.9725C59.685 54.9725 77.6565 81.9783 70.8014 109.021C62.2468 142.768 19.2575 129.374 8.81806 162.724C-0.246387 191.681 1.81426 222.207 18.8167 237.908" stroke="#010BFF" stroke-width="3"/>
<path d="M63.4021 53.407C63.4021 53.407 82.7223 84.4495 75.8671 111.492C67.3125 145.239 24.3233 131.845 13.8838 165.195C4.81938 194.152 10.3608 223.453 27.3633 239.154" stroke="#4ACCF4" stroke-width="5" stroke-linecap="round"/>
<path d="M62.0372 46.3078C61.8646 47.4486 61.921 48.2236 61.3175 49.2105C60.6374 50.3224 59.8987 50.8651 58.8794 51.0057C57.7813 51.1572 57.4 50.2785 56.5458 49.6344C55.5784 48.905 55.0799 48.4053 54.2788 47.4271C53.3634 46.3094 52.9994 45.5028 52.2402 44.2062C51.6267 43.1582 51.4462 42.3949 50.732 41.4596C49.6901 40.0955 48.6143 40.0473 47.4652 38.8236C46.9385 38.2627 46.1259 38.2502 46.1899 37.2886C46.2269 36.7323 46.4202 36.3805 46.742 35.9197C47.4638 34.8864 49.3017 35.1647 49.3017 35.1647C49.3017 35.1647 48.8702 33.3892 48.5786 32.2608C48.2383 30.9441 47.9923 30.24 47.6753 28.9092C47.3645 27.6046 47.2689 26.8285 46.9682 25.5181C46.6928 24.3179 46.5327 23.6477 46.2106 22.476C45.8221 21.0623 45.5279 20.3204 45.119 18.92C44.8955 18.1545 44.56 16.9511 44.56 16.9511C44.56 16.9511 43.682 16.655 43.0908 16.5681C42.2339 16.442 41.7241 16.4764 40.8283 16.586C40.0194 16.6849 39.5544 16.9602 38.7461 17.0517C38.0992 17.1249 37.6712 17.3478 37.107 17.0898C36.5709 16.8446 36.324 16.5149 36.0544 15.8973C35.7102 15.1088 35.8571 14.4411 35.8616 13.4679C35.8668 12.3297 36.2787 11.601 36.1543 10.5056C36.0661 9.7284 35.9132 9.33128 35.6297 8.675C35.2515 7.7992 34.825 7.51939 34.3281 6.75815C33.7788 5.9168 33.4329 5.48157 32.9575 4.56475C32.63 3.93299 32.2467 3.6829 32.1942 2.87877C32.1444 2.11512 32.1362 1.43302 32.6511 0.851455C33.2427 0.183142 33.8007 0.649172 34.4865 0.773967C35.5268 0.963257 35.9517 1.52672 36.8201 2.14524C37.7386 2.79941 38.2167 3.26096 39.0274 4.04362L39.0951 4.10897C40.1525 5.1295 40.7247 5.74027 41.6537 6.93536C42.5839 8.13205 42.9415 8.99452 43.8461 10.2223C44.7638 11.4679 45.3198 12.1175 46.3197 13.2593C47.2753 14.3504 47.8578 14.8981 48.8438 15.9474C49.7558 16.9178 50.2614 17.4699 51.1797 18.4313C52.2177 19.5179 52.8482 20.059 53.8576 21.1853C54.6423 22.0609 55.0763 22.5615 55.809 23.5043C56.4904 24.381 56.9564 24.7906 57.4871 25.8296C57.8212 26.4835 57.8756 26.9655 58.208 27.6209C58.4906 28.178 59.0218 28.958 59.0218 28.958C59.0218 28.958 59.2884 28.2435 59.489 27.7997C59.7649 27.1893 59.7607 26.4136 60.2799 26.2862C60.5887 26.2104 60.7301 26.4075 60.972 26.583C61.3569 26.8623 61.5292 27.132 61.717 27.6435C61.9137 28.1795 61.8871 28.5739 61.8995 29.204C61.9188 30.1873 61.7621 30.776 61.5804 31.7844C61.3825 32.8826 60.9031 34.5818 60.9031 34.5818C60.9031 34.5818 61.1439 35.503 61.2819 36.1029C61.5206 37.1405 61.6585 37.7229 61.8168 38.8025C62.0241 40.2159 62.0807 41.0399 62.1233 42.5158C62.1654 43.9773 62.2645 44.8046 62.0372 46.3078Z" fill="#4ACCF4"/>
<path d="M85.0835 70.7947C85.0835 70.7947 96.8605 97.8575 90.026 121.088C81.4972 150.078 38.7667 150.668 29.0237 179.495C20.6251 204.345 32.6858 213.293 39.3235 229.719" stroke="#4ACCF4" stroke-width="3"/>
<path d="M81.4819 74.4232C81.4819 74.4232 91.087 95.3816 84.2525 118.612C75.7236 147.602 32.2795 144.589 22.5365 173.416C14.0768 198.447 24.1628 222.367 34.0862 233.961" stroke="#4ACCF4" stroke-width="3"/>
<path d="M83.6267 72.3264C83.6267 72.3264 93.7819 96.5383 86.9474 119.769C78.4186 148.758 35.132 147.699 25.389 176.527C16.9293 201.557 28.8558 222.613 38.7791 234.207" stroke="#2C1AF2" stroke-opacity="0.93" stroke-width="5" stroke-linecap="round"/>
<path d="M83.7753 66.9661C83.5642 67.9356 83.5358 68.5784 83.0524 69.4581C82.5078 70.4493 81.9726 70.9697 81.2859 71.1793C80.546 71.4051 80.3682 70.7048 79.8574 70.2434C79.2788 69.7208 78.9912 69.3479 78.5439 68.6024C78.0327 67.7505 77.8603 67.1089 77.4677 66.0932C77.1505 65.2724 77.0959 64.6504 76.7024 63.9329C76.1285 62.8863 75.4203 62.9431 74.7634 62.0237C74.4624 61.6023 73.9254 61.6652 74.0495 60.8553C74.1212 60.3868 74.279 60.0752 74.5312 59.6609C75.0968 58.7318 76.29 58.7986 76.29 58.7986C76.29 58.7986 76.1551 57.353 76.0578 56.4358C75.9443 55.3655 75.8412 54.799 75.7443 53.7148C75.6493 52.6521 75.6519 52.0118 75.5641 50.9433C75.4837 49.9646 75.4346 49.4186 75.3209 48.468C75.1837 47.321 75.0519 46.7273 74.9001 45.5933C74.8171 44.9734 74.6972 43.9974 74.6972 43.9974C74.6972 43.9974 74.141 43.8291 73.757 43.8098C73.2004 43.7818 72.8599 43.8565 72.2576 44.029C71.7137 44.1847 71.3825 44.4569 70.8396 44.6063C70.4051 44.726 70.1028 44.951 69.7512 44.7862C69.417 44.6296 69.2816 44.3762 69.1555 43.8842C68.9946 43.2559 69.1486 42.6843 69.2342 41.8702C69.3343 40.918 69.6688 40.2716 69.6795 39.3669C69.687 38.725 69.6195 38.4067 69.4876 37.8836C69.3115 37.1854 69.053 36.99 68.7886 36.3983C68.4964 35.7444 68.3043 35.4117 68.0675 34.6881C67.9043 34.1894 67.6717 34.0149 67.7053 33.3472C67.7371 32.7132 67.7896 32.1436 68.1799 31.6109C68.6283 30.9987 68.9581 31.338 69.4016 31.3804C70.0742 31.4448 70.3077 31.8776 70.8301 32.3163C71.3826 32.7804 71.66 33.1231 72.1303 33.7044L72.1695 33.7529C72.7829 34.5108 73.1099 34.9698 73.6234 35.8852C74.1377 36.8018 74.3012 37.4907 74.7958 38.4356C75.2976 39.3943 75.6106 39.8873 76.1756 40.7517C76.7156 41.5777 77.0548 41.9831 77.6185 42.7715C78.1398 43.5005 78.4277 43.9165 78.954 44.6375C79.549 45.4523 79.9205 45.8478 80.4931 46.6985C80.9383 47.3598 81.1831 47.7392 81.5881 48.4613C81.9648 49.1329 82.2385 49.4333 82.5017 50.2542C82.6673 50.7708 82.6624 51.1689 82.8269 51.6868C82.9666 52.1271 83.2521 52.7314 83.2521 52.7314C83.2521 52.7314 83.4893 52.1099 83.6598 51.7207C83.8943 51.1854 83.9573 50.5372 84.3119 50.3838C84.5227 50.2926 84.5997 50.4446 84.7449 50.5695C84.976 50.7682 85.0672 50.9782 85.1481 51.389C85.2328 51.8194 85.1817 52.1516 85.1364 52.6773C85.0657 53.4977 84.912 54.0041 84.706 54.8637C84.4817 55.7998 84.0201 57.2638 84.0201 57.2638C84.0201 57.2638 84.1013 58.0123 84.1418 58.5015C84.2117 59.3475 84.2535 59.8221 84.2667 60.7105C84.2839 61.8736 84.2514 62.5575 84.1543 63.7877C84.0581 65.0059 84.0535 65.6886 83.7753 66.9661Z" fill="#2C1AF2" fill-opacity="0.93"/>
</svg>
