<svg width="280" height="193" viewBox="0 0 280 193" fill="none" xmlns="http://www.w3.org/2000/svg">
<path d="M274.852 156.002C274.852 156.002 258.588 169.34 243.789 170.108C230.207 170.813 215.683 173.166 207.135 161.485C198.573 149.786 223.155 146.513 217.504 134.064C212.736 123.56 203.771 118.108 191.895 113.434C177.041 107.587 169.687 115.158 155.19 115.492C146.441 115.694 141.777 117.858 132.649 115.57C120.259 112.463 112.994 106.91 103.784 97.776C89.1131 83.2264 95.9623 70.5015 86.9269 53.5713C78.5154 37.8103 78.2893 21.9328 60.3001 14.6154C46.902 9.16544 35.9633 9.87046 27.1929 16.7492" stroke="#2C1AF2" stroke-opacity="0.93" stroke-width="5" stroke-linecap="round" stroke-dasharray="10 10"/>
<path d="M51.8273 129.216C53.5208 129.607 54.5756 130.138 56.2907 129.777C58.2232 129.371 59.3903 128.547 60.1486 127.06C60.9656 125.459 59.9444 124.368 59.5123 122.685C59.0231 120.778 58.5974 119.725 57.668 117.931C56.6061 115.882 55.6764 114.859 54.2776 112.947C53.1472 111.401 52.1771 110.685 51.26 109.05C49.9223 106.665 50.4472 104.983 49.3655 102.513C48.8697 101.381 49.2997 100.125 47.917 99.6706C47.1172 99.408 46.5178 99.503 45.695 99.7332C43.8497 100.249 43.2276 103.235 43.2276 103.235C43.2276 103.235 40.9776 101.552 39.5571 100.455C37.8996 99.1754 37.0484 98.3927 35.3584 97.1407C33.7018 95.9136 32.667 95.3207 30.9965 94.1057C29.4666 92.9928 28.6156 92.3616 27.1512 91.1933C25.3845 89.7839 24.507 88.9054 22.77 87.4723C21.8206 86.6889 20.3192 85.4818 20.3192 85.4818C20.3192 85.4818 20.3878 83.9618 20.5916 83.0028C20.8868 81.613 21.2158 80.8489 21.8625 79.5347C22.4466 78.3478 23.0883 77.7911 23.6616 76.6009C24.1205 75.6483 24.6685 75.1184 24.6177 74.1027C24.5694 73.1376 24.2433 72.5685 23.5265 71.7993C22.6112 70.8171 21.5948 70.6594 20.2288 70.1073C18.6311 69.4615 17.3833 69.6761 15.9171 68.8556C14.8767 68.2735 14.4044 67.8103 13.641 66.9975C12.6222 65.9129 12.465 65.0965 11.672 63.8951C10.7957 62.5673 10.3764 61.7854 9.35353 60.5279C8.64873 59.6614 8.50939 58.9285 7.4116 58.3858C6.36908 57.8705 5.41786 57.4662 4.31951 57.9236C3.05731 58.4494 3.40303 59.5749 3.20022 60.701C2.89259 62.4092 3.4481 63.3861 3.83649 65.0766C4.24728 66.8646 4.63069 67.8648 5.28084 69.5609L5.33512 69.7025C6.18273 71.9144 6.72338 73.1451 7.88631 75.2598C9.05078 77.3774 10.0623 78.4227 11.2844 80.5188C12.5243 82.6452 13.1284 83.8733 14.1775 86.0665C15.18 88.1624 15.6267 89.3726 16.5539 91.4915C17.4114 93.451 17.9065 94.5455 18.7478 96.5097C19.6987 98.7298 20.1096 100.01 21.1319 102.209C21.9266 103.918 22.389 104.873 23.3065 106.541C24.1597 108.093 24.4769 109.044 25.6405 110.457C26.3727 111.346 27.0181 111.707 27.7533 112.595C28.3783 113.349 29.1786 114.614 29.1786 114.614C29.1786 114.614 28.0306 114.613 27.2984 114.667C26.2912 114.74 25.2067 114.288 24.7423 115.013C24.466 115.444 24.6643 115.775 24.777 116.248C24.9564 117 25.2394 117.42 25.8527 118.002C26.4953 118.613 27.0626 118.798 27.9386 119.179C29.3057 119.774 30.2169 119.871 31.7298 120.171C33.3775 120.498 36.0222 120.737 36.0222 120.737C36.0222 120.737 37.1803 121.636 37.9449 122.193C39.2672 123.156 40.0074 123.703 41.4328 124.566C43.2991 125.697 44.4225 126.257 46.4669 127.171C48.4914 128.075 49.5959 128.702 51.8273 129.216Z" stroke="#4ACCF4" stroke-width="5"/>
</svg>
