<svg width="117" height="252" viewBox="0 0 117 252" fill="none" xmlns="http://www.w3.org/2000/svg">
    <path d="M40.2616 99.017C40.4771 101.671 40.2227 103.436 41.4584 105.829C42.8508 108.524 44.47 109.926 46.8016 110.466C49.3135 111.048 50.3351 109.113 52.4112 107.818C54.7625 106.35 55.9939 105.31 58.0011 103.237C60.2945 100.868 61.2645 99.0952 63.2259 96.2824C64.811 94.0092 65.3502 92.2967 67.1498 90.3034C69.7748 87.396 72.2672 87.5145 75.1176 84.9522C76.424 83.7778 78.3028 83.9222 78.3091 81.7027C78.3127 80.4186 77.9228 79.5704 77.2534 78.445C75.752 75.9209 71.4624 76.168 71.4624 76.168C71.4624 76.168 72.7438 72.1871 73.5982 69.6607C74.5953 66.7127 75.2764 65.1498 76.222 62.1646C77.149 59.2384 77.4943 57.4784 78.3988 54.5364C79.2273 51.842 79.7047 50.3386 80.6363 47.7193C81.7604 44.5593 82.5587 42.9201 83.7277 39.7948C84.3667 38.0865 85.3345 35.3974 85.3345 35.3974C85.3345 35.3974 87.4099 34.9052 88.7893 34.8316C90.7887 34.7249 91.9606 34.9124 94.0118 35.3544C95.8644 35.7536 96.8941 36.4841 98.7463 36.8661C100.229 37.1719 101.181 37.7744 102.526 37.3027C103.804 36.8545 104.427 36.1506 105.148 34.7915C106.07 33.0559 105.837 31.493 105.983 29.2596C106.154 26.6476 105.319 24.8882 105.782 22.4021C106.111 20.638 106.527 19.7596 107.287 18.3145C108.301 16.3861 109.331 15.835 110.601 14.1946C112.004 12.3816 112.873 11.4569 114.118 9.45502C114.976 8.07559 115.901 7.58351 116.151 5.75008C116.389 4.00895 116.517 2.44601 115.421 1.00232C114.162 -0.656729 112.799 0.293477 111.194 0.433692C108.762 0.64637 107.69 1.84843 105.585 3.0823C103.359 4.38733 102.18 5.34427 100.182 6.967L100.016 7.10243C97.4097 9.21824 95.9902 10.4974 93.653 13.041C91.3127 15.588 90.3485 17.4903 88.0623 20.1141C85.743 22.7759 84.3547 24.1478 81.8622 26.5539C79.4803 28.8533 78.0471 29.9856 75.6014 32.1826C73.3396 34.2145 72.0833 35.3732 69.8081 37.3829C67.2364 39.6545 65.6934 40.7614 63.1815 43.1302C61.2289 44.9716 60.1462 46.0275 58.3027 48.0342C56.5885 49.9003 55.4465 50.7404 54.054 53.0109C53.1776 54.4397 52.9747 55.5338 52.1019 56.9664C51.3599 58.1841 50.0078 59.8603 50.0078 59.8603C50.0078 59.8603 49.5066 58.1644 49.1145 57.1038C48.5751 55.6447 48.7093 53.8663 47.5306 53.4634C46.8296 53.2239 46.4712 53.6458 45.8844 53.9969C44.9508 54.5556 44.5095 55.1376 43.9937 56.2711C43.4534 57.4585 43.4516 58.369 43.322 59.8117C43.1197 62.0632 43.3872 63.4471 43.6453 65.7989C43.9263 68.3603 44.7609 72.3601 44.7609 72.3601C44.7609 72.3601 44.0572 74.422 43.6422 75.7687C42.9244 78.098 42.5127 79.4047 41.9739 81.8475C41.2685 85.0456 41.0057 86.9238 40.6707 90.3002C40.339 93.6438 39.9775 95.5203 40.2616 99.017Z"
          fill="#4ACCF4"/>
    <path d="M45.4998 116.999C31.9998 121.999 12.5362 129.557 13.9998 147.999C16.4998 179.499 50.4677 156.319 54.6779 184.406C59.8792 219.106 5.06942 176.751 2.03526 209.573C-0.500183 236.999 41.0001 250.999 41.0001 250.999"
          stroke="#4ACCF4" stroke-width="2"/>
    <path d="M44.6397 122C29.1397 124 13.4999 138 18.6397 150.5M58.9999 181.5C58.9999 226 26 187.5 10.4999 203.5C-10.0219 224.684 44.6397 249.001 44.6397 249.001"
          stroke="#2C1AF2" stroke-opacity="0.93" stroke-width="2"/>
    <circle cx="4" cy="132" r="2" fill="#2C1AF2" fill-opacity="0.93"/>
    <circle cx="38" cy="238" r="2" fill="#2C1AF2" fill-opacity="0.93"/>
    <circle cx="43" cy="216" r="4" fill="#2C1AF2" fill-opacity="0.93"/>
    <circle cx="6" cy="149" r="4" fill="#2C1AF2" fill-opacity="0.93"/>
    <circle cx="14" cy="191" r="2" fill="#2C1AF2" fill-opacity="0.93"/>
    <circle cx="47" cy="157" r="2" fill="#010BFF"/>
</svg>
