<svg width="305" height="1268" viewBox="0 0 305 1268" fill="none" xmlns="http://www.w3.org/2000/svg">
<g filter="url(#filter0_b_287_210)">
<path d="M98.5763 246C98.5763 246 67.0211 351.245 65.0762 418.5C62.7982 497.275 128.122 506.968 114.001 584.5C101.343 654 54.5 726.5 65.0762 804.5C74.745 875.808 123.924 866.5 103 917C84.6883 961.196 98.5763 1086.5 98.5763 1086.5" stroke="#0500FF" stroke-width="10"/>
</g>
<g filter="url(#filter1_b_287_210)">
<path d="M107.576 247C107.576 247 76.021 352.245 74.0761 419.5C71.7981 498.275 133.621 517.968 119.5 595.5C106.842 665 74.0763 705.311 74.0761 786C74.076 856 131 875.5 112.5 919C93.7771 963.023 107.576 1087.5 107.576 1087.5" stroke="white" stroke-width="7"/>
</g>
<path d="M44.8798 211.915C44.8794 217.085 43.871 220.607 46.5092 225.053C49.4819 230.063 53.2955 232.484 59.0918 233.064C65.3364 233.689 68.3232 229.678 73.8501 226.705C80.1096 223.338 83.4439 221.04 88.9563 216.553C95.2551 211.426 98.0779 207.743 103.627 201.813C108.111 197.02 109.83 193.544 114.8 189.257C122.049 183.003 128.34 182.723 136.09 177.101C139.641 174.525 144.372 174.422 144.845 170.059C145.119 167.536 144.306 165.949 142.841 163.876C139.557 159.226 128.638 160.595 128.638 160.595C128.638 160.595 132.704 152.509 135.39 147.369C138.523 141.371 140.571 138.16 143.581 132.1C146.533 126.159 147.77 122.63 150.668 116.663C153.322 111.199 154.841 108.146 157.741 102.808C161.24 96.3676 163.6 92.9824 167.205 86.601C169.176 83.1128 172.182 77.6298 172.182 77.6298C172.182 77.6298 177.542 76.2352 181.052 75.8065C186.14 75.1852 189.07 75.3122 194.176 75.7582C198.788 76.161 201.246 77.3843 205.861 77.7533C209.554 78.0487 211.843 79.0365 215.347 77.8327C218.676 76.6889 220.4 75.1774 222.508 72.3584C225.2 68.7584 224.934 65.7354 225.763 61.3172C226.733 56.1499 224.981 52.865 226.666 47.8846C227.861 44.3509 229.098 42.5391 231.321 39.5432C234.287 35.5453 237.01 34.2505 240.565 30.7659C244.495 26.9145 246.886 24.9187 250.453 20.7289C252.91 17.8419 255.356 16.6844 256.368 13.0305C257.328 9.56056 257.975 6.46323 255.496 3.85232C252.647 0.851938 248.997 2.99975 244.904 3.60562C238.696 4.5246 235.733 7.10718 230.145 9.96508C224.236 12.9877 221.054 15.1106 215.657 18.7105L215.207 19.0111C208.169 23.705 204.308 26.5108 197.863 31.9899C191.409 37.4764 188.574 41.4127 182.241 47.0388C175.817 52.7465 172.017 55.7279 165.206 60.9689C158.698 65.9774 154.833 68.4975 148.184 73.318C142.035 77.7761 138.613 80.3116 132.435 84.729C125.451 89.722 121.314 92.2146 114.461 97.3863C109.135 101.406 106.175 103.704 101.09 108.027C96.3627 112.046 93.2962 113.932 89.3005 118.68C86.7859 121.668 86.0464 123.86 83.5398 126.854C81.4092 129.4 77.6383 132.971 77.6383 132.971C77.6383 132.971 76.7178 129.743 75.9427 127.739C74.8765 124.984 75.5827 121.462 72.6793 120.913C70.9525 120.587 69.9576 121.489 68.3985 122.3C65.9181 123.59 64.6801 124.825 63.1399 127.158C61.5264 129.602 61.3343 131.392 60.7088 134.253C59.7325 138.718 60.1253 141.383 60.2947 145.95C60.4792 150.925 61.77 158.612 61.77 158.612C61.77 158.612 59.5622 162.808 58.2334 165.54C55.9352 170.265 54.6229 172.917 52.7546 177.827C50.3086 184.256 49.2559 188.001 47.7118 194.704C46.1827 201.342 44.8803 205.104 44.8798 211.915Z" fill="#4ACCF4"/>
<g filter="url(#filter2_d_287_210)">
<path d="M176.878 1251.74C179.932 1252.34 181.944 1253.45 184.751 1252.16C187.913 1250.72 189.604 1248.39 190.341 1244.49C191.137 1240.28 188.97 1237.77 187.591 1233.63C186.028 1228.95 184.898 1226.4 182.623 1222.09C180.024 1217.18 178.04 1214.81 174.915 1210.31C172.389 1206.68 170.453 1205.1 168.259 1201.19C165.059 1195.49 165.322 1191.15 162.529 1185.18C161.249 1182.44 161.51 1179.19 158.965 1178.36C157.493 1177.87 156.501 1178.24 155.176 1179C152.205 1180.7 152.269 1188.34 152.269 1188.34C152.269 1188.34 147.769 1184.61 144.916 1182.17C141.586 1179.32 139.828 1177.54 136.453 1174.76C133.145 1172.04 131.144 1170.78 127.817 1168.1C124.769 1165.64 123.069 1164.24 120.113 1161.62C116.547 1158.47 114.708 1156.46 111.184 1153.24C109.257 1151.48 106.223 1148.78 106.223 1148.78C106.223 1148.78 105.764 1144.94 105.75 1142.49C105.73 1138.93 106.005 1136.94 106.617 1133.49C107.169 1130.38 108.059 1128.84 108.592 1125.72C109.018 1123.23 109.758 1121.78 109.286 1119.24C108.837 1116.82 108.062 1115.46 106.54 1113.69C104.597 1111.42 102.792 1111.25 100.239 1110.16C97.252 1108.89 95.1918 1109.71 92.3644 1107.97C90.3582 1106.73 89.3721 1105.67 87.7538 1103.8C85.5941 1101.3 85.0147 1099.28 83.1984 1096.44C81.191 1093.29 80.175 1091.42 77.9428 1088.49C76.4048 1086.46 75.8877 1084.65 73.798 1083.53C71.8134 1082.47 70.0276 1081.66 68.3161 1083.05C66.3492 1084.65 67.3693 1087.4 67.4482 1090.28C67.5678 1094.64 68.8916 1096.97 70.199 1101.13C71.5819 1105.53 72.6191 1107.96 74.3779 1112.08L74.5248 1112.42C76.8181 1117.8 78.2125 1120.77 81.0101 1125.83C83.8114 1130.89 85.9436 1133.3 88.8357 1138.29C91.7697 1143.36 93.2721 1146.32 95.904 1151.6C98.4193 1156.64 99.6446 1159.59 102.039 1164.71C104.254 1169.44 105.518 1172.08 107.707 1176.83C110.181 1182.2 111.371 1185.33 113.959 1190.63C115.971 1194.75 117.127 1197.05 119.334 1201.04C121.386 1204.75 122.291 1207.07 124.824 1210.36C126.418 1212.44 127.662 1213.2 129.26 1215.27C130.619 1217.03 132.472 1220.03 132.472 1220.03C132.472 1220.03 130.502 1220.28 129.265 1220.58C127.565 1220.98 125.532 1220.08 125.01 1222.01C124.699 1223.15 125.165 1223.94 125.538 1225.1C126.131 1226.95 126.775 1227.95 128.049 1229.28C129.383 1230.67 130.427 1231.01 132.075 1231.77C134.646 1232.97 136.247 1233.01 138.957 1233.43C141.909 1233.89 146.539 1233.91 146.539 1233.91C146.539 1233.91 148.867 1235.91 150.39 1237.14C153.025 1239.27 154.502 1240.48 157.276 1242.34C160.907 1244.77 163.048 1245.93 166.903 1247.78C170.72 1249.6 172.854 1250.94 176.878 1251.74Z" fill="#4ACCF4" fill-opacity="0.8" shape-rendering="crispEdges"/>
</g>
<circle cx="94" cy="524" r="6" fill="#2C1AF2" fill-opacity="0.93"/>
<circle cx="107" cy="599" r="4" fill="#2C1AF2" fill-opacity="0.93"/>
<circle cx="82" cy="693" r="5" fill="#2C1AF2" fill-opacity="0.93"/>
<circle cx="96" cy="54" r="7" fill="#2C1AF2" fill-opacity="0.93"/>
<g filter="url(#filter3_d_287_210)">
<path d="M115.569 213C115.569 213 107.432 228.122 102.485 238.122C102.485 238.122 94.4468 249.562 92.454 259.278C92.454 259.278 92.454 274.186 92.454 283.739M58 356.461C58 356.461 64.0162 371.917 64.0162 382.244C64.0162 394.637 69.0497 403.94 73.1758 414.639C76.3048 422.752 64.9979 434.735 70.9952 437.117M102.485 506.533C102.485 506.533 101.283 516.869 102.485 523.061L115.569 542.894C115.569 542.894 120.884 552.162 124.29 558.1M115.569 665.2C115.569 665.2 104.757 680.094 102.485 692.967V718.089C102.485 718.089 96.3713 732.191 92.454 741.228M121.586 772.961C121.586 772.961 124.659 796.601 121.586 806.678C118.701 816.136 128.832 823.664 125.947 833.122C122.874 843.199 125.926 852.795 129 862.872M74.0481 878.739C74.0481 878.739 65.7617 900.743 65.7617 908.489C65.7617 919.591 74.0481 926.476 74.0481 937.578M125.947 961.378C125.947 961.378 111.154 984.616 106.758 993.772C101.87 1003.95 92.6029 994.107 90.6209 1006.33C90.6209 1006.33 101.088 1033.87 101.088 1046" stroke="#958EE8" stroke-opacity="0.93" stroke-width="5" stroke-linecap="round" stroke-dasharray="10 10" shape-rendering="crispEdges"/>
</g>
<defs>
<filter id="filter0_b_287_210" x="-341.465" y="-155.434" width="862.467" height="1642.48" filterUnits="userSpaceOnUse" color-interpolation-filters="sRGB">
<feFlood flood-opacity="0" result="BackgroundImageFix"/>
<feGaussianBlur in="BackgroundImageFix" stdDeviation="200"/>
<feComposite in2="SourceAlpha" operator="in" result="effect1_backgroundBlur_287_210"/>
<feBlend mode="normal" in="SourceGraphic" in2="effect1_backgroundBlur_287_210" result="shape"/>
</filter>
<filter id="filter1_b_287_210" x="-329.485" y="-154.003" width="854.584" height="1641.89" filterUnits="userSpaceOnUse" color-interpolation-filters="sRGB">
<feFlood flood-opacity="0" result="BackgroundImageFix"/>
<feGaussianBlur in="BackgroundImageFix" stdDeviation="200"/>
<feComposite in2="SourceAlpha" operator="in" result="effect1_backgroundBlur_287_210"/>
<feBlend mode="normal" in="SourceGraphic" in2="effect1_backgroundBlur_287_210" result="shape"/>
</filter>
<filter id="filter2_d_287_210" x="57.114" y="1076.31" width="143.398" height="190.448" filterUnits="userSpaceOnUse" color-interpolation-filters="sRGB">
<feFlood flood-opacity="0" result="BackgroundImageFix"/>
<feColorMatrix in="SourceAlpha" type="matrix" values="0 0 0 0 0 0 0 0 0 0 0 0 0 0 0 0 0 0 127 0" result="hardAlpha"/>
<feOffset dy="4"/>
<feGaussianBlur stdDeviation="5"/>
<feComposite in2="hardAlpha" operator="out"/>
<feColorMatrix type="matrix" values="0 0 0 0 0.170683 0 0 0 0 0.102917 0 0 0 0 0.95 0 0 0 1 0"/>
<feBlend mode="normal" in2="BackgroundImageFix" result="effect1_dropShadow_287_210"/>
<feBlend mode="normal" in="SourceGraphic" in2="effect1_dropShadow_287_210" result="shape"/>
</filter>
<filter id="filter3_d_287_210" x="51.4993" y="210.5" width="84.0013" height="846" filterUnits="userSpaceOnUse" color-interpolation-filters="sRGB">
<feFlood flood-opacity="0" result="BackgroundImageFix"/>
<feColorMatrix in="SourceAlpha" type="matrix" values="0 0 0 0 0 0 0 0 0 0 0 0 0 0 0 0 0 0 127 0" result="hardAlpha"/>
<feOffset dy="4"/>
<feGaussianBlur stdDeviation="2"/>
<feComposite in2="hardAlpha" operator="out"/>
<feColorMatrix type="matrix" values="0 0 0 0 0 0 0 0 0 0 0 0 0 0 0 0 0 0 0.25 0"/>
<feBlend mode="normal" in2="BackgroundImageFix" result="effect1_dropShadow_287_210"/>
<feBlend mode="normal" in="SourceGraphic" in2="effect1_dropShadow_287_210" result="shape"/>
</filter>
</defs>
</svg>
