<svg width="146" height="144" viewBox="0 0 146 144" fill="none" xmlns="http://www.w3.org/2000/svg">
    <g filter="url(#filter0_d_0_1)">
        <path d="M103.1 125.029C105.289 125.45 106.729 126.222 108.744 125.311C111.015 124.285 112.232 122.644 112.771 119.897C113.351 116.938 111.803 115.172 110.824 112.267C109.715 108.976 108.91 107.182 107.29 104.161C105.437 100.708 104.021 99.0485 101.791 95.8922C99.988 93.3413 98.6034 92.2306 97.0396 89.4866C94.7586 85.4843 94.9576 82.4293 92.9693 78.2373C92.058 76.316 92.2532 74.0275 90.4304 73.4451C89.3759 73.1081 88.6633 73.3712 87.7117 73.9086C85.5773 75.1139 85.6053 80.4883 85.6053 80.4883C85.6053 80.4883 82.3879 77.8714 80.3477 76.1596C77.967 74.162 76.7111 72.9142 74.2978 70.9707C71.9321 69.0656 70.5006 68.1825 68.1211 66.3011C65.9419 64.5779 64.7265 63.5977 62.6132 61.7663C60.0635 59.5567 58.7497 58.1439 56.2304 55.8877C54.8533 54.6544 52.6841 52.7601 52.6841 52.7601C52.6841 52.7601 52.3644 50.0634 52.3602 48.3366C52.3542 45.8339 52.5559 44.4315 53.0026 42.0066C53.406 39.8166 54.048 38.7309 54.4373 36.5368C54.7488 34.7807 55.2826 33.7573 54.95 31.9706C54.6339 30.273 54.0812 29.3193 52.9943 28.0742C51.6063 26.4841 50.3132 26.367 48.4848 25.6085C46.3463 24.7213 44.8673 25.2988 42.8441 24.0821C41.4086 23.2188 40.7041 22.4755 39.5482 21.1607C38.0056 19.4061 37.595 17.9886 36.2994 15.9918C34.8675 13.7849 34.1435 12.47 32.55 10.4107C31.4519 8.99165 31.0855 7.71866 29.5898 6.93433C28.1694 6.18949 26.8909 5.62616 25.6605 6.60907C24.2465 7.73861 24.9713 9.6724 25.0211 11.6945C25.0966 14.7615 26.0402 16.3994 26.9678 19.3247C27.9489 22.4186 28.6869 24.125 29.9382 27.0186L30.0427 27.2602C31.6742 31.0339 32.667 33.1224 34.6609 36.6743C36.6575 40.2309 38.1806 41.9171 40.2424 45.4265C42.3341 48.9869 43.4043 51.0607 45.2789 54.7693C47.0704 58.3133 47.942 60.3807 49.6468 63.9772C51.2234 67.3033 52.124 69.1586 53.6819 72.4955C55.4428 76.2672 56.289 78.464 58.1322 82.187C59.565 85.081 60.3881 86.6946 61.9611 89.4963C63.4239 92.1016 64.0675 93.7329 65.8755 96.0446C67.0134 97.4994 67.9037 98.0338 69.0448 99.4853C70.0147 100.719 71.3363 102.827 71.3363 102.827C71.3363 102.827 69.9229 103.008 69.0358 103.219C67.8154 103.509 66.3602 102.883 65.9813 104.238C65.7559 105.043 66.0878 105.596 66.3523 106.414C66.7731 107.714 67.2332 108.411 68.1431 109.343C69.0964 110.319 69.8441 110.557 71.0238 111.091C72.8648 111.924 74.0124 111.952 75.9545 112.241C78.0698 112.556 81.3891 112.558 81.3891 112.558C81.3891 112.558 83.0539 113.963 84.1431 114.826C86.027 116.317 87.0835 117.165 89.0679 118.465C91.6659 120.166 93.1978 120.978 95.9573 122.266C98.6901 123.543 100.217 124.476 103.1 125.029Z"
              fill="#4ACCF4" fill-opacity="0.8" shape-rendering="crispEdges"/>
    </g>
    <circle cx="4" cy="54" r="4" fill="#D9D9D9"/>
    <circle cx="4" cy="54" r="4" fill="#4ACCF4"/>
    <circle cx="122" cy="31" r="4" fill="#4ACCF4"/>
    <circle cx="140" cy="124" r="6" fill="#2C1AF2" fill-opacity="0.93"/>
    <circle cx="128" cy="48" r="6" fill="#2C1AF2" fill-opacity="0.93"/>
    <circle cx="52" cy="130" r="6" fill="#2C1AF2" fill-opacity="0.93"/>
    <circle cx="6" cy="15" r="6" fill="#2C1AF2" fill-opacity="0.93"/>
    <circle cx="78" cy="140" r="4" fill="#4ACCF4"/>
    <defs>
        <filter id="filter0_d_0_1" x="14.7914" y="0.0834961" width="108.106" height="139.653"
                filterUnits="userSpaceOnUse" color-interpolation-filters="sRGB">
            <feFlood flood-opacity="0" result="BackgroundImageFix"/>
            <feColorMatrix in="SourceAlpha" type="matrix" values="0 0 0 0 0 0 0 0 0 0 0 0 0 0 0 0 0 0 127 0"
                           result="hardAlpha"/>
            <feOffset dy="4"/>
            <feGaussianBlur stdDeviation="5"/>
            <feComposite in2="hardAlpha" operator="out"/>
            <feColorMatrix type="matrix" values="0 0 0 0 0.170683 0 0 0 0 0.102917 0 0 0 0 0.95 0 0 0 1 0"/>
            <feBlend mode="normal" in2="BackgroundImageFix" result="effect1_dropShadow_0_1"/>
            <feBlend mode="normal" in="SourceGraphic" in2="effect1_dropShadow_0_1" result="shape"/>
        </filter>
    </defs>
</svg>
