<svg width="38" height="45" viewBox="0 0 38 45" fill="none" xmlns="http://www.w3.org/2000/svg">
<path d="M37.9554 20.6563C37.89 20.4158 37.7573 20.193 37.569 20.0078C37.3807 19.8226 37.1427 19.6807 36.8761 19.5947L24.4407 15.5414L27.6051 1.78746C27.6768 1.46789 27.6269 1.13674 27.4629 0.843984C27.299 0.551225 27.0299 0.312741 26.6963 0.164519C26.3627 0.0162971 25.9827 -0.0336199 25.6136 0.0223005C25.2444 0.078221 24.9063 0.236945 24.6501 0.47452L0.474279 22.982C0.277925 23.1618 0.135881 23.3811 0.0608365 23.6202C-0.0142082 23.8593 -0.0199164 24.1109 0.0442223 24.3524C0.108361 24.5939 0.240349 24.8178 0.428393 25.0042C0.616438 25.1905 0.854684 25.3335 1.12184 25.4204L13.5616 29.4736L10.4058 43.2125C10.3341 43.5321 10.384 43.8633 10.548 44.156C10.7119 44.4488 10.981 44.6873 11.3146 44.8355C11.6482 44.9837 12.0282 45.0336 12.3973 44.9777C12.7665 44.9218 13.1046 44.7631 13.3608 44.5255L37.5366 22.018C37.7294 21.8381 37.8684 21.6199 37.9415 21.3825C38.0145 21.1451 38.0193 20.8957 37.9554 20.6563ZM14.9841 38.6304L17.2441 28.8059C17.325 28.4574 17.2609 28.0954 17.0632 27.7841C16.8656 27.4729 16.5472 27.2328 16.1648 27.1065L4.75901 23.3834L23.0247 6.37899L20.7668 16.2035C20.6859 16.552 20.75 16.914 20.9477 17.2252C21.1453 17.5364 21.4637 17.7766 21.8461 17.9028L33.2433 21.6166L14.9841 38.6304Z" fill="#4ACCF4"/>
</svg>
