<svg width="117" height="146" viewBox="0 0 117 146" fill="none" xmlns="http://www.w3.org/2000/svg">
<path d="M100.466 3.55295C105.853 4.00118 114.024 5.75278 114.024 5.75278C114.024 5.75278 113.929 12.157 112.799 16.1586C111.279 21.5462 109.168 24.2732 106.056 29.0545C102.35 34.7478 99.8497 37.7712 94.9663 42.4938C89.297 47.9765 85.4976 50.4128 78.8296 54.4403C72.8085 58.077 68.9857 59.085 62.7878 62.3357C56.6104 65.5757 52.7893 66.8017 47.1516 71.0517C41.8333 75.0608 38.7541 77.5616 34.8836 83.0328C31.5652 87.7235 28.6163 90.65 28.3976 96.1413C28.2329 100.276 29.9009 102.237 31.3898 105.897C33.1571 110.242 34.2505 112.708 37.0298 116.381C41.1456 121.819 50.4264 127.435 50.4264 127.435C50.4264 127.435 42.5592 126.038 37.6033 124.87C31.4065 123.409 21.9654 120.468 21.9654 120.468C21.9654 120.468 21.8811 131.514 17.4594 136.425C13.428 140.902 3.72147 142.578 3.72147 142.578L8.05598 128.665L12.6908 112.815C12.6908 112.815 8.47207 105.167 7.07437 99.6788C5.64273 94.0572 5.30958 90.6329 5.62703 84.6392C5.98218 77.9337 7.27801 74.1171 9.34099 67.543C11.3007 61.2979 13.1381 57.9921 15.7313 51.9265C17.5232 47.7353 20.4383 41.2365 20.4383 41.2365L10.5197 33.0521C10.5197 33.0521 17.7698 27.5185 22.8024 24.7267C29.1778 21.1898 32.3042 18.7218 39.8747 17.6815C47.4452 16.6413 48.151 15.5234 56.3221 10.6065C64.4931 5.68965 71.7247 5.1342 81.7665 3.9113C89.1015 3.01804 93.2669 2.9539 100.466 3.55295Z" stroke="#4ACCF4" stroke-width="5"/>
</svg>
