<svg width="1147" height="2301" viewBox="0 0 1147 2301" fill="none" xmlns="http://www.w3.org/2000/svg">
<path d="M477.115 975.521C477.115 975.521 583.894 1064.09 589.145 1159.9C595.698 1279.46 419.917 1308.64 419.999 1429C420.069 1532.76 455.792 1552.15 517.999 1606.5" stroke="#010BFF" stroke-width="5"/>
<path d="M465.014 993.446C465.014 993.446 550.178 1061.47 555.429 1157.28C561.983 1276.84 383.919 1307.63 384.001 1428C384.072 1532.51 439.999 1588.5 507.499 1624.5" stroke="#010BFF" stroke-width="5"/>
<path d="M472.326 983.011C472.326 983.011 565.913 1062.7 571.164 1158.5C577.717 1278.06 401.918 1308.63 402 1429C402.071 1533.51 445.499 1572 512.999 1614.5" stroke="#4ACCF4" stroke-width="8" stroke-linecap="round"/>
<path d="M463.834 962.576C464.432 966.488 465.396 968.952 464.45 972.842C463.383 977.225 461.553 979.818 458.413 981.412C455.029 983.129 452.914 980.689 449.512 979.541C445.66 978.241 443.549 977.167 439.981 974.87C435.904 972.246 433.916 970.022 430.161 966.64C427.126 963.907 425.774 961.619 422.529 959.366C417.795 956.079 414.282 957.12 409.345 954.411C407.082 953.169 404.452 954.034 403.687 950.827C403.244 948.972 403.511 947.61 404.082 945.749C405.362 941.576 411.562 940.435 411.562 940.435C411.562 940.435 408.378 935.127 406.299 931.773C403.872 927.859 402.368 925.837 400.003 921.852C397.684 917.945 396.591 915.521 394.299 911.583C392.199 907.977 391.006 905.97 388.785 902.509C386.105 898.333 384.408 896.241 381.676 892.131C380.183 889.885 377.887 886.335 377.887 886.335C377.887 886.335 374.76 886.348 372.768 886.723C369.881 887.267 368.274 887.947 365.5 889.302C362.995 890.526 361.776 891.941 359.266 893.14C357.256 894.1 356.103 895.304 354.026 895.091C352.051 894.889 350.923 894.089 349.431 892.376C347.526 890.188 347.324 887.848 346.355 884.67C345.222 880.953 345.812 878.118 344.304 874.685C343.235 872.25 342.341 871.125 340.765 869.301C338.662 866.867 337.006 866.43 334.636 864.502C332.017 862.371 330.463 861.337 328.006 858.878C326.313 857.183 324.826 856.794 323.844 854.231C322.912 851.797 322.197 849.582 323.267 847.112C324.497 844.274 326.765 845.172 329.099 844.815C332.641 844.273 334.578 845.636 338 846.685C341.619 847.795 343.625 848.767 347.027 850.416L347.311 850.553C351.747 852.702 354.207 854.056 358.406 856.918C362.611 859.783 364.634 862.196 368.788 865.192C373.002 868.23 375.449 869.729 379.823 872.337C384.003 874.83 386.432 875.967 390.668 878.289C394.585 880.437 396.771 881.674 400.7 883.785C405.141 886.171 407.718 887.233 412.107 889.781C415.518 891.761 417.422 892.91 420.734 895.167C423.814 897.267 425.729 898.083 428.488 900.879C430.225 902.639 430.887 904.15 432.62 905.916C434.093 907.418 436.592 909.369 436.592 909.369C436.592 909.369 436.728 906.742 436.926 905.072C437.197 902.774 436.4 900.25 437.943 899.256C438.861 898.665 439.516 899.15 440.472 899.452C441.993 899.934 442.821 900.622 443.943 902.08C445.118 903.608 445.431 904.924 446.107 906.964C447.163 910.149 447.253 912.243 447.687 915.733C448.16 919.534 448.333 925.608 448.333 925.608C448.333 925.608 450.039 928.344 451.09 930.146C452.907 933.263 453.94 935.008 455.54 938.352C457.636 942.729 458.651 945.353 460.28 950.117C461.892 954.835 463.047 957.422 463.834 962.576Z" fill="#4ACCF4"/>
<path d="M428.923 184.527C428.923 184.527 508.529 309.512 482.345 407.819C449.669 530.496 293.489 483.902 253.958 605.225C219.881 709.808 235.592 760.425 281.062 836.014" stroke="#010BFF" stroke-width="5"/>
<path d="M410.697 198.539C410.697 198.539 475.049 295.588 448.865 393.895C416.19 516.572 260.01 469.978 220.479 591.301C186.154 696.644 192.33 807.169 253.644 863.297" stroke="#010BFF" stroke-width="5"/>
<path d="M421.58 190.471C421.58 190.471 490.673 302.088 464.489 400.394C431.814 523.072 275.634 476.477 236.102 597.8C201.778 703.143 220.701 809.073 282.015 865.202" stroke="#4ACCF4" stroke-width="8" stroke-linecap="round"/>
<path d="M419.655 167.037C418.976 171.179 419.148 173.985 416.904 177.588C414.375 181.648 411.657 183.648 407.934 184.204C403.923 184.802 402.571 181.635 399.484 179.34C395.989 176.741 394.193 174.952 391.314 171.444C388.025 167.435 386.733 164.529 384.021 159.864C381.83 156.094 381.205 153.336 378.642 149.98C374.902 145.083 370.981 144.957 366.844 140.575C364.948 138.566 361.986 138.558 362.261 135.07C362.421 133.053 363.141 131.769 364.335 130.085C367.012 126.308 373.702 127.233 373.702 127.233C373.702 127.233 372.206 120.819 371.192 116.743C370.009 111.987 369.143 109.446 368.045 104.638C366.969 99.9248 366.654 97.1167 365.615 92.3816C364.664 88.045 364.109 85.6234 362.986 81.3919C361.631 76.2867 360.591 73.6115 359.161 68.5554C358.38 65.7916 357.209 61.4459 357.209 61.4459C357.209 61.4459 354.02 60.4127 351.868 60.1242C348.749 59.7062 346.888 59.8539 343.617 60.2913C340.663 60.6864 338.955 61.705 336.004 62.0731C333.641 62.3676 332.071 63.1949 330.025 62.2854C328.08 61.4212 327.194 60.2373 326.238 58.0118C325.018 55.1698 325.583 52.7436 325.642 49.2168C325.711 45.092 327.245 42.4327 326.839 38.469C326.551 35.6566 326.011 34.2244 325.006 31.859C323.665 28.7025 322.123 27.7078 320.344 24.9717C318.378 21.9477 317.135 20.3862 315.442 17.0854C314.275 14.8108 312.889 13.9219 312.732 11.0103C312.584 8.24526 312.584 5.77387 314.487 3.64317C316.674 1.19463 318.688 2.85818 321.184 3.2794C324.969 3.91831 326.494 5.94096 329.633 8.14305C332.954 10.4721 334.678 12.123 337.6 14.9226L337.844 15.1563C341.655 18.8066 343.715 20.994 347.05 25.2827C350.39 29.5771 351.656 32.6864 354.901 37.0946C358.193 41.5668 360.192 43.8959 363.788 47.988C367.225 51.8987 369.325 53.8571 372.875 57.615C376.158 61.0903 377.977 63.0681 381.284 66.5103C385.022 70.4011 387.297 72.3333 390.929 76.3693C393.752 79.5066 395.312 81.301 397.943 84.6844C400.389 87.8307 402.071 89.2937 403.961 93.0349C405.15 95.3894 405.327 97.1336 406.511 99.4935C407.517 101.499 409.42 104.302 409.42 104.302C409.42 104.302 410.424 101.701 411.175 100.084C412.208 97.8589 412.226 95.0484 414.125 94.5631C415.254 94.2746 415.762 94.9823 416.636 95.6075C418.027 96.602 418.644 97.5717 419.306 99.4169C420 101.35 419.886 102.781 419.903 105.063C419.931 108.626 419.333 110.766 418.626 114.428C417.856 118.417 416.034 124.596 416.034 124.596C416.034 124.596 416.872 127.923 417.349 130.091C418.174 133.84 418.651 135.945 419.181 139.85C419.875 144.962 420.045 147.946 420.136 153.292C420.225 158.586 420.55 161.579 419.655 167.037Z" fill="#4ACCF4"/>
<path d="M731.819 1626.41C731.819 1626.41 871.016 1631.76 929.505 1703.07C1002.49 1792.06 877.951 1885.65 945.989 1979.11C1004.64 2059.67 1051.52 2074.33 1134.17 2079.59" stroke="#010BFF" stroke-width="5"/>
<path d="M731.832 1647.52C731.832 1647.52 841.374 1649.76 899.863 1721.07C972.851 1810.06 846.461 1914.04 914.499 2007.5C973.576 2088.65 1072 2119 1152.5 2119" stroke="#010BFF" stroke-width="5"/>
<path d="M732.047 1635.07C732.047 1635.07 855.208 1641.37 913.696 1712.68C986.685 1801.66 862.143 1895.25 930.181 1988.71C989.257 2069.86 1079.35 2111.08 1156.54 2094.17" stroke="#4ACCF4" stroke-width="8" stroke-linecap="round"/>
<path d="M713.417 1624.24C716.124 1626.93 718.321 1628.27 719.728 1631.85C721.312 1635.89 721.247 1638.99 719.525 1642.1C717.669 1645.44 714.524 1644.8 711.034 1645.93C707.083 1647.21 704.714 1647.63 700.437 1647.97C695.549 1648.35 692.633 1647.8 687.588 1647.41C683.509 1647.09 681.088 1646.11 677.105 1646.29C671.296 1646.55 668.95 1649.45 663.296 1650.28C660.705 1650.66 658.997 1652.89 656.547 1650.85C655.129 1649.68 654.583 1648.46 654.009 1646.67C652.721 1642.67 657.256 1638.1 657.256 1638.1C657.256 1638.1 651.599 1635.87 647.968 1634.5C643.732 1632.9 641.334 1632.22 637.107 1630.53C632.964 1628.88 630.683 1627.64 626.545 1625.94C622.755 1624.39 620.626 1623.54 616.816 1622.17C612.219 1620.52 609.621 1619.9 605.019 1618.33C602.503 1617.47 598.58 1616.08 598.58 1616.08C598.58 1616.08 595.976 1617.95 594.524 1619.42C592.42 1621.56 591.462 1623.05 589.911 1625.75C588.509 1628.19 588.291 1630.01 586.871 1632.43C585.734 1634.37 585.451 1635.99 583.596 1637.06C581.833 1638.08 580.439 1638.13 578.225 1637.68C575.399 1637.12 573.909 1635.42 571.305 1633.52C568.259 1631.31 567.151 1628.76 563.954 1626.99C561.685 1625.73 560.304 1625.39 557.957 1624.91C554.826 1624.26 553.196 1624.91 550.129 1624.82C546.738 1624.72 544.856 1624.84 541.415 1624.39C539.044 1624.08 537.583 1624.66 535.315 1623.25C533.162 1621.92 531.314 1620.62 530.813 1618.07C530.238 1615.13 532.639 1614.48 534.387 1612.82C537.038 1610.29 539.427 1610.2 542.877 1608.98C546.526 1607.69 548.75 1607.25 552.523 1606.51L552.837 1606.45C557.756 1605.49 560.575 1605.08 565.698 1604.8C570.828 1604.53 573.881 1605.2 579.041 1605.06C584.277 1604.92 587.167 1604.63 592.293 1604.06C597.191 1603.51 599.862 1602.95 604.711 1602.24C609.196 1601.58 611.72 1601.24 616.194 1600.55C621.25 1599.76 624.002 1599.05 629.107 1598.43C633.074 1597.94 635.313 1597.7 639.354 1597.48C643.112 1597.28 645.172 1596.78 649.055 1597.31C651.499 1597.65 652.906 1598.43 655.35 1598.77C657.428 1599.06 660.618 1599.09 660.618 1599.09C660.618 1599.09 659.248 1596.97 658.47 1595.56C657.399 1593.61 655.308 1592.12 656.036 1590.43C656.468 1589.43 657.289 1589.42 658.259 1589.08C659.801 1588.55 660.881 1588.6 662.641 1589.06C664.486 1589.55 665.49 1590.39 667.207 1591.57C669.887 1593.42 671.145 1594.99 673.478 1597.45C676.019 1600.12 679.594 1604.73 679.594 1604.73C679.594 1604.73 682.564 1605.84 684.459 1606.62C687.737 1607.96 689.585 1608.7 692.81 1610.35C697.032 1612.51 699.362 1613.94 703.412 1616.67C707.423 1619.38 709.849 1620.7 713.417 1624.24Z" fill="#4ACCF4"/>
<path d="M507.809 241.207C507.809 241.207 553.511 341.023 527.766 426.355C495.638 532.842 331.787 534.134 295 639.999C263.289 731.258 309.718 764.427 335.5 825" stroke="#4ACCF4" stroke-width="5"/>
<path d="M494.069 254.484C494.069 254.484 531.321 331.794 505.575 417.127C473.448 523.613 306.787 511.634 270 617.5C238.059 709.421 277.214 797.639 315.5 840.499" stroke="#4ACCF4" stroke-width="5"/>
<path d="M502.25 246.81C502.25 246.81 541.677 336.102 515.931 421.435C483.804 527.921 317.787 523.134 281 629C249.058 720.921 295.214 798.639 333.5 841.5" stroke="#2C1AF2" stroke-opacity="0.93" stroke-width="8" stroke-linecap="round"/>
<path d="M502.714 227.096C501.924 230.659 501.827 233.024 499.991 236.25C497.922 239.886 495.881 241.789 493.251 242.547C490.419 243.362 489.723 240.782 487.755 239.074C485.526 237.139 484.415 235.761 482.685 233.009C480.708 229.864 480.034 227.5 478.508 223.755C477.275 220.728 477.053 218.439 475.53 215.79C473.308 211.928 470.594 212.122 468.056 208.726C466.893 207.169 464.836 207.39 465.295 204.412C465.561 202.69 466.16 201.547 467.119 200.028C469.269 196.621 473.846 196.891 473.846 196.891C473.846 196.891 473.3 191.569 472.908 188.193C472.452 184.253 472.045 182.166 471.652 178.175C471.266 174.263 471.264 171.907 470.906 167.974C470.578 164.371 470.378 162.361 469.923 158.861C469.374 154.639 468.857 152.451 468.252 148.276C467.922 145.993 467.442 142.4 467.442 142.4C467.442 142.4 465.306 141.769 463.833 141.69C461.698 141.575 460.394 141.844 458.088 142.466C456.005 143.028 454.74 144.022 452.661 144.561C450.997 144.992 449.843 145.814 448.491 145.2C447.207 144.617 446.682 143.682 446.189 141.869C445.559 139.554 446.138 137.454 446.45 134.461C446.815 130.959 448.085 128.588 448.108 125.259C448.124 122.898 447.859 121.725 447.343 119.798C446.654 117.225 445.658 116.501 444.632 114.319C443.499 111.907 442.756 110.679 441.833 108.011C441.197 106.173 440.302 105.526 440.417 103.07C440.527 100.738 440.717 98.6436 442.202 96.6914C443.91 94.4481 445.181 95.7033 446.883 95.8686C449.464 96.1192 450.367 97.7164 452.38 99.3415C454.508 101.06 455.578 102.327 457.393 104.475L457.545 104.655C459.912 107.456 461.175 109.151 463.163 112.53C465.153 115.913 465.794 118.451 467.71 121.938C469.653 125.476 470.863 127.296 473.047 130.488C475.134 133.539 476.443 135.037 478.621 137.949C480.634 140.642 481.747 142.179 483.779 144.842C486.077 147.853 487.51 149.316 489.723 152.457C491.443 154.899 492.389 156.3 493.957 158.966C495.415 161.445 496.471 162.555 497.496 165.581C498.142 167.485 498.131 168.95 498.772 170.859C499.316 172.482 500.423 174.711 500.423 174.711C500.423 174.711 501.32 172.429 501.966 171.001C502.855 169.036 503.084 166.652 504.44 166.095C505.247 165.764 505.545 166.325 506.105 166.787C506.995 167.524 507.349 168.298 507.667 169.811C508.001 171.396 507.811 172.617 507.648 174.551C507.393 177.568 506.814 179.428 506.041 182.586C505.2 186.026 503.459 191.403 503.459 191.403C503.459 191.403 503.785 194.159 503.95 195.96C504.235 199.074 504.405 200.821 504.473 204.09C504.563 208.37 504.452 210.885 504.104 215.409C503.759 219.89 503.755 222.402 502.714 227.096Z" fill="#2C1AF2" fill-opacity="0.93"/>
<path d="M628.985 1669.99C628.985 1669.99 823.515 1664.47 885.002 1729C961.731 1809.52 834.07 1922.67 893.001 2018C944 2100.5 1078.6 2129.51 1144 2137" stroke="#4ACCF4" stroke-width="5"/>
<path d="M633.744 1688.49C633.744 1688.49 795.514 1687.47 857.001 1752C933.73 1832.52 777.111 1969.23 851 2053.5C915.156 2126.67 1092.32 2175.12 1148.5 2163" stroke="#4ACCF4" stroke-width="5"/>
<path d="M631.112 1677.59C631.112 1677.59 815.498 1677.59 871.999 1740.5C943.167 1819.74 799.698 1973.28 872 2041.5C960.5 2125 1075 2138.5 1142 2147" stroke="#2C1AF2" stroke-opacity="0.93" stroke-width="8" stroke-linecap="round"/>
<path d="M614.199 1667.45C616.906 1669.9 618.915 1671.15 620.814 1674.34C622.954 1677.93 623.601 1680.65 622.961 1683.31C622.271 1686.17 619.683 1685.5 617.226 1686.37C614.443 1687.35 612.697 1687.64 609.449 1687.78C605.738 1687.95 603.349 1687.37 599.339 1686.85C596.098 1686.42 593.998 1685.49 590.943 1685.5C586.487 1685.53 585.316 1687.98 581.109 1688.51C579.181 1688.76 578.357 1690.65 575.995 1688.78C574.629 1687.7 573.93 1686.62 573.083 1685.03C571.182 1681.48 573.678 1677.63 573.678 1677.63C573.678 1677.63 568.78 1675.48 565.651 1674.15C561.999 1672.6 559.984 1671.93 556.32 1670.3C552.728 1668.7 550.678 1667.54 547.08 1665.91C543.786 1664.42 541.94 1663.6 538.672 1662.26C534.729 1660.66 532.571 1660.03 528.642 1658.49C526.494 1657.65 523.132 1656.29 523.132 1656.29C523.132 1656.29 521.529 1657.84 520.733 1659.08C519.579 1660.88 519.168 1662.15 518.57 1664.46C518.03 1666.55 518.27 1668.14 517.712 1670.21C517.265 1671.87 517.41 1673.28 516.208 1674.15C515.067 1674.98 513.995 1674.98 512.175 1674.51C509.851 1673.92 508.311 1672.38 505.862 1670.63C502.998 1668.58 501.562 1666.3 498.68 1664.64C496.634 1663.46 495.484 1663.11 493.553 1662.61C490.975 1661.94 489.854 1662.44 487.45 1662.26C484.793 1662.05 483.358 1662.09 480.583 1661.58C478.67 1661.22 477.666 1661.68 475.587 1660.37C473.613 1659.12 471.886 1657.92 470.922 1655.67C469.815 1653.07 471.534 1652.59 472.518 1651.19C474.01 1649.07 475.845 1649.07 478.252 1648.13C480.798 1647.12 482.428 1646.82 485.192 1646.3L485.423 1646.26C489.028 1645.58 491.126 1645.32 495.046 1645.26C498.97 1645.2 501.494 1645.9 505.472 1645.96C509.508 1646.01 511.688 1645.86 515.542 1645.54C519.226 1645.23 521.175 1644.83 524.783 1644.37C528.119 1643.95 530.004 1643.75 533.324 1643.29C537.077 1642.78 539.056 1642.26 542.881 1641.89C545.854 1641.6 547.539 1641.46 550.631 1641.42C553.507 1641.37 554.994 1641 558.131 1641.61C560.106 1641.99 561.374 1642.72 563.351 1643.1C565.031 1643.43 567.516 1643.57 567.516 1643.57C567.516 1643.57 565.975 1641.66 565.052 1640.4C563.782 1638.65 561.823 1637.28 562.008 1635.82C562.118 1634.96 562.753 1634.98 563.432 1634.72C564.511 1634.31 565.36 1634.38 566.832 1634.85C568.376 1635.34 569.344 1636.11 570.944 1637.21C573.442 1638.92 574.774 1640.34 577.138 1642.57C579.714 1645 583.53 1649.17 583.53 1649.17C583.53 1649.17 586.087 1650.25 587.734 1651C590.583 1652.29 592.186 1653 595.062 1654.56C598.828 1656.59 600.961 1657.93 604.723 1660.47C608.449 1662.98 610.631 1664.22 614.199 1667.45Z" fill="#2C1AF2" fill-opacity="0.93"/>
<path d="M431.38 996.997C431.38 996.997 528.241 1075.12 534.173 1161.06C541.575 1268.29 363.389 1312.46 365 1420.5C366.388 1513.64 409.536 1570.51 466 1618.5" stroke="#4ACCF4" stroke-width="5"/>
<path d="M420.757 1013.24C420.757 1013.24 497.978 1073.2 503.909 1159.14C511.312 1266.38 326.388 1320.46 327.999 1428.5C329.397 1522.31 393.274 1610.97 456.999 1639" stroke="#4ACCF4" stroke-width="5"/>
<path d="M427.181 1003.78C427.181 1003.78 512.102 1074.1 518.034 1160.03C525.436 1267.27 343.39 1314.96 345 1423C346.399 1516.81 409.275 1605.97 473 1634" stroke="#2C1AF2" stroke-opacity="0.93" stroke-width="8" stroke-linecap="round"/>
<path d="M419.308 985.549C419.893 989.052 420.789 991.252 419.99 994.756C419.09 998.704 417.482 1001.05 414.687 1002.53C411.676 1004.11 409.748 1001.95 406.684 1000.96C403.213 999.845 401.308 998.908 398.079 996.892C394.39 994.59 392.58 992.619 389.171 989.632C386.415 987.217 385.173 985.181 382.235 983.201C377.949 980.311 374.813 981.292 370.352 978.923C368.307 977.838 365.961 978.648 365.234 975.78C364.813 974.12 365.035 972.894 365.523 971.216C366.617 967.453 372.161 966.35 372.161 966.35C372.161 966.35 369.239 961.626 367.332 958.642C365.106 955.16 363.732 953.365 361.561 949.818C359.432 946.341 358.421 944.179 356.316 940.674C354.387 937.464 353.292 935.678 351.257 932.6C348.801 928.886 347.253 927.03 344.751 923.376C343.384 921.379 341.279 918.222 341.279 918.222C341.279 918.222 338.476 918.274 336.695 918.637C334.114 919.162 332.682 919.793 330.213 921.046C327.982 922.177 326.908 923.463 324.672 924.572C322.883 925.459 321.865 926.554 319.999 926.39C318.227 926.235 317.205 925.531 315.845 924.013C314.109 922.074 313.898 919.975 312.989 917.135C311.926 913.813 312.418 911.261 311.023 908.199C310.033 906.027 309.217 905.029 307.781 903.412C305.865 901.254 304.374 900.883 302.225 899.183C299.85 897.304 298.444 896.396 296.209 894.22C294.67 892.721 293.332 892.391 292.419 890.103C291.552 887.93 290.882 885.951 291.81 883.72C292.877 881.157 294.921 881.933 297.01 881.582C300.178 881.05 301.932 882.249 305.013 883.147C308.272 884.096 310.083 884.942 313.154 886.378L313.41 886.498C317.415 888.37 319.638 889.553 323.439 892.068C327.245 894.585 329.09 896.726 332.852 899.36C336.669 902.034 338.882 903.347 342.836 905.632C346.616 907.816 348.808 908.805 352.635 910.835C356.175 912.712 358.15 913.794 361.7 915.638C365.711 917.723 368.036 918.642 372.003 920.873C375.087 922.606 376.808 923.613 379.806 925.596C382.594 927.441 384.321 928.149 386.831 930.623C388.41 932.18 389.023 933.528 390.599 935.091C391.939 936.42 394.204 938.139 394.204 938.139C394.204 938.139 394.293 935.78 394.449 934.278C394.663 932.212 393.916 929.956 395.287 929.044C396.102 928.502 396.695 928.928 397.556 929.188C398.927 929.601 399.677 930.207 400.702 931.502C401.775 932.858 402.072 934.035 402.705 935.858C403.692 938.703 403.8 940.582 404.233 943.709C404.705 947.115 404.938 952.565 404.938 952.565C404.938 952.565 406.503 954.998 407.468 956.602C409.137 959.377 410.085 960.93 411.563 963.911C413.497 967.813 414.441 970.155 415.962 974.411C417.468 978.625 418.536 980.932 419.308 985.549Z" fill="#2C1AF2" fill-opacity="0.93"/>
</svg>
