<svg width="428" height="1642" viewBox="0 0 428 1642" fill="none" xmlns="http://www.w3.org/2000/svg">
<path d="M301.115 974.52C301.115 974.52 407.893 1063.09 413.145 1158.9C419.698 1278.46 243.917 1307.63 243.999 1428C244.069 1531.76 279.792 1551.15 341.999 1605.5" stroke="#010BFF" stroke-width="5"/>
<path d="M289.013 992.445C289.013 992.445 374.177 1060.47 379.429 1156.28C385.982 1275.84 207.919 1306.63 208.001 1427C208.072 1531.51 263.999 1587.5 331.499 1623.5" stroke="#010BFF" stroke-width="5"/>
<path d="M296.326 982.01C296.326 982.01 389.912 1061.69 395.164 1157.5C401.717 1277.06 225.917 1307.63 225.999 1428C226.07 1532.51 269.499 1571 336.999 1613.5" stroke="#4ACCF4" stroke-width="8" stroke-linecap="round"/>
<path d="M287.834 961.576C288.431 965.487 289.396 967.951 288.45 971.841C287.383 976.225 285.553 978.817 282.412 980.411C279.029 982.129 276.913 979.688 273.512 978.54C269.659 977.24 267.549 976.166 263.981 973.869C259.903 971.245 257.916 969.021 254.161 965.639C251.126 962.906 249.774 960.618 246.528 958.365C241.795 955.078 238.282 956.119 233.344 953.41C231.082 952.168 228.452 953.033 227.687 949.826C227.244 947.971 227.51 946.609 228.081 944.748C229.362 940.575 235.562 939.435 235.562 939.435C235.562 939.435 232.378 934.127 230.298 930.772C227.872 926.858 226.368 924.837 224.002 920.851C221.683 916.944 220.591 914.52 218.299 910.583C216.199 906.977 215.006 904.97 212.785 901.508C210.105 897.332 208.408 895.241 205.676 891.131C204.183 888.884 201.886 885.334 201.886 885.334C201.886 885.334 198.76 885.347 196.768 885.722C193.881 886.266 192.274 886.946 189.5 888.301C186.995 889.525 185.776 890.941 183.265 892.14C181.256 893.099 180.103 894.303 178.025 894.09C176.051 893.888 174.923 893.088 173.431 891.375C171.525 889.188 171.324 886.847 170.355 883.669C169.221 879.952 169.811 877.118 168.304 873.685C167.234 871.249 166.341 870.125 164.765 868.301C162.662 865.867 161.006 865.43 158.636 863.501C156.017 861.37 154.463 860.337 152.006 857.877C150.313 856.182 148.826 855.794 147.844 853.23C146.912 850.796 146.196 848.581 147.267 846.112C148.497 843.273 150.764 844.171 153.099 843.814C156.64 843.272 158.578 844.636 162 845.685C165.619 846.794 167.625 847.766 171.026 849.415L171.31 849.552C175.747 851.702 178.207 853.055 182.406 855.917C186.611 858.782 188.634 861.196 192.788 864.191C197.002 867.229 199.449 868.728 203.822 871.337C208.002 873.829 210.432 874.966 214.667 877.289C218.585 879.436 220.771 880.673 224.7 882.784C229.141 885.171 231.718 886.232 236.107 888.78C239.518 890.76 241.422 891.909 244.734 894.167C247.814 896.266 249.729 897.082 252.488 899.878C254.224 901.638 254.887 903.149 256.619 904.915C258.092 906.417 260.591 908.368 260.591 908.368C260.591 908.368 260.728 905.741 260.925 904.071C261.197 901.773 260.4 899.249 261.943 898.255C262.861 897.664 263.515 898.149 264.472 898.452C265.993 898.933 266.821 899.621 267.942 901.079C269.118 902.608 269.43 903.923 270.107 905.964C271.163 909.148 271.253 911.242 271.687 914.733C272.159 918.534 272.333 924.608 272.333 924.608C272.333 924.608 274.039 927.343 275.09 929.145C276.907 932.262 277.939 934.007 279.54 937.351C281.636 941.728 282.651 944.352 284.279 949.116C285.892 953.834 287.047 956.421 287.834 961.576Z" fill="#4ACCF4"/>
<path d="M252.923 183.526C252.923 183.526 332.528 308.511 306.344 406.818C273.669 529.495 117.489 482.901 77.9579 604.224C43.881 708.807 59.5914 759.424 105.061 835.013" stroke="#010BFF" stroke-width="5"/>
<path d="M234.697 197.538C234.697 197.538 299.049 294.588 272.865 392.894C240.19 515.572 84.0099 468.977 44.4786 590.3C10.1541 695.643 16.3302 806.168 77.6441 862.297" stroke="#010BFF" stroke-width="5"/>
<path d="M245.579 189.47C245.579 189.47 314.673 301.087 288.489 399.394C255.813 522.071 99.6335 475.477 60.1021 596.8C25.7776 702.143 44.7005 808.073 106.014 864.201" stroke="#4ACCF4" stroke-width="8" stroke-linecap="round"/>
<path d="M243.655 166.036C242.976 170.178 243.148 172.984 240.903 176.587C238.375 180.648 235.657 182.647 231.934 183.203C227.923 183.802 226.571 180.635 223.484 178.34C219.988 175.74 218.193 173.952 215.314 170.443C212.025 166.434 210.733 163.528 208.021 158.863C205.83 155.094 205.205 152.336 202.641 148.979C198.902 144.083 194.981 143.957 190.844 139.574C188.948 137.566 185.985 137.557 186.261 134.069C186.42 132.052 187.141 130.768 188.334 129.084C191.012 125.307 197.702 126.232 197.702 126.232C197.702 126.232 196.206 119.818 195.192 115.742C194.009 110.986 193.143 108.445 192.045 103.637C190.969 98.9242 190.654 96.116 189.615 91.381C188.664 87.0444 188.109 84.6228 186.986 80.3913C185.631 75.2861 184.591 72.6109 183.161 67.5548C182.38 64.791 181.209 60.4453 181.209 60.4453C181.209 60.4453 178.02 59.412 175.868 59.1236C172.749 58.7056 170.888 58.8533 167.617 59.2907C164.663 59.6858 162.955 60.7044 160.003 61.0724C157.641 61.367 156.071 62.1943 154.024 61.2848C152.08 60.4206 151.194 59.2367 150.238 57.0112C149.017 54.1692 149.582 51.743 149.641 48.2162C149.71 44.0914 151.244 41.4321 150.839 37.4684C150.551 34.656 150.011 33.2238 149.006 30.8584C147.665 27.7019 146.122 26.7072 144.343 23.9711C142.377 20.9471 141.135 19.3856 139.442 16.0847C138.275 13.8102 136.888 12.9213 136.732 10.0097C136.584 7.24465 136.584 4.77326 138.487 2.64256C140.674 0.19402 142.688 1.85757 145.184 2.27879C148.969 2.9177 150.493 4.94035 153.633 7.14244C156.954 9.47148 158.677 11.1224 161.6 13.922L161.843 14.1557C165.655 17.806 167.715 19.9934 171.05 24.2821C174.389 28.5765 175.656 31.6858 178.901 36.094C182.193 40.5662 184.192 42.8953 187.788 46.9874C191.225 50.8981 193.325 52.8565 196.875 56.6144C200.158 60.0897 201.977 62.0675 205.284 65.5097C209.021 69.4004 211.297 71.3327 214.929 75.3687C217.752 78.506 219.312 80.3004 221.943 83.6838C224.389 86.8301 226.071 88.2931 227.961 92.0343C229.15 94.3888 229.327 96.133 230.511 98.4929C231.517 100.499 233.42 103.301 233.42 103.301C233.42 103.301 234.423 100.7 235.174 99.0829C236.207 96.8583 236.226 94.0477 238.125 93.5625C239.254 93.274 239.761 93.9817 240.636 94.6069C242.027 95.6014 242.643 96.5711 243.306 98.4163C244 100.349 243.885 101.78 243.903 104.063C243.93 107.625 243.333 109.766 242.626 113.428C241.856 117.417 240.034 123.596 240.034 123.596C240.034 123.596 240.871 126.923 241.348 129.09C242.173 132.84 242.651 134.944 243.181 138.849C243.875 143.962 244.045 146.945 244.135 152.291C244.225 157.585 244.55 160.579 243.655 166.036Z" fill="#4ACCF4"/>
<path d="M331.808 240.207C331.808 240.207 377.511 340.022 351.766 425.355C319.638 531.841 155.787 533.133 119 638.999C87.2884 730.257 133.718 763.427 159.5 823.999" stroke="#4ACCF4" stroke-width="5"/>
<path d="M318.068 253.484C318.068 253.484 355.32 330.794 329.575 416.126C297.447 522.613 130.787 510.634 94 616.499C62.0584 708.421 101.214 796.638 139.5 839.499" stroke="#4ACCF4" stroke-width="5"/>
<path d="M326.25 245.809C326.25 245.809 365.677 335.102 339.931 420.434C307.804 526.921 141.786 522.133 104.999 627.999C73.0578 719.92 119.214 797.638 157.499 840.499" stroke="#2C1AF2" stroke-opacity="0.93" stroke-width="8" stroke-linecap="round"/>
<path d="M326.714 226.095C325.924 229.658 325.827 232.023 323.991 235.249C321.922 238.885 319.88 240.789 317.251 241.546C314.418 242.362 313.722 239.781 311.754 238.073C309.525 236.138 308.415 234.761 306.685 232.008C304.708 228.863 304.033 226.499 302.508 222.754C301.275 219.727 301.053 217.438 299.53 214.79C297.308 210.927 294.594 211.122 292.056 207.725C290.893 206.168 288.835 206.389 289.295 203.412C289.561 201.69 290.16 200.546 291.118 199.027C293.269 195.62 297.846 195.89 297.846 195.89C297.846 195.89 297.299 190.569 296.908 187.192C296.452 183.252 296.045 181.165 295.652 177.174C295.266 173.262 295.263 170.906 294.905 166.973C294.577 163.371 294.378 161.361 293.923 157.861C293.374 153.638 292.857 151.45 292.252 147.275C291.922 144.993 291.442 141.399 291.442 141.399C291.442 141.399 289.306 140.769 287.833 140.689C285.698 140.575 284.394 140.843 282.088 141.465C280.005 142.027 278.74 143.021 276.661 143.56C274.997 143.991 273.843 144.813 272.491 144.2C271.206 143.617 270.682 142.681 270.189 140.868C269.559 138.553 270.138 136.454 270.45 133.46C270.815 129.959 272.085 127.587 272.108 124.259C272.124 121.897 271.859 120.725 271.342 118.797C270.653 116.225 269.658 115.5 268.632 113.318C267.499 110.906 266.755 109.678 265.833 107.01C265.197 105.172 264.302 104.525 264.417 102.07C264.526 99.7376 264.716 97.6429 266.202 95.6908C267.91 93.4475 269.181 94.7027 270.883 94.868C273.463 95.1186 274.367 96.7158 276.379 98.3409C278.508 100.06 279.578 101.327 281.393 103.475L281.545 103.654C283.912 106.455 285.175 108.151 287.163 111.53C289.153 114.913 289.794 117.451 291.709 120.938C293.653 124.475 294.863 126.295 297.047 129.487C299.134 132.538 300.443 134.036 302.62 136.949C304.634 139.642 305.746 141.178 307.779 143.842C310.077 146.852 311.51 148.315 313.722 151.457C315.443 153.899 316.389 155.3 317.957 157.965C319.415 160.444 320.47 161.555 321.496 164.58C322.141 166.485 322.13 167.949 322.771 169.859C323.316 171.481 324.423 173.71 324.423 173.71C324.423 173.71 325.32 171.429 325.966 170C326.855 168.035 327.084 165.652 328.44 165.095C329.247 164.763 329.545 165.324 330.104 165.787C330.994 166.523 331.348 167.297 331.667 168.81C332 170.396 331.811 171.617 331.648 173.55C331.393 176.567 330.814 178.427 330.041 181.586C329.2 185.026 327.459 190.403 327.459 190.403C327.459 190.403 327.785 193.158 327.95 194.959C328.235 198.073 328.405 199.82 328.473 203.089C328.562 207.369 328.451 209.884 328.103 214.409C327.759 218.889 327.755 221.401 326.714 226.095Z" fill="#2C1AF2" fill-opacity="0.93"/>
<path d="M255.38 995.996C255.38 995.996 352.241 1074.12 358.173 1160.05C365.575 1267.29 187.389 1311.45 189 1419.5C190.388 1512.64 233.535 1569.51 290 1617.5" stroke="#4ACCF4" stroke-width="5"/>
<path d="M244.757 1012.24C244.757 1012.24 321.977 1072.2 327.909 1158.14C335.311 1265.38 150.388 1319.45 151.998 1427.5C153.397 1521.31 217.274 1609.96 280.998 1638" stroke="#4ACCF4" stroke-width="5"/>
<path d="M251.181 1002.78C251.181 1002.78 336.102 1073.1 342.033 1159.03C349.436 1266.27 167.389 1313.95 169 1422C170.398 1515.81 233.275 1604.96 297 1633" stroke="#2C1AF2" stroke-opacity="0.93" stroke-width="8" stroke-linecap="round"/>
<path d="M243.307 984.548C243.893 988.052 244.789 990.251 243.99 993.755C243.09 997.703 241.482 1000.05 238.687 1001.53C235.676 1003.11 233.748 1000.95 230.684 999.961C227.213 998.844 225.308 997.907 222.079 995.892C218.39 993.589 216.58 991.618 213.17 988.631C210.415 986.217 209.173 984.181 206.235 982.2C201.949 979.311 198.813 980.291 194.352 977.923C192.307 976.837 189.961 977.648 189.233 974.779C188.813 973.12 189.034 971.893 189.522 970.215C190.617 966.453 196.161 965.349 196.161 965.349C196.161 965.349 193.239 960.625 191.332 957.641C189.106 954.16 187.732 952.364 185.56 948.817C183.431 945.34 182.421 943.178 180.316 939.673C178.387 936.463 177.292 934.677 175.256 931.599C172.801 927.885 171.253 926.03 168.751 922.376C167.383 920.378 165.279 917.221 165.279 917.221C165.279 917.221 162.476 917.273 160.695 917.636C158.114 918.161 156.682 918.793 154.212 920.045C151.982 921.176 150.907 922.462 148.672 923.571C146.883 924.458 145.864 925.554 143.999 925.39C142.226 925.234 141.204 924.53 139.845 923.012C138.109 921.073 137.898 918.975 136.989 916.134C135.925 912.813 136.418 910.26 135.023 907.199C134.033 905.026 133.217 904.028 131.781 902.411C129.864 900.254 128.374 899.883 126.225 898.182C123.85 896.303 122.444 895.396 120.209 893.219C118.67 891.72 117.331 891.391 116.419 889.102C115.552 886.929 114.882 884.95 115.81 882.72C116.877 880.156 118.921 880.933 121.01 880.582C124.178 880.05 125.932 881.249 129.013 882.146C132.272 883.095 134.083 883.942 137.154 885.378L137.41 885.497C141.415 887.369 143.637 888.553 147.439 891.067C151.245 893.585 153.09 895.725 156.852 898.36C160.669 901.033 162.882 902.347 166.836 904.631C170.615 906.815 172.808 907.804 176.635 909.834C180.174 911.711 182.15 912.793 185.699 914.638C189.711 916.722 192.035 917.642 196.003 919.872C199.086 921.606 200.808 922.612 203.806 924.596C206.594 926.44 208.321 927.148 210.831 929.623C212.41 931.18 213.023 932.527 214.599 934.091C215.939 935.419 218.204 937.139 218.204 937.139C218.204 937.139 218.293 934.779 218.449 933.277C218.663 931.211 217.916 928.956 219.286 928.043C220.102 927.501 220.695 927.928 221.556 928.187C222.926 928.6 223.677 929.206 224.701 930.501C225.774 931.858 226.072 933.035 226.704 934.857C227.692 937.702 227.799 939.581 228.233 942.708C228.705 946.114 228.938 951.564 228.938 951.564C228.938 951.564 230.502 953.997 231.467 955.602C233.137 958.376 234.084 959.929 235.562 962.91C237.497 966.812 238.441 969.154 239.961 973.41C241.467 977.624 242.536 979.931 243.307 984.548Z" fill="#2C1AF2" fill-opacity="0.93"/>
</svg>
