<svg width="284" height="201" viewBox="0 0 284 201" fill="none" xmlns="http://www.w3.org/2000/svg">
<path d="M59.0572 26.4772C63.6472 23.6225 71.2493 20.1524 71.2493 20.1524C71.2493 20.1524 74.9944 25.3483 76.4758 29.2333C78.4705 34.464 78.404 37.9117 78.7595 43.6058C79.1827 50.3859 78.9807 54.3037 77.8801 61.0074C76.6023 68.79 75.0072 73.0122 72.0597 80.2229C69.3981 86.7341 66.932 89.824 63.8982 96.131C60.8744 102.417 58.5398 105.681 56.5517 112.455C54.6763 118.846 53.6977 122.69 53.8565 129.39C53.9927 135.134 53.3725 139.243 56.4737 143.779C58.8087 147.195 61.3175 147.774 64.6965 149.823C68.7069 152.254 71.0562 153.581 75.4778 154.87C82.0258 156.778 92.8243 155.746 92.8243 155.746C92.8243 155.746 85.6776 159.32 81.0036 161.34C75.1592 163.865 65.8281 167.138 65.8281 167.138C65.8281 167.138 72.3517 176.053 71.7338 182.632C71.1705 188.63 64.3813 195.767 64.3813 195.767L59.558 182.017L53.819 166.532C53.819 166.532 45.8703 162.912 41.4737 159.342C36.9704 155.685 34.6597 153.136 31.338 148.137C27.6217 142.544 26.3841 138.708 24.1168 132.202C21.9628 126.021 21.4646 122.272 19.9262 115.857C18.8631 111.425 17.3245 104.47 17.3245 104.47L4.48143 103.821C4.48143 103.821 6.9974 95.0545 9.36988 89.8112C12.3755 83.1687 13.4115 79.3227 18.8657 73.9705C24.32 68.6184 24.2194 67.3001 27.8423 58.4788C31.4653 49.6574 36.9368 44.8965 44.2652 37.9232C49.6181 32.8295 52.9225 30.2924 59.0572 26.4772Z" stroke="#4ACCF4" stroke-width="5"/>
<path d="M224.546 174.621C219.956 177.476 212.354 180.946 212.354 180.946C212.354 180.946 208.609 175.75 207.127 171.865C205.133 166.635 205.199 163.187 204.844 157.493C204.42 150.713 204.622 146.795 205.723 140.091C207.001 132.309 208.596 128.086 211.543 120.876C214.205 114.365 216.671 111.275 219.705 104.968C222.729 98.6816 225.063 95.4177 227.051 88.6432C228.927 82.2526 229.905 78.4084 229.747 71.7084C229.61 65.9642 230.231 61.8561 227.129 57.3191C224.794 53.9032 222.286 53.3246 218.907 51.2758C214.896 48.8442 212.547 47.5173 208.125 46.2288C201.577 44.3207 190.779 45.3522 190.779 45.3522C190.779 45.3522 197.926 41.7787 202.6 39.759C208.444 37.2336 217.775 33.9602 217.775 33.9602C217.775 33.9602 211.251 25.0459 211.869 18.4667C212.433 12.4682 219.222 5.33161 219.222 5.33161L224.045 19.082L229.784 34.567C229.784 34.567 237.733 38.1864 242.129 41.7566C246.633 45.4135 248.943 47.9625 252.265 52.9616C255.981 58.5543 257.219 62.3903 259.486 68.8967C261.64 75.0775 262.139 78.8266 263.677 85.2414C264.74 89.6739 266.279 96.6284 266.279 96.6284L279.122 97.2775C279.122 97.2775 276.606 106.044 274.233 111.287C271.228 117.93 270.192 121.776 264.737 127.128C259.283 132.48 259.384 133.798 255.761 142.62C252.138 151.441 246.666 156.202 239.338 163.175C233.985 168.269 230.681 170.806 224.546 174.621Z" stroke="#4ACCF4" stroke-width="5"/>
</svg>
