<svg width="1141" height="609" viewBox="0 0 1141 609" fill="none" xmlns="http://www.w3.org/2000/svg">
    <path d="M113.5 381.387L0 602.387C29.3133 604.286 45.4877 601.57 74 591.887C119.041 570.761 140.273 554.016 170.5 514.387C196.908 471.165 207.231 445.647 220 398.387C266.639 432.41 295.645 446.681 350.5 466.887C411.658 482.825 446.131 488.851 507 488.887C545.291 485.961 566.97 483.205 606 476.887C636.495 473.617 653.701 469.338 684.5 459.387C679.903 497.562 673.421 518.977 654.5 557.887C640.643 579.903 630.712 591.294 606 608.387C662.114 611.204 691.115 603.948 738.5 575.887C778.657 546.105 793.797 524.355 814 480.887C828.08 443.766 832.071 423.365 832.5 386.887C905.901 341.922 943.196 313.413 1003.5 257.387C978.388 236.333 966.405 223.286 953.5 194.887C991.768 188.683 1013.23 189.069 1051.5 194.804C1095.68 129.57 1124.79 92.9958 1141 27.8043C1103.93 17.8797 1081.91 14.5662 1042 12.3867C997.276 9.64182 972.294 10.4636 928 17.8867C893.961 21.1232 874.931 24.7891 841 33.8867C803.965 42.5641 783.387 49.6516 747 65.8867C729.566 44.4971 717.267 33.8184 689.5 17.8867C655.674 2.00763 635.609 -2.05618 597.5 0.886728C574.5 5.88672 563.689 14.3607 544 27.8867C527.789 37.2742 505.982 57.6154 508 60.8867C525.775 59.1081 535.728 59.0892 553.5 60.8867L597.5 85.8867C615.687 105.589 623.226 116.312 633 134.887C565.658 196.018 455.981 287.212 454 285.387C416.086 314.505 391.575 327.383 342.5 344.387C312.849 348.79 295.399 347.273 263 338.387C245.092 329.598 235.625 322.663 220 305.887C221.549 306.186 151.617 203.169 129 182.387C106.383 161.604 95.7811 154.751 68 150.387C44.497 149.564 13.5 154.387 14.5 158.887C15.5 163.387 113.5 372.387 113.5 372.387C114.612 375.899 114.543 377.882 113.5 381.387Z"
          fill="#4ACCF4"/>
    <ellipse cx="1016.5" cy="62.5" rx="15.5" ry="16.5" fill="white"/>
</svg>