<svg width="16" height="16" viewBox="0 0 16 16" fill="none" xmlns="http://www.w3.org/2000/svg">
<mask id="path-1-inside-1_1588_6141" fill="white">
<path d="M6.07334 0.499908C5.88667 0.501908 4.35734 0.566908 2.74267 2.37291C2.74267 2.37291 1.02 7.03791 1.02 12.7809C1.02 12.7809 2.02467 15.3739 4.66867 15.4999C4.66867 15.4999 5.11134 14.7079 5.47 14.0229C3.95134 13.3379 3.37667 11.9149 3.37667 11.9149C3.37667 11.9149 3.49667 12.0409 3.71134 12.2219C3.72334 12.2219 3.73467 12.2409 3.758 12.2579C3.79467 12.2929 3.83 12.3119 3.866 12.3479C4.16467 12.5999 4.46334 12.7979 4.73934 12.9589C5.23 13.2659 5.816 13.5349 6.49867 13.7329C7.396 13.9849 8.44867 14.0749 9.596 13.7519C10.1909 13.5858 10.7726 13.3264 11.3313 12.9779C11.8152 12.7038 12.2765 12.3471 12.706 11.9149C12.706 11.9149 12.1087 13.3729 10.5413 14.0399C10.9 14.7059 11.3313 15.4789 11.3313 15.4789C13.9747 15.3529 14.98 12.7589 14.98 12.7789C14.98 7.03291 13.2573 2.36991 13.2573 2.36991C11.5467 0.445908 9.90734 0.499908 9.90734 0.499908L9.74 0.787908C11.7733 1.70591 12.7187 3.05791 12.7187 3.05791C11.6029 2.14651 10.3807 1.56562 9.11867 1.34691C8.31487 1.2127 7.5032 1.22479 6.70134 1.38291C6.63 1.38291 6.57 1.40191 6.49734 1.41791C6.07867 1.48991 5.062 1.70591 3.782 2.55291C3.34 2.84091 3.076 3.05791 3.076 3.05791C3.076 3.05791 4.05867 1.63491 6.21134 0.716908L6.09134 0.499908H6.07334ZM5.76867 7.14491C6.45 7.14491 7.00134 8.02691 6.98867 9.12591C6.98867 10.2259 6.45 11.1079 5.76867 11.1079C5.09867 11.1079 4.54867 10.2249 4.54867 9.12591C4.54867 8.02691 5.086 7.14491 5.76867 7.14491ZM10.1353 7.14491C10.8047 7.14491 11.3553 8.02691 11.3553 9.12591C11.3553 10.2259 10.816 11.1079 10.1353 11.1079C9.46467 11.1079 8.91534 10.2249 8.91534 9.12591C8.91534 8.02691 9.45267 7.14491 10.1353 7.14491Z"/>
</mask>
<path d="M6.07334 0.499908C5.88667 0.501908 4.35734 0.566908 2.74267 2.37291C2.74267 2.37291 1.02 7.03791 1.02 12.7809C1.02 12.7809 2.02467 15.3739 4.66867 15.4999C4.66867 15.4999 5.11134 14.7079 5.47 14.0229C3.95134 13.3379 3.37667 11.9149 3.37667 11.9149C3.37667 11.9149 3.49667 12.0409 3.71134 12.2219C3.72334 12.2219 3.73467 12.2409 3.758 12.2579C3.79467 12.2929 3.83 12.3119 3.866 12.3479C4.16467 12.5999 4.46334 12.7979 4.73934 12.9589C5.23 13.2659 5.816 13.5349 6.49867 13.7329C7.396 13.9849 8.44867 14.0749 9.596 13.7519C10.1909 13.5858 10.7726 13.3264 11.3313 12.9779C11.8152 12.7038 12.2765 12.3471 12.706 11.9149C12.706 11.9149 12.1087 13.3729 10.5413 14.0399C10.9 14.7059 11.3313 15.4789 11.3313 15.4789C13.9747 15.3529 14.98 12.7589 14.98 12.7789C14.98 7.03291 13.2573 2.36991 13.2573 2.36991C11.5467 0.445908 9.90734 0.499908 9.90734 0.499908L9.74 0.787908C11.7733 1.70591 12.7187 3.05791 12.7187 3.05791C11.6029 2.14651 10.3807 1.56562 9.11867 1.34691C8.31487 1.2127 7.5032 1.22479 6.70134 1.38291C6.63 1.38291 6.57 1.40191 6.49734 1.41791C6.07867 1.48991 5.062 1.70591 3.782 2.55291C3.34 2.84091 3.076 3.05791 3.076 3.05791C3.076 3.05791 4.05867 1.63491 6.21134 0.716908L6.09134 0.499908H6.07334ZM5.76867 7.14491C6.45 7.14491 7.00134 8.02691 6.98867 9.12591C6.98867 10.2259 6.45 11.1079 5.76867 11.1079C5.09867 11.1079 4.54867 10.2249 4.54867 9.12591C4.54867 8.02691 5.086 7.14491 5.76867 7.14491ZM10.1353 7.14491C10.8047 7.14491 11.3553 8.02691 11.3553 9.12591C11.3553 10.2259 10.816 11.1079 10.1353 11.1079C9.46467 11.1079 8.91534 10.2249 8.91534 9.12591C8.91534 8.02691 9.45267 7.14491 10.1353 7.14491Z" fill="#D2E1FF" stroke="#D2E1FF" stroke-width="3" mask="url(#path-1-inside-1_1588_6141)"/>
</svg>
