<svg width="24" height="24" viewBox="0 0 24 24" fill="none" xmlns="http://www.w3.org/2000/svg">
<g clip-path="url(#clip0_164_7598)">
<path d="M22.65 14.39L12 22.13L1.35002 14.39C1.20725 14.285 1.10134 14.1376 1.04746 13.9687C0.993572 13.7999 0.99447 13.6183 1.05002 13.45L2.27002 9.67002L4.71002 2.16002C4.73369 2.09883 4.77136 2.04403 4.82002 2.00002C4.89926 1.92764 5.0027 1.88751 5.11002 1.88751C5.21734 1.88751 5.32078 1.92764 5.40002 2.00002C5.45141 2.04969 5.48927 2.11164 5.51002 2.18002L7.95002 9.67002H16.05L18.49 2.16002C18.5137 2.09883 18.5514 2.04403 18.6 2.00002C18.6793 1.92764 18.7827 1.88751 18.89 1.88751C18.9973 1.88751 19.1008 1.92764 19.18 2.00002C19.2314 2.04969 19.2693 2.11164 19.29 2.18002L21.73 9.69002L23 13.45C23.0505 13.6235 23.0438 13.8087 22.9807 13.978C22.9177 14.1473 22.8017 14.2918 22.65 14.39V14.39Z" stroke="#101828" stroke-width="2" stroke-linecap="round" stroke-linejoin="round"/>
</g>
<defs>
<clipPath id="clip0_164_7598">
<rect width="24" height="24" fill="white"/>
</clipPath>
</defs>
</svg>
