<svg width="39" height="23" viewBox="0 0 39 23" fill="none" xmlns="http://www.w3.org/2000/svg">
    <path d="M7.78598 14.7055C7.64616 14.7055 7.68403 14.8391 7.66655 14.9141C7.47061 15.9084 7.17756 16.8756 6.79268 17.7983C6.57749 18.3158 6.31385 18.8063 6.00618 19.2616C5.35605 20.2388 4.49106 21.0112 3.49524 21.5038C2.68565 21.8913 1.8087 22.0706 0.928959 22.0285C0.777487 22.0285 0.690095 22.0285 0.797874 21.8037C1.15616 21.0476 1.49406 20.2784 1.84653 19.5223C2.41164 18.3013 2.97868 17.0813 3.54768 15.8625C3.80984 15.2976 4.0788 14.7381 4.35455 14.1841C4.39763 14.1098 4.42176 14.0238 4.42433 13.9354C4.42689 13.8469 4.4078 13.7594 4.36912 13.6822C3.69041 12.0299 3.02044 10.371 2.34755 8.71543C2.20482 8.36671 2.05626 8.02126 1.92227 7.6758C2.02768 7.67196 2.13089 7.71007 2.21356 7.78335C2.62501 8.11719 2.99781 8.50691 3.32338 8.94357C4.139 9.89846 4.87014 10.9381 5.72945 11.8539C6.5858 12.79 7.58779 13.5432 8.68608 14.0765C9.6136 14.4728 10.612 14.6169 11.599 14.4969C11.8081 14.5142 12.0179 14.4751 12.2107 14.3829L12.4118 14.1939L12.7234 14.3209C12.7941 14.3806 12.848 14.4619 12.8785 14.5549C12.909 14.648 12.9148 14.749 12.8952 14.8456C12.8952 14.9662 12.8953 15.1064 13.0263 15.1194C13.3322 15.1487 13.2739 15.328 13.1807 15.5333C12.3389 15.4062 11.4796 15.4616 10.6436 15.2237C10.2126 15.1141 9.77568 15.0357 9.33566 14.989C8.80259 14.9173 8.30448 14.7348 7.78598 14.7055Z"
          fill="#2776F1"/>
    <path d="M24.8064 2.69597C25.4359 2.36106 26.085 2.07469 26.7493 1.83885C27.7066 1.52111 28.6791 1.26433 29.6623 1.06972C31.0492 0.787361 32.4612 0.691081 33.8685 0.782928C34.4484 0.779635 35.0272 0.841874 35.5959 0.968695C35.5551 1.16098 35.4153 1.09254 35.3192 1.08276C35.1648 1.06647 35.0279 0.968689 34.8618 0.952394C34.3492 0.90025 33.8889 1.15772 33.4054 1.22616C33.3829 1.23032 33.3614 1.23972 33.3423 1.25375C33.3232 1.26778 33.307 1.28615 33.2947 1.30764C33.2432 1.44699 33.2397 1.60275 33.2849 1.74481C33.3301 1.88687 33.4208 2.00514 33.5394 2.07676C33.5976 2.11261 33.6559 2.1452 33.6588 2.23645C33.6617 2.3277 33.5772 2.36681 33.5103 2.38962C33.4471 2.40949 33.3829 2.42474 33.318 2.43525C33.2814 2.31019 33.2062 2.2038 33.1058 2.13513C33.0055 2.06646 32.8866 2.03999 32.7704 2.06047C32.6579 2.07797 32.5534 2.13564 32.4726 2.2249C32.3918 2.31416 32.3389 2.43023 32.3218 2.55584C32.2929 2.75365 32.3204 2.9566 32.4004 3.13594C31.9845 3.22371 31.5776 3.35801 31.1857 3.5368C30.9015 3.60257 30.6351 3.74211 30.408 3.94418C30.2607 4.13711 30.0647 4.27571 29.8458 4.34178C29.6943 4.39393 29.4962 4.41022 29.4933 4.66768C29.4904 4.92515 29.4729 5.21194 29.7846 5.31949C29.8123 5.32734 29.8383 5.34152 29.8608 5.36115C29.8834 5.38078 29.9021 5.40543 29.9157 5.43355C30.0788 5.93693 30.2959 6.41626 30.5624 6.861C30.5763 6.88884 30.5833 6.92035 30.5828 6.95225C30.5828 7.2586 30.7284 7.30749 30.9469 7.24882C31.0896 7.20972 31.1945 7.22928 31.2178 7.4183C31.1187 7.59103 30.9498 7.58125 30.8012 7.61058C30.6857 7.63357 30.5739 7.67529 30.4692 7.73442C30.4051 7.73442 30.3759 7.78982 30.3381 7.83871C29.9627 8.33422 29.4648 8.88221 29.0184 9.2975C28.9281 9.27794 28.9251 9.19105 28.8408 9.14231C28.8318 9.2975 28.8204 9.3183 28.934 9.33459L28.7564 9.46496C28.6602 9.46496 28.5519 9.44563 28.5519 9.2975C28.5385 9.20393 28.5155 9.1548 28.4586 9.08461C28.3581 8.9713 28.2289 8.80826 28.1787 8.65884C28.1285 8.50943 28.1361 8.33512 28.145 8.1758C28.146 8.10785 28.1112 8.08175 28.0854 8.02019C28.0597 7.95863 28.0394 7.84996 27.9921 7.8073C27.8457 7.6376 27.7481 7.40111 27.7122 7.16865C27.6764 6.93619 27.7184 6.74479 27.8055 6.53C27.9104 6.29209 27.8403 6.25956 27.6189 6.21067C27.5451 6.19988 27.485 6.05673 27.4324 5.99779C27.3797 5.93885 27.3487 5.86755 27.3391 5.7849C27.2983 5.58936 27.3361 5.55467 27.3391 5.35913C27.0186 5.47972 26.828 5.53132 26.5367 5.65842C25.9862 5.90611 25.4793 6.24831 24.9288 6.48621C24.7403 6.55783 24.5587 6.65064 24.387 6.76323C23.9815 7.03261 23.5507 7.25119 23.1024 7.41504C23.1839 6.99462 22.9829 6.63287 22.8781 6.26134C22.8169 6.03321 22.5868 5.87352 22.6421 5.57043C22.6659 5.45607 22.6587 5.33636 22.6213 5.22663C22.584 5.11689 22.5182 5.02212 22.4324 4.95447C22.2198 4.76219 22.2809 4.56013 22.5402 4.47866C22.5839 4.46844 22.6267 4.45427 22.6683 4.43629C22.6538 4.06476 22.9596 4.05498 23.1402 3.89529C23.3274 3.65606 23.7578 3.68671 23.9413 3.34778C23.9413 3.32496 24.017 3.34777 24.0491 3.32496C24.34 3.18052 24.5986 2.9657 24.8064 2.69597Z"
          fill="#194FE5"/>
    <path d="M23.0937 7.41519C23.542 7.25135 23.9728 7.03276 24.3783 6.76339C24.55 6.6508 24.7316 6.55798 24.9201 6.48637C25.4706 6.24846 25.9775 5.90626 26.528 5.65857C26.8193 5.53147 27.0844 5.36527 27.4019 5.24468C27.4019 5.44022 27.3145 5.60318 27.3553 5.79872C27.3649 5.88137 27.3987 5.95814 27.4514 6.01708C27.5041 6.07602 27.5727 6.11383 27.6466 6.12462C27.868 6.17351 27.9379 6.29409 27.8243 6.532C27.7371 6.74679 27.7096 6.98593 27.7455 7.21839C27.7813 7.45086 27.8788 7.6659 28.0252 7.83561C28.0725 7.87826 28.1105 7.93243 28.1363 7.99399C28.162 8.05555 28.1748 8.12288 28.1738 8.19084C28.1649 8.35015 28.1863 8.50976 28.2365 8.65917C28.2867 8.80859 28.3646 8.94443 28.4651 9.05774C28.522 9.12793 28.5595 9.21511 28.5729 9.30868C28.5904 9.43904 28.6515 9.46512 28.7477 9.46512C28.7517 9.50166 28.7474 9.53875 28.7352 9.57294C28.7229 9.60713 28.7032 9.6373 28.6777 9.66065C28.2175 10.0713 27.7747 10.5145 27.297 10.9023C26.6874 11.4128 26.0469 11.8756 25.3803 12.2874C25.0453 12.4862 24.7482 12.7795 24.3579 12.8512C24.3579 12.7632 24.3084 12.7013 24.2268 12.7372C23.9879 12.8382 23.9355 12.6785 23.8831 12.4699C23.8568 12.239 23.7873 12.0169 23.6792 11.8181C23.6063 11.7325 23.5526 11.6288 23.5222 11.5156C23.4918 11.4023 23.4857 11.2827 23.5044 11.1663C23.5627 10.8046 23.2859 10.5439 23.3034 10.1886C23.3034 10.13 23.2306 10.0941 23.1694 10.0941C22.9072 10.0941 22.8781 9.9116 22.8781 9.67043C22.8781 9.42926 22.9626 9.25002 22.7995 9.09685C22.7436 9.04 22.7011 8.96864 22.6757 8.88907C22.6503 8.8095 22.6428 8.72417 22.6538 8.64059C22.6626 8.48104 22.6626 8.32105 22.6538 8.16151C22.6363 7.97575 22.6247 7.8356 22.3625 7.93011C22.0421 8.04418 21.8207 8.31142 21.5236 8.44178C21.2375 8.55643 20.9721 8.72752 20.74 8.94692C20.6101 9.08565 20.4435 9.17368 20.2652 9.19788C20.172 9.08381 20.0497 9.14899 19.9419 9.13269C19.7671 9.10336 19.5137 9.13269 19.4642 8.93715C19.3884 8.64058 19.1874 8.39289 19.1874 8.08329C19.2139 7.77894 19.1505 7.47329 19.0068 7.21313C19.6127 6.53526 20.258 5.7754 20.9018 5.14641C20.9694 5.15411 21.0343 5.08595 21.0884 5.03997C21.1425 4.99399 21.215 5.05614 21.2265 4.98125V5.04914L21.2486 4.98125C21.636 4.6749 22.0071 4.36552 22.3945 4.08199C22.8978 3.69575 23.3987 3.31829 23.9805 3.12401C24.2302 2.98294 24.4022 2.76761 24.6336 2.5918L24.8327 2.68961C24.6224 2.9605 24.3679 3.19822 24.0738 3.34142C24.0418 3.35771 23.9805 3.33689 23.9588 3.34142C23.7753 3.66732 23.4024 3.66732 23.1578 3.88893C22.9859 4.04862 22.6713 4.0584 22.6859 4.42993C22.6442 4.44791 22.6014 4.46208 22.5577 4.4723C22.2984 4.55377 22.2373 4.75583 22.4499 4.94811C22.5357 5.01576 22.6015 5.11052 22.6388 5.22026C22.6762 5.32999 22.6835 5.44971 22.6596 5.56407C22.6043 5.86716 22.8344 6.02685 22.8956 6.25498C23.0005 6.62651 23.2014 6.98826 23.1199 7.40868C23.0791 7.40868 23.0296 7.40867 23.0325 7.48689C23.0338 7.49151 23.036 7.4957 23.039 7.49911C23.0421 7.50252 23.0459 7.50504 23.05 7.50644C23.0878 7.51948 23.0849 7.46408 23.0937 7.41519Z"
          fill="#2776F1"/>
    <path d="M7.78613 14.7056C8.30463 14.7349 8.80274 14.9174 9.31542 14.9859C9.75544 15.0326 10.1923 15.1109 10.6233 15.2205C11.4593 15.4584 12.3186 15.403 13.1605 15.5301C14.7047 15.585 16.2502 15.4814 17.7775 15.2205C19.0742 14.9775 20.3541 14.6334 21.608 14.1907C21.7041 14.4872 21.9954 14.6991 21.9459 15.0478C21.9217 15.2358 21.9408 15.4276 22.0015 15.605C22.0622 15.7823 22.1623 15.9394 22.2925 16.0613C22.4702 16.2569 22.6158 16.4818 22.9566 16.3318C23.3557 16.1559 23.7606 15.9864 24.1626 15.8137C24.9362 15.4796 25.6731 15.0477 26.3589 14.5264C26.5452 14.3431 26.7869 14.2464 27.0347 14.2558V14.3308C26.9037 14.4155 26.7697 14.4938 26.6415 14.5818C25.9846 15.0527 25.2926 15.4594 24.5733 15.7974C24.512 15.8113 24.4541 15.8401 24.4038 15.8818C24.3534 15.9234 24.3119 15.977 24.282 16.0385C23.6374 16.2634 23.0084 16.5412 22.4003 16.8696L22.2546 16.9022C21.8676 16.9917 21.4877 17.1159 21.1186 17.2737C20.4108 17.5181 19.6621 17.5996 18.9485 17.7723C16.6693 18.2147 14.3284 18.037 12.1235 17.2542C11.6548 17.093 11.194 16.9048 10.7428 16.6903C10.0113 16.3241 9.30533 15.8971 8.63089 15.4128C8.33668 15.1977 8.06286 14.9402 7.78613 14.7056Z"
          fill="#7CB8FE"/>
    <path d="M27.0342 14.2559C26.7864 14.2464 26.5446 14.3432 26.3584 14.5264C25.6725 15.0478 24.94 15.563 24.1664 15.8971C23.7644 16.0698 23.3527 16.2533 22.9536 16.4293C22.6128 16.5792 22.4696 16.257 22.292 16.0614C22.1618 15.9395 22.0616 15.7824 22.0009 15.605C21.9403 15.4276 21.9211 15.2358 21.9453 15.0479C21.9948 14.6991 21.7035 14.4873 21.6074 14.1907C21.6305 14.1935 21.6538 14.1891 21.6748 14.1782C21.6958 14.1673 21.7138 14.1503 21.7269 14.1288C21.9559 14.0839 22.176 13.9934 22.3764 13.8616C23.0677 13.612 23.7305 13.273 24.3514 12.8513C24.7417 12.7796 25.0388 12.4863 25.3738 12.2875C26.0405 11.8757 26.6809 11.4129 27.2905 10.9024C27.7683 10.5146 28.211 10.0713 28.6713 9.66069C28.6967 9.63734 28.7165 9.60717 28.7287 9.57298C28.7409 9.53879 28.7452 9.5017 28.7412 9.46516L28.9189 9.33479C28.9551 9.33463 28.9905 9.32248 29.0205 9.29986C29.0506 9.27724 29.074 9.24517 29.0878 9.20769C29.5342 8.79241 29.9475 8.33441 30.3229 7.8389C30.3608 7.79001 30.3899 7.73788 30.454 7.73462C31.0569 8.26258 31.6337 8.82639 32.26 9.3185C32.5513 9.55967 32.5513 9.57596 32.26 9.8595C31.6774 10.4787 31.0569 11.0458 30.4336 11.6096C29.8102 12.1734 29.1898 12.6753 28.5518 13.1837C28.1548 13.4492 27.7717 13.7397 27.4041 14.0539C27.301 14.1601 27.1725 14.2303 27.0342 14.2559Z"
          fill="#7CB8FE"/>
    <path d="M12.225 14.3991C12.0322 14.4914 11.8225 14.5305 11.6133 14.5132C10.6263 14.6331 9.62793 14.489 8.70041 14.0928C7.60419 13.5588 6.60423 12.8056 5.74962 11.8701C4.8903 10.9544 4.15916 9.91473 3.34354 8.95984C3.02482 8.52116 2.65891 8.12819 2.25411 7.78985C2.17144 7.71657 2.06823 7.67847 1.96281 7.68231C1.75308 7.1739 1.54918 6.66223 1.3278 6.16034C1.25497 5.99413 1.28993 5.93547 1.43557 5.89963C2.21874 5.65855 3.04771 5.67779 3.82126 5.95502C4.28314 6.16869 4.69917 6.48974 5.04178 6.89688C5.91565 7.84526 6.45163 9.06087 7.10996 10.1787C7.51384 10.9352 8.04272 11.5988 8.66836 12.1341C9.1796 12.542 9.78839 12.7691 10.4161 12.7859C10.6433 12.7859 10.8734 12.7859 11.1007 12.7696C11.1007 12.8316 11.1007 12.9163 11.1443 12.9456C11.5259 13.1346 11.4356 13.5388 11.4211 13.8484C11.4065 14.158 11.4648 14.1743 11.6599 14.2199C11.7803 14.242 11.9021 14.2528 12.0241 14.2525C12.094 14.2786 12.2047 14.2427 12.225 14.3991Z"
          fill="#194FE5"/>
    <path d="M12.1322 14.4068C12.1118 14.2503 12.0596 14.259 11.9693 14.2525C11.8473 14.2528 11.7255 14.2419 11.6052 14.2199C11.41 14.1742 11.343 14.1188 11.3663 13.8483C11.3896 13.5778 11.4712 13.1346 11.0896 12.9456C11.0343 12.9163 11.0517 12.8315 11.0459 12.7696C11.5498 12.6001 12.0654 12.473 12.5519 12.2547C13.4344 11.8338 14.275 11.3106 15.0599 10.6936C15.5056 10.3677 15.9338 9.99944 16.3795 9.65725C16.9387 9.22054 17.4398 8.67954 17.9641 8.19069C18.3049 7.86479 18.6981 7.4946 19.036 7.1687C19.1796 7.42885 19.249 7.82234 19.2226 8.12668C19.2226 8.43629 19.4267 8.57521 19.5024 8.87178C19.552 9.06406 19.7293 9.10321 19.9158 9.13254C20.0235 9.14884 20.1459 9.08366 20.2391 9.19772L19.7235 9.64421C19.4688 9.75169 19.2439 9.95246 19.036 10.1491C18.7185 10.475 18.3178 10.7439 18.0097 11.0006C17.758 11.2761 17.4352 11.4111 17.1701 11.6393C16.7419 12.0075 16.3097 12.3713 15.864 12.7037C15.6046 12.9039 15.1815 13.124 14.8377 13.3424C14.1997 13.7223 13.4797 14.0757 12.7853 14.3003C12.593 14.2352 12.8786 14.3796 12.3043 14.3698L12.1322 14.4068Z"
          fill="#094EFD"/>
    <path d="M33.3086 2.43534C33.3735 2.42482 33.4377 2.40957 33.5009 2.38971C33.5679 2.36689 33.589 2.37889 33.6494 2.23653C33.589 2.166 33.5882 2.11269 33.53 2.07684C33.4114 2.00522 33.3207 1.88695 33.2755 1.74489C33.2303 1.60283 33.2338 1.44707 33.2853 1.30772C33.2976 1.28623 33.3139 1.26787 33.3329 1.25383C33.352 1.2398 33.3735 1.2304 33.396 1.22624C33.8883 1.1578 34.3485 0.900332 34.8525 0.952476C35.0214 0.968771 35.1023 0.978845 35.2683 0.99514C35.3645 0.99514 35.5457 1.16106 35.5865 0.968777C35.5951 0.96391 35.6046 0.961368 35.6142 0.961368C35.6238 0.961368 35.6545 0.96391 35.6631 0.968777C35.765 1.27513 35.9739 1.13498 36.1574 1.14802L36.2823 1.14802C36.3917 1.14802 36.362 1.1127 36.4812 1.20802C36.761 1.20802 36.6264 1.20802 36.7284 1.22298C37.1857 1.30446 37.1944 1.30771 37.0838 1.79982C36.8972 2.56656 36.6241 3.3036 36.271 3.99315C35.8638 4.84606 35.4175 5.67495 34.934 6.47652C34.7738 6.73724 34.6107 6.99471 34.4446 7.25217C34.3835 7.34668 34.3136 7.43141 34.1854 7.39882C33.6357 7.2876 33.0777 7.23631 32.5192 7.24565C32.5775 7.17395 32.6095 7.28612 32.6561 7.16879C32.5512 7.23397 32.5192 7.08009 32.4041 7.25008L31.9679 7.27824C31.9632 7.26641 31.9764 7.27309 31.9679 7.26422C31.9595 7.25534 31.962 7.26876 31.9512 7.26422C31.9403 7.25967 31.9628 7.24959 31.9512 7.25008C31.9396 7.25056 31.9464 7.23817 31.9359 7.24361C31.9362 7.25013 31.8786 7.23914 31.8784 7.24565L31.9512 7.27824C31.7089 7.35305 31.4596 7.39572 31.2084 7.40534C31.1634 7.27523 31.1634 7.27523 30.9768 7.27523C30.7583 7.3339 30.5103 7.27523 30.5734 6.9393C30.574 6.9074 30.5669 6.8759 30.553 6.84805C30.2865 6.40331 30.0694 5.92398 29.9063 5.4206C29.8927 5.39249 29.874 5.36783 29.8514 5.3482C29.8289 5.32856 29.7917 5.36712 29.764 5.35927C29.4581 5.2615 29.4839 4.93826 29.4839 4.65473C29.4839 4.37119 29.6849 4.37119 29.8364 4.32883C30.0553 4.26275 30.2513 4.12416 30.3986 3.93123C30.6257 3.72915 30.8922 3.58961 31.1763 3.52385C31.5682 3.34505 31.9752 3.21075 32.391 3.12298C32.474 3.23321 32.5863 3.31096 32.7115 3.34495C32.8367 3.37894 32.9683 3.3674 33.0872 3.31201C33.0872 3.49778 33.1338 3.73895 32.8309 3.52711C32.7966 3.50567 32.7589 3.49219 32.7199 3.48749C32.6808 3.48278 32.6414 3.48695 32.6038 3.49973C32.5663 3.51251 32.5314 3.53365 32.5014 3.56188C32.4713 3.59011 32.4467 3.62483 32.4289 3.66398C32.3925 3.79065 32.3789 3.92413 32.3889 4.0567C32.3989 4.18927 32.4323 4.31831 32.4872 4.43637C32.4987 4.44609 32.5119 4.45313 32.5259 4.45705C32.5399 4.46097 32.5545 4.46169 32.5687 4.45919C33.0144 4.27016 33.1513 4.54067 33.1979 4.97412C33.2064 5.00466 33.2226 5.03182 33.2445 5.05233C33.3407 5.18627 33.3857 5.35727 33.3698 5.52814C33.3698 5.75302 33.3698 5.97789 33.3698 6.1995C33.3531 6.29182 33.3689 6.38779 33.4139 6.46736C33.459 6.54693 33.5298 6.60392 33.6115 6.62643C33.7659 6.69487 34.0194 6.69813 33.9786 7.04685C33.9786 7.14788 34.1737 7.29127 34.2932 7.14788C34.5065 6.88369 34.7012 6.6015 34.8758 6.30379C35.0826 5.96159 35.2515 5.59006 35.4583 5.24135C35.5516 5.07514 35.6186 4.86982 35.7059 4.7362C35.9419 4.37445 36.0788 3.9573 36.306 3.59881C36.4379 3.33522 36.5538 3.06191 36.6526 2.78079C36.8232 2.47575 36.9297 2.13146 36.9643 1.77376C36.9643 1.44785 36.9148 1.41526 36.6264 1.48696C36.338 1.55866 36.1458 1.7151 35.8895 1.79657C35.2 1.97549 34.5248 2.21747 33.8708 2.52007C33.7867 2.54944 33.7108 2.6027 33.6505 2.67467C33.5903 2.74664 33.5478 2.83485 33.5271 2.9307C33.4834 3.1295 33.3698 3.35438 33.1076 3.29897C33.2214 3.19981 33.3027 3.06144 33.3391 2.9053C33.3754 2.74916 33.3647 2.58398 33.3086 2.43534Z"
          fill="#194FE5"/>
    <path d="M21.2114 5.05556H21.1881H21.1677C21.0629 5.09467 20.9813 5.20547 20.8561 5.18266C20.5971 4.63171 20.276 4.12022 19.9006 3.6607C19.7973 3.56866 19.6999 3.46845 19.6093 3.36087C19.6093 3.17836 19.4957 3.19466 19.3938 3.18814H19.3792C19.3454 3.11273 19.3263 3.03012 19.3233 2.94582C19.3203 2.86152 19.3334 2.77747 19.3617 2.69929C19.4404 2.33102 19.1112 1.81283 18.8141 1.87476C18.4214 1.92024 18.0321 1.99647 17.6489 2.10288C17.4567 2.17458 17.3576 2.10288 17.4363 1.85194C18.0308 1.20358 18.7562 0.725106 19.5511 0.457079C20.1616 0.237669 20.8112 0.191747 21.4416 0.323458C21.3309 0.466855 21.3987 0.671737 21.1812 0.782211C21.1812 0.782211 21.1579 0.878877 21.1812 0.888654C21.6152 1.13634 21.5067 1.52852 21.3678 1.84663C21.2862 2.1041 21.4233 2.03996 21.5544 2.05952C21.9622 2.12796 22.1903 2.66448 22.5806 2.80461C22.2718 2.80461 22.2921 2.93166 22.394 3.12394L22.4873 3.23038C22.566 3.36074 22.6652 3.52708 22.6739 3.6607C22.6826 3.79432 22.4349 3.85624 22.3271 3.94423C22.1086 4.13 21.963 4.41353 21.7183 4.54063C21.5011 4.64132 21.3219 4.82335 21.2114 5.05556ZM20.6784 0.38538C20.7542 0.430462 20.8387 0.454036 20.9245 0.454036C21.0103 0.454036 21.0949 0.430462 21.1707 0.38538C21.0929 0.347804 21.0092 0.328421 20.9245 0.328421C20.8399 0.328421 20.7561 0.347804 20.6784 0.38538Z"
          fill="#194FE5"/>
    <path d="M24.2818 16.0385C24.3116 15.977 24.3532 15.9234 24.4035 15.8818C24.4538 15.8401 24.5117 15.8113 24.573 15.7974C25.2924 15.4594 25.9843 15.0527 26.6412 14.5818C26.7694 14.4938 26.9034 14.4155 27.0345 14.3308C27.0611 14.8617 27.0079 15.3937 26.8772 15.9049C26.6715 17.1668 26.2265 18.3648 25.5722 19.4181C25.3129 19.8166 25.0203 20.1865 24.6983 20.5229C24.4888 20.7117 24.2657 20.8806 24.0312 21.0281C24.077 20.7911 24.1433 20.5597 24.2293 20.3372C24.3021 20.1873 24.3225 20.096 24.2089 19.982C24.1883 19.96 24.1718 19.9338 24.1603 19.9047C24.1488 19.8756 24.1426 19.8443 24.1419 19.8125C24.1013 19.0282 24.1922 18.2423 24.4099 17.4953C24.5829 17.0806 24.6667 16.6263 24.6546 16.1689C24.7274 16.0939 24.7391 16.0092 24.6546 15.8788V16.1689L24.2818 16.0385Z"
          fill="#194FE5"/>
    <path d="M24.7626 16.2163C24.7746 16.6737 24.6557 17.0789 24.4827 17.4936C24.265 18.2405 24.1316 19.028 24.1722 19.8124C24.1728 19.8442 24.1791 19.8755 24.1906 19.9046C24.2021 19.9337 24.2186 19.9599 24.2392 19.9818C24.3528 20.0959 24.3324 20.1871 24.2596 20.3371C24.1736 20.5596 24.1072 20.791 24.0615 21.028C24.0555 21.0637 24.0418 21.0973 24.0215 21.1258C24.0012 21.1542 23.9749 21.1766 23.945 21.1909C23.1285 21.7402 22.1664 22.0829 21.2174 22.1771C21.2174 22.0043 21.0379 21.7524 21.2622 21.6449C21.7544 21.3582 22.2122 21.0052 22.6168 20.5804C22.7654 20.4501 23.0549 20.3371 22.8034 19.9046C22.751 19.8459 22.8034 19.7137 22.8034 19.6224C22.8209 19.1792 22.8034 18.7819 22.8034 18.3451C22.8034 18.0192 22.6985 17.6229 22.7101 17.2807C22.6113 16.9848 22.6533 16.9534 22.3938 16.855C23.0019 16.5265 23.7083 16.2283 24.353 16.0034L24.7626 15.7905L24.7626 16.2163Z"
          fill="#2776F1"/>
    <path d="M21.212 5.05562C21.3219 4.80895 21.5083 4.61548 21.7364 4.51136C21.9811 4.38426 22.1267 4.10073 22.3452 3.91497C22.4529 3.82697 22.6685 3.81719 22.6569 3.64446C22.6452 3.47173 22.5112 3.38375 22.4326 3.25339L22.3393 3.09369C22.2374 2.91118 22.1995 2.76778 22.5083 2.76778C22.118 2.62765 21.9053 2.2105 21.4975 2.14206C21.3664 2.1225 21.2587 2.07362 21.3402 1.81616C21.4393 1.49025 21.6217 1.14618 21.1818 0.888717C21.1643 0.888717 21.1596 0.766752 21.1683 0.756975C21.2751 0.569391 21.3373 0.431068 21.4596 0.294189C21.7364 0.39196 22.016 0.473437 22.2869 0.590761C23.1503 0.992586 23.9161 1.61811 24.5211 2.41581C24.5823 2.49403 24.6493 2.56899 24.7134 2.6472C24.482 2.82301 24.2407 2.98195 23.991 3.12302C23.4377 3.41132 22.9067 3.75034 22.4034 4.13658C21.9898 4.44618 21.5995 4.74928 21.212 5.05562ZM22.7501 3.07087C22.7486 3.07838 22.7486 3.08618 22.7501 3.09369L22.7297 3.06762C22.7297 3.02199 22.7297 2.96659 22.6598 2.9731C22.6553 2.97377 22.6512 2.97605 22.6481 2.97958C22.6449 2.98311 22.6429 2.98771 22.6423 2.99266C22.6598 3.06436 22.7093 3.06435 22.7501 3.07087Z"
          fill="#194FE5"/>
    <path d="M22.4002 16.8695C22.6915 16.7978 22.7672 16.9575 22.7585 17.2639C22.7497 17.5702 22.8255 17.9646 22.8255 18.2905C22.8255 18.7272 22.8517 19.1704 22.8255 19.6136C22.8255 19.7049 22.7643 19.8287 22.8255 19.8874C23.1896 20.298 22.7497 20.4707 22.6012 20.6011C22.1965 21.0259 21.7418 21.3867 21.2496 21.6733C21.0253 21.7809 21.2001 21.9992 21.2117 22.1752C20.7515 22.261 20.2826 22.273 19.8193 22.2111C20.0582 21.9927 20.2912 21.8428 20.4951 21.644C21.1106 20.9788 21.5638 20.1486 21.8118 19.2323C22.0479 18.48 22.1967 17.6968 22.2545 16.9021L22.4002 16.8695Z"
          fill="#7CB8FE"/>
    <path d="M17.4396 1.84863C17.3668 2.08654 17.46 2.17454 17.6523 2.09958C18.0354 1.99317 18.4248 1.91694 18.8175 1.87145C19.1087 1.80953 19.4437 2.32771 19.3651 2.69598C19.3367 2.77417 19.3237 2.85822 19.3267 2.94252C19.3297 3.02681 19.3487 3.10943 19.3826 3.18483C19.0359 2.91552 18.6463 2.72302 18.2349 2.61777C17.759 2.51671 17.2709 2.51009 16.793 2.59821C16.9386 2.28314 17.1634 2.02259 17.4396 1.84863Z"
          fill="#194FE5"/>
    <path d="M36.167 1.15131C35.9834 1.15131 35.7533 1.27842 35.6514 0.972073C35.8524 0.926446 36.0097 1.08288 36.167 1.15131Z"
          fill="#4EF8F8"/>
    <path d="M20.8623 5.18594C20.9876 5.20876 21.0691 5.09795 21.174 5.05884C21.1625 5.13374 21.1261 5.20097 21.072 5.24695C21.0179 5.29293 20.9503 5.31422 20.8827 5.30653L20.8623 5.18594Z"
          fill="#194FE5"/>
    <path d="M32.3975 7.26842C32.4703 7.05333 32.6305 7.2228 32.7354 7.15762C32.6888 7.27494 32.5839 7.18695 32.5256 7.25865L32.3975 7.26842Z"
          fill="#4EF8F8"/>
    <path d="M19.4053 3.18431C19.5072 3.18431 19.6267 3.18431 19.6208 3.35704C19.5358 3.32338 19.4611 3.26349 19.4053 3.18431Z"
          fill="#025AC2"/>
    <path d="M31.9459 7.29118L31.873 7.25858C31.8733 7.25207 31.8733 7.24554 31.873 7.23903C31.8836 7.23359 31.8949 7.23053 31.9065 7.23005C31.9181 7.22956 31.9296 7.23166 31.9404 7.23621C31.9513 7.24075 31.9612 7.24767 31.9696 7.25654C31.9781 7.26542 31.9849 7.27608 31.9896 7.28791H31.9604L31.9459 7.29118Z"
          fill="#4EF8F8"/>
    <path d="M12.8196 14.2525C13.514 14.028 14.1856 13.7232 14.8237 13.3433C15.1674 13.1249 15.5053 12.8609 15.8432 12.6198C16.3005 12.2939 16.7346 11.9289 17.1628 11.5606C17.4278 11.3325 17.7453 11.163 17.9813 10.9479C18.3163 10.6383 18.7066 10.4297 19.0241 10.1136C19.232 9.91695 19.4685 9.76153 19.7232 9.65405C19.9291 10.0282 20.1994 10.3528 20.5185 10.6089C20.7149 10.8733 20.9271 11.1227 21.1535 11.3553C21.1838 11.3964 21.1993 11.4487 21.1972 11.5019C21.1905 11.7575 21.2416 12.0108 21.3457 12.2385C21.3952 12.3623 21.3982 12.5252 21.2263 12.5057C21.0544 12.4861 21.0136 12.5513 21.0399 12.6849C21.0661 12.8186 21.0399 13.0369 21.2263 13.0108C21.4127 12.9848 21.4244 13.0728 21.4302 13.2162C21.436 13.3596 21.4564 13.441 21.5205 13.4736C21.8118 13.6235 21.8427 13.9109 21.7669 14.1748C21.7539 14.1963 21.6689 14.183 21.6479 14.1939C21.6269 14.2048 21.6709 14.1966 21.6479 14.1939C20.3941 14.6367 19.1196 15.0154 17.8228 15.2583C16.2955 15.5192 14.6959 15.5817 13.1517 15.5268C13.2449 15.3215 13.3031 15.1422 12.9973 15.1129C12.8691 15.1129 12.8545 14.9597 12.8662 14.8392C12.8857 14.7425 12.8799 14.6415 12.8494 14.5485C12.8189 14.4554 12.7651 14.3741 12.6943 14.3144C12.7076 14.2916 12.7265 14.2736 12.7487 14.2626C12.771 14.2516 12.7956 14.2481 12.8196 14.2525Z"
          fill="#2776F1"/>
    <path d="M12.8193 14.2526C12.7964 14.2504 12.7734 14.2554 12.7529 14.2669C12.7323 14.2784 12.715 14.296 12.7028 14.3178L12.3037 14.3797C12.4144 14.0473 12.6271 14.1874 12.8193 14.2526Z"
          fill="#3E03B1"/>
    <path d="M33.3444 2.39698C33.4066 2.56622 33.4195 2.75551 33.3811 2.93457C33.3427 3.11363 33.2552 3.27211 33.1327 3.38466H33.1112C32.9859 3.44707 32.8472 3.46007 32.7154 3.42178C32.5835 3.38348 32.4652 3.29588 32.3778 3.1717C32.2935 2.96965 32.2645 2.741 32.2949 2.51814C32.313 2.37663 32.3687 2.24586 32.4538 2.1453C32.539 2.04474 32.649 1.97977 32.7675 1.96005C32.8915 1.93777 33.018 1.96966 33.124 2.0499C33.2299 2.13014 33.3082 2.25335 33.3444 2.39698Z"
          fill="#056ECE"/>
    <path d="M29.0884 9.20765C29.0746 9.24513 29.0512 9.2772 29.0211 9.29981C28.991 9.32243 28.9557 9.33458 28.9194 9.33474C28.8058 9.31845 28.765 9.21742 28.8262 9.14246C28.8874 9.06751 28.9981 9.18809 29.0884 9.20765Z"
          fill="#71BBF1"/>
    <path d="M21.7305 14.1741C21.8185 13.8951 21.8287 13.6497 21.5004 13.5018C21.4259 13.4682 21.3955 13.3404 21.3955 13.2362C21.3955 13.132 21.3616 13.0042 21.1586 13.0244C20.9555 13.0446 20.9691 12.8126 20.942 12.6882C20.9149 12.5639 20.9826 12.4832 21.1586 12.5033C21.3345 12.5235 21.3549 12.3554 21.2973 12.2277C21.1763 11.9929 21.1169 11.7316 21.1247 11.4679C21.1237 11.4388 21.1169 11.4101 21.1047 11.3836C21.0925 11.3571 21.0752 11.3332 21.0537 11.3133C20.7875 11.077 20.5376 10.8232 20.3057 10.5536C19.9351 10.2893 19.621 9.95449 19.3818 9.56858L19.9808 9.10803C20.188 9.08307 20.3815 8.99228 20.5325 8.84918C20.8022 8.62286 21.1105 8.44637 21.4428 8.32811C21.7813 8.19364 22.0452 7.91798 22.4175 7.80032C22.7289 7.70283 22.7559 7.84739 22.7559 8.03901C22.7661 8.20358 22.7661 8.36861 22.7559 8.53318C22.7431 8.6194 22.7518 8.70743 22.7813 8.7895C22.8109 8.87158 22.8602 8.94518 22.9252 9.00382C23.1147 9.16182 23.0131 9.39714 23.0165 9.59548C23.0199 9.79382 23.0639 10.0325 23.355 10.0325C23.426 10.0325 23.5106 10.0695 23.5106 10.13C23.4903 10.4897 23.8118 10.7586 23.7442 11.1385C23.7225 11.2585 23.7296 11.3819 23.7648 11.4988C23.8001 11.6156 23.8626 11.7225 23.9472 11.8108C24.0729 12.0159 24.1536 12.245 24.1841 12.4832C24.2552 12.6983 24.3059 12.863 24.5834 12.7588C24.6782 12.7218 24.7256 12.7857 24.7357 12.8765C24.0144 13.3115 23.2443 13.6612 22.4412 13.9186C22.2204 14.0429 21.9802 14.1292 21.7305 14.1741Z"
          fill="#2776F1"/>
    <path d="M23.0933 7.41504C23.0933 7.46392 23.0933 7.51932 23.0233 7.51281C23.0192 7.51141 23.0155 7.50889 23.0124 7.50548C23.0094 7.50206 23.0071 7.49787 23.0059 7.49325C23.0059 7.42155 23.0525 7.42482 23.0933 7.41504Z"
          fill="#4EF8F8"/>
    <path d="M33.0295 3.33676L33.1228 3.23032C33.3849 3.28572 33.4522 3.10979 33.4959 2.91099C33.5166 2.81514 33.6223 2.66364 33.6825 2.59167C33.7428 2.5197 33.785 2.51459 33.8691 2.48522C34.5231 2.18263 35.2321 1.91905 35.9216 1.74013C36.1779 1.65865 36.4023 1.48598 36.6615 1.4208C36.9208 1.35562 36.9849 1.4771 36.9732 1.79974C36.9386 2.15744 36.8321 2.50173 36.6615 2.80677C36.5626 3.0879 36.4468 3.3612 36.3149 3.62479C36.0877 3.98328 35.9508 4.40044 35.7148 4.76219C35.6274 4.89581 35.5604 5.0881 35.4672 5.26734C35.2662 5.61606 35.0973 5.98758 34.8846 6.32977C34.7101 6.62748 34.5154 6.90969 34.3021 7.17387C34.1826 7.31727 33.9507 7.16327 33.9624 7.06224C34.0032 6.71353 33.7748 6.72086 33.6204 6.65242C33.5387 6.62991 33.4679 6.57291 33.4228 6.49334C33.3778 6.41378 33.2926 6.30302 33.3093 6.21071C33.3239 5.98909 33.3093 5.79692 33.3093 5.57205C33.3253 5.40118 33.3496 5.21225 33.2534 5.07831C33.2315 5.0578 33.1312 4.96395 33.1227 4.9334C33.082 4.49995 33.0233 4.29615 32.5776 4.48518C32.5633 4.48768 32.5488 4.48695 32.5348 4.48303C32.5207 4.47911 32.5076 4.47208 32.496 4.46236C32.4412 4.34431 32.3864 4.21443 32.3764 4.08186C32.3664 3.94929 32.3615 3.80306 32.3978 3.67639C32.4156 3.63724 32.4396 3.57788 32.4697 3.54965C32.4998 3.52142 32.5254 3.45599 32.563 3.44321C32.6005 3.43042 32.6173 3.4385 32.6563 3.44321C32.6953 3.44791 32.8184 3.49203 32.8527 3.51347C33.1469 3.71227 33.012 3.52253 33.0295 3.33676Z"
          fill="#194FE5"/>
    <path d="M20.6787 0.385328C20.7564 0.347751 20.8402 0.328369 20.9249 0.328369C21.0095 0.328369 21.0933 0.347751 21.171 0.385328C21.0952 0.43041 21.0107 0.453984 20.9249 0.453984C20.839 0.453984 20.7545 0.43041 20.6787 0.385328Z"
          fill="#194FE5"/>
    <path d="M24.6484 16.1687V15.8787C24.7329 16.009 24.7213 16.0938 24.6484 16.1687Z" fill="#2776F1"/>
    <path d="M22.749 3.07727C22.7082 3.07727 22.6185 3.05772 22.6243 2.98276C22.6249 2.97781 22.6734 2.91746 22.6703 2.98924C22.6734 2.91746 22.669 2.91813 22.6734 2.91746C22.7346 2.91746 22.7432 3.03164 22.7519 3.07727H22.749Z"
          fill="#2776F1"/>
    <path d="M22.7529 3.0708L22.7732 3.09688C22.7717 3.08937 22.7717 3.08157 22.7732 3.07406L22.7529 3.0708Z"
          fill="#2776F1"/>
    <g style="mix-blend-mode:color-dodge">
        <path d="M8.53207 14.518C8.39225 14.518 8.43013 14.6516 8.41265 14.7266C8.2167 15.7209 7.92365 16.6881 7.53877 17.6108C7.32358 18.1283 7.05994 18.6188 6.75228 19.0741C6.10215 20.0513 5.23715 20.8237 4.24134 21.3163C3.43175 21.7038 2.55479 21.8831 1.67505 21.841C1.52358 21.841 1.43619 21.841 1.54397 21.6162C1.90226 20.8601 2.24016 20.0909 2.59262 19.3348C3.15773 18.1138 3.72478 16.8938 4.29377 15.675C4.55593 15.1101 4.82489 14.5506 5.10065 13.9966C5.14372 13.9223 5.16785 13.8363 5.17042 13.7479C5.17299 13.6594 5.1539 13.5719 5.11522 13.4947C4.4365 11.8424 3.76653 10.1835 3.09365 8.52793C2.95091 8.17921 2.80236 7.83376 2.66836 7.4883C2.77377 7.48446 2.87699 7.52257 2.95965 7.59585C3.37111 7.92969 3.7439 8.31941 4.06948 8.75607C4.8851 9.71096 5.61623 10.7506 6.47555 11.6664C7.3319 12.6025 8.33389 13.3557 9.43217 13.889C10.3597 14.2853 11.3581 14.4294 12.3451 14.3094C12.5542 14.3267 12.764 14.2876 12.9568 14.1954H13.0704L13.4695 14.1334C13.5402 14.1931 13.5941 14.2744 13.6246 14.3674C13.6551 14.4605 13.6609 14.5615 13.6413 14.6581C13.6413 14.7787 13.6413 14.9189 13.7724 14.9319C14.0783 14.9612 14.02 15.1405 13.9268 15.3458C13.085 15.2187 12.2257 15.2741 11.3897 15.0362C10.9587 14.9266 10.5218 14.8482 10.0817 14.8015C9.54868 14.7298 9.05057 14.5473 8.53207 14.518Z"
              fill="#2776F1"/>
        <path d="M24.7717 5.58307C25.4167 5.21496 26.0819 4.90019 26.7626 4.64097C27.7435 4.29173 28.7401 4.00949 29.7476 3.79559C31.1688 3.48523 32.6158 3.37941 34.0579 3.48036C34.6521 3.47674 35.2452 3.54515 35.828 3.68454C35.7862 3.89589 35.6429 3.82067 35.5444 3.80992C35.3862 3.79201 35.2459 3.68454 35.0758 3.66663C34.5504 3.60931 34.0788 3.89231 33.5833 3.96753C33.5602 3.97211 33.5382 3.98243 33.5187 3.99786C33.4991 4.01329 33.4825 4.03347 33.4699 4.05709C33.4171 4.21026 33.4135 4.38146 33.4598 4.53761C33.5061 4.69375 33.5991 4.82375 33.7206 4.90247C33.7803 4.94187 33.84 4.97769 33.843 5.07799C33.846 5.17829 33.7594 5.22127 33.6908 5.24635C33.6261 5.26818 33.5603 5.28494 33.4937 5.2965C33.4562 5.15904 33.3791 5.04211 33.2763 4.96662C33.1735 4.89114 33.0516 4.86205 32.9326 4.88456C32.8173 4.9038 32.7103 4.96719 32.6275 5.0653C32.5446 5.1634 32.4904 5.29098 32.4729 5.42904C32.4433 5.64646 32.4715 5.86954 32.5535 6.06666C32.1273 6.16313 31.7103 6.31074 31.3087 6.50727C31.0175 6.57955 30.7445 6.73293 30.5118 6.95503C30.3608 7.16709 30.16 7.31943 29.9357 7.39205C29.7804 7.44937 29.5775 7.46728 29.5745 7.75027C29.5715 8.03325 29.5536 8.34848 29.873 8.46669C29.9014 8.47532 29.928 8.49091 29.9511 8.51249C29.9742 8.53406 29.9933 8.56116 30.0073 8.59206C30.1744 9.14534 30.3969 9.6722 30.67 10.161C30.6842 10.1916 30.6915 10.2263 30.6909 10.2613C30.6909 10.5981 30.8401 10.6518 31.064 10.5873C31.2102 10.5443 31.3177 10.5658 31.3416 10.7736C31.2401 10.9634 31.067 10.9527 30.9147 10.9849C30.7964 11.0102 30.6818 11.0561 30.5744 11.1211C30.5088 11.1211 30.4789 11.1819 30.4401 11.2357C30.0554 11.7803 29.632 12.2837 29.1745 12.7402C29.082 12.7187 28.9984 12.5467 28.9059 12.6685C28.8133 12.7903 28.8849 12.862 29.0014 12.8799L28.8193 13.0232C28.7208 13.0232 28.6581 12.9945 28.6402 12.8512C28.6264 12.7484 28.5881 12.6525 28.5297 12.5754C28.4268 12.4509 28.3469 12.3015 28.2955 12.1373C28.244 11.9731 28.2221 11.7977 28.2312 11.6225C28.2323 11.5479 28.2191 11.4739 28.1928 11.4062C28.1664 11.3385 28.1275 11.279 28.079 11.2321C27.9289 11.0456 27.8291 10.8092 27.7923 10.5537C27.7556 10.2982 27.7837 10.0353 27.873 9.79925C27.9805 9.53775 27.9178 9.40521 27.691 9.35148C27.6153 9.33961 27.545 9.29806 27.491 9.23327C27.437 9.16849 27.4024 9.08411 27.3925 8.99327C27.3507 8.77834 27.4372 8.59923 27.4402 8.3843C27.1119 8.51684 26.8432 8.69952 26.5447 8.83923C25.9806 9.11147 25.4612 9.4876 24.897 9.74909C24.7039 9.8278 24.5178 9.92982 24.3418 10.0536C23.9263 10.3497 23.4848 10.5899 23.0255 10.77C23.109 10.3079 22.9031 9.91029 22.7956 9.50192C22.7329 9.25117 22.4971 9.07565 22.5538 8.74251C22.5782 8.61681 22.5708 8.48523 22.5325 8.36462C22.4942 8.24401 22.4268 8.13984 22.3389 8.06548C22.121 7.85414 22.1837 7.63205 22.4494 7.5425C22.4941 7.53126 22.538 7.51569 22.5807 7.49593C22.5658 7.08756 22.8792 7.07682 23.0643 6.90129C23.315 6.65771 23.6971 6.67204 23.8851 6.2995C23.8851 6.27442 23.9627 6.29949 23.9956 6.27442C24.2937 6.11565 24.5587 5.87954 24.7717 5.58307Z"
              fill="#194FE5"/>
        <path d="M23.8398 9.11827C24.2881 8.95442 24.7188 8.73584 25.1244 8.46646C25.2961 8.35387 25.4777 8.26106 25.6662 8.18945C26.2167 7.95154 26.7236 7.60934 27.2741 7.36165C27.5654 7.23455 27.8305 7.06834 28.148 6.94776C28.148 7.1433 28.0606 7.30626 28.1014 7.5018C28.111 7.58445 28.1448 7.66122 28.1975 7.72016C28.2502 7.7791 28.3188 7.8169 28.3927 7.8277C28.614 7.87658 28.684 7.99717 28.5703 8.23508C28.4832 8.44987 28.4557 8.68901 28.4916 8.92147C28.5274 9.15393 28.6249 9.36898 28.7713 9.53868C28.8186 9.58134 28.8566 9.63551 28.8824 9.69707C28.9081 9.75863 28.9209 9.82596 28.9199 9.89392C28.911 10.0532 28.9324 10.2128 28.9826 10.3623C29.0328 10.5117 29.1107 10.6475 29.2112 10.7608C29.2681 10.831 29.3055 10.9182 29.319 11.0118C29.3364 11.1421 29.3976 11.1682 29.4937 11.1682C29.4978 11.2047 29.4935 11.2418 29.4813 11.276C29.469 11.3102 29.4493 11.3404 29.4238 11.3637C28.9636 11.7744 28.5208 12.2176 28.0431 12.6054C27.4335 13.1159 26.793 13.5787 26.1264 13.9905C25.7914 14.1893 25.4943 14.4826 25.104 14.5543C25.104 14.4663 25.0544 14.4044 24.9729 14.4402C24.734 14.5413 24.6816 14.3816 24.6292 14.173C24.6029 13.9421 24.5334 13.72 24.4253 13.5212C24.3524 13.4355 24.2987 13.3319 24.2683 13.2187C24.2379 13.1054 24.2318 12.9858 24.2505 12.8694C24.3087 12.5077 24.032 12.2469 24.0495 11.8917C24.0495 11.833 23.9767 11.7972 23.9155 11.7972C23.6533 11.7972 23.6242 11.6147 23.6242 11.3735C23.6242 11.1323 23.7087 10.9531 23.5456 10.7999C23.4897 10.7431 23.4472 10.6717 23.4218 10.5921C23.3964 10.5126 23.3889 10.4272 23.3999 10.3437C23.4087 10.1841 23.4087 10.0241 23.3999 9.86459C23.3824 9.67882 23.3708 9.53868 23.1086 9.63319C22.7882 9.74725 22.5668 10.0145 22.2697 10.1449C21.9836 10.2595 21.7182 10.4306 21.4861 10.65C21.3562 10.7887 21.1896 10.8768 21.0113 10.901C20.9181 10.7869 20.7958 10.8521 20.688 10.8358C20.5132 10.8064 20.2598 10.8358 20.2103 10.6402C20.1345 10.3437 19.9335 10.096 19.9335 9.78636C19.96 9.48202 19.8966 9.17636 19.7529 8.91621C20.3588 8.23833 21.0171 7.6289 21.6609 6.9999C21.7285 7.0076 21.7961 6.98631 21.8502 6.94033C21.9043 6.89435 21.9407 6.82711 21.9522 6.75222H21.9726H21.9959C22.3833 6.44587 22.7736 6.14278 23.161 5.85925C23.6643 5.47301 24.1953 5.13399 24.7486 4.84569C24.9983 4.70462 25.2396 4.54568 25.471 4.36987L25.5788 4.39269C25.3685 4.66358 25.1067 4.87848 24.8127 5.02168C24.7806 5.03797 24.7166 5.02168 24.7049 5.04449C24.5214 5.37039 24.1485 5.37039 23.9038 5.59201C23.732 5.7517 23.4174 5.76148 23.432 6.133C23.3903 6.15098 23.3475 6.16516 23.3038 6.17537C23.0445 6.25685 22.9834 6.45891 23.196 6.65119C23.2818 6.71884 23.3476 6.8136 23.3849 6.92333C23.4223 7.03307 23.4295 7.15278 23.4057 7.26715C23.3504 7.57024 23.5805 7.72993 23.6417 7.95806C23.7466 8.32959 23.9475 8.69134 23.866 9.11175C23.8252 9.11175 23.7757 9.11175 23.7786 9.18997C23.7798 9.19458 23.7821 9.19878 23.7851 9.20219C23.7882 9.2056 23.7919 9.20812 23.7961 9.20952C23.8339 9.22256 23.831 9.16715 23.8398 9.11827Z"
              fill="#2776F1"/>
        <path d="M7.56055 14.6197C8.07905 14.649 8.85704 15.6657 9.36971 15.7342C9.80974 15.7809 10.2466 15.8592 10.6776 15.9688C11.5136 16.2067 12.3729 16.1513 13.2148 16.2784C14.759 16.3333 16.3045 16.2297 17.8318 15.9688C19.1285 15.7259 20.4084 15.3817 21.6623 14.939C21.7584 15.2356 22.0497 15.4474 22.0002 15.7961C21.976 15.9841 21.9951 16.1759 22.0558 16.3533C22.1165 16.5307 22.2166 16.6878 22.3468 16.8097C22.5245 17.0052 22.6701 17.2301 23.0109 17.0802C23.41 16.9042 23.8149 16.7347 24.2169 16.562C24.9905 16.2279 25.7274 15.796 26.4132 15.2747C26.5995 15.0914 27.2776 13.3328 27.5255 13.3423L27.089 15.0791C26.958 15.1639 26.824 15.2421 26.6958 15.3301C26.0389 15.801 25.3469 16.2077 24.6276 16.5457C24.5663 16.5596 24.5084 16.5884 24.458 16.6301C24.4077 16.6718 24.3662 16.7253 24.3363 16.7868C23.6917 17.0117 23.0627 17.2895 22.4546 17.6179L22.3089 17.6505C21.9219 17.74 21.542 17.8642 21.1729 18.022C20.4651 18.2664 19.7164 18.3479 19.0028 18.5206C16.7236 18.9631 14.3827 18.7853 12.1778 18.0025C11.7091 17.8413 11.2483 17.6531 10.7971 17.4386C10.0656 17.0724 9.35962 16.6454 8.68518 16.1611C8.39098 15.946 7.83727 14.8543 7.56055 14.6197Z"
              fill="#7CB8FE"/>
        <path d="M25.9307 13.963C25.6839 13.9539 25.4433 14.0468 25.2579 14.2228C24.5751 14.7234 23.8415 15.1381 23.0715 15.4589C22.6713 15.6248 22.2682 15.7875 21.8709 15.9565C21.5317 16.1004 21.3867 15.8845 21.2098 15.6967C21.0802 15.5797 20.9805 15.4288 20.9201 15.2585C20.8597 15.0882 20.8406 14.904 20.8647 14.7235C20.914 14.3886 20.624 14.1852 20.5283 13.9004C20.5513 13.903 20.5744 13.8989 20.5954 13.8884C20.6163 13.8779 20.6342 13.8615 20.6472 13.841C20.8753 13.7979 21.0943 13.711 21.2939 13.5843C21.982 13.3447 22.6419 13.0191 23.2599 12.6142C23.6485 12.5454 23.9443 12.2637 24.2778 12.0728C24.9414 11.6774 25.579 11.233 26.1859 10.7428C26.6614 10.3704 27.1022 9.94476 27.5604 9.55044C27.5857 9.52801 27.6054 9.49905 27.6175 9.46622C27.6297 9.43339 27.634 9.39777 27.63 9.36268L27.8069 9.23749C27.8429 9.23734 27.8781 9.22567 27.9081 9.20395C27.938 9.18223 27.9613 9.15144 27.975 9.11545C28.4195 8.71667 28.8309 8.27688 29.2046 7.80106C29.2423 7.75412 29.2713 7.70406 29.3351 7.70093C29.9353 8.2079 30.5095 8.7493 31.1329 9.22185C31.4229 9.45343 31.4229 9.46908 31.1329 9.74134C30.553 10.3359 29.9353 10.8805 29.3148 11.4219C28.6942 11.9633 28.0765 12.4452 27.4415 12.9334C27.0463 13.1884 26.6648 13.4673 26.2989 13.769C26.1963 13.871 26.0683 13.9384 25.9307 13.963Z"
              fill="#7CB8FE"/>
        <path d="M12.936 16.0827C12.7432 16.1749 12.5334 16.2141 12.3243 16.1968C11.3372 16.3167 10.3389 16.1726 9.41136 15.7764C8.31514 15.2424 7.31518 14.4892 6.46056 13.5537C5.60125 12.6379 4.8701 11.5983 4.05448 10.6434C3.73577 10.2047 3.36986 9.81176 2.96505 9.47343C2.88239 9.40015 2.77917 9.36204 2.67376 9.36589C2.46403 8.85748 2.26013 8.34581 2.03875 7.84392C1.96592 7.67771 2.00088 7.61905 2.14652 7.5832C2.92969 7.34212 3.75866 7.36137 4.53221 7.6386C4.99409 7.85227 5.41012 8.17332 5.75272 8.58046C6.6266 9.52884 7.16258 10.7444 7.8209 11.8623C8.22479 12.6188 8.75366 13.2824 9.37931 13.8177C9.89054 14.2256 10.4993 14.4526 11.1271 14.4695C11.3543 14.4695 11.5844 14.4695 11.8116 14.4532C11.8116 14.5151 11.8116 14.5999 11.8553 14.6292C12.2369 14.8182 12.1466 15.2223 12.132 15.5319C12.1175 15.8416 12.1757 15.8579 12.3709 15.9035C12.4913 15.9255 12.613 15.9364 12.735 15.9361C12.8049 15.9621 12.9156 15.9263 12.936 16.0827Z"
              fill="#194FE5"/>
        <path d="M12.9368 16.0826C12.9164 15.9262 12.8057 15.962 12.7154 15.9555C12.5934 15.9559 12.4716 15.945 12.3513 15.9229C12.1561 15.8773 12.0891 15.8219 12.1124 15.5514C12.1357 15.2809 12.2173 14.8377 11.8357 14.6486C11.7803 14.6193 11.7978 14.5346 11.792 14.4726C12.2959 14.3032 12.8115 14.1761 13.298 13.9577C14.1804 13.5369 15.021 13.0136 15.806 12.3966C16.2517 12.0707 16.6799 11.7025 17.1256 11.3603C17.6848 10.9236 18.1859 10.3826 18.7102 9.89372C19.051 9.56782 19.3889 9.24192 19.7268 8.91602C19.8704 9.17617 19.9339 9.48182 19.9074 9.78617C19.9074 10.0958 20.1084 10.3435 20.1841 10.64C20.2336 10.8323 20.4754 10.8062 20.6618 10.8356C20.7696 10.8519 20.892 10.7867 20.9852 10.9008L20.4696 11.3472C20.2149 11.4547 19.9784 11.6101 19.7705 11.8068C19.453 12.1327 19.0627 12.3315 18.7277 12.6411C18.4917 12.8562 18.1742 13.0256 17.9091 13.2538C17.4809 13.622 17.0353 13.9805 16.5896 14.313C16.2517 14.5541 15.9138 14.8181 15.5701 15.0365C14.932 15.4164 14.2604 15.7211 13.566 15.9457C13.3737 15.8805 13.164 15.7404 13.0504 16.0728L12.9368 16.0826Z"
              fill="#094EFD"/>
        <path d="M22.6079 5.72717H22.5846H22.5642C22.4594 5.76628 22.3778 5.87708 22.2526 5.85427C21.9936 5.30332 21.6725 4.79183 21.2971 4.33231C21.1938 4.24027 21.0964 4.14007 21.0058 4.03248C21.0058 3.84997 20.8922 3.86627 20.7903 3.85975H20.7757C20.7419 3.78435 20.7228 3.70173 20.7198 3.61743C20.7168 3.53313 20.7299 3.44909 20.7582 3.3709C20.8369 3.00263 20.5077 2.48445 20.2106 2.54637C19.8179 2.59186 19.4286 2.66808 19.0454 2.77449C18.8532 2.84619 18.7541 2.7745 18.8328 2.52355C19.4272 1.87519 20.1527 1.39672 20.9476 1.12869C21.558 0.909281 22.2077 0.863359 22.838 0.99507C22.7274 1.13847 22.6895 1.32098 22.5468 1.45786C22.5468 1.45786 22.5468 1.52955 22.5701 1.53933C23.0041 1.78702 22.8177 2.19113 22.7186 2.51704C22.6371 2.7745 22.7448 2.82338 22.8759 2.84294C23.2837 2.91138 23.4964 3.32853 23.8867 3.46866C23.5779 3.46866 23.6158 3.60228 23.7178 3.79457L23.811 3.95427C23.8896 4.08463 24.0265 4.21172 24.0353 4.34534C24.044 4.47896 23.8314 4.52785 23.7236 4.61585C23.5051 4.80161 23.3595 5.08514 23.1148 5.21224C22.8976 5.31293 22.7184 5.49496 22.6079 5.72717ZM22.0749 1.05699C22.1506 1.10207 22.2352 1.12565 22.321 1.12565C22.4068 1.12565 22.4914 1.10207 22.5671 1.05699C22.4894 1.01941 22.4057 1.00003 22.321 1.00003C22.2363 1.00003 22.1526 1.01941 22.0749 1.05699Z"
              fill="#194FE5"/>
        <path d="M25.7372 15.073C25.7576 15.0221 25.7859 14.9779 25.8202 14.9434C25.8546 14.909 25.894 14.8852 25.9359 14.8737C26.4264 14.5943 26.8982 14.2582 27.3462 13.869C27.4336 13.7963 27.5249 13.7317 27.6143 13.6616C27.6325 14.1003 27.5962 14.5401 27.5071 14.9625C27.3668 16.0055 27.0634 16.9955 26.6172 17.8661C26.4404 18.1954 26.2408 18.5011 26.0213 18.7791C25.8784 18.9351 25.7263 19.0747 25.5664 19.1966C25.5976 19.0008 25.6428 18.8095 25.7015 18.6256C25.7511 18.5017 25.765 18.4263 25.6876 18.332C25.6735 18.3139 25.6623 18.2922 25.6544 18.2682C25.6466 18.2442 25.6423 18.2183 25.6419 18.192C25.6142 17.5438 25.6762 16.8942 25.8246 16.2769C25.9426 15.9342 25.9997 15.5588 25.9915 15.1807C26.0411 15.1188 26.0491 15.0487 25.9915 14.941V15.1807L25.7372 15.073Z"
              fill="#194FE5"/>
        <path d="M25.378 16.1221C25.3883 16.5188 25.3167 16.9128 25.1691 17.2725C24.9832 17.9203 24.9056 18.6018 24.9403 19.282C24.9408 19.3096 24.9461 19.3368 24.9559 19.362C24.9658 19.3872 24.9799 19.41 24.9975 19.429C25.0945 19.5279 25.0771 19.6071 25.0149 19.7371C24.9414 19.9301 24.8848 20.1308 24.8457 20.3363C24.8406 20.3673 24.8289 20.3964 24.8116 20.4211C24.7942 20.4457 24.7718 20.4651 24.7463 20.4776C24.0491 20.9539 23.2659 21.2439 22.4556 21.3255C22.4556 21.1757 22.2964 20.9835 22.4879 20.8903C22.9082 20.6417 23.2965 20.3288 23.642 19.9604C23.7688 19.8473 24.1394 19.6975 23.8335 19.3414C23.7887 19.2905 23.8335 19.1831 23.8335 19.104C23.8484 18.7196 23.8335 18.3352 23.8335 17.9565C23.8335 17.6738 23.7663 17.3629 23.7763 17.0661C23.7862 16.7694 23.7265 16.662 23.4704 16.7241C23.9896 16.4393 24.5266 16.1984 25.0771 16.0034L25.378 16.1165V16.1221Z"
              fill="#2776F1"/>
        <path d="M23.6368 16.8691C23.8613 16.8097 23.9197 16.9419 23.9129 17.1957C23.9062 17.4494 23.9646 17.776 23.9646 18.046C23.9646 18.4077 23.9848 18.7748 23.9646 19.1419C23.9646 19.2175 23.9174 19.3201 23.9646 19.3687C24.2452 19.7088 23.9062 19.8518 23.7917 19.9598C23.4798 20.3117 23.1293 20.6105 22.7499 20.8479C22.577 20.937 22.7117 21.1179 22.7207 21.2636C22.3659 21.3346 22.0046 21.3446 21.6475 21.2933C21.8316 21.1124 22.0112 20.9883 22.1684 20.8236C22.6428 20.2727 22.9921 19.5851 23.1832 18.8261C23.3652 18.203 23.4799 17.5543 23.5245 16.896L23.6368 16.8691Z"
              fill="#7CB8FE"/>
        <path d="M19.4953 1.95312C19.4225 2.19103 19.5157 2.27903 19.7079 2.20408C20.0911 2.09766 20.4804 2.02143 20.8731 1.97594C21.1644 1.91402 21.4994 2.4322 21.4207 2.80047C21.3924 2.87866 21.3793 2.96271 21.3823 3.04701C21.3854 3.13131 21.4044 3.21392 21.4382 3.28933C21.0916 3.02001 20.702 2.82752 20.2905 2.72226C19.8146 2.6212 19.3266 2.61458 18.8486 2.70271C18.9942 2.38764 19.219 2.12708 19.4953 1.95312Z"
              fill="#194FE5"/>
        <path d="M21.6084 6.88883C21.7337 6.91164 21.8152 6.80083 21.9201 6.76172C21.9086 6.83662 21.8722 6.90385 21.8181 6.94983C21.764 6.99581 21.6964 7.01711 21.6288 7.00941L21.6084 6.88883Z"
              fill="#194FE5"/>
        <path d="M13.5842 15.9828C14.2786 15.7582 14.9503 15.4534 15.5883 15.0735C15.9321 14.8551 16.27 14.5912 16.6079 14.35C17.0652 14.0241 17.4992 13.6591 17.9274 13.2908C18.1925 13.0627 18.51 12.8932 18.7459 12.6781C19.0809 12.3685 19.4713 12.1599 19.7888 11.8438C19.9967 11.6472 20.2331 11.4918 20.4879 11.3843C20.6938 11.7584 20.9641 12.083 21.2831 12.3392C21.4796 12.6036 21.6917 12.8529 21.9181 13.0855C21.9484 13.1266 21.964 13.1789 21.9618 13.2321C21.9551 13.4877 22.0062 13.7411 22.1104 13.9687C22.1599 14.0925 22.1628 14.2555 21.9909 14.2359C21.8191 14.2164 21.7783 14.2815 21.8045 14.4152C21.8307 14.5488 21.8045 14.7671 21.9909 14.7411C22.1774 14.715 22.189 14.803 22.1949 14.9464C22.2007 15.0898 22.2211 15.1713 22.2852 15.2038C22.5764 15.3538 22.559 15.5917 22.4832 15.8557C22.4702 15.8771 22.4522 15.8942 22.4312 15.9051C22.4101 15.916 22.3868 15.9203 22.3638 15.9176C21.11 16.3603 19.83 16.7045 18.5333 16.9474C17.006 17.2083 15.4605 17.3119 13.9163 17.257C14.0095 17.0517 14.0678 16.8725 13.7619 16.8431C13.6338 16.8431 13.6192 16.69 13.6308 16.5694C13.6504 16.4727 13.6446 16.3718 13.6141 16.2787C13.5836 16.1856 13.5297 16.1043 13.459 16.0447C13.4722 16.0219 13.4911 16.0039 13.5134 15.9929C13.5356 15.9819 13.5602 15.9784 13.5842 15.9828Z"
              fill="#2776F1"/>
        <path d="M13.5654 15.9555C13.5425 15.9533 13.5195 15.9583 13.499 15.9698C13.4784 15.9813 13.4611 15.9989 13.4489 16.0206L13.0498 16.0826C13.1605 15.7501 13.3731 15.8903 13.5654 15.9555Z"
              fill="#3E03B1"/>
        <path d="M34.0552 4.13836C34.1142 4.28857 34.1265 4.45659 34.09 4.61552C34.0536 4.77446 33.9706 4.91513 33.8542 5.01503H33.8338C33.7149 5.07042 33.5833 5.08196 33.4581 5.04797C33.3329 5.01398 33.2206 4.93622 33.1376 4.826C33.0577 4.64666 33.0301 4.44371 33.059 4.2459C33.0761 4.12029 33.129 4.00422 33.2098 3.91496C33.2907 3.82571 33.3951 3.76803 33.5076 3.75053C33.6253 3.73075 33.7454 3.75907 33.846 3.83029C33.9466 3.90151 34.0208 4.01087 34.0552 4.13836Z"
              fill="#056ECE"/>
        <path d="M29.8345 10.9108C29.8207 10.9483 29.7973 10.9803 29.7672 11.0029C29.7371 11.0256 29.7018 11.0377 29.6655 11.0379C29.5519 11.0216 29.5111 10.9205 29.5723 10.8456C29.6335 10.7706 29.7442 10.8912 29.8345 10.9108Z"
              fill="#71BBF1"/>
        <path d="M22.3721 15.7356C22.4601 15.4566 22.4703 15.2112 22.142 15.0633C22.0675 15.0297 22.0371 14.9019 22.0371 14.7977C22.0371 14.6935 22.0032 14.5658 21.8002 14.5859C21.5971 14.6061 21.6107 14.3742 21.5836 14.2498C21.5565 14.1254 21.6242 14.0447 21.8002 14.0649C21.9762 14.085 21.9965 13.917 21.9389 13.7892C21.8179 13.5544 21.7586 13.2931 21.7663 13.0295C21.7653 13.0003 21.7585 12.9717 21.7463 12.9451C21.7341 12.9186 21.7168 12.8947 21.6953 12.8748C21.4291 12.6385 21.1792 12.3847 20.9473 12.1151C20.5767 11.8508 20.2626 11.516 20.0234 11.1301L20.6224 10.6696C20.8296 10.6446 21.0231 10.5538 21.1741 10.4107C21.4438 10.1844 21.7521 10.0079 22.0844 9.88964C22.4229 9.75518 22.6868 9.47951 23.0591 9.36185C23.3705 9.26437 23.3975 9.40893 23.3975 9.60054C23.4077 9.76511 23.4077 9.93014 23.3975 10.0947C23.3847 10.1809 23.3934 10.269 23.423 10.351C23.4525 10.4331 23.5018 10.5067 23.5668 10.5653C23.7563 10.7233 23.6547 10.9587 23.6581 11.157C23.6615 11.3554 23.7055 11.594 23.9966 11.594C24.0676 11.594 24.1522 11.631 24.1522 11.6915C24.1319 12.0512 24.4534 12.3202 24.3858 12.7C24.3641 12.8201 24.3712 12.9435 24.4064 13.0603C24.4417 13.1771 24.5042 13.284 24.5888 13.3724C24.7145 13.5775 24.7952 13.8065 24.8257 14.0447C24.8968 14.2599 24.9475 14.4246 25.225 14.3204C25.3198 14.2834 25.3672 14.3473 25.3773 14.438C24.656 14.873 23.8859 15.2228 23.0828 15.4802C22.862 15.6044 22.6218 15.6908 22.3721 15.7356Z"
              fill="#2776F1"/>
        <path d="M23.8393 9.11816C23.8393 9.16705 23.8393 9.22245 23.7694 9.21593C23.7653 9.21453 23.7616 9.21201 23.7585 9.2086C23.7555 9.20519 23.7532 9.20099 23.752 9.19638C23.752 9.12468 23.7986 9.12794 23.8393 9.11816Z"
              fill="#4EF8F8"/>
        <path d="M21.4248 2.08845C21.5025 2.05088 21.5863 2.03149 21.6709 2.03149C21.7556 2.03149 21.8394 2.05088 21.9171 2.08845C21.8413 2.13353 21.7568 2.15711 21.6709 2.15711C21.5851 2.15711 21.5006 2.13353 21.4248 2.08845Z"
              fill="#194FE5"/>
        <path d="M25.3945 17.8718V17.5818C25.479 17.7121 25.4674 17.7969 25.3945 17.8718Z" fill="#2776F1"/>
        <path d="M23.4961 4.77395C23.4553 4.77395 23.4058 4.77395 23.4116 4.699C23.4122 4.69405 23.4142 4.68945 23.4174 4.68592C23.4205 4.68239 23.4247 4.68011 23.4291 4.67944C23.4903 4.67944 23.4902 4.72832 23.499 4.77395H23.4961Z"
              fill="#2776F1"/>
        <path d="M23.499 4.77393L23.5192 4.8C23.5178 4.79249 23.5178 4.7847 23.5192 4.77719L23.499 4.77393Z"
              fill="#2776F1"/>
    </g>
</svg>
