<svg width="40" height="40" viewBox="0 0 40 40" fill="none" xmlns="http://www.w3.org/2000/svg">
<path d="M11.1678 13.3333V13.8333H11.6678H15.0014C17.2047 13.8333 19.2407 15.0089 20.3424 16.9167C21.444 18.8245 21.444 21.1755 20.3424 23.0833C19.2407 24.9911 17.2047 26.1667 15.0014 26.1667H11.6678H11.1678V26.6667V39.1667C11.1678 39.2551 11.1326 39.3399 11.0701 39.4024C11.0077 39.4648 10.9228 39.5 10.8343 39.5H5.00047C3.80666 39.5 2.66212 39.0259 1.81789 38.1821C0.974085 37.3379 0.5 36.1936 0.5 35V5C0.5 3.80642 0.974078 2.66207 1.81788 1.81793C1.8179 1.81791 1.81792 1.81789 1.81794 1.81788C1.81797 1.81785 1.818 1.81782 1.81803 1.81779C2.66228 0.974048 3.80674 0.5 5.00047 0.5H10.8343C10.9228 0.5 11.0077 0.535175 11.0701 0.597619C11.1326 0.660057 11.1678 0.744912 11.1678 0.833333V13.3333ZM10.0009 38.8333H10.5009V38.3333V25.8333C10.5009 25.6493 10.6502 25.5 10.8343 25.5H15.0014C16.9666 25.5 18.7825 24.4516 19.7648 22.75C20.7474 21.0485 20.7474 18.9515 19.7648 17.25C18.7825 15.5484 16.9666 14.5 15.0014 14.5H10.8343C10.7459 14.5 10.661 14.4648 10.5985 14.4024C10.5361 14.3399 10.5009 14.2551 10.5009 14.1667V1.66667V1.16667H10.0009H5.00047C3.98386 1.16667 3.00881 1.57054 2.28967 2.28918L2.28947 2.28938C1.57074 3.00843 1.16682 3.98344 1.16682 5V35C1.16682 36.0166 1.57075 36.9915 2.28946 37.7106L2.28966 37.7108C3.00877 38.4295 3.98385 38.8333 5.00047 38.8333H10.0009Z" fill="#4ACCF4" stroke="#4ACCF4"/>
<path d="M37.7106 37.7108L37.7108 37.7106C38.4295 36.9916 38.8334 36.0166 38.8334 35V5C38.8334 3.98345 38.4295 3.00847 37.7108 2.28939L37.7106 2.28919C36.9915 1.57053 36.0164 1.16667 34.9998 1.16667H24.9989H24.4989V1.66667V13.3333V13.8333H24.9989H28.3325C30.5358 13.8333 32.5718 15.0089 33.6735 16.9167C34.7751 18.8245 34.7751 21.1755 33.6735 23.0833C32.5718 24.9911 30.5358 26.1667 28.3325 26.1667H24.9989H24.4989V26.6667V38.3333V38.8333H24.9989H34.9998C36.0164 38.8333 36.9914 38.4295 37.7106 37.7108ZM24.1654 0.5H34.9998C36.1936 0.5 37.3381 0.974106 38.1824 1.81793C39.0262 2.6621 39.5002 3.80643 39.5002 5V35C39.5002 36.1936 39.0262 37.3379 38.1824 38.1821C37.3381 39.0259 36.1936 39.5 34.9998 39.5H24.1654C24.077 39.5 23.9921 39.4648 23.9296 39.4024C23.8672 39.3399 23.832 39.2551 23.832 39.1667V25.8333C23.832 25.6493 23.9813 25.5 24.1654 25.5H28.3325C30.2977 25.5 32.1136 24.4516 33.0959 22.75C34.0785 21.0485 34.0785 18.9515 33.0959 17.25C32.1136 15.5484 30.2977 14.5 28.3325 14.5H24.1654C24.077 14.5 23.9921 14.4648 23.9296 14.4024C23.8672 14.3399 23.832 14.2551 23.832 14.1667V0.833333C23.832 0.649329 23.9813 0.5 24.1654 0.5Z" fill="#4ACCF4" stroke="#4ACCF4"/>
</svg>
