<svg width="40" height="40" viewBox="0 0 40 40" fill="none" xmlns="http://www.w3.org/2000/svg">
<path d="M0.5 27.8572C0.5 27.7395 0.596614 27.6429 0.714278 27.6429H9.50372C9.50141 27.7139 9.50021 27.7853 9.50021 27.8572C9.50021 27.9289 9.50138 28.0004 9.50366 28.0714H0.714278C0.596614 28.0714 0.5 27.9748 0.5 27.8572Z" fill="#4ACCF4" stroke="#4ACCF4"/>
<path d="M39.4993 16.4286C39.4993 16.5462 39.4027 16.6429 39.2851 16.6429H36.2102C36.2125 16.5717 36.2137 16.5002 36.2137 16.4286C36.2137 16.3568 36.2125 16.2854 36.2102 16.2143H39.2851C39.4027 16.2143 39.4993 16.3109 39.4993 16.4286Z" fill="#4ACCF4" stroke="#4ACCF4"/>
<path d="M0.5 16.4286C0.5 16.3109 0.596614 16.2143 0.714278 16.2143H22.3607C22.3584 16.2853 22.3572 16.3568 22.3572 16.4286C22.3572 16.5003 22.3584 16.5718 22.3607 16.6429H0.714278C0.596614 16.6429 0.5 16.5462 0.5 16.4286Z" fill="#4ACCF4" stroke="#4ACCF4"/>
<path d="M27.3977 30.122L27.3978 30.1222C27.6271 30.3633 27.9453 30.4999 28.2781 30.4999H29.2854C29.956 30.4999 30.4997 29.9562 30.4997 29.2857V17.8572C30.4997 17.7385 30.5954 17.6429 30.714 17.6429C30.8326 17.6429 30.9283 17.7385 30.9283 17.8572V29.2857C30.9283 29.9562 31.472 30.4999 32.1425 30.4999C32.8131 30.4999 33.3568 29.9562 33.3568 29.2857L33.3568 24.9999C33.3568 24.8816 33.4528 24.7857 33.5711 24.7857C33.6894 24.7857 33.7854 24.8816 33.7854 24.9999V29.2856C33.7854 29.9562 34.3291 30.4999 34.9997 30.4999C35.6702 30.4999 36.2139 29.9562 36.2139 29.2856V26.4285C36.2139 26.3102 36.3099 26.2142 36.4282 26.2142C36.5465 26.2142 36.6425 26.3102 36.6425 26.4285V29.2856C36.6425 29.9562 37.1862 30.4999 37.8568 30.4999C38.5274 30.4999 39.071 29.9562 39.071 29.2856V27.8571C39.071 27.7388 39.167 27.6428 39.2853 27.6428C39.4036 27.6428 39.4996 27.7388 39.4996 27.8571V33.4511L39.0138 35.8827C39.0138 35.8827 39.0138 35.8828 39.0138 35.8828C38.5946 37.9781 36.738 39.5002 34.6011 39.5002H32.5463C30.4192 39.5002 28.5709 37.9932 28.1399 35.9133C28.1111 35.7017 28.0382 35.1855 27.9395 34.6373C27.8413 34.0915 27.7077 33.455 27.552 33.0752L27.552 33.0752C27.1757 32.1573 26.1867 30.6403 25.292 29.3471C24.4135 28.0773 23.5854 26.9664 23.4045 26.7251C23.3235 26.5807 23.3513 26.3884 23.454 26.2835L23.4546 26.2828C23.4842 26.2525 23.528 26.2308 23.5891 26.2308H23.5924C23.6622 26.2318 23.7319 26.2623 23.7799 26.3129L23.7801 26.313L27.3977 30.122Z" fill="#4ACCF4" stroke="#4ACCF4"/>
<path d="M28.0886 17.5522C27.8119 17.2578 27.6426 16.862 27.6426 16.4285C27.6426 15.5232 28.3801 14.7857 29.2854 14.7857C29.7191 14.7857 30.1148 14.9551 30.4091 15.2317C29.1935 15.3714 28.2283 16.3366 28.0886 17.5522Z" fill="#4ACCF4" stroke="#4ACCF4"/>
<path d="M18.0708 27.8571C18.0708 28.7643 17.3352 29.5 16.428 29.5C15.5208 29.5 14.7852 28.7643 14.7852 27.8571C14.7852 26.9499 15.5208 26.2143 16.428 26.2143C17.3352 26.2143 18.0708 26.9499 18.0708 27.8571Z" fill="#4ACCF4" stroke="#4ACCF4"/>
<path d="M11.9287 27.8571C11.9287 25.3763 13.9479 23.3571 16.4287 23.3571C18.9095 23.3571 20.9286 25.3763 20.9286 27.8571C20.9286 30.3379 18.9095 32.357 16.4287 32.357C13.9479 32.357 11.9287 30.3379 11.9287 27.8571ZM12.3573 27.8571C12.3573 30.1026 14.1831 31.9285 16.4287 31.9285C18.6742 31.9285 20.5 30.1026 20.5 27.8571C20.5 25.6116 18.6742 23.7857 16.4287 23.7857C14.1831 23.7857 12.3573 25.6116 12.3573 27.8571Z" fill="#4ACCF4" stroke="#4ACCF4"/>
<mask id="path-8-inside-1_231_431" fill="white">
<path d="M28.5716 27.1429H27.2285L28.5716 28.5571V27.1429Z"/>
</mask>
<path d="M28.5716 27.1429H27.2285L28.5716 28.5571V27.1429Z" fill="#4ACCF4"/>
<path d="M28.5716 27.1429H29.5716V26.1429H28.5716V27.1429ZM27.2285 27.1429V26.1429H24.8997L26.5034 27.8315L27.2285 27.1429ZM28.5716 28.5571L27.8465 29.2457L29.5716 31.0622V28.5571H28.5716ZM28.5716 26.1429H27.2285V28.1429H28.5716V26.1429ZM26.5034 27.8315L27.8465 29.2457L29.2967 27.8684L27.9536 26.4542L26.5034 27.8315ZM29.5716 28.5571V27.1429H27.5716V28.5571H29.5716Z" fill="#4ACCF4" mask="url(#path-8-inside-1_231_431)"/>
<path d="M16.2099 4.78571H39.2848C39.4025 4.78571 39.4991 4.88232 39.4991 4.99999C39.4991 5.11766 39.4025 5.21427 39.2848 5.21427H16.2098C16.2122 5.14323 16.2133 5.0718 16.2133 4.99999C16.2133 4.92822 16.2122 4.85679 16.2099 4.78571Z" fill="#4ACCF4" stroke="#4ACCF4"/>
<path d="M4.78613 4.99996C4.78613 2.51915 6.80527 0.5 9.28608 0.5C11.7669 0.5 13.786 2.51915 13.786 4.99996C13.786 7.48078 11.7669 9.49993 9.28608 9.49993C6.80527 9.49993 4.78613 7.48078 4.78613 4.99996ZM5.21469 4.99996C5.21469 7.24548 7.04057 9.07137 9.28608 9.07137C11.5316 9.07137 13.3575 7.24548 13.3575 4.99996C13.3575 2.75445 11.5316 0.928561 9.28608 0.928561C7.04057 0.928561 5.21469 2.75445 5.21469 4.99996Z" fill="#4ACCF4" stroke="#4ACCF4"/>
<path d="M10.9282 4.99996C10.9282 5.90716 10.1926 6.6428 9.28541 6.6428C8.37822 6.6428 7.64258 5.90716 7.64258 4.99996C7.64258 4.09276 8.37822 3.35712 9.28541 3.35712C10.1926 3.35712 10.9282 4.09276 10.9282 4.99996Z" fill="#4ACCF4" stroke="#4ACCF4"/>
<path d="M0.5 4.99999C0.5 4.88232 0.596614 4.78571 0.714278 4.78571H2.36061C2.3583 4.85674 2.3571 4.92817 2.3571 4.99999C2.3571 5.0718 2.3583 5.14323 2.36061 5.21427H0.714278C0.596614 5.21427 0.5 5.11765 0.5 4.99999Z" fill="#4ACCF4" stroke="#4ACCF4"/>
<path d="M33.785 16.4286C33.785 17.0984 33.634 17.7498 33.3565 18.3399V17.8571C33.3565 17.638 33.3296 17.4251 33.2791 17.2212C33.3305 16.9613 33.3565 16.696 33.3565 16.4282C33.3565 14.1827 31.5306 12.3568 29.2851 12.3568C27.0396 12.3568 25.2137 14.1827 25.2137 16.4282C25.2137 18.2517 26.4173 19.7969 28.0708 20.3147V20.7611C26.1775 20.23 24.7852 18.4881 24.7852 16.4286C24.7852 13.9477 26.8043 11.9286 29.2851 11.9286C31.7659 11.9286 33.785 13.9477 33.785 16.4286Z" fill="#4ACCF4" stroke="#4ACCF4"/>
</svg>
