<svg width="40" height="40" viewBox="0 0 40 40" fill="none" xmlns="http://www.w3.org/2000/svg">
<path d="M36.3567 11.192C37.7756 8.8947 34.6678 6.32178 30.9521 7.14865L28.1821 7.74605L30.4115 4.11645C32.5736 0.532638 24.4664 -1.81046 22.2369 1.81914L17.1027 10.1814L16.2248 10.3647C15.1438 10.5945 14.3332 11.0538 13.8601 11.6512C13.5901 11.6054 13.3196 11.5592 13.0496 11.5592L14.6032 10.3647C18.3863 7.42412 11.7659 3.5186 8.05025 6.45909C7.91547 6.55139 0.484028 12.2027 0.416713 12.2947C-0.393821 13.2597 0.14669 14.7298 0.619345 16.0163C1.15986 17.3947 5.68609 28.0083 9.06392 31.4542C9.46919 31.8219 10.1449 32.3273 10.8203 32.7407H10.685C10.1445 32.7407 9.67187 33.0625 9.67187 33.4298V39.3109C9.67187 39.6785 10.145 40 10.685 40H30.6818C31.2223 40 31.6949 39.6782 31.6949 39.3109V33.5218C31.6949 33.1542 31.2218 32.8327 30.6818 32.8327H29.8712C31.8981 27.8246 33.1138 25.3895 33.1816 24.1029C33.249 22.8164 32.5737 21.3002 32.6411 20.1973C32.7085 19.7839 34.0601 17.992 34.3975 17.6244C36.019 16.6136 38.1805 16.7055 39.3968 15.2351C40.7478 13.6727 39.8694 11.7891 36.3564 11.1917L36.3567 11.192ZM24.129 2.37031C25.2774 0.440564 29.7362 1.68125 28.5199 3.61095L25.6152 8.29756L19.6701 9.62984L24.129 2.37031ZM29.7362 38.622H11.7661V34.211H29.7362V38.622ZM37.7076 14.5461C37.0997 15.3271 34.3298 15.6948 32.9788 16.6598C32.7087 16.8896 30.7494 19.2789 30.682 20.1058C30.6146 21.3923 31.2899 22.9085 31.2225 24.0114C31.1551 25.1142 29.9388 27.5493 27.8446 32.7871L13.9955 32.7868C13.0498 32.2814 11.2935 31.2247 10.8204 30.7193C7.64522 27.5031 3.18637 16.9813 2.64579 15.6948C2.30791 14.9138 1.83526 13.5812 2.17267 13.0757L9.60413 7.42442C11.631 5.86233 15.0761 7.92985 13.1172 9.49192L8.52359 12.984C8.38834 13.076 8.32096 13.2138 8.25357 13.3516L7.98355 14.9137C7.8483 15.8326 9.87513 15.9704 10.0104 15.0515L10.213 13.7193L10.6183 13.3975L12.4424 12.9379C13.6582 12.7081 15.3471 13.8109 15.5503 14.1324L19.8064 23.046C20.7522 25.0215 16.2259 26.0785 15.2802 24.0568L11.9698 17.119C11.5645 16.2459 9.60504 16.6594 10.0109 17.5324L13.3213 24.4703C15.0776 28.1918 23.5222 26.3541 21.6984 22.5864L17.4422 13.6728C17.2396 13.2593 16.5638 12.7077 15.6181 12.2485C15.8881 11.9729 16.2938 11.7889 16.8338 11.6973L31.5612 8.43491C34.4659 7.79168 35.9521 10.8701 33.0474 11.5133C30.2775 12.1107 24.6028 13.3972 21.9008 13.9943C21.6308 14.0401 21.4277 14.2241 21.2929 14.3619L19.8067 16.6133C19.2662 17.4402 21.0904 17.9918 21.6308 17.1646L22.5092 15.7861V18.6808C22.5092 19.3699 23.8602 19.6458 24.4008 19.0484L28.9944 13.8564C33.9937 12.7536 34.1286 12.7536 34.8043 12.4321C37.0328 12.5706 38.7217 13.3055 37.708 14.5462L37.7076 14.5461ZM24.6692 14.8679L26.1554 14.5461L24.6692 16.246V14.8679Z" fill="#4ACCF4"/>
</svg>
