<svg width="58" height="55" viewBox="0 0 58 55" fill="none" xmlns="http://www.w3.org/2000/svg">
<path d="M9.92735 31.1031H9.92726C7.24766 31.1031 5.03041 33.1949 5.03041 35.8121C5.03041 38.4292 7.24766 40.521 9.92726 40.521C12.6069 40.521 14.8241 38.4292 14.8241 35.8121C14.8241 33.1949 12.6073 31.1036 9.92735 31.1031ZM9.92772 41.3314C6.71582 41.3314 4.13965 38.8346 4.13965 35.8121C4.13965 32.7895 6.71582 30.2927 9.92772 30.2927C13.1396 30.2927 15.7158 32.7895 15.7158 35.8121C15.7158 38.8346 13.1396 41.3314 9.92772 41.3314Z" fill="#4ACCF4" stroke="#4ACCF4"/>
<path d="M19.3554 49.713V49.713L19.3558 54.4999H0.5V49.7131C0.5 47.0241 2.28406 44.5804 4.96938 43.6526C5.63981 43.4221 6.40167 43.5873 6.90275 44.0659C6.90281 44.0659 6.90287 44.066 6.90293 44.066L9.26971 46.3321L9.26973 46.3321C9.51148 46.5636 9.79085 46.5949 9.92791 46.5949C10.068 46.5949 10.3458 46.5613 10.5861 46.3313L12.9532 44.0666L12.9534 44.0663C13.4535 43.5873 14.2159 43.4217 14.8866 43.6533L14.8867 43.6533C17.5712 44.5801 19.3554 47.0243 19.3554 49.713ZM17.9641 53.6896H18.4641L18.4641 53.1896L18.4645 49.7136V49.7135C18.4645 47.3334 16.887 45.2109 14.5711 44.411L14.5694 44.4104C14.3065 44.3207 14.0209 44.3509 13.7861 44.4847H13.7445L13.5995 44.6235L11.2325 46.8894C11.2325 46.8894 11.2324 46.8895 11.2323 46.8895C10.543 47.5486 9.31061 47.5476 8.62455 46.8898L8.62427 46.8895L6.2584 44.6248C6.25813 44.6245 6.25786 44.6243 6.25759 44.624C5.99797 44.3742 5.62053 44.297 5.2891 44.409L5.2891 44.409L5.28595 44.4101C2.96913 45.2105 1.3921 47.3325 1.3921 49.7126V53.1896V53.6896H1.8921H17.9641Z" fill="#4ACCF4" stroke="#4ACCF4"/>
<path d="M20.5755 35.6029L20.5747 35.6036C20.4767 35.6979 20.3603 35.7382 20.2425 35.7382C19.9661 35.7382 19.7656 35.54 19.7656 35.3078V8.0461C19.7656 3.89869 23.2844 0.5 27.6709 0.5H51.267L51.2672 0.500242H51.5053C54.8368 0.500242 57.5005 3.08042 57.5005 6.21832V21.9439C57.5005 25.0812 54.8369 27.6615 51.5044 27.6615H29.4735C29.0904 27.6615 28.7189 27.8075 28.4422 28.0723L20.5755 35.6029ZM51.5042 26.852C54.1051 26.852 56.2866 24.9626 56.5762 22.5021L56.6099 22.5061V21.9443V6.21876C56.6099 3.49175 54.2996 1.31097 51.5053 1.31097H27.6712C23.8237 1.31097 20.6571 4.31147 20.6571 8.04666L20.6566 33.179L20.6566 34.3498L21.5024 33.5401L27.7962 27.5153L27.7964 27.5151C28.2408 27.0893 28.8347 26.852 29.4733 26.852H51.5042Z" fill="#4ACCF4" stroke="#4ACCF4"/>
<path d="M41.7113 5.86987L41.7121 5.86909L41.7115 5.86992C42.1384 6.17153 42.4695 6.55494 42.7111 7.02718C42.9449 7.48476 43.0725 8.05555 43.0725 8.75704C43.0725 9.20122 43.0192 9.59063 42.9189 9.93015C42.8166 10.2764 42.6662 10.6044 42.4676 10.9145L42.4675 10.9148C42.2674 11.2277 42.0151 11.533 41.708 11.8309C41.3906 12.1388 41.0229 12.4592 40.6027 12.7918L40.6021 12.7922C40.3053 13.0279 40.0428 13.2493 39.8142 13.4551L39.8134 13.4559C39.5749 13.6716 39.3695 13.8911 39.2011 14.1167C39.0263 14.3508 38.8914 14.603 38.7992 14.8728L38.7991 14.8731C38.7035 15.1529 38.6603 15.4568 38.6603 15.7786C38.6603 15.9723 38.6823 16.1669 38.7257 16.3613H36.5506C36.5273 16.2729 36.5067 16.1786 36.4888 16.0779C36.4475 15.8458 36.4282 15.6317 36.4282 15.434C36.4282 15.1032 36.4621 14.8111 36.5255 14.5548C36.5895 14.2962 36.6854 14.0542 36.8119 13.8288L36.8119 13.8288C36.94 13.6007 37.1032 13.3777 37.3024 13.1621C37.507 12.9411 37.7486 12.7181 38.0299 12.4938L38.0299 12.4938L38.0323 12.4919C38.3537 12.2325 38.6381 11.9893 38.8843 11.7617L38.8847 11.7614C39.1373 11.5274 39.3592 11.288 39.5453 11.0426C39.7405 10.7866 39.8898 10.5151 39.9915 10.2295L39.9916 10.2292C40.0965 9.93381 40.1449 9.61667 40.1449 9.28254C40.1449 8.97252 40.0868 8.67701 39.9674 8.40024L39.9666 8.3986C39.8467 8.12336 39.674 7.88301 39.449 7.6833C39.2248 7.48347 38.9587 7.33377 38.6628 7.22837L38.6625 7.22828C38.3573 7.1198 38.0287 7.06858 37.6809 7.06858C36.9671 7.06858 36.2367 7.2112 35.4933 7.48658C35.0426 7.65356 34.6082 7.87121 34.1904 8.13821V5.84272C34.7159 5.56977 35.2842 5.35912 35.8962 5.21101L35.8964 5.21095C36.6103 5.03778 37.3497 4.95093 38.1153 4.95093C38.8514 4.95093 39.5275 5.02816 40.1467 5.18008L40.2659 4.69448L40.1467 5.18009C40.7568 5.32975 41.2757 5.56158 41.7113 5.86987Z" fill="#4ACCF4" stroke="#4ACCF4"/>
<path d="M36.6756 19.0861L36.6756 19.0861C37.0104 18.8018 37.4412 18.6461 38.0048 18.6461C38.5576 18.6461 38.9789 18.8012 39.3067 19.0843L39.3067 19.0843L39.3102 19.0873C39.6296 19.358 39.7799 19.6826 39.7799 20.0984C39.7799 20.5271 39.6289 20.8614 39.3168 21.1376C38.9913 21.4181 38.5674 21.5732 38.0048 21.5732C37.4471 21.5732 37.019 21.4163 36.6833 21.1272C36.3407 20.8159 36.1934 20.4791 36.1934 20.0976C36.1934 19.695 36.3439 19.3679 36.6756 19.0861Z" fill="#4ACCF4" stroke="#4ACCF4"/>
</svg>
