<svg width="45" height="44" viewBox="0 0 45 44" fill="none" xmlns="http://www.w3.org/2000/svg">
<path d="M39.3413 0H5.65869C4.15859 0.00149499 2.71995 0.544922 1.65892 1.51144C0.598212 2.47761 0.00168066 3.78794 0 5.15472V38.8453C0.00164127 40.2121 0.598243 41.5224 1.65892 42.4886C2.72005 43.4551 4.15859 43.9985 5.65869 44H39.3413C40.8414 43.9985 42.2801 43.4551 43.3411 42.4886C44.4018 41.5224 44.9983 40.2121 45 38.8453V5.15472C44.9984 3.78794 44.4018 2.47761 43.3411 1.51144C42.28 0.544893 40.8414 0.00153087 39.3413 0ZM42.6473 38.8458C42.6456 39.6441 42.2969 40.4092 41.6773 40.9735C41.0577 41.5378 40.2177 41.8555 39.3414 41.857H5.65876C4.78231 41.8555 3.94238 41.5378 3.32284 40.9735C2.70327 40.4091 2.35449 39.644 2.35285 38.8458V34.8594H42.6468L42.6473 38.8458ZM42.6473 32.7164H2.35335V5.15501C2.35499 4.35668 2.70376 3.59161 3.32335 3.02729C3.94292 2.46294 4.7829 2.14524 5.65926 2.14375H39.3419C40.2183 2.14525 41.0583 2.46293 41.6778 3.02729C42.2974 3.59164 42.6461 4.35675 42.6478 5.15501L42.6473 32.7164Z" fill="#4ACCF4"/>
<path d="M23.677 15.7217V6.46322C23.677 5.87121 23.1506 5.39133 22.5007 5.39133C21.8507 5.39133 21.3243 5.87122 21.3243 6.46322V15.7217C20.0761 16.0357 19.0429 16.8332 18.4989 17.9033C17.9548 18.9734 17.9548 20.2071 18.4989 21.2771C19.043 22.3472 20.0762 23.1451 21.3243 23.4587V27.8955C21.3243 28.4871 21.8507 28.967 22.5007 28.967C23.1506 28.967 23.677 28.4871 23.677 27.8955V23.4587C24.9252 23.1452 25.9584 22.3472 26.5024 21.2771C27.0465 20.2071 27.0465 18.9734 26.5024 17.9033C25.9583 16.8332 24.9251 16.0356 23.677 15.7217ZM22.5007 21.4654C21.9545 21.4654 21.4309 21.2681 21.0449 20.9164C20.6588 20.5647 20.4417 20.0878 20.4417 19.5904C20.4417 19.093 20.6588 18.616 21.0449 18.2644C21.431 17.9127 21.9546 17.715 22.5007 17.715C23.0467 17.715 23.5704 17.9127 23.9564 18.2644C24.3425 18.6161 24.5596 19.093 24.5596 19.5904C24.5596 20.0878 24.3425 20.5648 23.9564 20.9164C23.5703 21.2681 23.0467 21.4654 22.5007 21.4654Z" fill="#4ACCF4"/>
<path d="M12.2076 10.8996V6.46322C12.2076 5.87121 11.6807 5.39133 11.0312 5.39133C10.3813 5.39133 9.85487 5.87122 9.85487 6.46322V10.8996C8.60666 11.2131 7.57347 12.0111 7.02946 13.0812C6.48497 14.1512 6.48497 15.3849 7.02946 16.455C7.57355 17.5251 8.60677 18.3227 9.85487 18.6366V27.8955C9.85487 28.4871 10.3813 28.967 11.0312 28.967C11.6808 28.967 12.2076 28.4871 12.2076 27.8955V18.6366C13.4554 18.3226 14.489 17.5251 15.033 16.455C15.5771 15.3849 15.5771 14.1512 15.033 13.0812C14.4889 12.0111 13.4553 11.2132 12.2076 10.8996ZM11.0312 16.6433C10.4851 16.6433 9.96149 16.4456 9.57546 16.0939C9.18935 15.7422 8.97229 15.2653 8.97229 14.7679C8.97229 14.2708 9.18935 13.7935 9.57546 13.4419C9.96157 13.0902 10.4851 12.8928 11.0312 12.8928C11.5773 12.8928 12.101 13.0902 12.487 13.4419C12.8731 13.7935 13.0898 14.2708 13.0898 14.7679C13.0898 15.2653 12.8731 15.7423 12.487 16.0939C12.1009 16.4456 11.5773 16.6433 11.0312 16.6433Z" fill="#4ACCF4"/>
<path d="M35.1467 10.8996V6.46322C35.1467 5.87121 34.6203 5.39133 33.9704 5.39133C33.3208 5.39133 32.794 5.87122 32.794 6.46322V10.8996C31.5462 11.2131 30.5126 12.0111 29.9686 13.0812C29.4245 14.1512 29.4245 15.3849 29.9686 16.455C30.5127 17.5251 31.5463 18.3227 32.794 18.6366V27.8955C32.794 28.4871 33.3209 28.967 33.9704 28.967C34.6203 28.967 35.1467 28.4871 35.1467 27.8955V18.6366C36.3949 18.3226 37.4281 17.5251 37.9721 16.455C38.5166 15.3849 38.5166 14.1512 37.9721 13.0812C37.4281 12.0111 36.3948 11.2132 35.1467 10.8996ZM33.9704 16.6433C33.4242 16.6433 32.9006 16.4456 32.5146 16.0939C32.1285 15.7422 31.9118 15.2653 31.9118 14.7679C31.9118 14.2708 32.1285 13.7935 32.5146 13.4419C32.9007 13.0902 33.4243 12.8928 33.9704 12.8928C34.5165 12.8928 35.0401 13.0902 35.4261 13.4419C35.8123 13.7935 36.0293 14.2708 36.0293 14.7679C36.0293 15.2653 35.8123 15.7423 35.4261 16.0939C35.04 16.4456 34.5165 16.6433 33.9704 16.6433Z" fill="#4ACCF4"/>
<path d="M8.96933 39.6817H18.9692C19.6191 39.6817 20.146 39.2018 20.146 38.6102C20.146 38.0181 19.6191 37.5383 18.9692 37.5383H8.96933C8.31979 37.5383 7.79297 38.0182 7.79297 38.6102C7.79297 39.2018 8.31981 39.6817 8.96933 39.6817Z" fill="#4ACCF4"/>
<path d="M25.442 39.6817H36.0302C36.6797 39.6817 37.2065 39.2018 37.2065 38.6102C37.2065 38.0181 36.6797 37.5383 36.0302 37.5383H25.442C24.792 37.5383 24.2656 38.0182 24.2656 38.6102C24.2656 39.2018 24.7921 39.6817 25.442 39.6817Z" fill="#4ACCF4"/>
</svg>
