<svg width="38" height="46" viewBox="0 0 38 46" fill="none" xmlns="http://www.w3.org/2000/svg">
<path d="M34.9906 41.6775L34.9905 41.6776C34.8915 42.1403 34.6814 42.5677 34.3814 42.9204C34.0815 43.2729 33.7019 43.5389 33.2792 43.6955C32.8567 43.8521 32.4035 43.8947 31.9615 43.8199C31.5195 43.7451 31.1013 43.555 30.7464 43.2655L30.7465 43.2654L30.7387 43.2593L25.3471 39.0353L25.2113 38.9289H25.0388H12.9652H12.7927L12.657 39.0352L7.26144 43.2592L7.26138 43.2591L7.25359 43.2655C6.89872 43.555 6.48053 43.7451 6.0385 43.8199C5.59653 43.8947 5.14334 43.8521 4.72078 43.6955C4.29809 43.5389 3.91851 43.2729 3.61861 42.9204C3.31862 42.5677 3.10845 42.1403 3.00945 41.6776L3.00943 41.6775L0.563289 30.2553C0.563251 30.2551 0.563214 30.2549 0.563177 30.2547C0.474691 29.8363 0.479215 29.4024 0.576372 28.9861C0.673491 28.57 0.860345 28.1837 1.12154 27.8561C1.12173 27.8558 1.12192 27.8556 1.12212 27.8553L6.77384 20.8216L6.87134 20.7002L6.88273 20.545C7.06884 18.0088 7.63003 15.5178 8.54637 13.1594L8.54701 13.1578C11.0558 6.6327 15.5532 2.53339 17.3725 1.07896L17.3736 1.07811C17.8413 0.702144 18.4134 0.5 19 0.5C19.5866 0.5 20.1587 0.702144 20.6264 1.07811L20.6269 1.07847C22.4412 2.53354 26.9443 6.63294 29.453 13.1578L29.4536 13.1594C30.37 15.5178 30.9312 18.0088 31.1173 20.545L31.1287 20.7002L31.2262 20.8216L36.8779 27.8553C36.8781 27.8556 36.8784 27.8559 36.8786 27.8562C37.1397 28.1839 37.3265 28.5701 37.4236 28.9861C37.5208 29.4026 37.5253 29.8367 37.4367 30.2553L34.9906 41.6775ZM12.9057 36.3818L13.0476 36.6434H13.3452H24.6548H24.9524L25.0943 36.3818C29.3295 28.5719 30.1463 21.0383 27.4451 14.0165C25.0714 7.84302 20.6264 3.94799 19.3122 2.89752L19.0005 2.64839L18.6884 2.89705C17.3696 3.94796 12.9246 7.84308 10.5509 14.0166L10.5508 14.0168C7.85376 21.0384 8.67053 28.5719 12.9057 36.3818ZM10.6844 37.7384L11.0142 37.4804L10.818 37.1104C8.71132 33.1384 7.44041 29.2489 6.99348 25.44L6.85439 24.2546L6.10704 25.1852L2.77591 29.3332L2.62708 29.5185L2.67684 29.751L5.12323 41.1764L5.2868 41.9403L5.91198 41.4718L5.9476 41.4451L5.94767 41.4452L5.95592 41.4388L10.6844 37.7384ZM35.3231 29.751L35.3729 29.5185L35.2241 29.3332L31.893 25.1852L31.1448 24.2536L31.0065 25.4404C30.5635 29.2409 29.2952 33.1304 27.1897 37.1109L26.9941 37.4805L27.3234 37.7384L32.044 41.4346L32.0439 41.4347L32.0524 41.441L32.088 41.4677L32.7132 41.9361L32.8768 41.1723L35.3231 29.751ZM23.2503 44.3572C23.2503 44.6661 23.1318 44.9588 22.9265 45.1719C22.7218 45.3842 22.4481 45.5 22.1668 45.5H15.8332C15.5519 45.5 15.2782 45.3842 15.0735 45.1719C14.8682 44.9588 14.7497 44.6661 14.7497 44.3572C14.7497 44.0483 14.8682 43.7556 15.0735 43.5426C15.2782 43.3302 15.5519 43.2145 15.8332 43.2145H22.1668C22.4481 43.2145 22.7218 43.3302 22.9265 43.5426C23.1318 43.7556 23.2503 44.0483 23.2503 44.3572ZM20.0347 20.5323C19.7267 20.7458 19.3667 20.8585 19 20.8585C18.5087 20.8585 18.0337 20.6562 17.6805 20.2898C17.3267 19.9227 17.1249 19.4211 17.1249 18.8944C17.1249 18.5019 17.2371 18.1196 17.4455 17.7961C17.6538 17.4727 17.9479 17.2235 18.2885 17.0772C18.6289 16.9309 19.0023 16.8929 19.3623 16.9672C19.7225 17.0416 20.056 17.2256 20.3195 17.4989C20.5832 17.7725 20.7647 18.1233 20.8384 18.5078C20.9122 18.8923 20.8742 19.2908 20.73 19.652C20.5858 20.013 20.3429 20.3187 20.0347 20.5323Z" fill="#4ACCF4" stroke="#4ACCF4"/>
</svg>
