<svg width="44" height="37" viewBox="0 0 44 37" fill="none" xmlns="http://www.w3.org/2000/svg">
<path d="M43.9999 18.4964C44.0091 22.5024 42.8761 26.402 40.7735 29.6007C40.6577 29.7774 40.5127 29.9262 40.3467 30.0387C40.1808 30.1511 39.9972 30.225 39.8063 30.256C39.6155 30.2871 39.4212 30.2747 39.2346 30.2196C39.0479 30.1645 38.8725 30.0678 38.7184 29.935C38.5644 29.8022 38.4346 29.6359 38.3366 29.4455C38.2385 29.2552 38.1742 29.0446 38.1471 28.8257C38.12 28.6068 38.1308 28.384 38.1788 28.1699C38.2268 27.9558 38.3112 27.7546 38.427 27.5779C40.148 24.9627 41.0752 21.773 41.0668 18.4964C41.0668 14.4812 39.6762 10.6305 37.2008 7.79135C34.7255 4.95218 31.3683 3.35716 27.8676 3.35716C24.367 3.35716 21.0097 4.95218 18.5344 7.79135C16.0591 10.6305 14.6684 14.4812 14.6684 18.4964C14.6684 18.9426 14.5139 19.3704 14.2389 19.6859C13.9639 20.0014 13.5908 20.1786 13.2019 20.1786C12.8129 20.1786 12.4399 20.0014 12.1648 19.6859C11.8898 19.3704 11.7353 18.9426 11.7353 18.4964C11.7346 16.7989 11.9375 15.1093 12.3384 13.4752C12.1386 13.45 11.9369 13.45 11.7353 13.45C9.40154 13.45 7.16336 14.5134 5.51314 16.4061C3.86293 18.2989 2.93585 20.8661 2.93585 23.5429C2.93585 26.2197 3.86293 28.7868 5.51314 30.6796C7.16336 32.5724 9.40154 33.6357 11.7353 33.6357H16.135C16.524 33.6357 16.897 33.8129 17.172 34.1284C17.4471 34.4439 17.6016 34.8717 17.6016 35.3179C17.6016 35.764 17.4471 36.1919 17.172 36.5073C16.897 36.8228 16.524 37 16.135 37H11.7353C10.1224 37.0004 8.52672 36.6194 7.04796 35.8807C5.5692 35.1421 4.23911 34.0616 3.14075 32.7069C2.0424 31.3521 1.19938 29.7521 0.664336 28.0069C0.129297 26.2617 -0.0862662 24.4086 0.031109 22.5636C0.148484 20.7185 0.596277 18.921 1.34652 17.2833C2.09676 15.6456 3.13334 14.203 4.39152 13.0454C5.64969 11.8879 7.10243 11.0403 8.65901 10.5557C10.2156 10.0711 11.8426 9.95975 13.4384 10.2287C15.0633 6.50099 17.7379 3.51165 21.0288 1.74489C24.3198 -0.0218693 28.0344 -0.462573 31.571 0.494162C35.1075 1.4509 38.2589 3.74904 40.5147 7.01634C42.7705 10.2836 43.9985 14.3287 43.9999 18.4964ZM27.4387 17.3063C27.3024 17.1499 27.1407 17.0258 26.9627 16.9412C26.7846 16.8565 26.5938 16.813 26.401 16.813C26.2083 16.813 26.0175 16.8565 25.8394 16.9412C25.6614 17.0258 25.4996 17.1499 25.3634 17.3063L19.4971 24.0349C19.3609 24.1912 19.2528 24.3767 19.1791 24.5809C19.1053 24.7851 19.0674 25.004 19.0674 25.225C19.0674 25.446 19.1053 25.6649 19.1791 25.8691C19.2528 26.0733 19.3609 26.2588 19.4971 26.4151C19.7723 26.7308 20.1456 26.9081 20.5347 26.9081C20.7274 26.9081 20.9183 26.8645 21.0963 26.78C21.2743 26.6954 21.4361 26.5714 21.5723 26.4151L24.9345 22.5567V35.3179C24.9345 35.764 25.089 36.1919 25.364 36.5073C25.6391 36.8228 26.0121 37 26.401 37C26.79 37 27.163 36.8228 27.4381 36.5073C27.7131 36.1919 27.8676 35.764 27.8676 35.3179V22.5567L31.2297 26.4151C31.366 26.5714 31.5278 26.6954 31.7058 26.78C31.8838 26.8645 32.0746 26.9081 32.2673 26.9081C32.46 26.9081 32.6509 26.8645 32.8289 26.78C33.0069 26.6954 33.1687 26.5714 33.305 26.4151C33.4412 26.2588 33.5493 26.0733 33.623 25.8691C33.6968 25.6649 33.7347 25.446 33.7347 25.225C33.7347 25.004 33.6968 24.7851 33.623 24.5809C33.5493 24.3767 33.4412 24.1912 33.305 24.0349L27.4387 17.3063Z" fill="#4ACCF4"/>
<path d="M43.9999 18.4964C44.0091 22.5024 42.8761 26.402 40.7735 29.6007C40.6577 29.7774 40.5127 29.9262 40.3467 30.0387C40.1808 30.1511 39.9972 30.225 39.8063 30.256C39.6155 30.2871 39.4212 30.2747 39.2346 30.2196C39.0479 30.1645 38.8725 30.0678 38.7184 29.935C38.5644 29.8022 38.4346 29.6359 38.3366 29.4455C38.2385 29.2552 38.1742 29.0446 38.1471 28.8257C38.12 28.6068 38.1308 28.384 38.1788 28.1699C38.2268 27.9558 38.3112 27.7546 38.427 27.5779C40.148 24.9627 41.0752 21.773 41.0668 18.4964C41.0668 14.4812 39.6762 10.6305 37.2008 7.79135C34.7255 4.95218 31.3683 3.35716 27.8676 3.35716C24.367 3.35716 21.0097 4.95218 18.5344 7.79135C16.0591 10.6305 14.6684 14.4812 14.6684 18.4964C14.6684 18.9426 14.5139 19.3704 14.2389 19.6859C13.9639 20.0014 13.5908 20.1786 13.2019 20.1786C12.8129 20.1786 12.4399 20.0014 12.1648 19.6859C11.8898 19.3704 11.7353 18.9426 11.7353 18.4964C11.7346 16.7989 11.9375 15.1093 12.3384 13.4752C12.1386 13.45 11.9369 13.45 11.7353 13.45C9.40154 13.45 7.16336 14.5134 5.51314 16.4061C3.86293 18.2989 2.93585 20.8661 2.93585 23.5429C2.93585 26.2197 3.86293 28.7868 5.51314 30.6796C7.16336 32.5724 9.40154 33.6357 11.7353 33.6357H16.135C16.524 33.6357 16.897 33.8129 17.172 34.1284C17.4471 34.4439 17.6016 34.8717 17.6016 35.3179C17.6016 35.764 17.4471 36.1919 17.172 36.5073C16.897 36.8228 16.524 37 16.135 37H11.7353C10.1224 37.0004 8.52672 36.6194 7.04796 35.8807C5.5692 35.1421 4.23911 34.0616 3.14075 32.7069C2.0424 31.3521 1.19938 29.7521 0.664336 28.0069C0.129297 26.2617 -0.0862662 24.4086 0.031109 22.5636C0.148484 20.7185 0.596277 18.921 1.34652 17.2833C2.09676 15.6456 3.13334 14.203 4.39152 13.0454C5.64969 11.8879 7.10243 11.0403 8.65901 10.5557C10.2156 10.0711 11.8426 9.95975 13.4384 10.2287C15.0633 6.50099 17.7379 3.51165 21.0288 1.74489C24.3198 -0.0218693 28.0344 -0.462573 31.571 0.494162C35.1075 1.4509 38.2589 3.74904 40.5147 7.01634C42.7705 10.2836 43.9985 14.3287 43.9999 18.4964ZM27.4387 17.3063C27.3024 17.1499 27.1407 17.0258 26.9627 16.9412C26.7846 16.8565 26.5938 16.813 26.401 16.813C26.2083 16.813 26.0175 16.8565 25.8394 16.9412C25.6614 17.0258 25.4996 17.1499 25.3634 17.3063L19.4971 24.0349C19.3609 24.1912 19.2528 24.3767 19.1791 24.5809C19.1053 24.7851 19.0674 25.004 19.0674 25.225C19.0674 25.446 19.1053 25.6649 19.1791 25.8691C19.2528 26.0733 19.3609 26.2588 19.4971 26.4151C19.7723 26.7308 20.1456 26.9081 20.5347 26.9081C20.7274 26.9081 20.9183 26.8645 21.0963 26.78C21.2743 26.6954 21.4361 26.5714 21.5723 26.4151L24.9345 22.5567V35.3179C24.9345 35.764 25.089 36.1919 25.364 36.5073C25.6391 36.8228 26.0121 37 26.401 37C26.79 37 27.163 36.8228 27.4381 36.5073C27.7131 36.1919 27.8676 35.764 27.8676 35.3179V22.5567L31.2297 26.4151C31.366 26.5714 31.5278 26.6954 31.7058 26.78C31.8838 26.8645 32.0746 26.9081 32.2673 26.9081C32.46 26.9081 32.6509 26.8645 32.8289 26.78C33.0069 26.6954 33.1687 26.5714 33.305 26.4151C33.4412 26.2588 33.5493 26.0733 33.623 25.8691C33.6968 25.6649 33.7347 25.446 33.7347 25.225C33.7347 25.004 33.6968 24.7851 33.623 24.5809C33.5493 24.3767 33.4412 24.1912 33.305 24.0349L27.4387 17.3063Z" stroke="#4ACCF4"/>
</svg>
