<svg width="42" height="35" viewBox="0 0 42 35" fill="none" xmlns="http://www.w3.org/2000/svg">
<path d="M20.3915 17.9704C20.3198 18.1174 20.2151 18.2474 20.0846 18.3503L12.0079 24.7138C11.8935 24.8039 11.7619 24.8712 11.6203 24.9116C11.4787 24.952 11.3303 24.9646 11.1836 24.9486C11.0369 24.9325 10.8952 24.8882 10.7665 24.8184C10.6378 24.7486 10.5248 24.6548 10.4338 24.5427C10.3427 24.4306 10.2753 24.3024 10.235 24.1655C10.1948 24.0286 10.1823 23.8854 10.1983 23.7439C10.2142 23.6025 10.2583 23.4652 10.3284 23.3399C10.3984 23.2146 10.4932 23.1036 10.6075 23.0135C10.6075 23.0135 10.6075 23.0135 10.6075 23.0135L17.1074 17.8928L17.6059 17.5L17.1074 17.1072L10.6075 11.9865C10.6075 11.9865 10.6075 11.9865 10.6075 11.9865C10.4932 11.8964 10.3984 11.7854 10.3284 11.6601C10.2583 11.5348 10.2142 11.3975 10.1983 11.2561C10.1823 11.1146 10.1948 10.9714 10.235 10.8345C10.2753 10.6976 10.3427 10.5694 10.4338 10.4573C10.5248 10.3452 10.6378 10.2514 10.7665 10.1816C10.8952 10.1118 11.0369 10.0675 11.1836 10.0514C11.3303 10.0354 11.4787 10.048 11.6203 10.0884C11.7619 10.1288 11.8935 10.1961 12.0079 10.2862L20.0846 16.6497C20.2151 16.7526 20.3198 16.8826 20.3915 17.0296C20.4631 17.1767 20.5001 17.3373 20.5 17.4997V17.5003C20.5001 17.6627 20.4631 17.8233 20.3915 17.9704ZM38.7692 32.3182H39.2692V31.8182V3.18182V2.68182H38.7692H3.23077H2.73077V3.18182V31.8182V32.3182H3.23077H38.7692ZM22.6154 22.7727H30.6923C30.9906 22.7727 31.2751 22.8895 31.4837 23.0949C31.6921 23.3001 31.8077 23.5768 31.8077 23.8636C31.8077 24.1505 31.6921 24.4271 31.4837 24.6323C31.2751 24.8378 30.9906 24.9545 30.6923 24.9545H22.6154C22.3171 24.9545 22.0326 24.8378 21.824 24.6323C21.6156 24.4271 21.5 24.1505 21.5 23.8636C21.5 23.5768 21.6156 23.3001 21.824 23.0949C22.0326 22.8895 22.3171 22.7727 22.6154 22.7727ZM41.5 3.18182V31.8182C41.5 32.527 41.2142 33.2083 40.7029 33.7118C40.1913 34.2156 39.4959 34.5 38.7692 34.5H3.23077C2.50408 34.5 1.80867 34.2156 1.29711 33.7118C0.785821 33.2083 0.5 32.527 0.5 31.8182V3.18182C0.5 2.47304 0.785821 1.79172 1.29711 1.28817C1.80867 0.784373 2.50408 0.5 3.23077 0.5H38.7692C39.4959 0.5 40.1913 0.784373 40.7029 1.28817C41.2142 1.79172 41.5 2.47304 41.5 3.18182Z" fill="#4ACCF4" stroke="#4ACCF4"/>
</svg>
