<svg width="41" height="44" viewBox="0 0 41 44" fill="none" xmlns="http://www.w3.org/2000/svg">
<path d="M17.0796 16.5308V4.02V3.52H17.5796H23.414H23.914V4.02V16.5308H17.0796ZM17.0796 16.5308C17.0801 16.8494 16.9959 17.1622 16.8361 17.435L11.8939 25.9295L17.0796 16.5308ZM40.0748 38.921L40.1688 39.0825C40.38 39.5013 40.494 39.9668 40.4998 40.442C40.5063 40.9792 40.3743 41.5077 40.1182 41.9736C39.8622 42.4393 39.4918 42.8248 39.0464 43.0923C38.6012 43.3597 38.0962 43.5 37.583 43.5H3.41161C2.89882 43.499 2.39454 43.358 1.95002 43.0902C1.50538 42.8223 1.1358 42.4367 0.880427 41.9711C0.625007 41.5054 0.493477 40.9773 0.500249 40.4406C0.507021 39.9039 0.651829 39.3795 0.918821 38.921L14.0944 16.294L14.1623 16.1774V16.0424V3.52V3.02H13.6623H11.9537C11.638 3.02 11.3322 2.89096 11.1043 2.65623C10.8759 2.42099 10.7451 2.09887 10.7451 1.76C10.7451 1.42113 10.8759 1.09901 11.1043 0.86377C11.3322 0.629038 11.638 0.5 11.9537 0.5H29.0399C29.3556 0.5 29.6614 0.629039 29.8893 0.86377C30.1177 1.099 30.2485 1.42112 30.2485 1.76C30.2485 2.09888 30.1177 2.42099 29.8893 2.65623C29.6614 2.89096 29.3556 3.02 29.0399 3.02H27.3313H26.8313V3.52V16.0424V16.1774L26.8992 16.294L40.0748 38.921ZM16.4046 17.1823L16.4039 17.1836L11.1777 26.1662L10.7579 26.8876L11.592 26.9173C14.5275 27.0218 17.6883 27.9341 21.0367 29.6792C25.9662 32.2494 29.7282 32.4976 32.4201 31.95L33.1032 31.811L32.7526 31.2085L24.5897 17.1835L24.589 17.1823C24.4746 16.987 24.4137 16.7619 24.414 16.5316V16.5308V3.52V3.02H23.914H17.0796H16.5796V3.52L16.5796 16.5308L16.5796 16.5316C16.5799 16.7619 16.519 16.987 16.4046 17.1823ZM2.97853 40.2284L2.54085 40.98H3.41061H37.583H38.4551L38.0145 40.2274L34.578 34.3578L34.3803 34.0201L34.0051 34.1308C32.6941 34.5175 31.3367 34.7106 29.9734 34.7044H29.9711C27.2845 34.7044 23.9459 34.009 19.9504 31.9274C16.1531 29.946 12.6193 29.1169 9.44371 29.5163L9.19843 29.5472L9.07403 29.7608L2.97853 40.2284Z" fill="#4ACCF4" stroke="#4ACCF4"/>
</svg>
