<svg width="48" height="46" viewBox="0 0 48 46" fill="none" xmlns="http://www.w3.org/2000/svg">
<path d="M18.1362 6.8942C18.2376 7.1581 18.5106 7.36771 18.861 7.39497L18.4927 6.42753L18.3203 5.97475L18.3199 5.97372C18.304 5.93157 18.2584 5.87633 18.1776 5.84375L18.1362 6.8942ZM18.1362 6.8942L18.1217 6.85445L17.92 6.30319L17.4078 6.59C15.1416 7.85907 14.4632 9.63807 14.4172 11.1731C14.3726 12.6668 14.9241 13.8952 15.0564 14.1666C15.0748 14.2049 15.076 14.2433 15.0631 14.2804C15.0505 14.3167 15.0219 14.3575 14.9697 14.3885C14.9102 14.4159 14.8557 14.4264 14.8014 14.4264C14.7052 14.4264 14.6264 14.3863 14.5833 14.3342L14.1985 14.6531L14.5837 14.3348C12.5292 11.8485 11.8093 9.49942 12.2826 7.32716C12.8498 4.72368 14.9925 3.02803 16.0158 2.3554L16.3538 2.13324L16.2072 1.7563L16.0906 1.45652C15.9945 1.20148 16.0687 0.907424 16.3229 0.70093C16.3279 0.6969 16.3329 0.692928 16.3379 0.689015M18.1362 6.8942L16.3379 0.689015M16.3379 0.689015L16.7303 1.71976L16.9017 2.16997C16.9153 2.20755 16.9135 2.24301 16.9001 2.2759C16.8862 2.31004 16.8559 2.34949 16.8 2.37898L16.8002 2.37929C16.6427 2.46298 15.8732 2.91305 15.0454 3.68587C14.1537 4.5184 13.1443 5.77168 12.7931 7.40266L12.7931 7.40307C12.5694 8.4462 12.6413 9.51911 12.985 10.6121L13.9577 10.5276C14.1693 8.92819 15.0969 7.10577 17.9471 5.85215L17.9475 5.85197C18.0261 5.81729 18.1132 5.81777 18.1776 5.84375L16.3379 0.689015ZM19.7005 6.97277C19.5713 7.21794 19.2718 7.40012 18.9121 7.39706L19.4006 6.4859L21.1001 3.31611L21.3545 2.84154L20.8624 2.62292L17.4006 1.08495L16.4045 0.642406C16.6598 0.480934 16.9993 0.451926 17.2792 0.580473L17.2792 0.580516L17.2855 0.583302L21.275 2.3494C21.7043 2.55085 21.8319 2.98863 21.6589 3.32037L19.7022 6.96965L19.7022 6.96964L19.7005 6.97277Z" fill="#4ACCF4" stroke="#4ACCF4"/>
<path d="M14.5655 14.3125L14.5655 14.3125L14.5628 14.3077C14.541 14.2686 14.536 14.2312 14.5407 14.2002C14.5451 14.1709 14.5596 14.1359 14.5979 14.1008C14.7042 14.0032 14.8883 14.0032 14.9946 14.1007L14.9946 14.1008C15.0349 14.1378 15.06 14.1994 15.06 14.2426H15.0599L15.06 14.2525C15.0608 14.2929 15.0455 14.3334 15.006 14.37C14.965 14.4079 14.8973 14.4402 14.808 14.4402C14.6864 14.4402 14.6001 14.3759 14.5655 14.3125Z" fill="#4ACCF4" stroke="#4ACCF4"/>
<path d="M45.2326 15.0567C45.2773 13.5631 44.7258 12.3348 44.5935 12.0633C44.5751 12.0249 44.5739 11.9866 44.5868 11.9495C44.6 11.9112 44.6312 11.8678 44.689 11.8363C44.8139 11.768 44.9816 11.805 45.0598 11.8973C47.1133 14.383 47.8328 16.7315 47.3596 18.9033C46.7924 21.5068 44.6497 23.2024 43.6263 23.8751L43.296 24.0922L43.4311 24.4637L43.5409 24.7657L43.5408 24.7657L43.5424 24.7699C43.6419 25.036 43.5646 25.3313 43.3118 25.5364L43.3117 25.5363L43.3024 25.5443C43.3019 25.5447 43.3014 25.5451 43.301 25.5455L42.921 24.5147L42.7567 24.069L42.7563 24.0679C42.7421 24.0298 42.7438 23.9939 42.7573 23.9607C42.7713 23.9265 42.8015 23.8871 42.8575 23.8576L42.8575 23.8576L42.8648 23.8536C42.9039 23.8321 43.7206 23.3813 44.6151 22.5452C45.5057 21.7128 46.5131 20.4614 46.8643 18.8341L46.8644 18.8335C47.0881 17.7904 47.0162 16.7174 46.6724 15.6245L45.6998 15.7089C45.4882 17.3084 44.5606 19.1304 41.7113 20.377L41.71 20.3775C41.6313 20.4122 41.5443 20.4117 41.4799 20.3857C41.3991 20.3532 41.3535 20.2979 41.3375 20.2558L41.3375 20.2558L41.3362 20.2523L41.1638 19.8066L40.7909 18.842C41.1465 18.8697 41.4134 19.0787 41.5146 19.3451L41.519 19.3567L41.524 19.3681L41.5397 19.4041L41.7609 19.9093L42.242 19.6398C44.5083 18.3707 45.1867 16.5917 45.2326 15.0567ZM42.2496 25.1449L43.2478 25.5864C43.1131 25.6805 42.9407 25.733 42.7493 25.733C42.6202 25.733 42.493 25.7065 42.3567 25.6465C42.3565 25.6464 42.3562 25.6463 42.356 25.6462L38.3738 23.8799C38.1497 23.7765 38.0045 23.6176 37.9396 23.4428L37.9396 23.4428L37.9383 23.4392C37.8734 23.2684 37.8854 23.0849 37.978 22.9193L37.978 22.9193L37.982 22.9119L39.9398 19.2676L39.9398 19.2676L39.9417 19.2641C40.0773 19.0068 40.3881 18.8199 40.7477 18.8393L40.2573 19.7498L38.5501 22.9195L38.2938 23.3953L38.7881 23.6139L42.2496 25.1449Z" fill="#4ACCF4" stroke="#4ACCF4"/>
<path d="M44.6084 12.0812L44.6041 12.0725L44.5994 12.064C44.5626 11.9964 44.5735 11.9215 44.63 11.8679L44.63 11.8679L44.6332 11.8647C44.7314 11.7698 44.915 11.7608 45.0301 11.861L45.0306 11.8615C45.0756 11.9006 45.1011 11.9664 45.1011 12.0015L45.1011 12.002C45.1011 12.0697 45.0265 12.1985 44.8418 12.1985C44.7128 12.1985 44.6324 12.1296 44.6084 12.0812Z" fill="#4ACCF4" stroke="#4ACCF4"/>
<path d="M7.79212 29.6801C3.72787 29.6801 0.5 26.6517 0.5 23.0281C0.5 19.4048 3.73558 16.3761 7.79212 16.3761C11.8487 16.3761 15.0842 19.4048 15.0842 23.0281C15.0842 26.6517 11.8564 29.6801 7.79212 29.6801ZM7.79212 16.7631C4.09522 16.7631 1.01937 19.5355 1.01937 23.0205C1.01937 26.506 4.10371 29.278 7.79212 29.278C11.489 29.278 14.5649 26.5056 14.5649 23.0205C14.5649 19.5355 11.489 16.7631 7.79212 16.7631Z" fill="#4ACCF4" stroke="#4ACCF4"/>
<path d="M4.4245 23.087L4.42452 23.0869C4.53082 22.9894 4.71499 22.9894 4.82124 23.0869L4.82126 23.0869L6.25434 24.4023L6.59244 24.7126L6.93054 24.4023L10.7521 20.8946C10.8584 20.7971 11.0426 20.7971 11.1489 20.8946L11.1489 20.8946C11.1964 20.9383 11.2101 20.9834 11.2101 21.0187C11.2101 21.054 11.1964 21.0991 11.1489 21.1427L11.1489 21.1427L6.79484 25.1391L6.78432 25.1487L6.77437 25.159C6.75127 25.1827 6.69341 25.216 6.60051 25.216C6.52017 25.216 6.44972 25.1894 6.3919 25.1408L4.42452 23.335C4.37699 23.2914 4.36328 23.2462 4.36328 23.211C4.36328 23.1757 4.37699 23.1306 4.4245 23.087Z" fill="#4ACCF4" stroke="#4ACCF4"/>
<path d="M27.3557 15.326L27.3557 15.326C26.7011 14.7252 26.3506 13.9434 26.3506 13.1138C26.3506 12.2909 26.7012 11.5022 27.3557 10.9015L27.3557 10.9015C28.7154 9.65345 30.9428 9.6546 32.2937 10.9007L32.2946 10.9015C33.6298 12.127 33.6284 14.1005 32.2955 15.3178L32.2955 15.3178L32.2926 15.3204C31.6368 15.9289 30.7653 16.2655 29.8292 16.2655C28.8845 16.2655 28.0119 15.9283 27.3557 15.326ZM27.7524 11.1573L27.7524 11.1573C27.1929 11.6708 26.87 12.3697 26.87 13.1215C26.87 13.8755 27.1946 14.5652 27.7494 15.0829L27.7494 15.0829L27.7524 15.0857C28.8677 16.1093 30.7826 16.1093 31.8979 15.0857C33.0682 14.0114 33.0692 12.2429 31.9009 11.1675C31.3204 10.6183 30.5673 10.3643 29.8292 10.3643C29.0881 10.3643 28.3302 10.627 27.7524 11.1573Z" fill="#4ACCF4" stroke="#4ACCF4"/>
<mask id="path-8-inside-1_288_232" fill="white">
<path d="M31.1914 21.5445H28.4661C28.0431 21.5445 27.7064 21.2355 27.7064 20.8472V19.8624C27.1505 19.7187 26.6258 19.5175 26.1244 19.2585L25.3727 19.9558C25.091 20.2218 24.5819 20.2144 24.2998 19.9558L22.3735 18.1877C22.076 17.9146 22.076 17.476 22.3735 17.2029L23.1332 16.5056C22.8591 16.0455 22.6399 15.5567 22.4752 15.0536H21.4023C21.1988 15.0536 21.0107 14.9817 20.8618 14.8524C20.7209 14.7231 20.6426 14.5434 20.6426 14.3563V11.8549C20.6426 11.4666 20.9793 11.1576 21.4023 11.1576H22.4752C22.6318 10.6545 22.8511 10.1658 23.1252 9.70556L22.3654 9.00826C22.2245 8.87894 22.1462 8.69924 22.1462 8.51215C22.1462 8.3254 22.2245 8.15275 22.3654 8.01605L24.2918 6.24796C24.5893 5.97488 25.0672 5.97488 25.3647 6.24796L26.1244 6.94527C26.6258 6.69369 27.1502 6.49249 27.7064 6.34134V5.35654C27.7064 5.16979 27.7847 4.99714 27.9256 4.86044C28.0665 4.73112 28.2623 4.65924 28.4661 4.65924H31.1914C31.6144 4.65924 31.9511 4.96826 31.9511 5.35654V6.34134C32.5069 6.4851 33.0317 6.6863 33.5331 6.93788L34.2847 6.24058C34.5665 5.98194 35.0756 5.98194 35.3577 6.24058L37.284 8.00866C37.5815 8.28174 37.5815 8.72041 37.284 8.99346L36.5323 9.68338C36.8141 10.1435 37.0337 10.6323 37.1903 11.1354H38.2633C38.4667 11.1354 38.6548 11.2073 38.8038 11.3366C38.9446 11.466 39.023 11.6457 39.023 11.8327V14.3341C39.023 14.7224 38.6863 15.0314 38.2633 15.0314H37.1984C37.0417 15.5416 36.8225 16.0233 36.5404 16.4834L37.2921 17.1734C37.433 17.3027 37.5113 17.4824 37.5113 17.6695C37.5113 17.8562 37.433 18.0289 37.2921 18.1656L35.3657 19.9337C35.0682 20.2067 34.5903 20.2067 34.2928 19.9337L33.5411 19.2437C33.0398 19.5024 32.5073 19.7039 31.9591 19.8477V20.8251C31.9591 21.0118 31.8808 21.1845 31.7399 21.3212C31.5829 21.4726 31.3871 21.5445 31.1914 21.5445ZM29.2258 20.1502H30.432V19.3166C30.432 18.9861 30.6904 18.6985 31.0428 18.6337C31.8336 18.49 32.5699 18.2095 33.2279 17.8001C33.5334 17.6133 33.9327 17.6563 34.1834 17.8864L34.8256 18.4759L35.6794 17.6923L35.0371 17.1028C34.7788 16.8656 34.7396 16.4989 34.9431 16.2258C35.3895 15.6148 35.6871 14.939 35.8436 14.2202C35.9143 13.8967 36.2275 13.6596 36.5876 13.6596H37.4959V12.5525H36.5876C36.2275 12.5525 35.9143 12.3153 35.8436 11.9919C35.687 11.2731 35.3815 10.5972 34.9354 9.98629C34.7319 9.70582 34.7711 9.33936 35.0294 9.10927L35.6717 8.51978L34.8179 7.73616L34.1757 8.32564C33.9173 8.56278 33.5177 8.59872 33.2202 8.41196C32.5545 8.00957 31.8182 7.7291 31.0351 7.58538C30.6827 7.52056 30.4243 7.23304 30.4243 6.90252V6.06888H29.2181V6.90252C29.2181 7.23304 28.9598 7.52056 28.6074 7.58538C27.8165 7.72914 27.0879 8.00961 26.4223 8.41903C26.1248 8.60579 25.7175 8.56985 25.4668 8.33271L24.8245 7.74322L23.9708 8.52685L24.613 9.11633C24.8714 9.35347 24.9105 9.72026 24.7071 9.99335C24.2687 10.6043 23.9631 11.2801 23.8065 11.9989C23.7359 12.3224 23.4226 12.5595 23.0625 12.5595H22.1543V13.6666H23.0625C23.4226 13.6666 23.7359 13.9038 23.8065 14.2272C23.9631 14.946 24.2687 15.6219 24.7071 16.2328C24.9105 16.5059 24.8714 16.8797 24.613 17.1098L23.9708 17.6993L24.8245 18.4829L25.4668 17.8935C25.7251 17.6563 26.1247 17.6204 26.4223 17.8071C27.0879 18.2095 27.8242 18.49 28.6074 18.6337C28.9598 18.6985 29.2181 18.9861 29.2181 19.3166L29.2258 20.1502Z"/>
</mask>
<path d="M31.1914 21.5445H28.4661C28.0431 21.5445 27.7064 21.2355 27.7064 20.8472V19.8624C27.1505 19.7187 26.6258 19.5175 26.1244 19.2585L25.3727 19.9558C25.091 20.2218 24.5819 20.2144 24.2998 19.9558L22.3735 18.1877C22.076 17.9146 22.076 17.476 22.3735 17.2029L23.1332 16.5056C22.8591 16.0455 22.6399 15.5567 22.4752 15.0536H21.4023C21.1988 15.0536 21.0107 14.9817 20.8618 14.8524C20.7209 14.7231 20.6426 14.5434 20.6426 14.3563V11.8549C20.6426 11.4666 20.9793 11.1576 21.4023 11.1576H22.4752C22.6318 10.6545 22.8511 10.1658 23.1252 9.70556L22.3654 9.00826C22.2245 8.87894 22.1462 8.69924 22.1462 8.51215C22.1462 8.3254 22.2245 8.15275 22.3654 8.01605L24.2918 6.24796C24.5893 5.97488 25.0672 5.97488 25.3647 6.24796L26.1244 6.94527C26.6258 6.69369 27.1502 6.49249 27.7064 6.34134V5.35654C27.7064 5.16979 27.7847 4.99714 27.9256 4.86044C28.0665 4.73112 28.2623 4.65924 28.4661 4.65924H31.1914C31.6144 4.65924 31.9511 4.96826 31.9511 5.35654V6.34134C32.5069 6.4851 33.0317 6.6863 33.5331 6.93788L34.2847 6.24058C34.5665 5.98194 35.0756 5.98194 35.3577 6.24058L37.284 8.00866C37.5815 8.28174 37.5815 8.72041 37.284 8.99346L36.5323 9.68338C36.8141 10.1435 37.0337 10.6323 37.1903 11.1354H38.2633C38.4667 11.1354 38.6548 11.2073 38.8038 11.3366C38.9446 11.466 39.023 11.6457 39.023 11.8327V14.3341C39.023 14.7224 38.6863 15.0314 38.2633 15.0314H37.1984C37.0417 15.5416 36.8225 16.0233 36.5404 16.4834L37.2921 17.1734C37.433 17.3027 37.5113 17.4824 37.5113 17.6695C37.5113 17.8562 37.433 18.0289 37.2921 18.1656L35.3657 19.9337C35.0682 20.2067 34.5903 20.2067 34.2928 19.9337L33.5411 19.2437C33.0398 19.5024 32.5073 19.7039 31.9591 19.8477V20.8251C31.9591 21.0118 31.8808 21.1845 31.7399 21.3212C31.5829 21.4726 31.3871 21.5445 31.1914 21.5445ZM29.2258 20.1502H30.432V19.3166C30.432 18.9861 30.6904 18.6985 31.0428 18.6337C31.8336 18.49 32.5699 18.2095 33.2279 17.8001C33.5334 17.6133 33.9327 17.6563 34.1834 17.8864L34.8256 18.4759L35.6794 17.6923L35.0371 17.1028C34.7788 16.8656 34.7396 16.4989 34.9431 16.2258C35.3895 15.6148 35.6871 14.939 35.8436 14.2202C35.9143 13.8967 36.2275 13.6596 36.5876 13.6596H37.4959V12.5525H36.5876C36.2275 12.5525 35.9143 12.3153 35.8436 11.9919C35.687 11.2731 35.3815 10.5972 34.9354 9.98629C34.7319 9.70582 34.7711 9.33936 35.0294 9.10927L35.6717 8.51978L34.8179 7.73616L34.1757 8.32564C33.9173 8.56278 33.5177 8.59872 33.2202 8.41196C32.5545 8.00957 31.8182 7.7291 31.0351 7.58538C30.6827 7.52056 30.4243 7.23304 30.4243 6.90252V6.06888H29.2181V6.90252C29.2181 7.23304 28.9598 7.52056 28.6074 7.58538C27.8165 7.72914 27.0879 8.00961 26.4223 8.41903C26.1248 8.60579 25.7175 8.56985 25.4668 8.33271L24.8245 7.74322L23.9708 8.52685L24.613 9.11633C24.8714 9.35347 24.9105 9.72026 24.7071 9.99335C24.2687 10.6043 23.9631 11.2801 23.8065 11.9989C23.7359 12.3224 23.4226 12.5595 23.0625 12.5595H22.1543V13.6666H23.0625C23.4226 13.6666 23.7359 13.9038 23.8065 14.2272C23.9631 14.946 24.2687 15.6219 24.7071 16.2328C24.9105 16.5059 24.8714 16.8797 24.613 17.1098L23.9708 17.6993L24.8245 18.4829L25.4668 17.8935C25.7251 17.6563 26.1247 17.6204 26.4223 17.8071C27.0879 18.2095 27.8242 18.49 28.6074 18.6337C28.9598 18.6985 29.2181 18.9861 29.2181 19.3166L29.2258 20.1502Z" fill="#4ACCF4" stroke="#4ACCF4" stroke-width="2" mask="url(#path-8-inside-1_288_232)"/>
<path d="M34.2229 37.118C32.1945 37.118 30.6191 35.6132 30.6191 33.8513C30.6191 32.0894 32.1944 30.5846 34.2229 30.5846C36.2515 30.5846 37.8267 32.0894 37.8267 33.8513C37.8267 35.6132 36.2515 37.118 34.2229 37.118ZM34.2229 30.9793C32.5626 30.9793 31.1386 32.2274 31.1386 33.8513C31.1386 35.4752 32.5626 36.7233 34.2229 36.7233C35.8833 36.7233 37.3073 35.4752 37.3073 33.8513C37.3073 32.2274 35.8833 30.9793 34.2229 30.9793Z" fill="#4ACCF4" stroke="#4ACCF4"/>
<path d="M27.6663 44.538L27.5892 45.1054H28.1617H40.2846H40.8571L40.7801 44.5381C40.3668 41.495 37.5532 39.1886 34.223 39.1886H34.2229C30.8932 39.1889 28.0799 41.495 27.6663 44.538ZM41.0908 45.5H27.3544C27.1663 45.5 27.0947 45.3754 27.0947 45.3027C27.0947 41.7509 30.2523 38.7944 34.2226 38.7944C38.1929 38.7944 41.3505 41.751 41.3505 45.3027C41.3505 45.3721 41.2745 45.4999 41.091 45.5C41.0909 45.5 41.0909 45.5 41.0908 45.5Z" fill="#4ACCF4" stroke="#4ACCF4"/>
<path d="M17.1341 37.118C15.1056 37.118 13.5303 35.6132 13.5303 33.8513C13.5303 32.0894 15.1055 30.5846 17.1341 30.5846C19.1625 30.5846 20.7379 32.0894 20.7379 33.8513C20.7379 35.6132 19.1626 37.118 17.1341 37.118ZM17.1341 30.9793C15.4737 30.9793 14.0497 32.2274 14.0497 33.8513C14.0497 35.4752 15.4737 36.7233 17.1341 36.7233C18.7944 36.7233 20.2184 35.4752 20.2184 33.8513C20.2184 32.2274 18.7944 30.9793 17.1341 30.9793Z" fill="#4ACCF4" stroke="#4ACCF4"/>
<path d="M10.5694 44.5381L10.4923 45.1054H11.0648H23.1877H23.7602L23.6832 44.5381C23.2699 41.495 20.4563 39.1886 17.1261 39.1886H17.126C13.7963 39.1889 10.9827 41.495 10.5694 44.5381ZM24.0019 45.5H10.2656C10.0775 45.5 10.0059 45.3754 10.0059 45.3027C10.0059 41.751 13.1635 38.7944 17.1337 38.7944C21.104 38.7944 24.2616 41.7509 24.2616 45.3027C24.2616 45.3721 24.1856 45.4999 24.0022 45.5C24.0021 45.5 24.002 45.5 24.0019 45.5Z" fill="#4ACCF4" stroke="#4ACCF4"/>
</svg>
