<svg width="50" height="42" viewBox="0 0 50 42" fill="none" xmlns="http://www.w3.org/2000/svg">
<path d="M46.4852 16.603L46.483 16.5997C46.4153 16.4963 46.3661 16.4713 46.3499 16.4658C46.3338 16.4713 46.2845 16.4962 46.2166 16.5997L46.4852 16.603ZM46.4852 16.603L49.4009 20.9819L46.5354 25.3591C46.5003 25.4126 46.4722 25.4305 46.4579 25.4378C46.4417 25.446 46.417 25.4536 46.376 25.4536C46.335 25.4536 46.3103 25.446 46.2941 25.4378C46.2798 25.4305 46.2516 25.4126 46.2166 25.3591C46.0103 25.0433 46.0105 24.5364 46.2166 24.2216L47.372 22.4566L47.8786 21.6827H46.9537H42.7519C41.2945 21.6827 40.0411 22.5826 39.1755 23.9047C38.3073 25.231 37.7873 27.0343 37.7873 29.0026C37.7873 31.4863 37.126 33.6942 36.0907 35.2661C35.0525 36.8427 33.6796 37.7288 32.2475 37.7288H30.7819C30.7775 37.7273 30.7216 37.7126 30.6439 37.594C30.5566 37.4606 30.4893 37.2564 30.4893 37.0256C30.4893 36.7949 30.5566 36.5907 30.6439 36.4572C30.7216 36.3385 30.7774 36.3238 30.7818 36.3223H32.2475C33.705 36.3223 34.9584 35.4224 35.8239 34.1003C36.6921 32.774 37.2121 30.9708 37.2121 29.0025C37.2121 26.3658 37.9744 24.0642 39.1144 22.4739L39.6816 21.6826H38.708H30.8347C30.8303 21.6811 30.7744 21.6664 30.6968 21.5478C30.6094 21.4145 30.5421 21.2102 30.5421 20.9794C30.5421 20.7488 30.6094 20.5445 30.6967 20.4111C30.7744 20.2924 30.8302 20.2776 30.8346 20.2762H38.708H39.6817L39.1143 19.4848C37.9741 17.8946 37.2121 15.5924 37.2121 12.9563C37.2121 10.9879 36.6921 9.18464 35.8238 7.85839C34.9583 6.53628 33.7049 5.63643 32.2475 5.63643H30.7819C30.7775 5.63497 30.7216 5.6202 30.6439 5.50162C30.5566 5.36828 30.4893 5.16405 30.4893 4.93321C30.4893 4.7026 30.5566 4.49832 30.6439 4.36488C30.7216 4.24621 30.7774 4.23144 30.7818 4.22998H32.2475C33.7035 4.22998 35.0763 5.13351 36.1088 6.72029C37.1387 8.30284 37.7873 10.5116 37.7873 12.9562C37.7873 14.9246 38.3074 16.7278 39.1756 18.0541C40.0411 19.3762 41.2945 20.276 42.7519 20.276H46.9537H47.8786M46.4852 16.603L47.8786 20.276M47.8786 20.276L47.372 19.5022M47.8786 20.276L47.372 19.5022M47.372 19.5022L46.2167 17.7374M47.372 19.5022L46.2167 17.7374M46.2167 17.7374L46.2166 17.7371C46.0103 17.4214 46.0105 16.9147 46.2164 16.5999L46.2167 17.7374ZM46.3557 16.4644C46.3557 16.4645 46.355 16.4646 46.3535 16.4648L46.3557 16.4644ZM46.3464 16.4648C46.3449 16.4646 46.3442 16.4644 46.3442 16.4644L46.3464 16.4648Z" fill="#4ACCF4" stroke="#4ACCF4"/>
<path d="M24.8221 4.31116H23.8971H21.8488C20.4167 4.31116 19.0439 5.19723 18.0056 6.77379C16.9703 8.34578 16.309 10.5536 16.309 13.0374C16.309 15.0057 15.789 16.8089 14.9208 18.1352C14.0553 19.4573 12.8019 20.3572 11.3444 20.3572H5.35697H5.35691L0.787614 20.3567L0.740458 20.3566L0.717635 20.3523C0.70413 20.3618 0.680694 20.3835 0.648616 20.4303C0.568463 20.5472 0.5 20.7464 0.5 20.9799C0.5 21.2107 0.567375 21.4149 0.654688 21.5483C0.732348 21.6669 0.788222 21.6816 0.792598 21.6831H5.46211C6.91948 21.6831 8.17288 22.5829 9.0384 23.905C9.90662 25.2313 10.4266 27.0346 10.4266 29.0029C10.4266 31.4475 11.0753 33.6563 12.1051 35.2388C13.1377 36.8256 14.5105 37.7291 15.9664 37.7291H23.7923H24.7172L24.2106 38.503L23.0551 40.2681C22.8491 40.5828 22.8488 41.0897 23.0551 41.4055C23.0902 41.459 23.1184 41.477 23.1326 41.4842C23.1488 41.4924 23.1735 41.5 23.2146 41.5C23.2556 41.5 23.2803 41.4924 23.2965 41.4842C23.3107 41.477 23.3389 41.459 23.374 41.4055L26.2394 37.0283L23.3237 32.6497L23.3215 32.6465C23.2538 32.543 23.2046 32.518 23.1884 32.5125C23.1722 32.518 23.1229 32.543 23.0549 32.6467C22.849 32.9615 22.8488 33.4682 23.0551 33.7839L24.8221 4.31116ZM24.8221 4.31116L24.3155 3.5373L23.1601 1.77248C23.1601 1.77243 23.1601 1.77238 23.16 1.77233C23.16 1.7723 23.16 1.77227 23.16 1.77224C22.9537 1.45652 22.9539 0.949863 23.1598 0.635068C23.2278 0.531365 23.2772 0.506379 23.2934 0.500913C23.3096 0.506395 23.3587 0.53139 23.4265 0.634828L26.2934 5.01433L23.4265 9.39383C23.3914 9.44739 23.3632 9.46531 23.3489 9.47257C23.3327 9.48081 23.308 9.48836 23.267 9.48836C23.226 9.48836 23.2013 9.48081 23.1851 9.47257C23.1723 9.46606 23.1483 9.45097 23.1182 9.40928C22.9551 9.08986 22.9463 8.57182 23.1704 8.16041L24.3157 6.41088L24.8223 5.63702H23.8974H21.849C20.3916 5.63702 19.1382 6.53691 18.2727 7.85904C17.4045 9.1853 16.8845 10.9886 16.8845 12.9569C16.8845 15.5935 16.1221 17.8952 14.9822 19.4854L14.415 20.2767H15.3886H23.897H24.8219L24.3153 19.5029L23.16 17.7381L24.8221 4.31116ZM24.2105 35.5489L23.0552 33.7841L23.1599 17.7378C22.9536 17.422 22.9538 16.9152 23.1599 16.6004C23.2278 16.4969 23.2771 16.472 23.2932 16.4665C23.3094 16.472 23.3582 16.4968 23.4254 16.599C23.4257 16.5995 23.426 16.5999 23.4263 16.6004L26.2422 20.9775L23.3736 25.3594C23.3386 25.413 23.3104 25.4309 23.2961 25.4382C23.2799 25.4464 23.2552 25.4539 23.2142 25.4539C23.1732 25.4539 23.1485 25.4464 23.1323 25.4382C23.118 25.4309 23.0899 25.413 23.0548 25.3594C22.8485 25.0436 22.8487 24.5368 23.0548 24.222L24.2103 22.4569L24.7169 21.6831H23.7919H9.45351H8.47976L9.04717 22.4744C10.1874 24.0646 10.9494 26.3668 10.9494 29.0029C10.9494 30.9713 11.4694 32.7746 12.3377 34.1008C13.2032 35.4229 14.4566 36.3228 15.914 36.3228H23.7922H24.7171L24.2105 35.5489ZM23.2991 0.499521C23.2991 0.499577 23.2984 0.49975 23.2969 0.499872L23.2991 0.499521ZM23.2898 0.499872C23.2883 0.499748 23.2876 0.499571 23.2876 0.499513L23.2898 0.499872ZM23.299 16.4651C23.299 16.4651 23.2983 16.4653 23.2968 16.4655L23.299 16.4651ZM23.2897 16.4655C23.2882 16.4653 23.2875 16.4652 23.2875 16.4651L23.2897 16.4655ZM23.1942 32.5112C23.1943 32.5112 23.1935 32.5114 23.192 32.5115L23.1942 32.5112ZM23.1848 32.5115C23.1834 32.5114 23.1827 32.5112 23.1827 32.5111L23.1848 32.5115ZM0.73103 20.3459C0.731086 20.3464 0.728394 20.348 0.72279 20.349C0.728173 20.3458 0.730975 20.3453 0.73103 20.3459Z" fill="#4ACCF4" stroke="#4ACCF4"/>
</svg>
