<svg width="53" height="44" viewBox="0 0 53 44" fill="none" xmlns="http://www.w3.org/2000/svg">
<path d="M6.40481 43.3433L0.646718 38.8555C0.646529 38.8554 0.64634 38.8552 0.646151 38.8551C0.619475 38.8341 0.598715 38.8145 0.582771 38.7968L0.578224 38.7897C0.573393 38.7822 0.565992 38.7709 0.55712 38.7582L0.5494 38.7471L0.541094 38.7365C0.537514 38.7319 0.534249 38.7275 0.531241 38.7232C0.529538 38.7187 0.527758 38.7137 0.525924 38.7082L0.52351 38.701L0.520878 38.6939C0.514917 38.6777 0.509219 38.6639 0.505515 38.655L0.5034 38.65C0.498814 38.6252 0.498841 38.6005 0.503628 38.5753L0.504668 38.5728C0.507626 38.5658 0.512518 38.5541 0.517639 38.541L0.52206 38.5297L0.525924 38.5181C0.527095 38.5146 0.528244 38.5113 0.529364 38.5082L0.557126 38.4685C0.566579 38.4549 0.574359 38.4429 0.579279 38.4352L0.582932 38.4295C0.599699 38.4111 0.620629 38.3914 0.646034 38.3714C0.646269 38.3712 0.646505 38.371 0.646741 38.3708L6.40479 33.883C6.40494 33.8829 6.40508 33.8828 6.40523 33.8827C6.67484 33.6738 7.14995 33.6744 7.41816 33.8836L7.41851 33.8839C7.53704 33.9762 7.5633 34.0669 7.56338 34.1242C7.56346 34.1814 7.53753 34.2718 7.41959 34.3642C7.4195 34.3643 7.4194 34.3644 7.41931 34.3644L3.62598 37.3209L2.47846 38.2153H3.93335H41.7662H41.7666C45.0791 38.213 48.1886 36.8362 49.8949 34.5312C51.6192 32.2023 51.6192 29.3091 49.8949 26.9801C48.1885 24.6751 45.0791 23.2984 41.7666 23.296H41.7662C41.2826 23.296 41.1138 23.0088 41.1138 22.8982C41.1138 22.7889 41.2772 22.5094 41.7425 22.5002H41.7662C45.6551 22.5002 49.1991 24.1195 51.0931 26.6758C52.969 29.2075 52.969 32.3035 51.0931 34.8359C49.1991 37.3924 45.6552 39.0114 41.7662 39.0114H3.93335H2.47846L3.62598 39.9057L7.41947 42.8624C7.41956 42.8624 7.41965 42.8625 7.41974 42.8626C7.53758 42.9548 7.56346 43.0451 7.56338 43.1023C7.5633 43.1595 7.53705 43.2501 7.41852 43.3424L7.41817 43.3427C7.14995 43.5519 6.67491 43.5526 6.40534 43.3437C6.40516 43.3436 6.40499 43.3435 6.40481 43.3433ZM0.507412 38.6676L0.506595 38.6644L0.507412 38.6676Z" fill="#4ACCF4" stroke="#4ACCF4"/>
<path d="M42.489 32.9731L42.4891 32.9733C42.5065 33.0195 42.5211 33.1122 42.363 33.2437C42.1909 33.3869 41.8811 33.5 41.5111 33.5H19.9133C19.5429 33.5 19.2336 33.3869 19.0614 33.2437C18.9032 33.1121 18.9173 33.019 18.9345 32.9728C18.9345 32.9727 18.9345 32.9726 18.9346 32.9725L20.8221 27.9546L21.0764 27.2785H20.3542H7.48887C7.11892 27.2785 6.80909 27.1654 6.63696 27.0222C6.47893 26.8907 6.49353 26.7981 6.51094 26.7518L6.51103 26.7516L16.2268 0.91631L16.2268 0.916237C16.2517 0.850147 16.3309 0.745829 16.5137 0.652208C16.6915 0.56115 16.9328 0.5 17.2046 0.5C17.4764 0.5 17.7178 0.561154 17.8958 0.652256C18.0788 0.745938 18.1581 0.850292 18.1829 0.91629L18.183 0.916432L24.1216 16.6954L24.5897 17.9391L25.0576 16.6954L29.7334 4.26512L29.7334 4.26502C29.7582 4.19913 29.8374 4.09488 30.0204 4.00127C30.1984 3.91023 30.4398 3.84912 30.7117 3.84912C30.9836 3.84912 31.225 3.91023 31.4029 4.00124C31.5858 4.09483 31.6647 4.19895 31.6893 4.26455L31.6895 4.26513L42.489 32.9731ZM31.1802 8.22065L30.7122 6.97655L30.2443 8.22067L21.3445 31.8815L21.0903 32.5575H21.8125H39.6131H40.3354L40.0811 31.8815L31.1802 8.22065ZM8.92025 25.66L8.66603 26.336L9.38825 26.336L21.0857 26.3361L21.4318 26.3361L21.5537 26.0122L23.5257 20.7709L23.592 20.5948L23.5257 20.4187L17.6745 4.87091L17.2063 3.62703L16.7385 4.87102L8.92025 25.66Z" fill="#4ACCF4" stroke="#4ACCF4"/>
</svg>
