<svg width="55" height="42" viewBox="0 0 55 42" fill="none" xmlns="http://www.w3.org/2000/svg">
<path d="M43.3423 20.9573H43.3426C46.7717 20.9597 49.9916 22.3559 51.7596 24.6959M43.3423 20.9573L51.7596 24.6959M43.3423 20.9573C43.1119 20.9573 42.9218 20.8854 42.8001 20.7924C42.6787 20.6998 42.6464 20.6075 42.6464 20.5443C42.6464 20.4809 42.6788 20.3886 42.8001 20.296C42.9178 20.2061 43.0993 20.1359 43.3194 20.1313H43.3423C47.3865 20.1313 51.071 21.7814 53.0392 24.3843C54.9869 26.9599 54.9869 30.1072 53.0392 32.6834C51.071 35.2866 47.3865 36.9363 43.3423 36.9363H4.08177H2.6032L3.77831 37.8337L7.71497 40.8399C7.71502 40.84 7.71507 40.84 7.71513 40.8401C7.84152 40.9369 7.86773 41.0307 7.86765 41.0875C7.86758 41.1443 7.84099 41.2384 7.71396 41.3353L7.71361 41.3355C7.42687 41.5547 6.9195 41.5553 6.63143 41.3365C6.63129 41.3364 6.63116 41.3363 6.63102 41.3362L0.655566 36.773C0.655324 36.7728 0.655082 36.7726 0.654841 36.7724C0.626197 36.7503 0.603882 36.7297 0.586748 36.7109L0.581645 36.7032C0.576648 36.6956 0.569028 36.6842 0.559904 36.6714L0.552032 36.6603L0.543572 36.6497C0.539569 36.6447 0.535936 36.6399 0.532604 36.6351C0.530771 36.6304 0.528857 36.6252 0.526887 36.6194L0.524389 36.6121L0.521666 36.6049C0.515495 36.5885 0.509597 36.5744 0.50576 36.5654L0.503508 36.5602C0.498776 36.5352 0.498809 36.5102 0.503745 36.4848L0.504885 36.4821C0.507952 36.475 0.513017 36.4632 0.518319 36.4498L0.52289 36.4384L0.526887 36.4267C0.528165 36.4229 0.529419 36.4194 0.530642 36.4161L0.559909 36.375C0.569627 36.3614 0.577636 36.3493 0.582724 36.3415L0.586916 36.3351C0.604999 36.3155 0.627639 36.2946 0.655172 36.2734C0.655311 36.2733 0.65545 36.2732 0.655589 36.2731L6.631 31.7099C6.63118 31.7098 6.63136 31.7096 6.63154 31.7095C6.9197 31.4908 7.42695 31.4914 7.7136 31.7105L7.71395 31.7108C7.84097 31.8077 7.86758 31.9018 7.86766 31.9587C7.86774 32.0155 7.8415 32.1094 7.71516 32.2063C7.71504 32.2064 7.71493 32.2065 7.71481 32.2066L3.77831 35.2127L2.6032 36.1101H4.08177H43.3423H43.3426C46.7716 36.1077 49.9917 34.7115 51.7596 32.3715M43.3423 20.9573L51.7596 32.3715M51.7596 24.6959C53.548 27.0626 53.548 30.0048 51.7596 32.3715M51.7596 24.6959L51.7596 32.3715M0.350635 37.1693L0.700656 37.4366V37.0294V37.0291H0.458494L0.458237 37.0294L0.350635 37.1693ZM0.350635 37.1693L0.457415 37.0294L0.45767 37.0291H0.20104L0.20082 37.0293C0.200861 37.0293 0.200902 37.0294 0.200944 37.0294C0.244475 37.0799 0.294948 37.1264 0.350635 37.1693ZM0.200656 37.0291L0.20049 37.0292C0.200449 37.0292 0.200408 37.0291 0.200367 37.0291C0.188259 37.0151 0.178511 37.0002 0.168752 36.9853C0.163525 36.9773 0.158295 36.9694 0.152698 36.9615C0.150816 36.9592 0.148951 36.9568 0.147103 36.9544L0.266729 36.7865L0.53594 36.6558L0.538113 36.6547L0.537766 36.6543L0.512052 36.6245L0.200656 37.0291ZM0.289651 36.7544L0.340389 36.6831L0.350129 36.6695L0.394707 36.6069L0.397027 36.6036L0.440964 36.542L0.342713 36.4279L0.34046 36.4253L0.279864 36.355L0.264346 36.337L0.289651 36.7544ZM0.507662 36.578L0.506814 36.5748L0.507662 36.578Z" fill="#4ACCF4" stroke="#4ACCF4"/>
<path d="M20.2757 31.2493L20.263 31.237C20.1664 31.1364 20.1607 31.0459 20.1819 30.9792C20.1819 30.9791 20.182 30.979 20.182 30.9789L21.6977 26.2624L21.9075 25.6095H21.2217H10.891C10.6315 25.6095 10.4173 25.5168 10.299 25.4016C10.1905 25.296 10.1837 25.201 10.206 25.132L10.206 25.1318L18.0077 0.84877L18.0077 0.848705C18.0512 0.713303 18.2805 0.5 18.6926 0.5C19.1049 0.5 19.3345 0.713443 19.3779 0.848753L19.378 0.848881L24.1467 15.6798L24.6228 17.1606L25.0987 15.6798L28.8533 3.99637L28.8534 3.99628C28.8967 3.86123 29.1261 3.64789 29.5387 3.64789C29.9514 3.64789 30.1804 3.86128 30.2235 3.99585L30.2236 3.99637L38.8955 30.9795L38.8955 30.9796C38.9178 31.0487 38.911 31.1437 38.8025 31.2493C38.6842 31.3645 38.47 31.4571 38.2105 31.4571H20.8677C20.6079 31.4571 20.394 31.3645 20.2757 31.2493ZM30.0152 7.7392L29.5391 6.25794L29.0631 7.73922L21.9167 29.9784L21.7069 30.6314H22.3927H36.6864H37.3723L37.1624 29.9784L30.0152 7.7392ZM11.9401 24.1308L11.7304 24.7837L12.4162 24.7837L21.8091 24.7838L22.1736 24.7838L22.2851 24.4368L23.8686 19.5104L23.9178 19.3574L23.8686 19.2043L19.1701 4.59073L18.694 3.10971L18.2181 4.59083L11.9401 24.1308Z" fill="#4ACCF4" stroke="#4ACCF4"/>
</svg>
