<svg width="40" height="32" viewBox="0 0 40 32" fill="none" xmlns="http://www.w3.org/2000/svg">
<path d="M35.9014 12.5434L35.9014 12.5435C35.6025 12.9573 35.6026 13.5673 35.9013 13.9813L35.9014 13.9814L36.5829 14.925H33.6629C32.7704 14.925 31.9457 14.4259 31.3364 13.5824C30.7273 12.739 30.3447 11.5632 30.3447 10.2537C30.3447 8.41129 29.8064 6.7219 28.9206 5.48808C28.035 4.25443 26.7903 3.46357 25.3851 3.46357H24.2262C23.976 3.46357 23.7671 3.61379 23.6295 3.80444C23.4901 3.99745 23.4055 4.25362 23.4055 4.52302C23.4055 4.79265 23.4902 5.04884 23.6296 5.24181C23.7673 5.4324 23.9762 5.58247 24.2262 5.58247H25.3851C26.2775 5.58247 27.1023 6.08158 27.7115 6.92515C28.3206 7.76853 28.7033 8.94429 28.7033 10.2538C28.7033 12.0761 29.2349 13.7092 30.0791 14.9251H24.2678C24.0177 14.9251 23.8087 15.0753 23.6711 15.266C23.5317 15.459 23.4471 15.7152 23.4471 15.9846C23.4471 16.2542 23.5318 16.5104 23.6713 16.7034C23.8089 16.8939 24.0178 17.044 24.2678 17.044H30.0791C29.2351 18.2599 28.7033 19.8926 28.7033 21.7153C28.7033 23.0248 28.3207 24.2006 27.7116 25.044C27.1023 25.8875 26.2775 26.3867 25.3851 26.3867H24.2262C23.976 26.3867 23.7671 26.5369 23.6295 26.7275C23.4901 26.9206 23.4055 27.1767 23.4055 27.4461C23.4055 27.7158 23.4902 27.9719 23.6296 28.1649C23.7673 28.3555 23.9762 28.5056 24.2262 28.5056H25.3851C26.7688 28.5056 28.0134 27.7299 28.9045 26.5034C29.7959 25.2765 30.3447 23.5868 30.3447 21.7154C30.3447 20.406 30.7273 19.2302 31.3364 18.3868C31.9456 17.5432 32.7704 17.0441 33.6629 17.0441H36.5829L35.9014 17.9878C35.6025 18.4015 35.6026 19.0115 35.9013 19.4255L35.9014 19.4256C36.07 19.6591 36.3018 19.7376 36.5188 19.7376C36.7357 19.7376 36.9676 19.6591 37.1362 19.4256L39.5368 16.1018L39.6221 15.9837L39.5358 15.8663L37.0949 12.5435C37.0948 12.5433 37.0946 12.5431 37.0944 12.5428C36.9429 12.3334 36.7331 12.2028 36.4983 12.2028C36.2632 12.2028 36.0531 12.3336 35.9014 12.5434Z" fill="#4ACCF4" stroke="#4ACCF4" stroke-width="0.4"/>
<path d="M17.6817 8.00847L17.6861 8.01572L17.6911 8.02259C17.8597 8.25604 18.0915 8.33454 18.3085 8.33454C18.5254 8.33454 18.7573 8.25605 18.9259 8.02259L21.3265 4.69876L21.411 4.58166L21.3265 4.46456L18.9259 1.14074C18.7744 0.930888 18.5643 0.8 18.3292 0.8C18.0942 0.8 17.8841 0.930859 17.7324 1.14064L17.7323 1.14074C17.4335 1.55447 17.4336 2.16447 17.7323 2.5785L17.7323 2.57859L18.4139 3.52226H17.1908C15.8071 3.52226 14.5625 4.29797 13.6714 5.52443C12.78 6.75128 12.2313 8.44105 12.2313 10.3124C12.2313 11.6219 11.8486 12.7976 11.2395 13.641C10.6303 14.4846 9.80551 14.9837 8.91306 14.9837H4.19475H4.19472L1.63613 14.9833C1.38042 14.9474 1.16494 15.0877 1.02668 15.2704C0.884187 15.4588 0.8 15.717 0.8 15.9856C0.8 16.2552 0.884756 16.5114 1.02417 16.7044C1.16186 16.895 1.37076 17.0451 1.62072 17.0451H4.27757C5.16999 17.0451 5.99476 17.5442 6.60402 18.3877C7.21314 19.2311 7.59578 20.4069 7.59578 21.7164C7.59578 23.5588 8.13402 25.2482 9.0198 26.482C9.90546 27.7157 11.1501 28.5065 12.5554 28.5065H18.3312L17.6497 29.4502C17.3509 29.8639 17.351 30.4739 17.6496 30.8879L17.6497 30.888C17.8183 31.1215 18.0502 31.2 18.2671 31.2C18.4841 31.2 18.7159 31.1215 18.8846 30.888L21.2851 27.5642L21.3704 27.4461L21.2842 27.3287L18.8432 24.0062C18.8431 24.006 18.8429 24.0057 18.8428 24.0055C18.6912 23.7961 18.4814 23.6655 18.2466 23.6655C18.0115 23.6655 17.8014 23.7963 17.6497 24.0061L17.6496 24.0062C17.3508 24.4199 17.3509 25.0299 17.6496 25.444L17.6496 25.444L18.3312 26.3877H12.514C11.6216 26.3877 10.7968 25.8886 10.1876 25.045C9.57843 24.2017 9.1958 23.0259 9.1958 21.7164C9.1958 19.8941 8.66422 18.261 7.81998 17.0451H18.331L17.6494 17.9887C17.3506 18.4024 17.3507 19.0124 17.6494 19.4265L17.6494 19.4266C17.818 19.66 18.0499 19.7385 18.2669 19.7385C18.4838 19.7385 18.7157 19.66 18.8843 19.4266L21.2848 16.1027L21.3687 15.9867L21.2858 15.8699L18.9268 12.5461L18.9258 12.5447C18.7743 12.3349 18.5642 12.204 18.3291 12.204C18.0941 12.204 17.884 12.3348 17.7323 12.5446L17.7322 12.5447C17.4334 12.9585 17.4335 13.5685 17.7322 13.9825L17.7322 13.9826L18.4138 14.9262H12.497C13.341 13.7104 13.8728 12.0776 13.8728 10.2549C13.8728 8.94546 14.2555 7.7697 14.8646 6.92631C15.4738 6.08272 16.2986 5.58359 17.1911 5.58359H18.4141L17.7325 6.52725L17.7283 6.53305L17.7246 6.53913C17.4397 6.99964 17.4338 7.59571 17.6817 8.00847Z" fill="#4ACCF4" stroke="#4ACCF4" stroke-width="0.4"/>
</svg>
