<svg width="50" height="48" viewBox="0 0 50 48" fill="none" xmlns="http://www.w3.org/2000/svg">
<path d="M21.5899 4.10369L19.9677 7.12941L19.8344 6.77918C19.7583 6.57796 19.5906 6.41723 19.3833 6.33365C19.1744 6.24942 18.9331 6.25723 18.7256 6.3487L21.5899 4.10369ZM21.5899 4.10369L18.2871 2.63634L18.4167 2.97687L18.4168 2.97726C18.5437 3.31902 18.3903 3.68946 18.0566 3.86547L18.0542 3.86675L18.0541 3.86668C18.0542 3.86664 18.0539 3.86683 18.0531 3.86727C18.0496 3.86912 18.0382 3.87533 18.0177 3.88694C17.9937 3.90062 17.9591 3.92074 17.9152 3.94721C17.8276 4.00017 17.703 4.07848 17.5524 4.18141C17.251 4.38731 16.8454 4.69147 16.4208 5.08788C15.571 5.8813 14.649 7.04082 14.3308 8.51839C14.1436 9.39149 14.1836 10.2961 14.446 11.2329C14.7398 9.49998 15.8272 7.62358 18.7256 6.34871L21.5899 4.10369ZM15.1598 15.6851L15.1598 15.6852C15.3193 15.8777 15.561 15.9764 15.8014 15.9764C15.9421 15.9764 16.0828 15.9458 16.2226 15.8772L16.2226 15.8773L16.2246 15.8762C16.575 15.6848 16.7204 15.2759 16.5512 14.9265L16.5511 14.9263C16.4351 14.6884 15.9262 13.5541 15.967 12.1896C16.0074 10.8401 16.585 9.26189 18.6256 8.09866C18.8166 8.58681 19.3018 8.91617 19.8557 8.94577L19.8563 8.94579C20.4134 8.96829 20.9418 8.69433 21.187 8.22943C21.187 8.22936 21.187 8.2293 21.1871 8.22923L23.1447 4.57812L23.1449 4.57774C23.4805 3.9389 23.1918 3.16865 22.5029 2.84883L22.5029 2.84883L22.5021 2.84846L18.5087 1.08066C18.5086 1.08061 18.5085 1.08056 18.5084 1.08051C18.0054 0.849651 17.398 0.931712 16.9761 1.27403L16.9761 1.27405C16.5535 1.61734 16.3886 2.1572 16.577 2.65336L16.5771 2.65374L16.68 2.91809C15.6131 3.62554 13.3538 5.4166 12.7452 8.21008C12.2241 10.6021 13.0393 13.1191 15.1598 15.6851Z" fill="#4ACCF4" stroke="#4ACCF4" stroke-width="0.1"/>
<path d="M16.3665 14.6956C16.0499 14.4049 15.5426 14.4049 15.226 14.6956C14.9653 14.9348 14.9231 15.2907 15.0828 15.5761C15.2175 15.8228 15.4929 15.9902 15.808 15.9902C16.254 15.9902 16.618 15.6627 16.61 15.2421M16.3665 14.6956L16.3327 14.7324L16.3665 14.6956ZM16.3665 14.6956C16.5173 14.834 16.6098 15.0412 16.61 15.2421M16.61 15.2421C16.61 15.2423 16.61 15.2424 16.61 15.2426H16.56L16.6099 15.2416C16.6099 15.2418 16.6099 15.242 16.61 15.2421Z" fill="#4ACCF4" stroke="#4ACCF4" stroke-width="0.1"/>
<path d="M47.2115 17.0037C46.9176 18.7366 45.8303 20.6128 42.9317 21.8808C42.7243 21.9723 42.4831 21.9801 42.2742 21.8958C42.067 21.8123 41.8993 21.6516 41.8231 21.4505C41.8231 21.4504 41.8231 21.4504 41.8231 21.4503L41.69 21.1062L40.0599 24.1328L43.3641 25.5941L43.2406 25.2593L47.2115 17.0037ZM47.2115 17.0037C47.4738 17.9404 47.5139 18.8451 47.3266 19.7182C47.0085 21.1922 46.0884 22.35 45.2396 23.1434C44.3957 23.9322 43.6261 24.3572 43.6005 24.3713L47.2115 17.0037ZM43.134 27.1494L43.1341 27.1495C43.3358 27.2384 43.5385 27.283 43.7493 27.283C44.0803 27.283 44.4054 27.1792 44.6589 26.9631C45.0812 26.62 45.2456 26.0805 45.0577 25.5776C45.0577 25.5775 45.0576 25.5774 45.0576 25.5773L44.9615 25.3129C46.028 24.6058 48.2882 22.8145 48.897 20.0204C49.4181 17.6284 48.6029 15.1113 46.4824 12.5453L46.4822 12.5451C46.2316 12.2458 45.7747 12.1627 45.4253 12.3536C45.0749 12.545 44.9295 12.9539 45.0987 13.3033L45.0988 13.3035C45.2148 13.5414 45.7237 14.6757 45.6829 16.0403C45.6425 17.3902 45.0644 18.9691 43.022 20.1324C42.8297 19.6477 42.3539 19.3207 41.7945 19.2911C41.2281 19.2541 40.6999 19.5434 40.4552 20.0075C40.4552 20.0075 40.4551 20.0076 40.4551 20.0076L38.4979 23.6509C38.4978 23.651 38.4977 23.6512 38.4977 23.6513C38.326 23.9586 38.3015 24.3117 38.4241 24.6344C38.5468 24.9648 38.8079 25.2256 39.1472 25.3811L39.1477 25.3813L43.134 27.1494Z" fill="#4ACCF4" stroke="#4ACCF4" stroke-width="0.1"/>
<path d="M45.116 13.3262C44.9653 13.0487 45.0074 12.701 45.2509 12.4693C45.5599 12.1705 46.0668 12.1637 46.3913 12.4462M45.116 13.3262L46.3585 12.4839M45.116 13.3262C45.243 13.5818 45.5277 13.7485 45.8418 13.7485C46.2886 13.7485 46.6515 13.4134 46.6511 13.0015M45.116 13.3262L46.6011 13.0015M46.3913 12.4462L46.3585 12.4839M46.3913 12.4462C46.3913 12.4462 46.3913 12.4462 46.3912 12.4462L46.3585 12.4839M46.3913 12.4462C46.5506 12.5846 46.6511 12.7993 46.6511 13.0015M46.3585 12.4839C46.5074 12.6133 46.6011 12.8145 46.6011 13.0015M46.6511 13.0015L46.6011 13.0015M46.6511 13.0015C46.6511 13.0015 46.6511 13.0015 46.6511 13.0015H46.6011" fill="#4ACCF4" stroke="#4ACCF4" stroke-width="0.1"/>
<path d="M0.95 24.0281C0.95 27.9986 4.46906 31.2301 8.79212 31.2301C13.1152 31.2301 16.6342 27.9986 16.6342 24.0281C16.6342 20.0576 13.1071 16.8261 8.79212 16.8261C4.47715 16.8261 0.95 20.0576 0.95 24.0281ZM2.56937 24.0205C2.56937 20.8823 5.35412 18.3131 8.79212 18.3131C12.2301 18.3131 15.0149 20.8823 15.0149 24.0205C15.0149 27.1588 12.2301 29.728 8.79212 29.728C5.36214 29.728 2.56937 27.1588 2.56937 24.0205Z" fill="#4ACCF4" stroke="#4ACCF4" stroke-width="0.1"/>
<path d="M7.02618 26.5517L7.02619 26.5517L5.05261 24.7402C4.73351 24.4473 4.7335 23.9746 5.05261 23.6817L7.02618 26.5517ZM7.02618 26.5517L7.02722 26.5526C7.1852 26.6898 7.38491 26.766 7.60051 26.766C7.81491 26.766 8.02398 26.6906 8.16778 26.5433L12.5208 22.5479C12.8399 22.255 12.8399 21.7823 12.5208 21.4894C12.2042 21.1988 11.6969 21.1988 11.3802 21.4894L7.59244 24.9661L6.19317 23.6817L6.19317 23.6817L6.15936 23.7186L7.02618 26.5517Z" fill="#4ACCF4" stroke="#4ACCF4" stroke-width="0.1"/>
<path d="M30.8292 17.8155C29.7523 17.8155 28.7453 17.4303 27.9838 16.7312C27.2224 16.0324 26.8006 15.1063 26.8006 14.1138C26.8006 13.1287 27.222 12.1955 27.9838 11.4963M30.8292 17.8155L27.9838 11.4963M30.8292 17.8155C31.8984 17.8155 32.9049 17.4302 33.6666 16.7238C35.2387 15.2878 35.2385 12.9392 33.6665 11.4964C32.1045 10.0555 29.5533 10.0557 27.9838 11.4963M30.8292 17.8155L27.9838 11.4963M32.5253 12.5693L32.5253 12.5693L32.5259 12.5699C33.4599 13.4271 33.4599 14.8233 32.5259 15.6805C31.6211 16.511 30.0294 16.511 29.1245 15.6806C28.6716 15.258 28.42 14.7103 28.42 14.1215C28.42 13.5323 28.6719 12.9778 29.1243 12.5625C29.5923 12.133 30.2141 11.9143 30.8292 11.9143C31.4444 11.9143 32.0581 12.126 32.5253 12.5693Z" fill="#4ACCF4" stroke="#4ACCF4" stroke-width="0.1"/>
<mask id="path-8-outside-1_210_356" maskUnits="userSpaceOnUse" x="20.6426" y="4.65924" width="20" height="18" fill="black">
<rect fill="white" x="20.6426" y="4.65924" width="20" height="18"/>
<path d="M32.1914 22.5445H29.4661C29.0431 22.5445 28.7064 22.2355 28.7064 21.8472V20.8624C28.1505 20.7187 27.6258 20.5175 27.1244 20.2585L26.3727 20.9558C26.091 21.2218 25.5819 21.2144 25.2998 20.9558L23.3735 19.1877C23.076 18.9146 23.076 18.476 23.3735 18.2029L24.1332 17.5056C23.8591 17.0455 23.6399 16.5567 23.4752 16.0536H22.4023C22.1988 16.0536 22.0107 15.9817 21.8618 15.8524C21.7209 15.7231 21.6426 15.5434 21.6426 15.3563V12.8549C21.6426 12.4666 21.9793 12.1576 22.4023 12.1576H23.4752C23.6318 11.6545 23.8511 11.1658 24.1252 10.7056L23.3654 10.0083C23.2245 9.87894 23.1462 9.69924 23.1462 9.51215C23.1462 9.3254 23.2245 9.15275 23.3654 9.01605L25.2918 7.24796C25.5893 6.97488 26.0672 6.97488 26.3647 7.24796L27.1244 7.94527C27.6258 7.69369 28.1502 7.49249 28.7064 7.34134V6.35654C28.7064 6.16979 28.7847 5.99714 28.9256 5.86044C29.0665 5.73112 29.2623 5.65924 29.4661 5.65924H32.1914C32.6144 5.65924 32.9511 5.96826 32.9511 6.35654V7.34134C33.5069 7.4851 34.0317 7.6863 34.5331 7.93788L35.2847 7.24058C35.5665 6.98194 36.0756 6.98194 36.3577 7.24058L38.284 9.00866C38.5815 9.28174 38.5815 9.72041 38.284 9.99346L37.5323 10.6834C37.8141 11.1435 38.0337 11.6323 38.1903 12.1354H39.2633C39.4667 12.1354 39.6548 12.2073 39.8038 12.3366C39.9446 12.466 40.023 12.6457 40.023 12.8327V15.3341C40.023 15.7224 39.6863 16.0314 39.2633 16.0314H38.1984C38.0417 16.5416 37.8225 17.0233 37.5404 17.4834L38.2921 18.1734C38.433 18.3027 38.5113 18.4824 38.5113 18.6695C38.5113 18.8562 38.433 19.0289 38.2921 19.1656L36.3657 20.9337C36.0682 21.2067 35.5903 21.2067 35.2928 20.9337L34.5411 20.2437C34.0398 20.5024 33.5073 20.7039 32.9591 20.8477V21.8251C32.9591 22.0118 32.8808 22.1845 32.7399 22.3212C32.5829 22.4726 32.3871 22.5445 32.1914 22.5445ZM30.2258 21.1502H31.432V20.3166C31.432 19.9861 31.6904 19.6985 32.0428 19.6337C32.8336 19.49 33.5699 19.2095 34.2279 18.8001C34.5334 18.6133 34.9327 18.6563 35.1834 18.8864L35.8256 19.4759L36.6794 18.6923L36.0371 18.1028C35.7788 17.8656 35.7396 17.4989 35.9431 17.2258C36.3895 16.6148 36.6871 15.939 36.8436 15.2202C36.9143 14.8967 37.2275 14.6596 37.5876 14.6596H38.4959V13.5525H37.5876C37.2275 13.5525 36.9143 13.3153 36.8436 12.9919C36.687 12.2731 36.3815 11.5972 35.9354 10.9863C35.7319 10.7058 35.7711 10.3394 36.0294 10.1093L36.6717 9.51978L35.8179 8.73616L35.1757 9.32564C34.9173 9.56278 34.5177 9.59872 34.2202 9.41196C33.5545 9.00957 32.8182 8.7291 32.0351 8.58538C31.6827 8.52056 31.4243 8.23304 31.4243 7.90252V7.06888H30.2181V7.90252C30.2181 8.23304 29.9598 8.52056 29.6074 8.58538C28.8165 8.72914 28.0879 9.00961 27.4223 9.41903C27.1248 9.60579 26.7175 9.56985 26.4668 9.33271L25.8245 8.74322L24.9708 9.52685L25.613 10.1163C25.8714 10.3535 25.9105 10.7203 25.7071 10.9934C25.2687 11.6043 24.9631 12.2801 24.8065 12.9989C24.7359 13.3224 24.4226 13.5595 24.0625 13.5595H23.1543V14.6666H24.0625C24.4226 14.6666 24.7359 14.9038 24.8065 15.2272C24.9631 15.946 25.2687 16.6219 25.7071 17.2328C25.9105 17.5059 25.8714 17.8797 25.613 18.1098L24.9708 18.6993L25.8245 19.4829L26.4668 18.8935C26.7251 18.6563 27.1247 18.6204 27.4223 18.8071C28.0879 19.2095 28.8242 19.49 29.6074 19.6337C29.9598 19.6985 30.2181 19.9861 30.2181 20.3166L30.2258 21.1502Z"/>
</mask>
<path d="M32.1914 22.5445H29.4661C29.0431 22.5445 28.7064 22.2355 28.7064 21.8472V20.8624C28.1505 20.7187 27.6258 20.5175 27.1244 20.2585L26.3727 20.9558C26.091 21.2218 25.5819 21.2144 25.2998 20.9558L23.3735 19.1877C23.076 18.9146 23.076 18.476 23.3735 18.2029L24.1332 17.5056C23.8591 17.0455 23.6399 16.5567 23.4752 16.0536H22.4023C22.1988 16.0536 22.0107 15.9817 21.8618 15.8524C21.7209 15.7231 21.6426 15.5434 21.6426 15.3563V12.8549C21.6426 12.4666 21.9793 12.1576 22.4023 12.1576H23.4752C23.6318 11.6545 23.8511 11.1658 24.1252 10.7056L23.3654 10.0083C23.2245 9.87894 23.1462 9.69924 23.1462 9.51215C23.1462 9.3254 23.2245 9.15275 23.3654 9.01605L25.2918 7.24796C25.5893 6.97488 26.0672 6.97488 26.3647 7.24796L27.1244 7.94527C27.6258 7.69369 28.1502 7.49249 28.7064 7.34134V6.35654C28.7064 6.16979 28.7847 5.99714 28.9256 5.86044C29.0665 5.73112 29.2623 5.65924 29.4661 5.65924H32.1914C32.6144 5.65924 32.9511 5.96826 32.9511 6.35654V7.34134C33.5069 7.4851 34.0317 7.6863 34.5331 7.93788L35.2847 7.24058C35.5665 6.98194 36.0756 6.98194 36.3577 7.24058L38.284 9.00866C38.5815 9.28174 38.5815 9.72041 38.284 9.99346L37.5323 10.6834C37.8141 11.1435 38.0337 11.6323 38.1903 12.1354H39.2633C39.4667 12.1354 39.6548 12.2073 39.8038 12.3366C39.9446 12.466 40.023 12.6457 40.023 12.8327V15.3341C40.023 15.7224 39.6863 16.0314 39.2633 16.0314H38.1984C38.0417 16.5416 37.8225 17.0233 37.5404 17.4834L38.2921 18.1734C38.433 18.3027 38.5113 18.4824 38.5113 18.6695C38.5113 18.8562 38.433 19.0289 38.2921 19.1656L36.3657 20.9337C36.0682 21.2067 35.5903 21.2067 35.2928 20.9337L34.5411 20.2437C34.0398 20.5024 33.5073 20.7039 32.9591 20.8477V21.8251C32.9591 22.0118 32.8808 22.1845 32.7399 22.3212C32.5829 22.4726 32.3871 22.5445 32.1914 22.5445ZM30.2258 21.1502H31.432V20.3166C31.432 19.9861 31.6904 19.6985 32.0428 19.6337C32.8336 19.49 33.5699 19.2095 34.2279 18.8001C34.5334 18.6133 34.9327 18.6563 35.1834 18.8864L35.8256 19.4759L36.6794 18.6923L36.0371 18.1028C35.7788 17.8656 35.7396 17.4989 35.9431 17.2258C36.3895 16.6148 36.6871 15.939 36.8436 15.2202C36.9143 14.8967 37.2275 14.6596 37.5876 14.6596H38.4959V13.5525H37.5876C37.2275 13.5525 36.9143 13.3153 36.8436 12.9919C36.687 12.2731 36.3815 11.5972 35.9354 10.9863C35.7319 10.7058 35.7711 10.3394 36.0294 10.1093L36.6717 9.51978L35.8179 8.73616L35.1757 9.32564C34.9173 9.56278 34.5177 9.59872 34.2202 9.41196C33.5545 9.00957 32.8182 8.7291 32.0351 8.58538C31.6827 8.52056 31.4243 8.23304 31.4243 7.90252V7.06888H30.2181V7.90252C30.2181 8.23304 29.9598 8.52056 29.6074 8.58538C28.8165 8.72914 28.0879 9.00961 27.4223 9.41903C27.1248 9.60579 26.7175 9.56985 26.4668 9.33271L25.8245 8.74322L24.9708 9.52685L25.613 10.1163C25.8714 10.3535 25.9105 10.7203 25.7071 10.9934C25.2687 11.6043 24.9631 12.2801 24.8065 12.9989C24.7359 13.3224 24.4226 13.5595 24.0625 13.5595H23.1543V14.6666H24.0625C24.4226 14.6666 24.7359 14.9038 24.8065 15.2272C24.9631 15.946 25.2687 16.6219 25.7071 17.2328C25.9105 17.5059 25.8714 17.8797 25.613 18.1098L24.9708 18.6993L25.8245 19.4829L26.4668 18.8935C26.7251 18.6563 27.1247 18.6204 27.4223 18.8071C28.0879 19.2095 28.8242 19.49 29.6074 19.6337C29.9598 19.6985 30.2181 19.9861 30.2181 20.3166L30.2258 21.1502Z" fill="#4ACCF4"/>
<path d="M32.1914 22.5445H29.4661C29.0431 22.5445 28.7064 22.2355 28.7064 21.8472V20.8624C28.1505 20.7187 27.6258 20.5175 27.1244 20.2585L26.3727 20.9558C26.091 21.2218 25.5819 21.2144 25.2998 20.9558L23.3735 19.1877C23.076 18.9146 23.076 18.476 23.3735 18.2029L24.1332 17.5056C23.8591 17.0455 23.6399 16.5567 23.4752 16.0536H22.4023C22.1988 16.0536 22.0107 15.9817 21.8618 15.8524C21.7209 15.7231 21.6426 15.5434 21.6426 15.3563V12.8549C21.6426 12.4666 21.9793 12.1576 22.4023 12.1576H23.4752C23.6318 11.6545 23.8511 11.1658 24.1252 10.7056L23.3654 10.0083C23.2245 9.87894 23.1462 9.69924 23.1462 9.51215C23.1462 9.3254 23.2245 9.15275 23.3654 9.01605L25.2918 7.24796C25.5893 6.97488 26.0672 6.97488 26.3647 7.24796L27.1244 7.94527C27.6258 7.69369 28.1502 7.49249 28.7064 7.34134V6.35654C28.7064 6.16979 28.7847 5.99714 28.9256 5.86044C29.0665 5.73112 29.2623 5.65924 29.4661 5.65924H32.1914C32.6144 5.65924 32.9511 5.96826 32.9511 6.35654V7.34134C33.5069 7.4851 34.0317 7.6863 34.5331 7.93788L35.2847 7.24058C35.5665 6.98194 36.0756 6.98194 36.3577 7.24058L38.284 9.00866C38.5815 9.28174 38.5815 9.72041 38.284 9.99346L37.5323 10.6834C37.8141 11.1435 38.0337 11.6323 38.1903 12.1354H39.2633C39.4667 12.1354 39.6548 12.2073 39.8038 12.3366C39.9446 12.466 40.023 12.6457 40.023 12.8327V15.3341C40.023 15.7224 39.6863 16.0314 39.2633 16.0314H38.1984C38.0417 16.5416 37.8225 17.0233 37.5404 17.4834L38.2921 18.1734C38.433 18.3027 38.5113 18.4824 38.5113 18.6695C38.5113 18.8562 38.433 19.0289 38.2921 19.1656L36.3657 20.9337C36.0682 21.2067 35.5903 21.2067 35.2928 20.9337L34.5411 20.2437C34.0398 20.5024 33.5073 20.7039 32.9591 20.8477V21.8251C32.9591 22.0118 32.8808 22.1845 32.7399 22.3212C32.5829 22.4726 32.3871 22.5445 32.1914 22.5445ZM30.2258 21.1502H31.432V20.3166C31.432 19.9861 31.6904 19.6985 32.0428 19.6337C32.8336 19.49 33.5699 19.2095 34.2279 18.8001C34.5334 18.6133 34.9327 18.6563 35.1834 18.8864L35.8256 19.4759L36.6794 18.6923L36.0371 18.1028C35.7788 17.8656 35.7396 17.4989 35.9431 17.2258C36.3895 16.6148 36.6871 15.939 36.8436 15.2202C36.9143 14.8967 37.2275 14.6596 37.5876 14.6596H38.4959V13.5525H37.5876C37.2275 13.5525 36.9143 13.3153 36.8436 12.9919C36.687 12.2731 36.3815 11.5972 35.9354 10.9863C35.7319 10.7058 35.7711 10.3394 36.0294 10.1093L36.6717 9.51978L35.8179 8.73616L35.1757 9.32564C34.9173 9.56278 34.5177 9.59872 34.2202 9.41196C33.5545 9.00957 32.8182 8.7291 32.0351 8.58538C31.6827 8.52056 31.4243 8.23304 31.4243 7.90252V7.06888H30.2181V7.90252C30.2181 8.23304 29.9598 8.52056 29.6074 8.58538C28.8165 8.72914 28.0879 9.00961 27.4223 9.41903C27.1248 9.60579 26.7175 9.56985 26.4668 9.33271L25.8245 8.74322L24.9708 9.52685L25.613 10.1163C25.8714 10.3535 25.9105 10.7203 25.7071 10.9934C25.2687 11.6043 24.9631 12.2801 24.8065 12.9989C24.7359 13.3224 24.4226 13.5595 24.0625 13.5595H23.1543V14.6666H24.0625C24.4226 14.6666 24.7359 14.9038 24.8065 15.2272C24.9631 15.946 25.2687 16.6219 25.7071 17.2328C25.9105 17.5059 25.8714 17.8797 25.613 18.1098L24.9708 18.6993L25.8245 19.4829L26.4668 18.8935C26.7251 18.6563 27.1247 18.6204 27.4223 18.8071C28.0879 19.2095 28.8242 19.49 29.6074 19.6337C29.9598 19.6985 30.2181 19.9861 30.2181 20.3166L30.2258 21.1502Z" stroke="#4ACCF4" stroke-width="0.2" mask="url(#path-8-outside-1_210_356)"/>
<path d="M31.0691 34.8513C31.0691 36.9604 32.9361 38.668 35.2229 38.668C37.5099 38.668 39.3767 36.9604 39.3767 34.8513C39.3767 32.7422 37.5099 31.0346 35.2229 31.0346C32.936 31.0346 31.0691 32.7422 31.0691 34.8513ZM32.6886 34.8513C32.6886 33.5746 33.821 32.5293 35.2229 32.5293C36.6248 32.5293 37.7573 33.5746 37.7573 34.8513C37.7573 36.128 36.6248 37.1733 35.2229 37.1733C33.821 37.1733 32.6886 36.128 32.6886 34.8513Z" fill="#4ACCF4" stroke="#4ACCF4" stroke-width="0.1"/>
<path d="M28.3544 47.05H42.0908C42.0909 47.05 42.0909 47.05 42.091 47.05C42.529 47.0499 42.9005 46.7228 42.9005 46.3027C42.9005 42.4041 39.4517 39.2444 35.2226 39.2444C30.9935 39.2444 27.5447 42.4041 27.5447 46.3027C27.5447 46.7225 27.9079 47.05 28.3544 47.05ZM41.227 45.5554H29.2193C29.619 42.8428 32.1577 40.7389 35.223 40.7386C38.2887 40.7386 40.8277 42.8428 41.227 45.5554Z" fill="#4ACCF4" stroke="#4ACCF4" stroke-width="0.1"/>
<path d="M13.9803 34.8513C13.9803 36.9604 15.8472 38.668 18.1341 38.668C20.421 38.668 22.2879 36.9604 22.2879 34.8513C22.2879 32.7422 20.4209 31.0346 18.1341 31.0346C15.8471 31.0346 13.9803 32.7422 13.9803 34.8513ZM15.5997 34.8513C15.5997 33.5746 16.7322 32.5293 18.1341 32.5293C19.536 32.5293 20.6684 33.5746 20.6684 34.8513C20.6684 36.128 19.536 37.1733 18.1341 37.1733C16.7322 37.1733 15.5997 36.128 15.5997 34.8513Z" fill="#4ACCF4" stroke="#4ACCF4" stroke-width="0.1"/>
<path d="M11.2656 47.05H25.0019C25.002 47.05 25.0021 47.05 25.0022 47.05C25.4402 47.0499 25.8116 46.7228 25.8116 46.3027C25.8116 42.4041 22.3628 39.2444 18.1337 39.2444C13.9047 39.2444 10.4559 42.4041 10.4559 46.3027C10.4559 46.7225 10.819 47.05 11.2656 47.05ZM24.1301 45.5554H12.1224C12.5218 42.8428 15.0608 40.7389 18.1261 40.7386C21.1918 40.7386 23.7307 42.8428 24.1301 45.5554Z" fill="#4ACCF4" stroke="#4ACCF4" stroke-width="0.1"/>
</svg>
