<svg width="40" height="47" viewBox="0 0 40 47" fill="none" xmlns="http://www.w3.org/2000/svg">
<path d="M11.8773 3.98119H12.0946L12.2429 3.82226C13.2163 2.77882 14.4102 1.9426 15.7473 1.36958C17.0843 0.796541 18.5336 0.5 20 0.5C21.4664 0.5 22.9157 0.796541 24.2527 1.36958C25.5898 1.9426 26.7837 2.77882 27.7571 3.82226L27.9054 3.98119H28.1227H36.3636C37.2023 3.98119 38.0025 4.30036 38.5892 4.86206C39.1751 5.42305 39.5 6.17915 39.5 6.96269V43.5185C39.5 44.302 39.1751 45.0581 38.5892 45.6191C38.0025 46.1808 37.2023 46.5 36.3636 46.5H3.63636C2.7977 46.5 1.99752 46.1808 1.41085 45.6191C0.824906 45.0581 0.5 44.302 0.5 43.5185V6.96269C0.5 6.17914 0.824907 5.42304 1.41085 4.86206C1.99752 4.30036 2.7977 3.98119 3.63636 3.98119H11.8773ZM12.2273 10.4442V10.9442H12.7273H27.2727H27.7727V10.4442C27.7727 8.45769 26.9483 6.55719 25.4884 5.15945C24.0292 3.76242 22.0546 2.98119 20 2.98119C17.9454 2.98119 15.9708 3.76242 14.5116 5.15945C13.0517 6.55719 12.2273 8.45769 12.2273 10.4442ZM36.8636 6.96269V6.46269H36.3636H30.2841H29.566L29.8151 7.13617C30.2083 8.19897 30.4091 9.31764 30.4091 10.4442V12.185C30.4091 12.5068 30.2757 12.8202 30.0308 13.0547C29.7851 13.2899 29.4474 13.4257 29.0909 13.4257H10.9091C10.5526 13.4257 10.2149 13.2899 9.96922 13.0547C9.72426 12.8202 9.59091 12.5068 9.59091 12.185V10.4442C9.59091 10.4442 9.59091 10.4442 9.59091 10.4442C9.59095 9.31763 9.79169 8.19896 10.1849 7.13617L10.434 6.46269H9.71591H3.63636H3.13636V6.96269V43.5185V44.0185H3.63636H36.3636H36.8636V43.5185V6.96269ZM28.5909 29.5925C28.5909 29.9144 28.4576 30.2277 28.2126 30.4622C27.9669 30.6975 27.6292 30.8332 27.2727 30.8332H12.7273C12.3708 30.8332 12.0331 30.6975 11.7874 30.4622C11.5424 30.2277 11.4091 29.9143 11.4091 29.5925C11.4091 29.2706 11.5424 28.9573 11.7874 28.7227C12.0331 28.4875 12.3708 28.3517 12.7273 28.3517H27.2727C27.6292 28.3517 27.9669 28.4875 28.2126 28.7227C28.4576 28.9573 28.5909 29.2706 28.5909 29.5925ZM11.7874 21.7597C12.0331 21.5245 12.3708 21.3887 12.7273 21.3887H27.2727C27.6292 21.3887 27.9669 21.5245 28.2126 21.7597C28.4576 21.9943 28.5909 22.3076 28.5909 22.6295C28.5909 22.9513 28.4576 23.2647 28.2126 23.4992C27.9669 23.7344 27.6292 23.8702 27.2727 23.8702H12.7273C12.3708 23.8702 12.0331 23.7344 11.7874 23.4992C11.5424 23.2647 11.4091 22.9513 11.4091 22.6295C11.4091 22.3076 11.5424 21.9943 11.7874 21.7597Z" fill="#4ACCF4" stroke="#4ACCF4"/>
</svg>
