<svg width="24" height="24" viewBox="0 0 24 24" fill="none" xmlns="http://www.w3.org/2000/svg">
<g clip-path="url(#clip0_164_7528)">
<path d="M20 17.58C21.0513 17.1196 21.9121 16.3116 22.4381 15.2916C22.9641 14.2715 23.1232 13.1016 22.8886 11.9782C22.6541 10.8548 22.0402 9.84623 21.1501 9.12185C20.2599 8.39748 19.1477 8.00137 18 8.00002H16.74C16.4231 6.77254 15.8189 5.63797 14.9773 4.68982C14.1358 3.74167 13.081 3.00709 11.8998 2.54664C10.7186 2.08618 9.44494 1.91304 8.18372 2.04146C6.92249 2.16989 5.70984 2.59622 4.64573 3.2853C3.58161 3.97439 2.6965 4.9065 2.06334 6.00482C1.43018 7.10313 1.06711 8.33619 1.00404 9.60237C0.940984 10.8685 1.17974 12.1316 1.70064 13.2874C2.22153 14.4432 3.00965 15.4586 4.00003 16.25M8.00003 16H8.01003M8.00003 20H8.01003M12 18H12.01M12 22H12.01M16 16H16.01M16 20H16.01" stroke="currentColor" stroke-width="2" stroke-linecap="round" stroke-linejoin="round"/>
</g>
<defs>
<clipPath id="clip0_164_7528">
<rect width="24" height="24" fill="white"/>
</clipPath>
</defs>
</svg>
