<svg width="24" height="20" viewBox="0 0 24 20" fill="none" xmlns="http://www.w3.org/2000/svg">
<g>
	<g>
		<g>
			<path 
			fill="currentColor" stroke="currentColor" stroke-width="1" mask="url(#path-1-inside-1_1588_6141)"
			 d="M19.4,3.4C18,2.7,16.5,2.3,15,2c-0.2,0.4-0.4,0.8-0.6,1.1c-1.6-0.2-3.3-0.2-4.9,0C9.4,2.8,9.2,2.4,9,2
				C7.5,2.3,6,2.7,4.6,3.4C1.8,7.5,1,11.5,1.4,15.5c1.6,1.2,3.5,2.1,5.4,2.7C7.3,17.6,7.6,17,8,16.3c-0.6-0.2-1.2-0.5-1.8-0.9
				c0.2-0.1,0.3-0.2,0.4-0.3c3.4,1.6,7.4,1.6,10.8,0c0.1,0.1,0.3,0.2,0.4,0.3c-0.6,0.3-1.2,0.6-1.8,0.9c0.3,0.7,0.7,1.3,1.2,1.9
				c1.9-0.6,3.8-1.5,5.4-2.7C23,10.9,21.8,6.9,19.4,3.4z M8.5,13c-1.1,0-1.9-1-1.9-2.1s0.8-2.1,1.9-2.1s1.9,1,1.9,2.1S9.5,13,8.5,13
				z M15.5,13c-1.1,0-1.9-1-1.9-2.1s0.8-2.1,1.9-2.1s1.9,1,1.9,2.1C17.5,12.1,16.6,13,15.5,13z"/>
		</g>
	</g>
</g>
</svg>
