<svg width="24" height="24" viewBox="0 0 24 24" fill="none" xmlns="http://www.w3.org/2000/svg">
<path d="M16.2399 7.76005C16.7978 8.31729 17.2404 8.97902 17.5423 9.70741C17.8442 10.4358 17.9997 11.2166 17.9997 12.0051C17.9997 12.7935 17.8442 13.5743 17.5423 14.3027C17.2404 15.0311 16.7978 15.6928 16.2399 16.2501M7.75994 16.2401C7.20208 15.6828 6.75953 15.0211 6.45758 14.2927C6.15564 13.5643 6.00022 12.7835 6.00022 11.9951C6.00022 11.2066 6.15564 10.4258 6.45758 9.69741C6.75953 8.96902 7.20208 8.30729 7.75994 7.75005M19.0699 4.93005C20.9446 6.80533 21.9978 9.34841 21.9978 12.0001C21.9978 14.6517 20.9446 17.1948 19.0699 19.0701M4.92994 19.0701C3.05523 17.1948 2.00208 14.6517 2.00208 12.0001C2.00208 9.34841 3.05523 6.80533 4.92994 4.93005M13.9999 12.0001C13.9999 13.1046 13.1045 14.0001 11.9999 14.0001C10.8954 14.0001 9.99994 13.1046 9.99994 12.0001C9.99994 10.8955 10.8954 10.0001 11.9999 10.0001C13.1045 10.0001 13.9999 10.8955 13.9999 12.0001Z" stroke="currentColor" stroke-width="2" stroke-linecap="round" stroke-linejoin="round"/>
</svg>
