<svg width="40" height="40" viewBox="0 0 40 40" fill="none" xmlns="http://www.w3.org/2000/svg">
<path fill-rule="evenodd" clip-rule="evenodd" d="M6.27709 1.7562C9.74076 0.648801 14.2969 0 18.823 0C24.3161 0 30.1136 0.380081 35.3431 1.9387C36.5743 2.30551 37.6303 2.72777 38.3643 3.20751C38.8795 3.54423 38.9755 4.17196 38.5794 4.60981C38.1833 5.0477 37.4447 5.12934 36.9296 4.79262C36.4871 4.50317 35.7049 4.16567 34.5647 3.82582C29.5871 2.34222 24.0494 2.00001 18.8234 2.00001C14.5266 2.00001 10.259 2.62033 7.10511 3.62812C5.51875 4.13515 2.35273 5.18552 2.35273 7.00003C2.35273 8.13713 3.44741 9.00593 4.73145 9.65233C5.05636 7.52183 8.36982 6.93632 10.4282 6.61792C12.9466 6.22886 16.3294 5.99995 19.9999 5.99995C23.6699 5.99995 27.0527 6.22886 29.5716 6.61792C31.738 6.95269 35.2941 7.58355 35.2941 9.99993C35.2941 11.2265 34.3603 11.996 33.1585 12.4999C34.3603 13.0038 35.2941 13.7733 35.2941 14.9999C35.2941 16.2347 34.3658 17.003 33.1687 17.5038C34.3659 18.0078 35.2941 18.7766 35.2941 20C35.2941 21.2348 34.3658 22.0031 33.1687 22.5039C34.3659 23.0078 35.2941 23.7766 35.2941 25C35.2941 26.1613 34.4724 26.9105 33.3782 27.4121C36.1733 28.3172 40 30.0633 40 33C40 35.8125 36.375 37.3961 33.7229 38.2438C30.2592 39.3512 25.7031 40 21.177 40C15.6839 40 9.88642 39.6199 4.65686 38.0613C3.42521 37.6941 2.36967 37.2722 1.63567 36.7925C1.1205 36.4558 1.02445 35.828 1.4206 35.3902C1.81674 34.9523 2.55525 34.8707 3.07037 35.2074C3.51292 35.4968 4.29555 35.8343 5.43532 36.1742C10.4132 37.6578 15.9506 38 21.1766 38C25.4734 38 29.741 37.3797 32.8949 36.3719C34.4812 35.8648 37.6473 34.8145 37.6473 33C37.6473 31.8633 36.5526 30.9941 35.2686 30.3477C34.9436 32.4782 31.6302 33.0637 29.5718 33.3821C27.0534 33.7715 23.6706 34 20.0001 34C16.3301 34 12.9472 33.7711 10.4284 33.3821C8.26205 33.0473 4.70591 32.4165 4.70591 30.0001C4.70591 28.7771 5.63468 28.0083 6.83133 27.504C5.63415 27.0028 4.70591 26.2345 4.70591 25.0001C4.70591 23.7771 5.63468 23.0083 6.83133 22.5039C5.63415 22.0028 4.70591 21.2344 4.70591 20C4.70591 18.777 5.63468 18.0082 6.83133 17.5039C5.63415 17.0028 4.70591 16.2344 4.70591 15C4.70591 13.8453 5.53358 13.0957 6.63333 12.5914C3.83731 11.6875 0 9.94022 0 7.00002C0 4.18751 3.62496 2.60391 6.27709 1.7562ZM32.9408 10C32.9408 8.89532 27.1466 8.00002 19.9995 8.00002C12.8524 8.00002 7.05827 8.89533 7.05827 10C7.05827 10.5906 8.71546 11.1215 11.3497 11.4875C13.7449 11.1781 16.7601 11 19.9995 11C23.2385 11 26.2541 11.1781 28.649 11.4875C31.2837 11.1215 32.9408 10.5906 32.9408 10ZM11.3501 13.5121C13.7453 13.8215 16.7604 14 19.9999 14C23.2388 14 26.2545 13.8219 28.6497 13.5121C31.2844 13.8782 32.9411 14.409 32.9411 15C32.9411 15.5907 31.2839 16.1215 28.6497 16.4875C26.2545 16.1782 23.2393 16 19.9999 16C16.7609 16 13.7453 16.1782 11.3504 16.4875C8.7157 16.1215 7.05863 15.5907 7.05863 15C7.05863 14.4094 8.71581 13.8785 11.3501 13.5121ZM19.9999 19C16.7609 19 13.7453 18.8219 11.3504 18.5121C8.7157 18.8782 7.05863 19.409 7.05863 20.0001C7.05863 20.5907 8.71581 21.1216 11.3504 21.4876C13.7451 21.1782 16.7608 21.0001 19.9999 21.0001C23.239 21.0001 26.2545 21.1782 28.6497 21.4876C31.2844 21.1215 32.9411 20.5907 32.9411 20.0001C32.9411 19.4094 31.2839 18.8786 28.6497 18.5121C26.2545 18.8215 23.2393 19 19.9999 19ZM11.3504 23.5122C13.7451 23.8215 16.7608 24 19.9999 24C23.2393 24 26.2545 23.8219 28.6497 23.5122C31.2844 23.8782 32.9411 24.409 32.9411 25.0001C32.9411 25.5907 31.2839 26.1216 28.6497 26.4876C26.2545 26.1782 23.2393 26.0001 19.9999 26.0001C16.7609 26.0001 13.7453 26.1782 11.3501 26.4876C8.71534 26.1215 7.05863 25.5907 7.05863 25.0001C7.05863 24.4094 8.71581 23.8786 11.3504 23.5122ZM19.9999 29.0001C16.7609 29.0001 13.7453 28.8219 11.3504 28.5122C8.7157 28.8782 7.05863 29.4091 7.05863 30.0001C7.05863 31.1048 12.8528 32.0001 19.9999 32.0001C27.147 32.0001 32.9411 31.1048 32.9411 30.0001C32.9411 29.4095 31.2839 28.8786 28.6497 28.5122C26.2545 28.8216 23.2393 29.0001 19.9999 29.0001Z" fill="#4ACCF4"/>
</svg>
