<svg width="330" height="336" viewBox="0 0 330 336" fill="none" xmlns="http://www.w3.org/2000/svg">
    <path d="M101.97 99.7636C107.163 98.2642 115.422 96.9914 115.422 96.9914C115.422 96.9914 117.614 103.01 117.983 107.151C118.481 112.727 117.48 116.027 116.274 121.603C114.838 128.243 113.579 131.958 110.697 138.11C107.352 145.253 104.669 148.882 99.8723 155.02C95.5409 160.562 92.3276 162.866 87.6936 168.11C83.0749 173.338 79.9408 175.844 76.186 181.823C72.644 187.463 70.6572 190.896 68.9887 197.387C67.5582 202.952 65.8446 206.737 67.5957 211.946C68.9141 215.868 71.1712 217.107 73.8659 219.997C77.0643 223.427 78.9644 225.343 82.8693 227.785C88.6519 231.401 99.3242 233.344 99.3242 233.344C99.3242 233.344 91.4752 234.84 86.4281 235.513C80.1174 236.355 70.2477 236.968 70.2477 236.968C70.2477 236.968 74.1024 247.32 71.7193 253.484C69.5465 259.103 61.0729 264.126 61.0729 264.126L60.1692 249.582L58.8559 233.12C58.8559 233.12 52.1905 227.476 48.93 222.845C45.5903 218.102 44.0596 215.02 42.2219 209.307C40.166 202.914 40.0178 198.886 39.6046 192.008C39.212 185.475 39.7517 181.732 40.015 175.14C40.197 170.586 40.6068 163.475 40.6068 163.475L28.4239 159.359C28.4239 159.359 33.2283 151.606 36.9368 147.205C41.6349 141.63 43.6775 138.21 50.3812 134.543C57.085 130.875 57.3466 129.579 63.2311 122.074C69.1157 114.57 75.6754 111.476 84.6235 106.757C91.1595 103.311 95.0291 101.767 101.97 99.7636Z"
          stroke="#4ACCF4" stroke-width="5"/>
    <path d="M132.542 285.536C128.192 282.327 122.156 276.548 122.156 276.548C122.156 276.548 125.599 271.147 128.66 268.333C132.782 264.545 136.01 263.332 141.169 260.896C147.312 257.995 151.026 256.734 157.662 255.277C165.365 253.586 169.878 253.506 177.667 253.578C184.701 253.642 188.484 254.791 195.466 255.277C202.425 255.761 206.321 256.723 213.35 256.065C219.981 255.444 223.915 254.931 230.081 252.305C235.367 250.054 239.413 249.111 242.482 244.552C244.792 241.119 244.402 238.574 245.055 234.677C245.831 230.052 246.195 227.378 245.757 222.794C245.108 216.004 240.156 206.353 240.156 206.353C240.156 206.353 246.119 211.671 249.724 215.267C254.232 219.763 260.725 227.222 260.725 227.222C260.725 227.222 266.594 217.863 272.935 216.004C278.717 214.309 287.858 217.977 287.858 217.977L276.867 227.544L264.602 238.604C264.602 238.604 264.179 247.327 262.489 252.732C260.757 258.269 259.243 261.359 255.827 266.294C252.005 271.815 248.899 274.383 243.692 278.896C238.747 283.184 235.448 285.033 230.057 288.835C226.332 291.462 220.439 295.464 220.439 295.464L224.586 307.636C224.586 307.636 215.511 308.541 209.762 308.276C202.479 307.94 198.522 308.4 191.532 305.312C184.542 302.224 183.355 302.805 173.819 302.702C164.283 302.598 157.836 299.276 148.647 295.046C141.935 291.956 138.355 289.825 132.542 285.536Z"
          stroke="#4ACCF4" stroke-width="5"/>
    <path d="M288.758 156.105C287.736 161.412 285.121 169.349 285.121 169.349C285.121 169.349 278.764 168.57 274.906 167.019C269.712 164.931 267.226 162.541 262.805 158.935C257.541 154.642 254.802 151.833 250.628 146.473C245.783 140.25 243.767 136.212 240.476 129.151C237.503 122.776 236.91 118.867 234.34 112.357C231.779 105.869 230.969 101.939 227.346 95.8789C223.929 90.1625 221.771 86.8336 216.745 82.4004C212.436 78.5995 209.842 75.3545 204.405 74.55C200.312 73.9443 198.184 75.393 194.385 76.4821C189.877 77.7747 187.307 78.5982 183.359 80.9689C177.512 84.4797 170.936 93.107 170.936 93.107C170.936 93.107 173.166 85.4342 174.857 80.6316C176.972 74.6265 180.906 65.554 180.906 65.554C180.906 65.554 169.932 64.2892 165.522 59.3678C161.502 54.8808 160.873 45.0508 160.873 45.0508L174.243 50.8478L189.507 57.1507C189.507 57.1507 197.561 53.7738 203.168 52.9708C208.91 52.1484 212.351 52.1833 218.276 53.1397C224.905 54.2097 228.561 55.9062 234.877 58.6602C240.877 61.2764 243.967 63.4566 249.721 66.6835C253.696 68.9132 259.846 72.5064 259.846 72.5064L269.044 63.5196C269.044 63.5196 273.771 71.3198 276.009 76.6219C278.844 83.339 280.963 86.7113 281.188 94.3496C281.413 101.988 282.449 102.809 286.464 111.459C290.48 120.109 290.259 127.359 290.401 137.474C290.505 144.862 290.123 149.01 288.758 156.105Z"
          stroke="#4ACCF4" stroke-width="5"/>
</svg>
