<svg width="82" height="55" viewBox="0 0 82 55" fill="none" xmlns="http://www.w3.org/2000/svg">
<path d="M15.0973 34.4701C14.8047 34.4701 14.884 34.7887 14.8474 34.9675C14.4374 37.3386 13.8242 39.645 13.0189 41.8452C12.5686 43.0793 12.0169 44.249 11.3732 45.3347C10.0128 47.6649 8.20289 49.5068 6.11922 50.6815C4.42521 51.6053 2.59024 52.0329 0.749458 51.9327C0.432514 51.9327 0.249654 51.9327 0.475172 51.3964C1.22487 49.5934 1.9319 47.7594 2.6694 45.9564C3.85185 43.0446 5.03836 40.1355 6.22893 37.229C6.77749 35.8819 7.34026 34.5478 7.91726 33.2266C8.00739 33.0496 8.05789 32.8446 8.06326 32.6336C8.06863 32.4227 8.02869 32.2139 7.94775 32.0298C6.52759 28.0897 5.12572 24.134 3.71776 20.186C3.4191 19.3545 3.10826 18.5307 2.82788 17.7069C3.04845 17.6978 3.26442 17.7887 3.43739 17.9634C4.29832 18.7595 5.07837 19.6888 5.75961 20.7301C7.46624 23.0071 8.99609 25.4862 10.7941 27.67C12.586 29.9023 14.6826 31.6985 16.9807 32.9702C18.9214 33.9151 21.0104 34.2587 23.0757 33.9727C23.5133 34.0139 23.9522 33.9206 24.3557 33.7007H24.5934L25.4284 33.5531C25.5765 33.6953 25.6892 33.8891 25.7529 34.111C25.8167 34.333 25.8289 34.5737 25.788 34.8043C25.788 35.0918 25.788 35.426 26.0623 35.4571C26.7023 35.527 26.5804 35.9544 26.3854 36.4441C24.6239 36.141 22.8258 36.2731 21.0766 35.7058C20.1747 35.4444 19.2606 35.2575 18.3399 35.1462C17.2245 34.9752 16.1822 34.54 15.0973 34.4701Z" fill="url(#paint0_linear_95_207)" style="mix-blend-mode:difference"/>
<path d="M50.7106 5.83355C52.0277 5.03492 53.386 4.35202 54.776 3.78964C56.7789 3.03195 58.8139 2.41962 60.8711 1.95557C63.7731 1.28224 66.7278 1.05265 69.6724 1.27167C70.8858 1.26382 72.0968 1.41224 73.2868 1.71466C73.2015 2.17318 72.9089 2.00998 72.7078 1.98666C72.3847 1.94781 72.0983 1.71464 71.7508 1.67578C70.6781 1.55144 69.7151 2.16541 68.7033 2.32861C68.6562 2.33854 68.6112 2.36094 68.5713 2.3944C68.5314 2.42787 68.4975 2.47166 68.4717 2.5229C68.364 2.85521 68.3567 3.22663 68.4512 3.56539C68.5458 3.90416 68.7355 4.18618 68.9837 4.35697C69.1056 4.44245 69.2275 4.52016 69.2336 4.73776C69.2397 4.95536 69.0629 5.04862 68.9227 5.10302C68.7906 5.1504 68.6563 5.18675 68.5205 5.21184C68.4438 4.91362 68.2864 4.65992 68.0765 4.49616C67.8665 4.3324 67.6177 4.26929 67.3746 4.31812C67.1392 4.35986 66.9207 4.49738 66.7516 4.71023C66.5824 4.92307 66.4717 5.19984 66.4359 5.49938C66.3756 5.97108 66.4331 6.45504 66.6005 6.88271C65.7303 7.092 64.8788 7.41225 64.0589 7.83861C63.4642 7.99543 62.9068 8.32819 62.4315 8.81005C62.1233 9.27011 61.7132 9.60062 61.2551 9.75817C60.9382 9.88252 60.5237 9.92138 60.5176 10.5353C60.5115 11.1493 60.475 11.8332 61.1271 12.0896C61.1851 12.1083 61.2394 12.1422 61.2866 12.189C61.3338 12.2358 61.3729 12.2946 61.4014 12.3616C61.7426 13.562 62.1969 14.705 62.7545 15.7655C62.7837 15.8319 62.7984 15.9071 62.7972 15.9831C62.7972 16.7137 63.1019 16.8302 63.5591 16.6904C63.8577 16.5971 64.0771 16.6437 64.1259 17.0945C63.9187 17.5064 63.5652 17.4831 63.2543 17.553C63.0127 17.6078 62.7786 17.7073 62.5595 17.8483C62.4254 17.8483 62.3644 17.9804 62.2852 18.097C61.4997 19.2786 60.635 20.3707 59.7009 21.361C59.5119 21.3144 59.3413 20.9414 59.1523 21.2056C58.9634 21.4698 59.1096 21.6253 59.3474 21.6641L58.9756 21.975C58.7744 21.975 58.6464 21.9128 58.6099 21.602C58.5818 21.3788 58.5034 21.1709 58.3843 21.0036C58.1741 20.7333 58.0111 20.4094 57.906 20.0531C57.801 19.6968 57.7562 19.3162 57.7748 18.9363C57.777 18.7743 57.7501 18.6137 57.6963 18.4669C57.6424 18.3201 57.5629 18.191 57.464 18.0892C57.1575 17.6846 56.9536 17.1718 56.8786 16.6174C56.8036 16.0631 56.861 15.4928 57.0434 14.9806C57.2628 14.4133 57.1348 14.1258 56.6716 14.0092C56.517 13.9835 56.3735 13.8933 56.2632 13.7527C56.153 13.6122 56.0823 13.4291 56.0621 13.232C55.9768 12.7658 56.1535 12.3772 56.1596 11.9109C55.4892 12.1984 54.9406 12.5948 54.3311 12.8978C53.1791 13.4885 52.1186 14.3045 50.9666 14.8718C50.5722 15.0426 50.1924 15.2639 49.8329 15.5324C48.9844 16.1748 48.083 16.696 47.145 17.0867C47.3157 16.0842 46.8951 15.2215 46.6757 14.3356C46.5477 13.7916 46.0662 13.4108 46.182 12.688C46.2318 12.4153 46.2167 12.1299 46.1385 11.8682C46.0603 11.6065 45.9226 11.3805 45.7431 11.2192C45.2982 10.7607 45.4262 10.2789 45.9687 10.0846C46.0601 10.0602 46.1497 10.0264 46.2368 9.98353C46.2064 9.09758 46.8464 9.07426 47.2242 8.69346C47.7362 8.165 48.5164 8.19609 48.9004 7.38785C48.9004 7.33345 49.0589 7.38784 49.1259 7.33344C49.7346 6.989 50.2759 6.47674 50.7106 5.83355Z" fill="url(#paint1_linear_95_207)" style="mix-blend-mode:difference"/>
<path d="M47.1268 17.086C48.0648 16.6953 48.9663 16.1741 49.8148 15.5317C50.1742 15.2632 50.554 15.0419 50.9484 14.8711C52.1004 14.3038 53.161 13.4878 54.3129 12.8972C54.9224 12.5941 55.4771 12.1978 56.1415 11.9102C56.1415 12.3765 55.9586 12.7651 56.0439 13.2314C56.0641 13.4285 56.1348 13.6115 56.2451 13.7521C56.3553 13.8926 56.4989 13.9828 56.6534 14.0085C57.1167 14.1251 57.2629 14.4126 57.0252 14.98C56.8428 15.4922 56.7854 16.0624 56.8604 16.6168C56.9354 17.1711 57.1394 17.6839 57.4458 18.0886C57.5448 18.1903 57.6242 18.3195 57.6781 18.4663C57.732 18.6131 57.7588 18.7736 57.7567 18.9357C57.7381 19.3156 57.7828 19.6962 57.8878 20.0525C57.9929 20.4088 58.1559 20.7327 58.3662 21.0029C58.4852 21.1703 58.5636 21.3782 58.5917 21.6013C58.6282 21.9121 58.7562 21.9743 58.9574 21.9743C58.9658 22.0615 58.9568 22.1499 58.9313 22.2314C58.9057 22.313 58.8643 22.3849 58.8111 22.4406C57.8481 23.4198 56.9216 24.4767 55.922 25.4015C54.6464 26.6189 53.3063 27.7225 51.9115 28.7044C51.2105 29.1785 50.5888 29.8779 49.7721 30.0489C49.7721 29.8391 49.6685 29.6914 49.4978 29.7769C48.998 30.0178 48.8883 29.637 48.7786 29.1397C48.7236 28.5891 48.5783 28.0595 48.352 27.5854C48.1996 27.3811 48.087 27.1339 48.0235 26.8639C47.96 26.5939 47.9472 26.3085 47.9862 26.0311C48.1081 25.1684 47.5291 24.5467 47.5657 23.6996C47.5657 23.5597 47.4133 23.4742 47.2853 23.4742C46.7368 23.4742 46.6758 23.039 46.6758 22.4639C46.6758 21.8888 46.8526 21.4614 46.5112 21.0961C46.3943 20.9606 46.3054 20.7904 46.2522 20.6007C46.1991 20.4109 46.1834 20.2074 46.2065 20.0081C46.2248 19.6277 46.2248 19.2462 46.2065 18.8657C46.1699 18.4227 46.1455 18.0885 45.597 18.3139C44.9265 18.5859 44.4633 19.2232 43.8416 19.5341C43.243 19.8075 42.6877 20.2154 42.202 20.7386C41.9301 21.0694 41.5816 21.2794 41.2085 21.3371C41.0135 21.065 40.7575 21.2205 40.532 21.1816C40.1662 21.1117 39.636 21.1816 39.5324 20.7153C39.3739 20.0081 38.9533 19.4175 38.9533 18.6792C39.0087 17.9534 38.876 17.2246 38.5754 16.6042C39.8432 14.9877 41.2207 13.5345 42.5677 12.0346C42.7091 12.0529 42.8507 12.0021 42.9638 11.8925C43.077 11.7828 43.1532 11.6225 43.1772 11.4439H43.2199H43.2686C44.0793 10.7134 44.896 9.99065 45.7067 9.31453C46.7598 8.39349 47.8709 7.58508 49.0285 6.89757C49.551 6.56118 50.0559 6.18218 50.5401 5.76294L50.7656 5.81735C50.3256 6.46332 49.7779 6.97577 49.1626 7.31724C49.0955 7.3561 48.9615 7.31725 48.9371 7.37165C48.5531 8.1488 47.7729 8.14879 47.2609 8.67726C46.9013 9.05806 46.2431 9.08138 46.2735 9.96733C46.1864 10.0102 46.0967 10.044 46.0053 10.0684C45.4629 10.2627 45.3349 10.7445 45.7798 11.203C45.9593 11.3643 46.097 11.5903 46.1751 11.852C46.2533 12.1136 46.2685 12.3991 46.2187 12.6718C46.1029 13.3946 46.5844 13.7754 46.7124 14.3194C46.9318 15.2053 47.3524 16.068 47.1817 17.0705C47.0964 17.0705 46.9927 17.0705 46.9988 17.257C47.0015 17.268 47.0062 17.278 47.0125 17.2862C47.0189 17.2943 47.0268 17.3003 47.0354 17.3036C47.1146 17.3347 47.1085 17.2026 47.1268 17.086Z" fill="url(#paint2_linear_95_207)" style="mix-blend-mode:difference"/>
<path d="M15.0969 34.4701C16.1818 34.54 17.2241 34.9752 18.2968 35.1384C19.2176 35.2497 20.1317 35.4366 21.0335 35.698C22.7828 36.2653 24.5809 36.1332 26.3424 36.4363C29.5735 36.5672 32.8073 36.3201 36.0031 35.698C38.7164 35.1186 41.3946 34.298 44.0181 33.2422C44.2192 33.9494 44.8287 34.4545 44.7251 35.2861C44.6745 35.7344 44.7146 36.1917 44.8415 36.6147C44.9684 37.0377 45.178 37.4123 45.4504 37.703C45.8222 38.1693 46.127 38.7055 46.8401 38.3481C47.6751 37.9284 48.5223 37.5243 49.3635 37.1124C50.9821 36.3158 52.524 35.2859 53.9592 34.0427C54.3488 33.6057 54.8546 33.375 55.3732 33.3976V33.5764C55.0989 33.7784 54.8186 33.9649 54.5504 34.1748C53.1759 35.2977 51.728 36.2675 50.2229 37.0735C50.0945 37.1067 49.9734 37.1755 49.8681 37.2748C49.7628 37.3742 49.6758 37.5018 49.6134 37.6486C48.2644 38.1848 46.9484 38.8472 45.676 39.6304L45.3712 39.7081C44.5615 39.9215 43.7665 40.2177 42.9941 40.594C41.513 41.1769 39.9466 41.3712 38.4533 41.7831C33.6842 42.8381 28.7861 42.4142 24.1725 40.5474C23.1919 40.1632 22.2276 39.7144 21.2834 39.2029C19.7528 38.3296 18.2757 37.3113 16.8645 36.1565C16.2489 35.6436 15.676 35.0296 15.0969 34.4701Z" fill="url(#paint3_linear_95_207)" style="mix-blend-mode:difference"/>
<path d="M55.3734 33.3975C54.8548 33.3748 54.349 33.6056 53.9594 34.0425C52.5242 35.2857 50.9823 36.3156 49.3637 37.1122C48.5226 37.5241 47.6754 37.9282 46.8403 38.3479C46.1272 38.7054 45.8225 38.1692 45.4507 37.7029C45.1783 37.4122 44.9687 37.0376 44.8417 36.6146C44.7148 36.1916 44.6747 35.7342 44.7253 35.2859C44.829 34.4544 44.2194 33.9492 44.0183 33.242C44.0665 33.2485 44.1153 33.2382 44.1593 33.2122C44.2033 33.1862 44.2409 33.1455 44.2682 33.0944C44.7475 32.9874 45.2079 32.7715 45.6274 32.4571C47.0738 31.8621 48.4607 31.0535 49.7599 30.0479C50.5766 29.877 51.1983 29.1775 51.8992 28.7035C53.2941 27.7215 54.6342 26.6179 55.9098 25.4006C56.9094 24.4758 57.8359 23.4188 58.7989 22.4396C58.8521 22.3839 58.8934 22.312 58.919 22.2305C58.9446 22.1489 58.9536 22.0605 58.9452 21.9733L59.317 21.6625C59.3928 21.6621 59.4668 21.6331 59.5297 21.5792C59.5926 21.5252 59.6416 21.4488 59.6705 21.3594C60.6046 20.3691 61.4693 19.277 62.2548 18.0953C62.334 17.9788 62.395 17.8545 62.5291 17.8467C63.7907 19.1057 64.9976 20.4501 66.308 21.6236C66.9175 22.1987 66.9175 22.2376 66.308 22.9137C65.089 24.3903 63.7907 25.7425 62.4864 27.087C61.182 28.4315 59.8838 29.6283 58.549 30.8406C57.7183 31.4737 56.9165 32.1665 56.1475 32.9156C55.9318 33.1689 55.6628 33.3364 55.3734 33.3975Z" fill="url(#paint4_linear_95_207)" style="mix-blend-mode:difference"/>
<path d="M24.3133 33.694C23.9098 33.914 23.4709 34.0072 23.0333 33.9661C20.968 34.252 18.879 33.9084 16.9382 32.9635C14.6445 31.6902 12.5521 29.8941 10.7639 27.6634C8.96583 25.4796 7.43596 23.0004 5.72934 20.7234C5.06246 19.6773 4.29682 18.7402 3.44979 17.9334C3.27682 17.7587 3.06085 17.6678 2.84028 17.677C2.40143 16.4646 1.97478 15.2445 1.51156 14.0477C1.35918 13.6513 1.43232 13.5114 1.73707 13.426C3.37579 12.8511 5.11034 12.897 6.72894 13.5581C7.6954 14.0676 8.56591 14.8332 9.28278 15.804C11.1113 18.0656 12.2328 20.9643 13.6103 23.6299C14.4554 25.4339 15.562 27.0164 16.8711 28.2928C17.9409 29.2655 19.2147 29.8069 20.5282 29.8471C21.0036 29.8471 21.4851 29.8472 21.9605 29.8083C21.9605 29.956 21.9605 30.158 22.052 30.228C22.8504 30.6787 22.6615 31.6424 22.631 32.3807C22.6005 33.119 22.7224 33.1578 23.1308 33.2666C23.3827 33.3192 23.6375 33.3452 23.8927 33.3443C24.039 33.4065 24.2706 33.321 24.3133 33.694Z" fill="url(#paint5_linear_95_207)" style="mix-blend-mode:difference"/>
<path d="M24.3129 33.6948C24.2702 33.3217 24.0386 33.4072 23.8496 33.3917C23.5944 33.3926 23.3396 33.3666 23.0877 33.314C22.6794 33.2052 22.5392 33.073 22.5879 32.428C22.6367 31.783 22.8074 30.7261 22.0089 30.2753C21.8931 30.2054 21.9297 30.0033 21.9175 29.8556C22.9719 29.4515 24.0508 29.1484 25.0686 28.6278C26.9152 27.6241 28.674 26.3765 30.3165 24.9052C31.249 24.128 32.145 23.2499 33.0776 22.4339C34.2478 21.3925 35.2962 20.1024 36.3933 18.9367C37.1064 18.1595 37.8135 17.3824 38.5205 16.6052C38.821 17.2256 38.9538 17.9545 38.8984 18.6802C38.8984 19.4185 39.3189 20.0091 39.4774 20.7163C39.581 21.1749 40.0869 21.1127 40.477 21.1826C40.7025 21.2215 40.9585 21.0661 41.1536 21.3381L40.0747 22.4028C39.5417 22.6591 39.047 23.0297 38.6119 23.4986C37.9475 24.2757 37.1308 24.7498 36.4299 25.4881C35.9362 26.001 35.2718 26.4051 34.7171 26.9491C33.8212 27.8273 32.8886 28.6821 31.9561 29.4748C31.249 30.0499 30.542 30.6794 29.8228 31.2001C28.4877 32.1062 27.0823 32.8328 25.6294 33.3684C25.2271 33.2129 24.7883 32.8788 24.5506 33.6715L24.3129 33.6948Z" fill="url(#paint6_linear_95_207)" style="mix-blend-mode:difference"/>
<path d="M68.5021 5.21149C68.6379 5.1864 68.7723 5.15005 68.9044 5.10267C69.0446 5.04827 69.2213 5.02496 69.2152 4.73741C69.2091 4.44987 69.0872 4.4421 68.9653 4.35662C68.7171 4.18583 68.5274 3.90381 68.4329 3.56505C68.3383 3.22628 68.3456 2.85486 68.4533 2.52255C68.4791 2.47131 68.5131 2.42752 68.553 2.39405C68.5929 2.36059 68.6378 2.33819 68.6849 2.32826C69.715 2.16506 70.678 1.55109 71.7325 1.67544C72.086 1.71429 72.342 1.94746 72.6894 1.98631C72.8906 1.98631 73.1831 2.17283 73.2684 1.71431C73.2864 1.7027 73.3062 1.69664 73.3263 1.69664C73.3465 1.69664 73.3663 1.7027 73.3842 1.71431C73.5976 2.44483 74.0791 2.11064 74.4631 2.14173H74.7069C74.8471 2.34379 75.0238 2.2583 75.1945 2.2583C75.3042 2.84116 75.481 2.55363 75.6577 2.32048C76.6146 2.51477 76.6329 2.52253 76.4013 3.69603C76.0109 5.52441 75.4395 7.28197 74.7008 8.92627C73.8486 10.9601 72.9148 12.9367 71.9031 14.8482C71.5679 15.4699 71.2266 16.0838 70.8792 16.6978C70.7512 16.9231 70.6049 17.1252 70.3367 17.0475C69.1866 16.7823 68.019 16.66 66.8503 16.6822C66.9722 16.5113 67.1916 16.7211 67.2892 16.4413C67.0697 16.5967 66.7345 16.1926 66.5821 16.7056L65.7532 16.7522C65.7433 16.724 65.7292 16.6985 65.7115 16.6774C65.6939 16.6562 65.6731 16.6397 65.6504 16.6289C65.6277 16.618 65.6036 16.613 65.5794 16.6142C65.5552 16.6154 65.5314 16.6226 65.5094 16.6356C65.51 16.6511 65.51 16.6667 65.5094 16.6822L65.6618 16.7599C65.1548 16.9383 64.6331 17.0401 64.1075 17.063C64.0588 16.6123 63.8394 16.5656 63.5407 16.6589C63.0836 16.7988 62.7544 16.6589 62.7788 15.9517C62.78 15.8756 62.7653 15.8005 62.7361 15.7341C62.1786 14.6736 61.7242 13.5306 61.383 12.3302C61.3545 12.2631 61.3155 12.2043 61.2682 12.1575C61.221 12.1107 61.1667 12.0769 61.1088 12.0582C60.4688 11.825 60.4993 11.18 60.4993 10.5039C60.4993 9.82776 60.9198 9.82776 61.2368 9.72673C61.6949 9.56917 62.1049 9.23867 62.4131 8.77861C62.8884 8.29674 63.4458 7.96399 64.0405 7.80717C64.8605 7.3808 65.7119 7.06055 66.5821 6.85126C66.7558 7.1141 66.9907 7.29952 67.2527 7.38057C67.5146 7.46163 67.79 7.43411 68.0389 7.30202C68.0389 7.745 68.1364 8.3201 67.5025 7.81495C67.4308 7.76382 67.3518 7.73168 67.2702 7.72046C67.1885 7.70924 67.106 7.71917 67.0274 7.74965C66.9488 7.78014 66.8759 7.83055 66.813 7.89786C66.7501 7.96517 66.6985 8.04798 66.6614 8.14134C66.5853 8.44339 66.5569 8.76168 66.5778 9.07782C66.5987 9.39395 66.6685 9.70166 66.7833 9.98318C66.8074 10.0064 66.835 10.0231 66.8643 10.0325C66.8936 10.0418 66.9241 10.0436 66.9539 10.0376C67.8865 9.58684 68.173 10.2319 68.2705 11.2655C68.2882 11.3383 68.3221 11.4031 68.368 11.452C68.5692 11.7714 68.6634 12.1792 68.6301 12.5866C68.6301 13.1229 68.6301 13.6591 68.6301 14.1876C68.5951 14.4077 68.6282 14.6366 68.7225 14.8263C68.8168 15.016 68.9649 15.152 69.136 15.2056C69.459 15.3688 69.9893 15.3766 69.904 16.2082C69.904 16.4491 70.3123 16.791 70.5622 16.4491C71.0085 15.8191 71.4161 15.1462 71.7812 14.4363C72.214 13.6203 72.5675 12.7343 73.0003 11.9027C73.1953 11.5064 73.3355 11.0168 73.5183 10.6982C74.012 9.83553 74.2985 8.84079 74.7739 7.98592C75.05 7.35735 75.2923 6.70563 75.4992 6.03526C75.8561 5.30786 76.079 4.48686 76.1514 3.63387C76.1514 2.85672 76.0478 2.779 75.4444 2.94997C74.841 3.12095 74.4387 3.49399 73.9023 3.68828C72.4597 4.11494 71.047 4.69197 69.6784 5.41355C69.5024 5.48358 69.3436 5.61059 69.2176 5.78221C69.0915 5.95383 69.0025 6.16418 68.9592 6.39275C68.8678 6.86681 68.6301 7.40305 68.0815 7.27093C68.3196 7.03447 68.4898 6.70451 68.5658 6.33217C68.6419 5.95984 68.6195 5.56594 68.5021 5.21149Z" fill="url(#paint7_linear_95_207)" style="mix-blend-mode:difference"/>
<path d="M43.1896 11.4594H43.1408H43.0982C42.8787 11.5527 42.7081 11.8169 42.446 11.7625C41.9041 10.4487 41.2322 9.22898 40.4468 8.13321C40.2305 7.91372 40.0268 7.67478 39.8373 7.41822C39.8373 6.98302 39.5996 7.02188 39.3863 7.00633H39.3558C39.285 6.82652 39.2451 6.62952 39.2388 6.4285C39.2325 6.22748 39.2599 6.02705 39.3192 5.84061C39.4838 4.96243 38.795 3.72676 38.1733 3.87442C37.3517 3.98289 36.537 4.16466 35.7353 4.41841C35.333 4.58938 35.1258 4.41842 35.2904 3.82001C36.5343 2.27391 38.0522 1.13295 39.7154 0.493805C40.9928 -0.0294043 42.3522 -0.138911 43.6711 0.17517C43.4395 0.517116 43.3602 0.952331 43.0616 1.27873C43.0616 1.27873 43.0616 1.44971 43.1104 1.47302C44.0185 2.06366 43.6284 3.02732 43.4212 3.80448C43.2505 4.41842 43.4761 4.535 43.7503 4.58163C44.6036 4.74483 45.0486 5.73957 45.8653 6.07374C45.2192 6.07374 45.2985 6.39238 45.5118 6.85089L45.7068 7.23171C45.8714 7.54258 46.1579 7.84565 46.1762 8.16428C46.1945 8.48291 45.7495 8.5995 45.524 8.80933C45.0669 9.25231 44.7621 9.92842 44.2501 10.2315C43.7956 10.4716 43.4207 10.9057 43.1896 11.4594ZM42.0742 0.32283C42.2328 0.430333 42.4096 0.486547 42.5892 0.486547C42.7688 0.486547 42.9457 0.430333 43.1043 0.32283C42.9416 0.233224 42.7664 0.187005 42.5892 0.187005C42.4121 0.187005 42.2368 0.233224 42.0742 0.32283Z" fill="url(#paint8_linear_95_207)" style="mix-blend-mode:difference"/>
<path d="M49.6138 37.6501C49.6762 37.5033 49.7632 37.3757 49.8685 37.2763C49.9738 37.177 50.0949 37.1083 50.2233 37.0751C51.7284 36.2691 53.1763 35.2992 54.5508 34.1763C54.819 33.9664 55.0993 33.7799 55.3736 33.5779C55.4293 34.8438 55.318 36.1126 55.0445 37.3315C54.6141 40.3407 53.683 43.1974 52.3139 45.7092C51.7713 46.6594 51.1591 47.5415 50.4854 48.3438C50.047 48.7938 49.5802 49.1967 49.0896 49.5483C49.1853 48.9832 49.3241 48.4314 49.5041 47.9008C49.6564 47.5433 49.6991 47.3257 49.4614 47.0537C49.4183 47.0014 49.3837 46.9388 49.3596 46.8695C49.3356 46.8001 49.3225 46.7254 49.3212 46.6496C49.2363 44.7793 49.4264 42.9052 49.882 41.124C50.2438 40.135 50.4191 39.0518 50.3939 37.961C50.5463 37.7823 50.5707 37.5802 50.3939 37.2693V37.961L49.6138 37.6501Z" fill="url(#paint9_linear_95_207)" style="mix-blend-mode:difference"/>
<path d="M50.3817 37.9594C50.4069 39.0503 50.2315 40.1335 49.8697 41.1225C49.4142 42.9036 49.224 44.7777 49.3089 46.648C49.3102 46.7238 49.3233 46.7986 49.3474 46.8679C49.3714 46.9373 49.406 46.9999 49.4491 47.0521C49.6868 47.3241 49.6442 47.5417 49.4918 47.8992C49.3118 48.4299 49.173 48.9817 49.0773 49.5468C49.0648 49.6321 49.0361 49.7122 48.9935 49.78C48.951 49.8477 48.8961 49.9011 48.8335 49.9353C47.1251 51.2451 45.2056 52.0423 43.2199 52.2668C43.2199 51.8549 42.8299 51.3265 43.2992 51.07C44.3291 50.3865 45.2806 49.5262 46.1273 48.5132C46.4381 48.2023 47.3463 47.7904 46.5966 46.8112C46.4869 46.6713 46.5966 46.376 46.5966 46.1584C46.6332 45.1015 46.5966 44.0446 46.5966 43.0032C46.5966 42.226 46.4321 41.3711 46.4564 40.5551C46.4808 39.7391 46.3345 39.4438 45.7067 39.6148C46.9792 38.8316 48.2952 38.1692 49.6442 37.6331L50.3817 37.9439V37.9594Z" fill="url(#paint10_linear_95_207)" style="mix-blend-mode:difference"/>
<path d="M42.6374 11.862C42.8673 11.2738 43.2573 10.8124 43.7346 10.5641C44.2465 10.2611 44.5513 9.58495 45.0084 9.14197C45.2339 8.93214 45.685 8.90881 45.6606 8.49692C45.6362 8.08503 45.3559 7.87522 45.1913 7.56436L44.9962 7.18354C44.7829 6.74833 44.7037 6.40638 45.3497 6.40638C44.533 6.07221 44.0881 5.07747 43.2348 4.91427C42.9605 4.86764 42.735 4.75107 42.9056 4.13712C43.1129 3.35997 43.5151 2.41961 42.5948 1.80567C42.5582 1.80567 42.5277 1.63469 42.546 1.61138C42.8203 1.31606 42.8995 0.834216 43.1555 0.507812C43.7345 0.740958 44.3197 0.935248 44.8865 1.21502C46.6931 2.17322 48.2954 3.66484 49.5614 5.56707C49.6894 5.75359 49.8296 5.93233 49.9637 6.11884C49.4795 6.53809 48.9746 6.91708 48.4521 7.25348C47.2945 7.94098 46.1835 8.74939 45.1303 9.67043C44.2648 10.4087 43.4481 11.1315 42.6374 11.862ZM45.8556 7.12913C45.8525 7.14704 45.8525 7.16562 45.8556 7.18354L45.813 7.12137C45.813 7.01257 45.813 6.88045 45.6667 6.89599C45.6574 6.89759 45.6488 6.90301 45.6422 6.91143C45.6356 6.91986 45.6314 6.93082 45.6301 6.94262C45.6667 7.11359 45.7703 7.11359 45.8556 7.12913Z" fill="url(#paint11_linear_95_207)" style="mix-blend-mode:difference"/>
<path d="M45.6764 39.6304C46.2859 39.4594 46.4443 39.8402 46.4261 40.5707C46.4078 41.3012 46.5662 42.2416 46.5662 43.0187C46.5662 44.0601 46.6211 45.117 46.5662 46.174C46.5662 46.3916 46.4382 46.6869 46.5662 46.8268C47.3281 47.806 46.4078 48.2179 46.0969 48.5287C45.2502 49.5417 44.2987 50.402 43.2688 51.0856C42.7995 51.342 43.1652 51.8627 43.1896 52.2824C42.2265 52.4869 41.2455 52.5157 40.2761 52.3679C40.7759 51.8472 41.2635 51.4897 41.6902 51.0156C42.978 49.4294 43.9263 47.4498 44.4452 45.2647C44.9392 43.4707 45.2506 41.6032 45.3716 39.7081L45.6764 39.6304Z" fill="url(#paint12_linear_95_207)" style="mix-blend-mode:difference"/>
<path d="M35.2965 3.81226C35.1441 4.37958 35.3391 4.58942 35.7414 4.41068C36.5431 4.15693 37.3578 3.97514 38.1794 3.86666C38.789 3.719 39.4899 4.95467 39.3253 5.83285C39.266 6.0193 39.2386 6.21972 39.245 6.42074C39.2513 6.62177 39.2911 6.81877 39.3619 6.99858C38.6365 6.35636 37.8213 5.89734 36.9604 5.64634C35.9647 5.40536 34.9434 5.38958 33.9434 5.59972C34.248 4.8484 34.7184 4.22707 35.2965 3.81226Z" fill="url(#paint13_linear_95_207)" style="mix-blend-mode:difference"/>
<path d="M74.4822 2.14987C74.0979 2.14987 73.6161 2.45297 73.4026 1.72245C73.8235 1.61365 74.1528 1.98667 74.4822 2.14987Z" fill="url(#paint14_linear_95_207)" style="mix-blend-mode:difference"/>
<path d="M42.458 11.7692C42.7203 11.8236 42.8911 11.5593 43.1107 11.4661C43.0867 11.6447 43.0103 11.805 42.8971 11.9146C42.7839 12.0243 42.6422 12.0751 42.5007 12.0567L42.458 11.7692Z" fill="url(#paint15_linear_95_207)" style="mix-blend-mode:difference"/>
<path d="M66.5945 16.7365C66.747 16.2235 67.0824 16.6277 67.302 16.4722C67.2044 16.752 66.9849 16.5422 66.8629 16.7132L66.5945 16.7365Z" fill="url(#paint16_linear_95_207)" style="mix-blend-mode:difference"/>
<path d="M75.6706 2.39004C75.4937 2.62319 75.3168 2.91074 75.207 2.32788L75.6706 2.39004Z" fill="url(#paint17_linear_95_207)" style="mix-blend-mode:difference"/>
<path d="M39.4104 7.052C39.6242 7.052 39.8746 7.052 39.8624 7.46389C39.6842 7.38361 39.5275 7.24081 39.4104 7.052Z" fill="url(#paint18_linear_95_207)" style="mix-blend-mode:difference"/>
<path d="M75.2133 2.29623C75.0425 2.29623 74.8656 2.38172 74.7253 2.17966C74.9022 2.13303 75.073 2.0864 75.2133 2.29623Z" fill="url(#paint19_linear_95_207)" style="mix-blend-mode:difference"/>
<path d="M65.6499 16.7914L65.4978 16.7137C65.4984 16.6982 65.4984 16.6826 65.4978 16.6671C65.5197 16.6541 65.5435 16.6468 65.5677 16.6457C65.5918 16.6445 65.6159 16.6495 65.6386 16.6604C65.6612 16.6712 65.682 16.6877 65.6996 16.7089C65.7172 16.73 65.7313 16.7554 65.7412 16.7837H65.6803L65.6499 16.7914Z" fill="url(#paint20_linear_95_207)" style="mix-blend-mode:difference"/>
<path d="M25.6295 33.3912C27.0825 32.8556 28.4878 32.1289 29.8229 31.2229C30.5422 30.7022 31.2492 30.0727 31.9562 29.4976C32.9131 28.7205 33.8213 27.8501 34.7173 26.9719C35.2719 26.4279 35.9363 26.0237 36.43 25.5108C37.1309 24.7725 37.9477 24.2752 38.612 23.5213C39.0471 23.0524 39.5418 22.6818 40.0749 22.4255C40.5057 23.3177 41.0713 24.0917 41.7388 24.7026C42.15 25.3331 42.5939 25.9277 43.0676 26.4823C43.131 26.5804 43.1635 26.705 43.159 26.832C43.145 27.4415 43.2519 28.0456 43.4698 28.5883C43.5734 28.8837 43.5795 29.2722 43.2199 29.2256C42.8603 29.179 42.775 29.3344 42.8298 29.653C42.8847 29.9717 42.8298 30.4924 43.2199 30.4302C43.61 30.368 43.6344 30.5778 43.6466 30.9198C43.6588 31.2617 43.7014 31.456 43.8355 31.5337C44.445 31.8912 44.4085 32.4586 44.25 33.0881C44.2227 33.1392 44.1851 33.1799 44.1411 33.2059C44.097 33.2319 44.0483 33.2422 44.0001 33.2357C41.3766 34.2915 38.6984 35.1121 35.9851 35.6915C32.7893 36.3136 29.5555 36.5607 26.3244 36.4298C26.5194 35.9402 26.6413 35.5128 26.0013 35.4428C25.7331 35.4428 25.7027 35.0776 25.727 34.79C25.7679 34.5594 25.7557 34.3187 25.6919 34.0968C25.6282 33.8748 25.5155 33.6811 25.3674 33.5388C25.3952 33.4844 25.4347 33.4415 25.4812 33.4152C25.5278 33.389 25.5793 33.3807 25.6295 33.3912Z" fill="url(#paint21_linear_95_207)" style="mix-blend-mode:difference"/>
<path d="M68.5029 5.21071C68.6263 5.56892 68.6519 5.96957 68.5757 6.34857C68.4995 6.72757 68.3257 7.06302 68.0823 7.30125H68.0396C67.7908 7.43333 67.5154 7.46085 67.2534 7.3798C66.9915 7.29874 66.7566 7.11332 66.5829 6.85049C66.4155 6.42282 66.358 5.93886 66.4183 5.46716C66.4541 5.16762 66.5648 4.89085 66.734 4.67801C66.9031 4.46516 67.1216 4.32764 67.357 4.2859C67.6033 4.23873 67.8546 4.30625 68.0651 4.47608C68.2755 4.64592 68.4309 4.90671 68.5029 5.21071Z" fill="url(#paint22_linear_95_207)" style="mix-blend-mode:difference"/>
<path d="M59.6713 21.3608C59.6424 21.4502 59.5934 21.5267 59.5305 21.5806C59.4675 21.6346 59.3934 21.6635 59.3176 21.6639C59.0797 21.6251 58.9943 21.3841 59.1224 21.2054C59.2505 21.0267 59.4823 21.3142 59.6713 21.3608Z" fill="url(#paint23_linear_95_207)" style="mix-blend-mode:difference"/>
<path d="M44.2753 33.2033C44.4594 32.538 44.4806 31.9528 43.7937 31.6C43.6379 31.5199 43.5742 31.2152 43.5742 30.9667C43.5742 30.7182 43.5034 30.4136 43.0785 30.4617C42.6536 30.5098 42.682 29.9567 42.6253 29.6601C42.5687 29.3635 42.7103 29.1711 43.0785 29.2192C43.4467 29.2673 43.4892 28.8665 43.3688 28.5618C43.1157 28.002 42.9914 27.3788 43.0077 26.7501C43.0055 26.6806 42.9913 26.6123 42.9658 26.549C42.9403 26.4857 42.904 26.4288 42.859 26.3814C42.3021 25.8178 41.7793 25.2126 41.294 24.5697C40.5185 23.9395 39.8613 23.1411 39.3608 22.2209L40.6142 21.1227C41.0477 21.0631 41.4525 20.8466 41.7685 20.5054C42.3327 19.9657 42.9779 19.5449 43.6733 19.2628C44.3815 18.9422 44.9338 18.2848 45.7128 18.0043C46.3643 17.7718 46.4209 18.1165 46.4209 18.5735C46.4422 18.9659 46.4422 19.3594 46.4209 19.7519C46.3941 19.9575 46.4123 20.1674 46.4741 20.3631C46.5358 20.5588 46.6391 20.7343 46.775 20.8741C47.1715 21.2509 46.9591 21.8121 46.9662 22.285C46.9732 22.758 47.0653 23.3271 47.6743 23.3271C47.823 23.3271 48 23.4153 48 23.5596C47.9576 24.4174 48.6303 25.0587 48.4887 25.9645C48.4433 26.2508 48.4581 26.5451 48.5319 26.8236C48.6058 27.1022 48.7365 27.3571 48.9135 27.5678C49.1765 28.0568 49.3454 28.6032 49.4092 29.1711C49.5579 29.6841 49.6642 30.0769 50.2448 29.8284C50.4431 29.7402 50.5422 29.8925 50.5635 30.109C49.0541 31.1463 47.4428 31.9803 45.7623 32.5941C45.3004 32.8903 44.7977 33.0963 44.2753 33.2033Z" fill="url(#paint24_linear_95_207)" style="mix-blend-mode:difference"/>
<path d="M47.1272 17.085C47.1272 17.2015 47.1272 17.3336 46.9805 17.3181C46.9719 17.3148 46.964 17.3088 46.9576 17.3006C46.9512 17.2925 46.9465 17.2825 46.9438 17.2715C46.9438 17.1005 47.0416 17.1083 47.1272 17.085Z" fill="url(#paint25_linear_95_207)" style="mix-blend-mode:difference"/>
<path d="M68.0576 7.33257H68.1003C68.6488 7.46469 68.8865 6.92847 68.978 6.45441C69.0212 6.22584 69.1102 6.01547 69.2363 5.84385C69.3623 5.67223 69.5211 5.54522 69.6972 5.47519C71.0657 4.75361 72.4784 4.17658 73.9211 3.74992C74.4574 3.55563 74.9207 3.16705 75.4631 3.01161C76.0056 2.85618 76.1945 2.92613 76.1702 3.69551C76.0978 4.5485 75.8748 5.3695 75.518 6.09691C75.3111 6.76727 75.0687 7.41899 74.7927 8.04756C74.3172 8.90243 74.0308 9.89717 73.5371 10.7598C73.3542 11.0784 73.214 11.537 73.019 11.9644C72.5984 12.796 72.2449 13.6819 71.8 14.4979C71.4349 15.2078 71.0273 15.8808 70.581 16.5107C70.3311 16.8527 69.8983 16.5107 69.9227 16.2698C70.008 15.4383 69.4777 15.4305 69.1547 15.2673C68.9837 15.2136 68.8355 15.0777 68.7412 14.888C68.6469 14.6982 68.6138 14.4694 68.6488 14.2492C68.6793 13.7208 68.6488 13.1845 68.6488 12.6483C68.6822 12.2408 68.588 11.833 68.3867 11.5136C68.3408 11.4647 68.307 11.4 68.2892 11.3271C68.2039 10.2935 67.9052 9.6485 66.9727 10.0993C66.9428 10.1052 66.9123 10.1035 66.883 10.0941C66.8537 10.0848 66.8262 10.068 66.802 10.0448C66.6873 9.76333 66.6174 9.45562 66.5965 9.13948C66.5756 8.82335 66.604 8.50505 66.6801 8.203C66.7173 8.10964 66.7689 8.02681 66.8318 7.9595C66.8947 7.89219 66.9676 7.84178 67.0461 7.8113C67.1247 7.78081 67.2073 7.77088 67.2889 7.7821C67.3706 7.79332 67.4496 7.82546 67.5212 7.87659C68.1368 8.35065 68.021 7.77555 68.0576 7.33257Z" fill="url(#paint26_linear_95_207)" style="mix-blend-mode:difference"/>
<path d="M42.0742 0.322593C42.2369 0.232987 42.4124 0.186768 42.5896 0.186768C42.7669 0.186768 42.9423 0.232987 43.105 0.322593C42.9463 0.430096 42.7694 0.48631 42.5896 0.48631C42.4099 0.48631 42.2329 0.430096 42.0742 0.322593Z" fill="url(#paint27_linear_95_207)" style="mix-blend-mode:difference"/>
<path d="M50.3818 37.9609V37.2693C50.5585 37.5801 50.5342 37.7822 50.3818 37.9609Z" fill="url(#paint28_linear_95_207)" style="mix-blend-mode:difference"/>
<path d="M46.4082 6.7256C46.3226 6.7256 46.2187 6.72562 46.231 6.54687C46.2322 6.53507 46.2365 6.52411 46.2431 6.51568C46.2497 6.50726 46.2583 6.50184 46.2676 6.50024C46.396 6.50024 46.3959 6.6168 46.4143 6.7256H46.4082Z" fill="url(#paint29_linear_95_207)" style="mix-blend-mode:difference"/>
<path d="M46.4138 6.72729L46.4545 6.78948C46.4515 6.77157 46.4515 6.75299 46.4545 6.73507L46.4138 6.72729Z" fill="url(#paint30_linear_95_207)" style="mix-blend-mode:difference"/>
<g style="mix-blend-mode:color-dodge">
<path d="M20.1725 37.0091C19.8799 37.0091 19.9591 37.3278 19.9226 37.5065C19.5126 39.8776 18.8994 42.1841 18.0941 44.3843C17.6438 45.6183 17.0921 46.788 16.4484 47.8737C15.088 50.2039 13.2781 52.0458 11.1944 53.2205C9.50041 54.1444 7.66544 54.5719 5.82465 54.4717C5.50771 54.4717 5.32485 54.4717 5.55037 53.9355C6.30006 52.1325 7.0071 50.2984 7.7446 48.4954C8.92705 45.5837 10.1136 42.6746 11.3041 39.768C11.8527 38.421 12.4155 37.0869 12.9925 35.7657C13.0826 35.5887 13.1331 35.3836 13.1385 35.1727C13.1438 34.9618 13.1039 34.753 13.0229 34.5689C11.6028 30.6287 10.2009 26.673 8.79295 22.7251C8.4943 21.8936 8.18345 21.0698 7.90308 20.246C8.12365 20.2368 8.33962 20.3277 8.51259 20.5025C9.37352 21.2985 10.1536 22.2279 10.8348 23.2691C12.5414 25.5462 14.0713 28.0253 15.8693 30.2091C17.6612 32.4414 19.7578 34.2376 22.0559 35.5092C23.9966 36.4541 26.0856 36.7978 28.1509 36.5118C28.5885 36.553 29.0274 36.4597 29.4309 36.2398H29.6686L30.5036 36.0921C30.6517 36.2344 30.7643 36.4281 30.8281 36.6501C30.8919 36.872 30.9041 37.1128 30.8632 37.3433C30.8632 37.6309 30.8632 37.965 31.1375 37.9961C31.7775 38.0661 31.6556 38.4935 31.4606 38.9831C29.6991 38.68 27.901 38.8121 26.1518 38.2448C25.2499 37.9835 24.3358 37.7966 23.415 37.6853C22.2996 37.5143 21.2574 37.0791 20.1725 37.0091Z" fill="url(#paint31_linear_95_207)" style="mix-blend-mode:difference"/>
<path d="M55.7856 8.37261C57.1026 7.57398 58.4609 6.89108 59.851 6.3287C61.8539 5.57102 63.8888 4.95869 65.9461 4.49463C68.8481 3.82131 71.8027 3.59172 74.7474 3.81074C75.9608 3.80288 77.1717 3.9513 78.3617 4.25372C78.2764 4.71224 77.9839 4.54904 77.7827 4.52573C77.4597 4.48687 77.1732 4.2537 76.8258 4.21485C75.7531 4.0905 74.79 4.70447 73.7783 4.86767C73.7311 4.8776 73.6862 4.9 73.6463 4.93347C73.6064 4.96693 73.5724 5.01072 73.5466 5.06196C73.4389 5.39427 73.4316 5.7657 73.5262 6.10446C73.6207 6.44322 73.8104 6.72524 74.0586 6.89603C74.1805 6.98151 74.3024 7.05922 74.3085 7.27682C74.3146 7.49443 74.1379 7.58769 73.9977 7.64209C73.8656 7.68946 73.7312 7.72582 73.5954 7.7509C73.5188 7.45268 73.3614 7.19898 73.1514 7.03522C72.9415 6.87147 72.6927 6.80835 72.4495 6.85718C72.2142 6.89892 71.9956 7.03645 71.8265 7.24929C71.6574 7.46213 71.5467 7.73891 71.5109 8.03844C71.4505 8.51014 71.5081 8.99411 71.6754 9.42177C70.8053 9.63106 69.9538 9.95131 69.1338 10.3777C68.5392 10.5345 67.9817 10.8672 67.5064 11.3491C67.1983 11.8092 66.7882 12.1397 66.3301 12.2972C66.0131 12.4216 65.5987 12.4604 65.5926 13.0744C65.5865 13.6883 65.5499 14.3722 66.2021 14.6287C66.2601 14.6474 66.3144 14.6812 66.3616 14.728C66.4088 14.7749 66.4478 14.8336 66.4763 14.9007C66.8175 16.101 67.2719 17.2441 67.8295 18.3046C67.8586 18.371 67.8733 18.4461 67.8721 18.5222C67.8721 19.2527 68.1769 19.3693 68.634 19.2294C68.9327 19.1362 69.1521 19.1828 69.2008 19.6335C68.9936 20.0454 68.6401 20.0221 68.3293 20.0921C68.0876 20.1469 67.8535 20.2464 67.6344 20.3874C67.5003 20.3874 67.4394 20.5195 67.3601 20.6361C66.5746 21.8177 65.7099 22.9098 64.7758 23.9001C64.5869 23.8535 64.4162 23.4804 64.2273 23.7447C64.0383 24.0089 64.1846 24.1643 64.4223 24.2032L64.0505 24.5141C63.8494 24.5141 63.7214 24.4519 63.6848 24.141C63.6567 23.9179 63.5784 23.71 63.4593 23.5426C63.249 23.2724 63.086 22.9485 62.981 22.5922C62.8759 22.2359 62.8312 21.8553 62.8498 21.4754C62.852 21.3133 62.8251 21.1528 62.7712 21.006C62.7173 20.8592 62.6379 20.73 62.5389 20.6283C62.2325 20.2236 62.0285 19.7108 61.9535 19.1565C61.8785 18.6021 61.936 18.0319 62.1184 17.5197C62.3378 16.9524 62.2098 16.6648 61.7466 16.5483C61.592 16.5225 61.4484 16.4324 61.3382 16.2918C61.228 16.1513 61.1573 15.9682 61.1371 15.7711C61.0517 15.3048 61.2285 14.9162 61.2346 14.4499C60.5641 14.7375 60.0156 15.1338 59.4061 15.4369C58.2541 16.0275 57.1935 16.8436 56.0416 17.4109C55.6471 17.5817 55.2673 17.803 54.9079 18.0715C54.0594 18.7138 53.158 19.2351 52.22 19.6258C52.3906 18.6232 51.9701 17.7606 51.7506 16.8746C51.6227 16.3306 51.1411 15.9498 51.2569 15.2271C51.3067 14.9544 51.2916 14.6689 51.2134 14.4072C51.1352 14.1456 50.9976 13.9196 50.8181 13.7583C50.3732 13.2997 50.5012 12.8179 51.0436 12.6236C51.135 12.5993 51.2247 12.5655 51.3118 12.5226C51.2813 11.6366 51.9213 11.6133 52.2992 11.2325C52.8112 10.7041 53.5914 10.7351 53.9753 9.92691C53.9753 9.87251 54.1338 9.92691 54.2009 9.87251C54.8096 9.52806 55.3508 9.0158 55.7856 8.37261Z" fill="url(#paint32_linear_95_207)" style="mix-blend-mode:difference"/>
<path d="M52.2025 19.6251C53.1405 19.2344 54.0419 18.7131 54.8905 18.0708C55.2499 17.8023 55.6297 17.581 56.0241 17.4102C57.1761 16.8429 58.2367 16.0269 59.3886 15.4362C59.9981 15.1332 60.5528 14.7368 61.2171 14.4493C61.2171 14.9156 61.0343 15.3041 61.1196 15.7704C61.1398 15.9675 61.2105 16.1506 61.3208 16.2911C61.431 16.4317 61.5746 16.5218 61.7291 16.5476C62.1924 16.6642 62.3386 16.9517 62.1009 17.519C61.9185 18.0312 61.8611 18.6015 61.9361 19.1558C62.0111 19.7101 62.215 20.223 62.5215 20.6276C62.6204 20.7293 62.6999 20.8585 62.7538 21.0053C62.8076 21.1521 62.8345 21.3127 62.8323 21.4747C62.8138 21.8546 62.8585 22.2352 62.9635 22.5915C63.0686 22.9478 63.2316 23.2717 63.4418 23.5419C63.5609 23.7093 63.6393 23.9172 63.6674 24.1403C63.7039 24.4512 63.8319 24.5134 64.0331 24.5134C64.0415 24.6005 64.0325 24.689 64.0069 24.7705C63.9814 24.852 63.94 24.924 63.8868 24.9797C62.9238 25.9589 61.9973 27.0158 60.9977 27.9406C59.7221 29.1579 58.382 30.2615 56.9872 31.2435C56.2862 31.7176 55.6645 32.417 54.8478 32.588C54.8478 32.3781 54.7442 32.2305 54.5735 32.316C54.0737 32.5569 53.964 32.1761 53.8543 31.6787C53.7993 31.1281 53.654 30.5985 53.4276 30.1244C53.2752 29.9201 53.1627 29.673 53.0992 29.403C53.0356 29.1329 53.0229 28.8476 53.0619 28.5701C53.1838 27.7075 52.6048 27.0858 52.6414 26.2387C52.6414 26.0988 52.489 26.0133 52.361 26.0133C51.8124 26.0133 51.7515 25.5781 51.7515 25.003C51.7515 24.4279 51.9282 24.0005 51.5869 23.6352C51.47 23.4996 51.3811 23.3295 51.3279 23.1397C51.2748 22.95 51.259 22.7465 51.2822 22.5472C51.3005 22.1667 51.3005 21.7852 51.2822 21.4048C51.2456 20.9618 51.2212 20.6276 50.6726 20.853C50.0022 21.125 49.539 21.7623 48.9173 22.0731C48.3187 22.3465 47.7634 22.7545 47.2777 23.2777C47.0058 23.6085 46.6573 23.8184 46.2842 23.8761C46.0892 23.6041 45.8332 23.7595 45.6076 23.7207C45.2419 23.6507 44.7117 23.7207 44.6081 23.2544C44.4496 22.5472 44.029 21.9565 44.029 21.2182C44.0844 20.4925 43.9517 19.7636 43.6511 19.1433C44.9189 17.5268 46.2964 16.0735 47.6434 14.5736C47.7848 14.592 47.9263 14.5412 48.0395 14.4316C48.1526 14.3219 48.2289 14.1616 48.2529 13.983H48.2956H48.3443C49.155 13.2525 49.9717 12.5297 50.7824 11.8536C51.8355 10.9326 52.9465 10.1241 54.1042 9.43664C54.6266 9.10024 55.1316 8.72125 55.6158 8.302L55.8413 8.35641C55.4012 9.00238 54.8536 9.51483 54.2383 9.8563C54.1712 9.89516 54.0371 9.85631 54.0128 9.91071C53.6288 10.6879 52.8486 10.6879 52.3366 11.2163C51.977 11.5971 51.3187 11.6204 51.3492 12.5064C51.2621 12.5493 51.1724 12.5831 51.081 12.6074C50.5386 12.8017 50.4106 13.2835 50.8555 13.7421C51.035 13.9034 51.1727 14.1294 51.2508 14.391C51.329 14.6527 51.3442 14.9382 51.2944 15.2109C51.1786 15.9336 51.6601 16.3144 51.7881 16.8584C52.0075 17.7444 52.428 18.607 52.2574 19.6096C52.172 19.6096 52.0684 19.6096 52.0745 19.7961C52.0771 19.8071 52.0818 19.8171 52.0882 19.8252C52.0946 19.8334 52.1025 19.8394 52.1111 19.8427C52.1903 19.8738 52.1842 19.7417 52.2025 19.6251Z" fill="url(#paint33_linear_95_207)" style="mix-blend-mode:difference"/>
<path d="M20.1726 37.0091C21.2575 37.0791 22.2998 37.5143 23.3725 37.6775C24.2932 37.7888 25.2074 37.9757 26.1092 38.237C27.8585 38.8043 29.6566 38.6722 31.418 38.9753C34.6492 39.1063 37.883 38.8591 41.0787 38.237C43.7921 37.6576 46.4703 36.8371 49.0938 35.7812C49.2949 36.4885 49.9044 36.9936 49.8008 37.8251C49.7502 38.2734 49.7902 38.7308 49.9172 39.1538C50.0441 39.5768 50.2537 39.9514 50.5261 40.2421C50.8979 40.7084 51.2027 41.2446 51.9158 40.8871C52.7508 40.4675 53.598 40.0633 54.4392 39.6514C56.0578 38.8548 57.5997 37.8249 59.0348 36.5817C59.4245 36.1448 59.9303 35.914 60.4489 35.9367V36.1154C60.1746 36.3175 59.8943 36.504 59.6261 36.7138C58.2515 37.8367 56.8037 38.8066 55.2986 39.6126C55.1702 39.6458 55.0491 39.7145 54.9438 39.8139C54.8384 39.9132 54.7515 40.0408 54.6891 40.1877C53.3401 40.7239 52.0241 41.3863 50.7516 42.1694L50.4469 42.2471C49.6371 42.4605 48.8422 42.7568 48.0698 43.1331C46.5887 43.716 45.0223 43.9102 43.529 44.3221C38.7599 45.3771 33.8617 44.9533 29.2482 43.0865C28.2676 42.7022 27.3033 42.2535 26.3591 41.742C24.8285 40.8687 23.3514 39.8504 21.9402 38.6956C21.3246 38.1826 20.7516 37.5687 20.1726 37.0091Z" fill="url(#paint34_linear_95_207)" style="mix-blend-mode:difference"/>
<path d="M60.4489 35.9365C59.9303 35.9139 59.4245 36.1446 59.0348 36.5816C57.5997 37.8248 56.0578 38.8547 54.4391 39.6513C53.598 40.0632 52.7508 40.4673 51.9158 40.887C51.2027 41.2445 50.8979 40.7082 50.5261 40.2419C50.2537 39.9512 50.0441 39.5766 49.9172 39.1536C49.7902 38.7306 49.7502 38.2733 49.8008 37.825C49.9044 36.9934 49.2949 36.4883 49.0938 35.7811C49.142 35.7876 49.1907 35.7773 49.2347 35.7513C49.2787 35.7253 49.3164 35.6846 49.3437 35.6334C49.823 35.5265 50.2834 35.3106 50.7029 34.9962C52.1493 34.4011 53.5362 33.5926 54.8353 32.587C55.6521 32.416 56.2738 31.7166 56.9747 31.2425C58.3696 30.2605 59.7096 29.157 60.9853 27.9396C61.9849 27.0148 62.9113 25.9579 63.8743 24.9787C63.9276 24.923 63.9689 24.8511 63.9945 24.7695C64.02 24.688 64.029 24.5996 64.0206 24.5124L64.3924 24.2015C64.4682 24.2011 64.5422 24.1722 64.6051 24.1182C64.6681 24.0643 64.717 23.9878 64.7459 23.8985C65.68 22.9082 66.5447 21.816 67.3302 20.6344C67.4095 20.5178 67.4704 20.3935 67.6045 20.3857C68.8662 21.6447 70.073 22.9892 71.3835 24.1627C71.993 24.7378 71.993 24.7766 71.3835 25.4528C70.1644 26.9293 68.8662 28.2816 67.5618 29.6261C66.2575 30.9705 64.9592 32.1673 63.6244 33.3797C62.7938 34.0128 61.992 34.7056 61.223 35.4547C61.0072 35.708 60.7382 35.8755 60.4489 35.9365Z" fill="url(#paint35_linear_95_207)" style="mix-blend-mode:difference"/>
<path d="M29.3877 36.2331C28.9843 36.453 28.5453 36.5463 28.1077 36.5051C26.0425 36.7911 23.9534 36.4475 22.0127 35.5026C19.7189 34.2293 17.6266 32.4331 15.8383 30.2024C14.0403 28.0186 12.5104 25.5395 10.8038 23.2625C10.1369 22.2164 9.37128 21.2793 8.52425 20.4725C8.35128 20.2977 8.13531 20.2069 7.91474 20.216C7.4759 19.0037 7.04924 17.7835 6.58602 16.5867C6.43364 16.1904 6.50678 16.0505 6.81153 15.965C8.45026 15.3901 10.1848 15.436 11.8034 16.0971C12.7699 16.6066 13.6404 17.3722 14.3572 18.3431C16.1858 20.6046 17.3073 23.5034 18.6848 26.169C19.5299 27.973 20.6365 29.5555 21.9456 30.8319C23.0153 31.8046 24.2892 32.346 25.6027 32.3862C26.0781 32.3862 26.5596 32.3862 27.035 32.3474C27.035 32.495 27.035 32.6971 27.1264 32.767C27.9249 33.2178 27.7359 34.1814 27.7055 34.9197C27.675 35.658 27.7969 35.6969 28.2053 35.8057C28.4571 35.8583 28.7119 35.8842 28.9672 35.8834C29.1134 35.9456 29.345 35.8601 29.3877 36.2331Z" fill="url(#paint36_linear_95_207)" style="mix-blend-mode:difference"/>
<path d="M29.3881 36.2338C29.3454 35.8608 29.1138 35.9463 28.9248 35.9308C28.6696 35.9316 28.4148 35.9056 28.1629 35.853C27.7546 35.7442 27.6144 35.6121 27.6631 34.9671C27.7119 34.322 27.8826 33.2651 27.0841 32.8144C26.9683 32.7444 27.0049 32.5424 26.9927 32.3947C28.0471 31.9906 29.126 31.6875 30.1438 31.1668C31.9903 30.1632 33.7492 28.9155 35.3917 27.4443C36.3242 26.6671 37.2202 25.7889 38.1528 24.9729C39.323 23.9315 40.3714 22.6415 41.4685 21.4757C42.1816 20.6986 42.8887 19.9214 43.5957 19.1443C43.8962 19.7647 44.029 20.4935 43.9736 21.2193C43.9736 21.9576 44.3941 22.5482 44.5526 23.2554C44.6562 23.7139 45.1621 23.6518 45.5522 23.7217C45.7777 23.7606 46.0337 23.6051 46.2287 23.8771L45.1499 24.9418C44.6169 25.1981 44.1222 25.5687 43.6871 26.0376C43.0227 26.8148 42.206 27.2888 41.5051 28.0271C41.0114 28.54 40.347 28.9442 39.7923 29.4882C38.8964 30.3663 37.9638 31.2212 37.0313 32.0139C36.3242 32.589 35.6172 33.2185 34.898 33.7392C33.5629 34.6452 32.1575 35.3719 30.7046 35.9074C30.3023 35.752 29.8635 35.4178 29.6258 36.2105L29.3881 36.2338Z" fill="url(#paint37_linear_95_207)" style="mix-blend-mode:difference"/>
<path d="M73.5778 7.75055C73.7136 7.72547 73.848 7.68911 73.9801 7.64174C74.1202 7.58734 74.297 7.56402 74.2909 7.27647C74.2848 6.98893 74.1629 6.98117 74.041 6.89568C73.7928 6.72489 73.6031 6.44287 73.5085 6.10411C73.414 5.76535 73.4213 5.39392 73.529 5.06161C73.5548 5.01037 73.5888 4.96658 73.6287 4.93312C73.6686 4.89965 73.7135 4.87725 73.7606 4.86733C74.7907 4.70412 75.7537 4.09015 76.8082 4.2145C77.1617 4.25336 77.4177 4.48652 77.7651 4.52538C77.9662 4.52538 78.2588 4.71189 78.3441 4.25337C78.3621 4.24176 78.3819 4.2357 78.402 4.2357C78.4221 4.2357 78.442 4.24176 78.4599 4.25337C78.6733 4.98389 79.1548 4.64971 79.5388 4.68079H79.7826C79.9228 4.88285 80.0995 4.79736 80.2702 4.79736C80.3799 5.38022 80.5566 5.09269 80.7334 4.85955C81.6903 5.05383 81.7086 5.0616 81.477 6.2351C81.0866 8.06348 80.5151 9.82103 79.7765 11.4653C78.9242 13.4992 77.9905 15.4758 76.9788 17.3872C76.6436 18.0089 76.3023 18.6229 75.9549 19.2368C75.8269 19.4622 75.6806 19.6643 75.4124 19.5865C74.2623 19.3213 73.0947 19.199 71.926 19.2213C72.0479 19.0503 72.2673 19.2601 72.3648 18.9804C72.1454 19.1358 71.8102 18.7317 71.6578 19.2446L70.8289 19.2912C70.819 19.263 70.8049 19.2376 70.7872 19.2164C70.7696 19.1953 70.7488 19.1788 70.7261 19.1679C70.7034 19.1571 70.6793 19.1521 70.6551 19.1533C70.6309 19.1544 70.6071 19.1617 70.5851 19.1747C70.5857 19.1902 70.5857 19.2058 70.5851 19.2213L70.7375 19.299C70.2305 19.4774 69.7088 19.5791 69.1832 19.6021C69.1345 19.1514 68.915 19.1047 68.6164 19.198C68.1592 19.3379 67.8301 19.198 67.8545 18.4908C67.8557 18.4147 67.841 18.3396 67.8118 18.2732C67.2543 17.2126 66.7999 16.0696 66.4587 14.8693C66.4302 14.8022 66.3911 14.7434 66.3439 14.6966C66.2967 14.6498 66.2424 14.616 66.1844 14.5972C65.5445 14.3641 65.5749 13.7191 65.5749 13.0429C65.5749 12.3668 65.9955 12.3668 66.3124 12.2658C66.7706 12.1082 67.1806 11.7777 67.4888 11.3177C67.9641 10.8358 68.5215 10.5031 69.1162 10.3462C69.9361 9.91987 70.7876 9.59962 71.6578 9.39033C71.8315 9.65316 72.0664 9.83858 72.3283 9.91964C72.5903 10.0007 72.8657 9.97317 73.1145 9.84109C73.1145 10.2841 73.2121 10.8592 72.5782 10.354C72.5065 10.3029 72.4275 10.2707 72.3459 10.2595C72.2642 10.2483 72.1816 10.2582 72.1031 10.2887C72.0245 10.3192 71.9516 10.3696 71.8887 10.4369C71.8258 10.5042 71.7742 10.587 71.7371 10.6804C71.6609 10.9825 71.6325 11.3007 71.6535 11.6169C71.6744 11.933 71.7442 12.2407 71.859 12.5222C71.8831 12.5454 71.9107 12.5622 71.94 12.5716C71.9693 12.5809 71.9998 12.5826 72.0296 12.5766C72.9622 12.1259 73.2486 12.771 73.3462 13.8046C73.3639 13.8774 73.3978 13.9422 73.4437 13.9911C73.6449 14.3105 73.7391 14.7182 73.7058 15.1257C73.7058 15.6619 73.7058 16.1982 73.7058 16.7266C73.6708 16.9468 73.7039 17.1756 73.7982 17.3654C73.8924 17.5551 74.0406 17.691 74.2117 17.7447C74.5347 17.9079 75.065 17.9157 74.9796 18.7472C74.9796 18.9881 75.388 19.3301 75.6379 18.9881C76.0842 18.3582 76.4918 17.6852 76.8569 16.9753C77.2897 16.1593 77.6432 15.2734 78.0759 14.4418C78.271 14.0455 78.4112 13.5559 78.594 13.2372C79.0877 12.3746 79.3742 11.3798 79.8496 10.525C80.1257 9.89641 80.368 9.2447 80.5749 8.57433C80.9317 7.84692 81.1547 7.02592 81.2271 6.17293C81.2271 5.39578 81.1235 5.31806 80.5201 5.48904C79.9167 5.66001 79.5144 6.03305 78.978 6.22734C77.5354 6.654 76.1227 7.23103 74.7541 7.95262C74.5781 8.02264 74.4193 8.14965 74.2932 8.32127C74.1672 8.49289 74.0782 8.70324 74.0349 8.93181C73.9435 9.40587 73.7058 9.94211 73.1572 9.80999C73.3953 9.57353 73.5655 9.24357 73.6415 8.87124C73.7175 8.49891 73.6951 8.105 73.5778 7.75055Z" fill="url(#paint38_linear_95_207)" style="mix-blend-mode:difference"/>
<path d="M48.2648 13.9985H48.216H48.1733C47.9539 14.0917 47.7833 14.356 47.5212 14.3016C46.9793 12.9877 46.3074 11.768 45.522 10.6723C45.3057 10.4528 45.102 10.2138 44.9125 9.95729C44.9125 9.52208 44.6748 9.56094 44.4614 9.5454H44.431C44.3602 9.36558 44.3203 9.16858 44.314 8.96756C44.3077 8.76654 44.3351 8.56612 44.3944 8.37967C44.559 7.50149 43.8702 6.26582 43.2485 6.41348C42.4269 6.52195 41.6122 6.70372 40.8105 6.95747C40.4082 7.12844 40.201 6.95748 40.3656 6.35907C41.6095 4.81297 43.1273 3.67201 44.7906 3.03287C46.068 2.50966 47.4274 2.40015 48.7463 2.71423C48.5147 3.05618 48.4354 3.49139 48.1368 3.8178C48.1368 3.8178 48.1368 3.98877 48.1856 4.01209C49.0937 4.60272 48.7036 5.56639 48.4964 6.34354C48.3257 6.95749 48.5512 7.07406 48.8255 7.12069C49.6788 7.28389 50.1238 8.27863 50.9405 8.61281C50.2944 8.61281 50.3737 8.93144 50.587 9.38996L50.782 9.77078C50.9466 10.0816 51.2331 10.3847 51.2514 10.7033C51.2697 11.022 50.8247 11.1386 50.5992 11.3484C50.1421 11.7914 49.8373 12.4675 49.3253 12.7706C48.8708 13.0107 48.4959 13.4447 48.2648 13.9985ZM47.1494 2.86189C47.308 2.9694 47.4848 3.02561 47.6644 3.02561C47.844 3.02561 48.0209 2.9694 48.1794 2.86189C48.0168 2.77229 47.8416 2.72607 47.6644 2.72607C47.4873 2.72607 47.312 2.77229 47.1494 2.86189Z" fill="url(#paint39_linear_95_207)" style="mix-blend-mode:difference"/>
<path d="M54.689 40.1892C54.7514 40.0424 54.8384 39.9148 54.9437 39.8154C55.049 39.716 55.1701 39.6473 55.2985 39.6141C56.8036 38.8081 58.2514 37.8383 59.626 36.7153C59.8942 36.5055 60.1745 36.319 60.4488 36.1169C60.5045 37.3828 60.3932 38.6516 60.1197 39.8706C59.6893 42.8798 58.7582 45.7365 57.3891 48.2483C56.8465 49.1984 56.2343 50.0806 55.5606 50.8828C55.1222 51.3328 54.6554 51.7357 54.1648 52.0874C54.2605 51.5223 54.3993 50.9705 54.5793 50.4398C54.7316 50.0823 54.7743 49.8647 54.5366 49.5927C54.4935 49.5405 54.4589 49.4779 54.4348 49.4085C54.4108 49.3392 54.3977 49.2644 54.3964 49.1886C54.3115 47.3183 54.5016 45.4442 54.9571 43.6631C55.319 42.6741 55.4943 41.5909 55.4691 40.5001C55.6215 40.3213 55.6459 40.1193 55.4691 39.8084V40.5001L54.689 40.1892Z" fill="url(#paint40_linear_95_207)" style="mix-blend-mode:difference"/>
<path d="M55.4569 40.4985C55.4821 41.5893 55.3067 42.6725 54.9449 43.6615C54.4894 45.4427 54.2992 47.3168 54.3841 49.1871C54.3854 49.2629 54.3985 49.3376 54.4226 49.407C54.4466 49.4763 54.4812 49.5389 54.5243 49.5912C54.762 49.8632 54.7194 50.0808 54.567 50.4383C54.387 50.9689 54.2482 51.5207 54.1525 52.0858C54.14 52.1711 54.1113 52.2512 54.0687 52.319C54.0262 52.3868 53.9712 52.4401 53.9087 52.4744C52.2003 53.7841 50.2808 54.5814 48.2951 54.8059C48.2951 54.394 47.9051 53.8655 48.3744 53.6091C49.4043 52.9255 50.3558 52.0652 51.2025 51.0522C51.5133 50.7414 52.4215 50.3295 51.6718 49.3503C51.5621 49.2104 51.6718 48.9151 51.6718 48.6975C51.7084 47.6405 51.6718 46.5836 51.6718 45.5422C51.6718 44.7651 51.5072 43.9102 51.5316 43.0942C51.556 42.2782 51.4097 41.9829 50.7819 42.1538C52.0544 41.3707 53.3704 40.7083 54.7194 40.1721L55.4569 40.483V40.4985Z" fill="url(#paint41_linear_95_207)" style="mix-blend-mode:difference"/>
<path d="M48.2651 13.9995C48.495 13.4112 48.885 12.9499 49.3622 12.7016C49.8742 12.3985 50.179 11.7224 50.6361 11.2794C50.8616 11.0696 51.3127 11.0463 51.2883 10.6344C51.2639 10.2225 50.9835 10.0127 50.819 9.70181L50.6239 9.32099C50.4106 8.88578 50.3313 8.54384 50.9774 8.54384C50.1607 8.20966 49.7157 7.21492 48.8624 7.05172C48.5881 7.00509 48.3626 6.88852 48.5333 6.27457C48.7405 5.49742 49.1428 4.55707 48.2224 3.94312C48.1859 3.94312 48.1554 3.77214 48.1737 3.74883C48.448 3.45351 48.5272 2.97167 48.7832 2.64526C49.3622 2.87841 49.9474 3.0727 50.5142 3.35247C52.3208 4.31067 53.9231 5.80229 55.1891 7.70452C55.3171 7.89104 55.4573 8.06978 55.5914 8.25629C55.1072 8.67554 54.6023 9.05453 54.0798 9.39093C52.9222 10.0784 51.8111 10.8868 50.758 11.8079C49.8925 12.5462 49.0758 13.2689 48.2651 13.9995ZM51.4833 9.26658C51.4802 9.28449 51.4802 9.30308 51.4833 9.32099L51.4407 9.25883C51.4407 9.15003 51.4407 9.0179 51.2944 9.03345C51.2851 9.03504 51.2765 9.04046 51.2699 9.04889C51.2633 9.05731 51.259 9.06827 51.2578 9.08007C51.2944 9.25105 51.398 9.25104 51.4833 9.26658Z" fill="url(#paint42_linear_95_207)" style="mix-blend-mode:difference"/>
<path d="M50.752 42.1694C51.3615 41.9985 51.52 42.3792 51.5017 43.1098C51.4835 43.8403 51.6419 44.7806 51.6419 45.5578C51.6419 46.5992 51.6968 47.6561 51.6419 48.713C51.6419 48.9306 51.5139 49.2259 51.6419 49.3658C52.4038 50.345 51.4835 50.7569 51.1726 51.0678C50.3259 52.0808 49.3744 52.9411 48.3445 53.6246C47.8752 53.8811 48.2409 54.4018 48.2653 54.8214C47.3022 55.0259 46.3212 55.0547 45.3518 54.9069C45.8516 54.3862 46.3392 54.0287 46.7659 53.5547C48.0537 51.9685 49.002 49.9889 49.5208 47.8038C50.0149 46.0098 50.3263 44.1423 50.4473 42.2471L50.752 42.1694Z" fill="url(#paint43_linear_95_207)" style="mix-blend-mode:difference"/>
<path d="M40.3717 6.35132C40.2193 6.91864 40.4143 7.12848 40.8166 6.94974C41.6183 6.69599 42.433 6.5142 43.2546 6.40572C43.8642 6.25807 44.5651 7.49374 44.4005 8.37192C44.3412 8.55836 44.3138 8.75878 44.3201 8.95981C44.3265 9.16083 44.3663 9.35783 44.4371 9.53764C43.7117 8.89542 42.8965 8.4364 42.0356 8.18541C41.0399 7.94442 40.0186 7.92864 39.0186 8.13878C39.3232 7.38746 39.7936 6.76613 40.3717 6.35132Z" fill="url(#paint44_linear_95_207)" style="mix-blend-mode:difference"/>
<path d="M79.5579 4.68893C79.1736 4.68893 78.6918 4.99203 78.4783 4.26151C78.8991 4.15271 79.2285 4.52573 79.5579 4.68893Z" fill="url(#paint45_linear_95_207)" style="mix-blend-mode:difference"/>
<path d="M47.5337 14.3082C47.796 14.3626 47.9668 14.0984 48.1863 14.0051C48.1623 14.1837 48.086 14.3441 47.9728 14.4537C47.8596 14.5633 47.7179 14.6141 47.5764 14.5958L47.5337 14.3082Z" fill="url(#paint46_linear_95_207)" style="mix-blend-mode:difference"/>
<path d="M71.6699 19.2755C71.8224 18.7626 72.1579 19.1667 72.3775 19.0113C72.2799 19.2911 72.0603 19.0812 71.9383 19.2522L71.6699 19.2755Z" fill="url(#paint47_linear_95_207)" style="mix-blend-mode:difference"/>
<path d="M80.7455 4.92911C80.5686 5.16225 80.3918 5.44981 80.282 4.86694L80.7455 4.92911Z" fill="url(#paint48_linear_95_207)" style="mix-blend-mode:difference"/>
<path d="M44.4856 9.59106C44.6994 9.59106 44.9498 9.59106 44.9376 10.003C44.7594 9.92267 44.6027 9.77987 44.4856 9.59106Z" fill="url(#paint49_linear_95_207)" style="mix-blend-mode:difference"/>
<path d="M80.289 4.83529C80.1182 4.83529 79.9413 4.92078 79.801 4.71872C79.9779 4.67209 80.1487 4.62546 80.289 4.83529Z" fill="url(#paint50_linear_95_207)" style="mix-blend-mode:difference"/>
<path d="M70.7251 19.3305L70.573 19.2528C70.5736 19.2372 70.5736 19.2217 70.573 19.2061C70.5949 19.1932 70.6187 19.1859 70.6429 19.1847C70.667 19.1836 70.6911 19.1886 70.7138 19.1994C70.7364 19.2103 70.7572 19.2267 70.7748 19.2479C70.7924 19.2691 70.8065 19.2945 70.8164 19.3227H70.7555L70.7251 19.3305Z" fill="url(#paint51_linear_95_207)" style="mix-blend-mode:difference"/>
<path d="M30.7047 35.9302C32.1577 35.3947 33.563 34.668 34.8981 33.762C35.6173 33.2413 36.3244 32.6118 37.0314 32.0367C37.9883 31.2595 38.8965 30.3891 39.7925 29.5109C40.3471 28.9669 41.0115 28.5628 41.5052 28.0499C42.2061 27.3116 43.0229 26.8142 43.6872 26.0604C44.1223 25.5915 44.617 25.2209 45.1501 24.9646C45.5809 25.8567 46.1465 26.6307 46.814 27.2416C47.2252 27.8722 47.6691 28.4667 48.1427 29.0213C48.2062 29.1194 48.2387 29.2441 48.2342 29.3711C48.2202 29.9805 48.3271 30.5846 48.545 31.1274C48.6486 31.4227 48.6547 31.8113 48.2951 31.7647C47.9355 31.718 47.8502 31.8735 47.905 32.1921C47.9599 32.5107 47.905 33.0314 48.2951 32.9692C48.6852 32.9071 48.7096 33.1169 48.7218 33.4589C48.734 33.8008 48.7766 33.9951 48.9107 34.0728C49.5202 34.4303 49.4837 34.9976 49.3252 35.6271C49.2979 35.6782 49.2603 35.719 49.2163 35.745C49.1722 35.771 49.1235 35.7813 49.0753 35.7748C46.4518 36.8306 43.7736 37.6512 41.0603 38.2306C37.8645 38.8527 34.6307 39.0998 31.3996 38.9689C31.5946 38.4792 31.7165 38.0518 31.0765 37.9819C30.8083 37.9819 30.7779 37.6166 30.8022 37.3291C30.8431 37.0985 30.8309 36.8578 30.7671 36.6359C30.7033 36.4139 30.5907 36.2201 30.4426 36.0778C30.4704 36.0235 30.5099 35.9805 30.5564 35.9543C30.603 35.9281 30.6545 35.9197 30.7047 35.9302Z" fill="url(#paint52_linear_95_207)" style="mix-blend-mode:difference"/>
<path d="M64.7461 23.8999C64.7172 23.9893 64.6681 24.0658 64.6052 24.1197C64.5422 24.1736 64.4682 24.2026 64.3923 24.203C64.1544 24.1641 64.069 23.9232 64.1971 23.7445C64.3252 23.5657 64.557 23.8533 64.7461 23.8999Z" fill="url(#paint53_linear_95_207)" style="mix-blend-mode:difference"/>
<path d="M49.35 35.7424C49.5341 35.077 49.5553 34.4918 48.8684 34.1391C48.7127 34.0589 48.6489 33.7543 48.6489 33.5058C48.6489 33.2573 48.5781 32.9527 48.1532 33.0008C47.7283 33.0489 47.7567 32.4957 47.7 32.1991C47.6434 31.9025 47.785 31.7101 48.1532 31.7582C48.5214 31.8063 48.5639 31.4055 48.4436 31.1009C48.1904 30.541 48.0661 29.9179 48.0824 29.2892C48.0802 29.2197 48.066 29.1513 48.0405 29.088C48.015 29.0248 47.9787 28.9678 47.9337 28.9204C47.3768 28.3569 46.854 27.7516 46.3687 27.1087C45.5932 26.4786 44.936 25.6802 44.4355 24.7599L45.6889 23.6617C46.1224 23.6022 46.5273 23.3857 46.8432 23.0445C47.4074 22.5048 48.0526 22.0839 48.748 21.8019C49.4562 21.4813 50.0085 20.8239 50.7875 20.5433C51.439 20.3109 51.4956 20.6556 51.4956 21.1125C51.5169 21.5049 51.5169 21.8985 51.4956 22.2909C51.4688 22.4965 51.487 22.7064 51.5488 22.9022C51.6105 23.0979 51.7139 23.2734 51.8497 23.4132C52.2462 23.79 52.0338 24.3511 52.0409 24.8241C52.0479 25.2971 52.14 25.8662 52.749 25.8662C52.8977 25.8662 53.0748 25.9544 53.0748 26.0987C53.0323 26.9564 53.705 27.5978 53.5634 28.5036C53.518 28.7898 53.5328 29.0841 53.6067 29.3627C53.6805 29.6412 53.8112 29.8962 53.9882 30.1069C54.2512 30.5959 54.4201 31.1422 54.4839 31.7101C54.6326 32.2232 54.7389 32.616 55.3195 32.3675C55.5178 32.2793 55.617 32.4316 55.6382 32.648C54.1288 33.6853 52.5175 34.5194 50.8371 35.1331C50.3751 35.4294 49.8724 35.6353 49.35 35.7424Z" fill="url(#paint54_linear_95_207)" style="mix-blend-mode:difference"/>
<path d="M52.2029 19.624C52.2029 19.7406 52.2029 19.8727 52.0562 19.8572C52.0476 19.8538 52.0397 19.8478 52.0333 19.8397C52.0269 19.8315 52.0222 19.8215 52.0195 19.8105C52.0195 19.6396 52.1173 19.6473 52.2029 19.624Z" fill="url(#paint55_linear_95_207)" style="mix-blend-mode:difference"/>
<path d="M73.133 9.87163H73.1757C73.7243 10.0038 73.962 9.46754 74.0534 8.99347C74.0967 8.76491 74.1857 8.55453 74.3117 8.38291C74.4378 8.21129 74.5966 8.08428 74.7726 8.01426C76.1412 7.29267 77.5539 6.71564 78.9965 6.28898C79.5329 6.09469 79.9961 5.70611 80.5386 5.55068C81.081 5.39525 81.27 5.46519 81.2456 6.23457C81.1732 7.08756 80.9502 7.90856 80.5934 8.63597C80.3865 9.30634 80.1442 9.95805 79.8681 10.5866C79.3927 11.4415 79.1062 12.4362 78.6125 13.2989C78.4297 13.6175 78.2895 14.076 78.0944 14.5035C77.6739 15.335 77.3204 16.221 76.8754 17.037C76.5103 17.7469 76.1027 18.4198 75.6564 19.0498C75.4065 19.3918 74.9738 19.0498 74.9981 18.8089C75.0835 17.9773 74.5532 17.9696 74.2301 17.8064C74.0591 17.7527 73.9109 17.6167 73.8167 17.427C73.7224 17.2373 73.6893 17.0084 73.7243 16.7883C73.7547 16.2598 73.7243 15.7236 73.7243 15.1874C73.7576 14.7799 73.6634 14.3721 73.4622 14.0527C73.4163 14.0038 73.3824 13.939 73.3647 13.8662C73.2793 12.8326 72.9807 12.1876 72.0481 12.6383C72.0183 12.6443 71.9878 12.6425 71.9585 12.6332C71.9291 12.6238 71.9016 12.6071 71.8775 12.5839C71.7627 12.3024 71.6929 11.9947 71.672 11.6785C71.651 11.3624 71.6794 11.0441 71.7555 10.7421C71.7927 10.6487 71.8443 10.5659 71.9072 10.4986C71.9701 10.4313 72.043 10.3808 72.1216 10.3504C72.2001 10.3199 72.2827 10.3099 72.3643 10.3212C72.446 10.3324 72.525 10.3645 72.5967 10.4157C73.2123 10.8897 73.0965 10.3146 73.133 9.87163Z" fill="url(#paint56_linear_95_207)" style="mix-blend-mode:difference"/>
<path d="M47.1494 2.86166C47.3121 2.77205 47.4875 2.72583 47.6648 2.72583C47.8421 2.72583 48.0175 2.77205 48.1802 2.86166C48.0215 2.96916 47.8446 3.02537 47.6648 3.02537C47.4851 3.02537 47.3081 2.96916 47.1494 2.86166Z" fill="url(#paint57_linear_95_207)" style="mix-blend-mode:difference"/>
<path d="M55.457 40.5V39.8083C55.6337 40.1192 55.6094 40.3213 55.457 40.5Z" fill="url(#paint58_linear_95_207)" style="mix-blend-mode:difference"/>
<path d="M51.4839 9.26466C51.3983 9.26466 51.2944 9.26468 51.3066 9.08593C51.3079 9.07413 51.3122 9.06317 51.3188 9.05475C51.3254 9.04632 51.334 9.0409 51.3433 9.03931C51.4716 9.03931 51.4716 9.15586 51.49 9.26466H51.4839Z" fill="url(#paint59_linear_95_207)" style="mix-blend-mode:difference"/>
<path d="M51.489 9.26636L51.5297 9.32854C51.5267 9.31063 51.5267 9.29205 51.5297 9.27414L51.489 9.26636Z" fill="url(#paint60_linear_95_207)" style="mix-blend-mode:difference"/>
</g>
<defs>
<linearGradient id="paint0_linear_95_207" x1="13.4583" y1="17.7063" x2="41.0624" y2="28.3754" gradientUnits="userSpaceOnUse">
<stop stop-color="#8B66F7"/>
<stop offset="0.109375" stop-color="#8862D9" stop-opacity="0.96"/>
<stop offset="0.239583" stop-color="#F05EB6"/>
<stop offset="0.411458" stop-color="#2C1AF2" stop-opacity="0.93"/>
<stop offset="0.625" stop-color="#4148E9"/>
<stop offset="1" stop-color="#4ACCF4"/>
</linearGradient>
<linearGradient id="paint1_linear_95_207" x1="59.3803" y1="1.1914" x2="82.5091" y2="16.8455" gradientUnits="userSpaceOnUse">
<stop stop-color="#8B66F7"/>
<stop offset="0.109375" stop-color="#8862D9" stop-opacity="0.96"/>
<stop offset="0.239583" stop-color="#F05EB6"/>
<stop offset="0.411458" stop-color="#2C1AF2" stop-opacity="0.93"/>
<stop offset="0.625" stop-color="#4148E9"/>
<stop offset="1" stop-color="#4ACCF4"/>
</linearGradient>
<linearGradient id="paint2_linear_95_207" x1="48.7679" y1="5.76294" x2="69.7108" y2="14.6538" gradientUnits="userSpaceOnUse">
<stop stop-color="#8B66F7"/>
<stop offset="0.109375" stop-color="#8862D9" stop-opacity="0.96"/>
<stop offset="0.239583" stop-color="#F05EB6"/>
<stop offset="0.411458" stop-color="#2C1AF2" stop-opacity="0.93"/>
<stop offset="0.625" stop-color="#4148E9"/>
<stop offset="1" stop-color="#4ACCF4"/>
</linearGradient>
<linearGradient id="paint3_linear_95_207" x1="35.2351" y1="33.2422" x2="43.37" y2="51.4384" gradientUnits="userSpaceOnUse">
<stop stop-color="#8B66F7"/>
<stop offset="0.109375" stop-color="#8862D9" stop-opacity="0.96"/>
<stop offset="0.239583" stop-color="#F05EB6"/>
<stop offset="0.411458" stop-color="#2C1AF2" stop-opacity="0.93"/>
<stop offset="0.625" stop-color="#4148E9"/>
<stop offset="1" stop-color="#4ACCF4"/>
</linearGradient>
<linearGradient id="paint4_linear_95_207" x1="55.3917" y1="17.8467" x2="76.4242" y2="29.5826" gradientUnits="userSpaceOnUse">
<stop stop-color="#8B66F7"/>
<stop offset="0.109375" stop-color="#8862D9" stop-opacity="0.96"/>
<stop offset="0.239583" stop-color="#F05EB6"/>
<stop offset="0.411458" stop-color="#2C1AF2" stop-opacity="0.93"/>
<stop offset="0.625" stop-color="#4148E9"/>
<stop offset="1" stop-color="#4ACCF4"/>
</linearGradient>
<linearGradient id="paint5_linear_95_207" x1="12.8739" y1="13.0261" x2="34.1717" y2="24.7404" gradientUnits="userSpaceOnUse">
<stop stop-color="#8B66F7"/>
<stop offset="0.109375" stop-color="#8862D9" stop-opacity="0.96"/>
<stop offset="0.239583" stop-color="#F05EB6"/>
<stop offset="0.411458" stop-color="#2C1AF2" stop-opacity="0.93"/>
<stop offset="0.625" stop-color="#4148E9"/>
<stop offset="1" stop-color="#4ACCF4"/>
</linearGradient>
<linearGradient id="paint6_linear_95_207" x1="31.5355" y1="16.6052" x2="49.1507" y2="26.6334" gradientUnits="userSpaceOnUse">
<stop stop-color="#8B66F7"/>
<stop offset="0.109375" stop-color="#8862D9" stop-opacity="0.96"/>
<stop offset="0.239583" stop-color="#F05EB6"/>
<stop offset="0.411458" stop-color="#2C1AF2" stop-opacity="0.93"/>
<stop offset="0.625" stop-color="#4148E9"/>
<stop offset="1" stop-color="#4ACCF4"/>
</linearGradient>
<linearGradient id="paint7_linear_95_207" x1="68.5117" y1="1.65893" x2="83.7303" y2="9.66565" gradientUnits="userSpaceOnUse">
<stop stop-color="#8B66F7"/>
<stop offset="0.109375" stop-color="#8862D9" stop-opacity="0.96"/>
<stop offset="0.239583" stop-color="#F05EB6"/>
<stop offset="0.411458" stop-color="#2C1AF2" stop-opacity="0.93"/>
<stop offset="0.625" stop-color="#4148E9"/>
<stop offset="1" stop-color="#4ACCF4"/>
</linearGradient>
<linearGradient id="paint8_linear_95_207" x1="40.7052" y1="-9.83863e-07" x2="51.5712" y2="5.10962" gradientUnits="userSpaceOnUse">
<stop stop-color="#8B66F7"/>
<stop offset="0.109375" stop-color="#8862D9" stop-opacity="0.96"/>
<stop offset="0.239583" stop-color="#F05EB6"/>
<stop offset="0.411458" stop-color="#2C1AF2" stop-opacity="0.93"/>
<stop offset="0.625" stop-color="#4148E9"/>
<stop offset="1" stop-color="#4ACCF4"/>
</linearGradient>
<linearGradient id="paint9_linear_95_207" x1="52.2386" y1="33.5779" x2="59.5828" y2="35.0427" gradientUnits="userSpaceOnUse">
<stop stop-color="#8B66F7"/>
<stop offset="0.109375" stop-color="#8862D9" stop-opacity="0.96"/>
<stop offset="0.239583" stop-color="#F05EB6"/>
<stop offset="0.411458" stop-color="#2C1AF2" stop-opacity="0.93"/>
<stop offset="0.625" stop-color="#4148E9"/>
<stop offset="1" stop-color="#4ACCF4"/>
</linearGradient>
<linearGradient id="paint10_linear_95_207" x1="46.726" y1="37.6331" x2="55.0639" y2="39.7414" gradientUnits="userSpaceOnUse">
<stop stop-color="#8B66F7"/>
<stop offset="0.109375" stop-color="#8862D9" stop-opacity="0.96"/>
<stop offset="0.239583" stop-color="#F05EB6"/>
<stop offset="0.411458" stop-color="#2C1AF2" stop-opacity="0.93"/>
<stop offset="0.625" stop-color="#4148E9"/>
<stop offset="1" stop-color="#4ACCF4"/>
</linearGradient>
<linearGradient id="paint11_linear_95_207" x1="46.2521" y1="0.507812" x2="54.3658" y2="3.19069" gradientUnits="userSpaceOnUse">
<stop stop-color="#8B66F7"/>
<stop offset="0.109375" stop-color="#8862D9" stop-opacity="0.96"/>
<stop offset="0.239583" stop-color="#F05EB6"/>
<stop offset="0.411458" stop-color="#2C1AF2" stop-opacity="0.93"/>
<stop offset="0.625" stop-color="#4148E9"/>
<stop offset="1" stop-color="#4ACCF4"/>
</linearGradient>
<linearGradient id="paint12_linear_95_207" x1="43.5685" y1="39.5898" x2="51.0516" y2="41.5261" gradientUnits="userSpaceOnUse">
<stop stop-color="#8B66F7"/>
<stop offset="0.109375" stop-color="#8862D9" stop-opacity="0.96"/>
<stop offset="0.239583" stop-color="#F05EB6"/>
<stop offset="0.411458" stop-color="#2C1AF2" stop-opacity="0.93"/>
<stop offset="0.625" stop-color="#4148E9"/>
<stop offset="1" stop-color="#4ACCF4"/>
</linearGradient>
<linearGradient id="paint13_linear_95_207" x1="36.6526" y1="3.81226" x2="40.4291" y2="7.06034" gradientUnits="userSpaceOnUse">
<stop stop-color="#8B66F7"/>
<stop offset="0.109375" stop-color="#8862D9" stop-opacity="0.96"/>
<stop offset="0.239583" stop-color="#F05EB6"/>
<stop offset="0.411458" stop-color="#2C1AF2" stop-opacity="0.93"/>
<stop offset="0.625" stop-color="#4148E9"/>
<stop offset="1" stop-color="#4ACCF4"/>
</linearGradient>
<linearGradient id="paint14_linear_95_207" x1="73.9424" y1="1.70288" x2="74.5515" y2="2.35584" gradientUnits="userSpaceOnUse">
<stop stop-color="#8B66F7"/>
<stop offset="0.109375" stop-color="#8862D9" stop-opacity="0.96"/>
<stop offset="0.239583" stop-color="#F05EB6"/>
<stop offset="0.411458" stop-color="#2C1AF2" stop-opacity="0.93"/>
<stop offset="0.625" stop-color="#4148E9"/>
<stop offset="1" stop-color="#4ACCF4"/>
</linearGradient>
<linearGradient id="paint15_linear_95_207" x1="42.7843" y1="11.4661" x2="43.3891" y2="11.802" gradientUnits="userSpaceOnUse">
<stop stop-color="#8B66F7"/>
<stop offset="0.109375" stop-color="#8862D9" stop-opacity="0.96"/>
<stop offset="0.239583" stop-color="#F05EB6"/>
<stop offset="0.411458" stop-color="#2C1AF2" stop-opacity="0.93"/>
<stop offset="0.625" stop-color="#4148E9"/>
<stop offset="1" stop-color="#4ACCF4"/>
</linearGradient>
<linearGradient id="paint16_linear_95_207" x1="66.9483" y1="16.4661" x2="67.2601" y2="16.8787" gradientUnits="userSpaceOnUse">
<stop stop-color="#8B66F7"/>
<stop offset="0.109375" stop-color="#8862D9" stop-opacity="0.96"/>
<stop offset="0.239583" stop-color="#F05EB6"/>
<stop offset="0.411458" stop-color="#2C1AF2" stop-opacity="0.93"/>
<stop offset="0.625" stop-color="#4148E9"/>
<stop offset="1" stop-color="#4ACCF4"/>
</linearGradient>
<linearGradient id="paint17_linear_95_207" x1="75.4388" y1="2.32788" x2="75.8216" y2="2.58983" gradientUnits="userSpaceOnUse">
<stop stop-color="#8B66F7"/>
<stop offset="0.109375" stop-color="#8862D9" stop-opacity="0.96"/>
<stop offset="0.239583" stop-color="#F05EB6"/>
<stop offset="0.411458" stop-color="#2C1AF2" stop-opacity="0.93"/>
<stop offset="0.625" stop-color="#4148E9"/>
<stop offset="1" stop-color="#4ACCF4"/>
</linearGradient>
<linearGradient id="paint18_linear_95_207" x1="39.6366" y1="7.052" x2="40.0558" y2="7.2849" gradientUnits="userSpaceOnUse">
<stop stop-color="#8B66F7"/>
<stop offset="0.109375" stop-color="#8862D9" stop-opacity="0.96"/>
<stop offset="0.239583" stop-color="#F05EB6"/>
<stop offset="0.411458" stop-color="#2C1AF2" stop-opacity="0.93"/>
<stop offset="0.625" stop-color="#4148E9"/>
<stop offset="1" stop-color="#4ACCF4"/>
</linearGradient>
<linearGradient id="paint19_linear_95_207" x1="74.9693" y1="2.13989" x2="75.1662" y2="2.41869" gradientUnits="userSpaceOnUse">
<stop stop-color="#8B66F7"/>
<stop offset="0.109375" stop-color="#8862D9" stop-opacity="0.96"/>
<stop offset="0.239583" stop-color="#F05EB6"/>
<stop offset="0.411458" stop-color="#2C1AF2" stop-opacity="0.93"/>
<stop offset="0.625" stop-color="#4148E9"/>
<stop offset="1" stop-color="#4ACCF4"/>
</linearGradient>
<linearGradient id="paint20_linear_95_207" x1="65.6195" y1="16.6455" x2="65.7919" y2="16.7909" gradientUnits="userSpaceOnUse">
<stop stop-color="#8B66F7"/>
<stop offset="0.109375" stop-color="#8862D9" stop-opacity="0.96"/>
<stop offset="0.239583" stop-color="#F05EB6"/>
<stop offset="0.411458" stop-color="#2C1AF2" stop-opacity="0.93"/>
<stop offset="0.625" stop-color="#4148E9"/>
<stop offset="1" stop-color="#4ACCF4"/>
</linearGradient>
<linearGradient id="paint21_linear_95_207" x1="34.8584" y1="22.4255" x2="50.5402" y2="33.1499" gradientUnits="userSpaceOnUse">
<stop stop-color="#8B66F7"/>
<stop offset="0.109375" stop-color="#8862D9" stop-opacity="0.96"/>
<stop offset="0.239583" stop-color="#F05EB6"/>
<stop offset="0.411458" stop-color="#2C1AF2" stop-opacity="0.93"/>
<stop offset="0.625" stop-color="#4148E9"/>
<stop offset="1" stop-color="#4ACCF4"/>
</linearGradient>
<linearGradient id="paint22_linear_95_207" x1="67.5069" y1="4.27124" x2="69.899" y2="5.1242" gradientUnits="userSpaceOnUse">
<stop stop-color="#8B66F7"/>
<stop offset="0.109375" stop-color="#8862D9" stop-opacity="0.96"/>
<stop offset="0.239583" stop-color="#F05EB6"/>
<stop offset="0.411458" stop-color="#2C1AF2" stop-opacity="0.93"/>
<stop offset="0.625" stop-color="#4148E9"/>
<stop offset="1" stop-color="#4ACCF4"/>
</linearGradient>
<linearGradient id="paint23_linear_95_207" x1="59.3672" y1="21.1475" x2="59.9116" y2="21.4718" gradientUnits="userSpaceOnUse">
<stop stop-color="#8B66F7"/>
<stop offset="0.109375" stop-color="#8862D9" stop-opacity="0.96"/>
<stop offset="0.239583" stop-color="#F05EB6"/>
<stop offset="0.411458" stop-color="#2C1AF2" stop-opacity="0.93"/>
<stop offset="0.625" stop-color="#4148E9"/>
<stop offset="1" stop-color="#4ACCF4"/>
</linearGradient>
<linearGradient id="paint24_linear_95_207" x1="44.9622" y1="17.9297" x2="56.9025" y2="22.3591" gradientUnits="userSpaceOnUse">
<stop stop-color="#8B66F7"/>
<stop offset="0.109375" stop-color="#8862D9" stop-opacity="0.96"/>
<stop offset="0.239583" stop-color="#F05EB6"/>
<stop offset="0.411458" stop-color="#2C1AF2" stop-opacity="0.93"/>
<stop offset="0.625" stop-color="#4148E9"/>
<stop offset="1" stop-color="#4ACCF4"/>
</linearGradient>
<linearGradient id="paint25_linear_95_207" x1="47.0355" y1="17.085" x2="47.2277" y2="17.161" gradientUnits="userSpaceOnUse">
<stop stop-color="#8B66F7"/>
<stop offset="0.109375" stop-color="#8862D9" stop-opacity="0.96"/>
<stop offset="0.239583" stop-color="#F05EB6"/>
<stop offset="0.411458" stop-color="#2C1AF2" stop-opacity="0.93"/>
<stop offset="0.625" stop-color="#4148E9"/>
<stop offset="1" stop-color="#4ACCF4"/>
</linearGradient>
<linearGradient id="paint26_linear_95_207" x1="71.381" y1="2.94433" x2="81.7094" y2="6.59518" gradientUnits="userSpaceOnUse">
<stop stop-color="#8B66F7"/>
<stop offset="0.109375" stop-color="#8862D9" stop-opacity="0.96"/>
<stop offset="0.239583" stop-color="#F05EB6"/>
<stop offset="0.411458" stop-color="#2C1AF2" stop-opacity="0.93"/>
<stop offset="0.625" stop-color="#4148E9"/>
<stop offset="1" stop-color="#4ACCF4"/>
</linearGradient>
<linearGradient id="paint27_linear_95_207" x1="42.5896" y1="0.186768" x2="42.8998" y2="0.726668" gradientUnits="userSpaceOnUse">
<stop stop-color="#8B66F7"/>
<stop offset="0.109375" stop-color="#8862D9" stop-opacity="0.96"/>
<stop offset="0.239583" stop-color="#F05EB6"/>
<stop offset="0.411458" stop-color="#2C1AF2" stop-opacity="0.93"/>
<stop offset="0.625" stop-color="#4148E9"/>
<stop offset="1" stop-color="#4ACCF4"/>
</linearGradient>
<linearGradient id="paint28_linear_95_207" x1="50.4436" y1="37.2693" x2="50.5922" y2="37.2827" gradientUnits="userSpaceOnUse">
<stop stop-color="#8B66F7"/>
<stop offset="0.109375" stop-color="#8862D9" stop-opacity="0.96"/>
<stop offset="0.239583" stop-color="#F05EB6"/>
<stop offset="0.411458" stop-color="#2C1AF2" stop-opacity="0.93"/>
<stop offset="0.625" stop-color="#4148E9"/>
<stop offset="1" stop-color="#4ACCF4"/>
</linearGradient>
<linearGradient id="paint29_linear_95_207" x1="46.3221" y1="6.50024" x2="46.513" y2="6.57917" gradientUnits="userSpaceOnUse">
<stop stop-color="#8B66F7"/>
<stop offset="0.109375" stop-color="#8862D9" stop-opacity="0.96"/>
<stop offset="0.239583" stop-color="#F05EB6"/>
<stop offset="0.411458" stop-color="#2C1AF2" stop-opacity="0.93"/>
<stop offset="0.625" stop-color="#4148E9"/>
<stop offset="1" stop-color="#4ACCF4"/>
</linearGradient>
<linearGradient id="paint30_linear_95_207" x1="46.4341" y1="6.72729" x2="46.4786" y2="6.74198" gradientUnits="userSpaceOnUse">
<stop stop-color="#8B66F7"/>
<stop offset="0.109375" stop-color="#8862D9" stop-opacity="0.96"/>
<stop offset="0.239583" stop-color="#F05EB6"/>
<stop offset="0.411458" stop-color="#2C1AF2" stop-opacity="0.93"/>
<stop offset="0.625" stop-color="#4148E9"/>
<stop offset="1" stop-color="#4ACCF4"/>
</linearGradient>
<linearGradient id="paint31_linear_95_207" x1="18.5335" y1="20.2454" x2="18.5335" y2="54.486" gradientUnits="userSpaceOnUse">
<stop stop-color="#79B2E7"/>
<stop offset="1" stop-color="#F300F8" stop-opacity="0.05"/>
</linearGradient>
<linearGradient id="paint32_linear_95_207" x1="64.4553" y1="3.73047" x2="64.4553" y2="24.5141" gradientUnits="userSpaceOnUse">
<stop stop-color="#79B2E7"/>
<stop offset="1" stop-color="#F300F8" stop-opacity="0.05"/>
</linearGradient>
<linearGradient id="paint33_linear_95_207" x1="53.8436" y1="8.302" x2="53.8436" y2="32.588" gradientUnits="userSpaceOnUse">
<stop stop-color="#79B2E7"/>
<stop offset="1" stop-color="#F300F8" stop-opacity="0.05"/>
</linearGradient>
<linearGradient id="paint34_linear_95_207" x1="40.3108" y1="35.7812" x2="40.3108" y2="44.8882" gradientUnits="userSpaceOnUse">
<stop stop-color="#79B2E7"/>
<stop offset="1" stop-color="#F300F8" stop-opacity="0.05"/>
</linearGradient>
<linearGradient id="paint35_linear_95_207" x1="60.4672" y1="20.3857" x2="60.4672" y2="41.0035" gradientUnits="userSpaceOnUse">
<stop stop-color="#79B2E7"/>
<stop offset="1" stop-color="#F300F8" stop-opacity="0.05"/>
</linearGradient>
<linearGradient id="paint36_linear_95_207" x1="17.9484" y1="15.5652" x2="17.9484" y2="36.6029" gradientUnits="userSpaceOnUse">
<stop stop-color="#79B2E7"/>
<stop offset="1" stop-color="#F300F8" stop-opacity="0.05"/>
</linearGradient>
<linearGradient id="paint37_linear_95_207" x1="36.6107" y1="19.1443" x2="36.6107" y2="36.2338" gradientUnits="userSpaceOnUse">
<stop stop-color="#79B2E7"/>
<stop offset="1" stop-color="#F300F8" stop-opacity="0.05"/>
</linearGradient>
<linearGradient id="paint38_linear_95_207" x1="73.5874" y1="4.198" x2="73.5874" y2="19.6035" gradientUnits="userSpaceOnUse">
<stop stop-color="#79B2E7"/>
<stop offset="1" stop-color="#F300F8" stop-opacity="0.05"/>
</linearGradient>
<linearGradient id="paint39_linear_95_207" x1="45.7804" y1="2.53906" x2="45.7804" y2="14.3089" gradientUnits="userSpaceOnUse">
<stop stop-color="#79B2E7"/>
<stop offset="1" stop-color="#F300F8" stop-opacity="0.05"/>
</linearGradient>
<linearGradient id="paint40_linear_95_207" x1="57.3138" y1="36.1169" x2="57.3138" y2="52.0874" gradientUnits="userSpaceOnUse">
<stop stop-color="#79B2E7"/>
<stop offset="1" stop-color="#F300F8" stop-opacity="0.05"/>
</linearGradient>
<linearGradient id="paint41_linear_95_207" x1="51.8012" y1="40.1721" x2="51.8012" y2="54.8059" gradientUnits="userSpaceOnUse">
<stop stop-color="#79B2E7"/>
<stop offset="1" stop-color="#F300F8" stop-opacity="0.05"/>
</linearGradient>
<linearGradient id="paint42_linear_95_207" x1="51.8798" y1="2.64526" x2="51.8798" y2="13.9995" gradientUnits="userSpaceOnUse">
<stop stop-color="#79B2E7"/>
<stop offset="1" stop-color="#F300F8" stop-opacity="0.05"/>
</linearGradient>
<linearGradient id="paint43_linear_95_207" x1="48.6442" y1="42.1289" x2="48.6442" y2="54.9998" gradientUnits="userSpaceOnUse">
<stop stop-color="#79B2E7"/>
<stop offset="1" stop-color="#F300F8" stop-opacity="0.05"/>
</linearGradient>
<linearGradient id="paint44_linear_95_207" x1="41.7278" y1="6.35132" x2="41.7278" y2="9.53764" gradientUnits="userSpaceOnUse">
<stop stop-color="#79B2E7"/>
<stop offset="1" stop-color="#F300F8" stop-opacity="0.05"/>
</linearGradient>
<linearGradient id="paint45_linear_95_207" x1="79.0181" y1="4.24194" x2="79.0181" y2="4.75127" gradientUnits="userSpaceOnUse">
<stop stop-color="#79B2E7"/>
<stop offset="1" stop-color="#F300F8" stop-opacity="0.05"/>
</linearGradient>
<linearGradient id="paint46_linear_95_207" x1="47.86" y1="14.0051" x2="47.86" y2="14.5994" gradientUnits="userSpaceOnUse">
<stop stop-color="#79B2E7"/>
<stop offset="1" stop-color="#F300F8" stop-opacity="0.05"/>
</linearGradient>
<linearGradient id="paint47_linear_95_207" x1="72.0237" y1="19.0051" x2="72.0237" y2="19.2755" gradientUnits="userSpaceOnUse">
<stop stop-color="#79B2E7"/>
<stop offset="1" stop-color="#F300F8" stop-opacity="0.05"/>
</linearGradient>
<linearGradient id="paint48_linear_95_207" x1="80.5138" y1="4.86694" x2="80.5138" y2="5.20959" gradientUnits="userSpaceOnUse">
<stop stop-color="#79B2E7"/>
<stop offset="1" stop-color="#F300F8" stop-opacity="0.05"/>
</linearGradient>
<linearGradient id="paint49_linear_95_207" x1="44.7118" y1="9.59106" x2="44.7118" y2="10.003" gradientUnits="userSpaceOnUse">
<stop stop-color="#79B2E7"/>
<stop offset="1" stop-color="#F300F8" stop-opacity="0.05"/>
</linearGradient>
<linearGradient id="paint50_linear_95_207" x1="80.045" y1="4.67896" x2="80.045" y2="4.85325" gradientUnits="userSpaceOnUse">
<stop stop-color="#79B2E7"/>
<stop offset="1" stop-color="#F300F8" stop-opacity="0.05"/>
</linearGradient>
<linearGradient id="paint51_linear_95_207" x1="70.6947" y1="19.1846" x2="70.6947" y2="19.3305" gradientUnits="userSpaceOnUse">
<stop stop-color="#79B2E7"/>
<stop offset="1" stop-color="#F300F8" stop-opacity="0.05"/>
</linearGradient>
<linearGradient id="paint52_linear_95_207" x1="39.9336" y1="24.9646" x2="39.9336" y2="39.0029" gradientUnits="userSpaceOnUse">
<stop stop-color="#79B2E7"/>
<stop offset="1" stop-color="#F300F8" stop-opacity="0.05"/>
</linearGradient>
<linearGradient id="paint53_linear_95_207" x1="64.4419" y1="23.6865" x2="64.4419" y2="24.203" gradientUnits="userSpaceOnUse">
<stop stop-color="#79B2E7"/>
<stop offset="1" stop-color="#F300F8" stop-opacity="0.05"/>
</linearGradient>
<linearGradient id="paint54_linear_95_207" x1="50.0369" y1="20.4688" x2="50.0369" y2="35.7424" gradientUnits="userSpaceOnUse">
<stop stop-color="#79B2E7"/>
<stop offset="1" stop-color="#F300F8" stop-opacity="0.05"/>
</linearGradient>
<linearGradient id="paint55_linear_95_207" x1="52.1112" y1="19.624" x2="52.1112" y2="19.8584" gradientUnits="userSpaceOnUse">
<stop stop-color="#79B2E7"/>
<stop offset="1" stop-color="#F300F8" stop-opacity="0.05"/>
</linearGradient>
<linearGradient id="paint56_linear_95_207" x1="76.4565" y1="5.4834" x2="76.4565" y2="19.1941" gradientUnits="userSpaceOnUse">
<stop stop-color="#79B2E7"/>
<stop offset="1" stop-color="#F300F8" stop-opacity="0.05"/>
</linearGradient>
<linearGradient id="paint57_linear_95_207" x1="47.6648" y1="2.72583" x2="47.6648" y2="3.02537" gradientUnits="userSpaceOnUse">
<stop stop-color="#79B2E7"/>
<stop offset="1" stop-color="#F300F8" stop-opacity="0.05"/>
</linearGradient>
<linearGradient id="paint58_linear_95_207" x1="55.5188" y1="39.8083" x2="55.5188" y2="40.5" gradientUnits="userSpaceOnUse">
<stop stop-color="#79B2E7"/>
<stop offset="1" stop-color="#F300F8" stop-opacity="0.05"/>
</linearGradient>
<linearGradient id="paint59_linear_95_207" x1="51.3978" y1="9.03931" x2="51.3978" y2="9.26466" gradientUnits="userSpaceOnUse">
<stop stop-color="#79B2E7"/>
<stop offset="1" stop-color="#F300F8" stop-opacity="0.05"/>
</linearGradient>
<linearGradient id="paint60_linear_95_207" x1="51.5093" y1="9.26636" x2="51.5093" y2="9.32854" gradientUnits="userSpaceOnUse">
<stop stop-color="#79B2E7"/>
<stop offset="1" stop-color="#F300F8" stop-opacity="0.05"/>
</linearGradient>
</defs>
</svg>
