<svg width="28" height="28" viewBox="0 0 28 28" fill="none" xmlns="http://www.w3.org/2000/svg">
    <path d="M27.9999 14.3109C27.9999 13.1598 27.9046 12.3198 27.6983 11.4487H14.2856V16.6442H22.1586C21.9999 17.9354 21.1428 19.8798 19.238 21.1864L19.2113 21.3604L23.4521 24.58L23.7459 24.6087C26.4443 22.1665 27.9999 18.5731 27.9999 14.3109Z"
          fill="#4285F4"/>
    <path d="M14.2848 28C18.1419 28 21.38 26.7555 23.7451 24.6089L19.2372 21.1865C18.0308 22.011 16.4118 22.5866 14.2848 22.5866C10.5071 22.5866 7.30079 20.1444 6.15783 16.7688L5.99029 16.7827L1.58062 20.1272L1.52295 20.2843C3.87212 24.8577 8.69751 28 14.2848 28Z"
          fill="#34A853"/>
    <path d="M6.15866 16.769C5.85708 15.8979 5.68255 14.9645 5.68255 14.0001C5.68255 13.0356 5.85708 12.1023 6.1428 11.2312L6.13481 11.0456L1.66986 7.64746L1.52377 7.71556C0.555561 9.61336 0 11.7445 0 14.0001C0 16.2556 0.555561 18.3867 1.52377 20.2845L6.15866 16.769Z"
          fill="#FBBC05"/>
    <path d="M14.2849 5.4133C16.9674 5.4133 18.7769 6.54885 19.8087 7.4978L23.8404 3.64C21.3643 1.38445 18.142 0 14.2849 0C8.69755 0 3.87214 3.1422 1.52295 7.71549L6.14199 11.2311C7.30082 7.85555 10.5072 5.4133 14.2849 5.4133Z"
          fill="#EB4335"/>
</svg>
